<?xml version="1.0" encoding="UTF-8"?>
<svg xmlns="http://www.w3.org/2000/svg" viewBox="0 0 200 200">
  <defs>
    <style>
      .cls-1 {
        fill: #f2cb86;
      }

      .cls-2 {
        fill: #a8150e;
      }

      .cls-3 {
        fill: #fcb06b;
      }

      .cls-4 {
        fill: #edabac;
      }

      .cls-5 {
        fill: #a0a0a0;
      }

      .cls-6 {
        fill: #fff;
      }

      .cls-7 {
        fill: #ffb66e;
      }

      .cls-8, .cls-9 {
        fill: #f9d998;
      }

      .cls-10 {
        fill: #754423;
      }

      .cls-11 {
        fill: #b21e0f;
      }

      .cls-12, .cls-9 {
        opacity: .24;
      }

      .cls-13 {
        fill: #ecbe6b;
      }

      .cls-14 {
        fill: #7c4825;
      }

      .cls-15 {
        fill: #e56117;
      }

      .cls-16 {
        fill: #e96718;
      }
    </style>
  </defs>
  <g id="Colour">
    <g class="cls-12">
      <path class="cls-8" d="M100,169.1c38.59-12.14,96.24-53.69,89.23-99.14-7.06-34.62-50.97-50.34-78.7-30.05-3.04,2.23-6.75,3.35-10.52,3.35h0c-3.77,0-7.48-1.12-10.52-3.35-27.73-20.28-71.64-4.57-78.7,30.05-7.02,45.45,50.63,87,89.23,99.14"/>
    </g>
    <path class="cls-9" d="M79.17,78.87c-1.9-4.64-3.17-9.54-3.63-14.54-.45-5.01.21-10.13-1.12-15.03-.18-.65-.62-.99-1.12-1.11-.08-5.16,0-10.32.28-15.47.11-2.09-3.14-2.08-3.25,0-.49,8.99-.44,18,.19,26.97.31,4.41.76,8.8,1.33,13.18.43,3.27,1.22,8.48,5.74,8.06.92-.09,2-.99,1.57-2.06Z"/>
    <path class="cls-9" d="M48.7,31.87c-5.91,1.8-11.16,4.84-15.65,8.75-.28-1.03-1.7-1.81-2.77-.86-4.16,3.66-7.89,7.75-11.16,12.21-3.21,4.37-6.29,9.19-7.87,14.43-1.66,5.54-1.29,11.53-.62,17.2.62,5.27,1.75,10.47,3.93,15.33.52,1.15,1.09,2.27,1.74,3.35.61,1.03,1.34,2.59,2.47,3.12,1.03.48,2.22.1,2.75-.91.19-.35.27-.71.29-1.07,4.12-1.37,8.41-2.04,12.77-1.89,1.09.04,2.24.23,3.26-.28.82-.41,1.4-1.13,1.79-1.95.42-.87.7-1.78,1.2-2.62.51-.84,1.15-1.55,1.88-2.19,1.47.28,2.56-2.03,1.04-3.06-3.3-2.26-6.25-5.05-8.66-8.25-1.22-1.63-3.87-.23-2.81,1.64,1.84,3.24,4.25,6.06,7.1,8.43-.91,1.03-1.66,2.2-2.19,3.49-.18.44-.38,1.43-.85,1.62-.37.15-1.15-.05-1.55-.06-.63-.02-1.26-.03-1.89-.03-3.98.05-7.95.71-11.73,1.95-1.39-5.15-2.25-10.43-2.46-15.76-.41-10.57,1.73-21.27,7.24-30.38,5.35-8.85,13.63-16.01,23.61-19.05,2-.61,1.14-3.75-.86-3.13Z"/>
    <path class="cls-9" d="M109.92,64.2c-.42-4.05-2.7-7.86-5.02-11.11-2.35-3.3-5.07-6.29-7.8-9.27-1.42-1.54-3.71.76-2.3,2.3,1.26,1.37,2.51,2.74,3.73,4.14-.67.42-1.05,1.23-.46,2.07,2.39,3.44,4.5,7.06,6.29,10.85.44.94.87,1.88,1.26,2.84.39.94.7,1.98,1.81,2.28,2.46.66,2.65-2.55,2.49-4.11Z"/>
    <path class="cls-9" d="M189.54,73.1c-3.26-13.01-11.13-24.59-21.81-32.66-3.01-2.27-6.24-4.23-9.64-5.85-.56-.27-1.1-.2-1.53.04-1.27-.9-2.57-1.76-3.91-2.55-1.8-1.07-3.44,1.74-1.64,2.81,11.11,6.61,19.91,17.01,24.62,29.06,1.36,3.48,2.37,7.07,3.05,10.74-6.67,1.25-13.08,3.49-17.77,8.55-4.82-4.95-11.73-7.75-18.64-7.56,7.05-9.87,7.45-22.69,7.51-34.52.01-2.09-3.24-2.09-3.25,0-.01,2.3-.03,4.66-.11,7.03-.8.02-1.64.53-1.74,1.55-.91,9.23-3.34,18.32-7.19,26.77-.56,1.23.51,2.65,1.65,2.48.21.1.44.16.68.12,7.52-1.01,15.09,1.89,19.97,7.71.75.89,1.98.42,2.55-.33,5.83-7.59,16.28-8.82,25.1-9.78,1.11-.12,1.62-1.12,1.54-1.98.47-.35.75-.92.57-1.65Z"/>
    <path class="cls-6" d="M39.51,34.16c-7.18,9.33-10.38,20.99-11.39,32.56-.95,10.84-1.33,25.08,8.83,31.94,4.67,3.15,10.5,2.97,15.51.77,5.45-2.4,9.4-6.94,12.63-11.8s6.3-10.49,9.94-15.42,7.72-9.39,12.51-13.05,9.96-6.34,15.66-7.77c4.75-1.19,11.6-2.1,15.09,2.26,3.05,3.81,1.98,9.55-.32,13.42-3.03,5.1-7.96,8.73-11.9,13.08s-7.15,9-9.39,14.28c-1.11,2.61-1.96,5.32-2.44,8.11s-.89,5.83.22,8.47c2.14,5.11,8.98,5.88,13.8,5.47,5.49-.46,10.72-2.63,14.91-6.21,4.59-3.93,7.07-9.46,9.61-14.8,2.3-4.83,4.93-9.59,8.33-13.75s7.23-7.52,12.03-9.48,11.6-2.76,15.32,1.7c1.54,1.84,2.19,4.27,1.42,6.57-.66,1.99,2.48,2.84,3.13.86,1.7-5.12-1.58-10.61-6.3-12.69-5.26-2.32-11.33-1.14-16.34,1.26-9.72,4.66-15.92,14.49-20.4,23.89-2.5,5.26-4.9,10.75-9.55,14.51-4.14,3.35-9.54,5.13-14.85,4.96-2.4-.07-5.29-.43-7.14-2.12-2.05-1.9-1.49-5.32-1.07-7.78.95-5.63,3.41-10.85,6.64-15.52s7.66-8.64,11.71-12.83c3.81-3.93,7.02-8.43,7.58-14.02.49-4.95-1.54-10.1-6.19-12.35-5.11-2.47-11.37-1.51-16.6.08-11.64,3.52-20.91,11.89-28.05,21.46-3.63,4.87-6.54,10.16-9.85,15.23-3.12,4.78-7.01,9.44-12.53,11.45-5.24,1.9-10.51.76-14.21-3.48-3.95-4.52-4.8-10.79-4.9-16.58-.19-11.48,1.41-23.5,6.72-33.8,1.31-2.55,2.85-4.96,4.6-7.24.54-.7.1-1.81-.58-2.22-.83-.5-1.69-.11-2.22.58h0Z"/>
    <path class="cls-16" d="M119.96,153.05c-1.57-4.45-1.96-9.23-4.23-13.44-.54-1-1.78-.96-2.55-.33-4.7,3.82-9.4,7.64-14.1,11.46-.16-.08-.33-.15-.49-.23-.38-.2-.82-.28-1.24-.17-1.86-1.23-4.01-2.1-6.01-3.06-2.39-1.15-4.78-2.3-7.17-3.45-.43-.2-.9-.25-1.32-.12-.11-.02-.21-.06-.33-.08-.22-.07-.43-.08-.65-.03-.22,0-.42.07-.6.19-.03.02-.06.05-.09.07-.82.2-1.6.59-2.24,1.13-1.58,1.32-1.98,3.64-1.37,5.54.36,1.12,1,2.15,1.85,2.97.07.06.14.12.22.17.27,2.58.82,5.17,1.52,7.61.16.55.73,1.14,1.35,1.19.21.14.46.23.76.27,2.9.3,5.73,1.07,8.47,2.07,2.77,1.02,5.32,2.43,7.99,3.65,1.25.57,2.57.9,3.92.48,1.28-.4,2.47-1.24,3.61-1.94,2.07-1.25,4.09-2.59,6.08-3.97.26-.01.53-.07.79-.19,1.23-.55,2.46-1.1,3.68-1.66,1.04-.47,2.33-.85,3.15-1.69,1.9-1.95-.29-4.49-.99-6.47Z"/>
    <path class="cls-16" d="M128.19,135.78c-.18-1.64,0-3.87-1.68-4.77-1.67-.89-3.17.18-4.18,1.46-.2-.03-.42-.02-.64.06-.77.25-1.46,1.15-1.14,2,1.23,3.23,2.31,6.52,3.24,9.85.23.82,1.16,1.41,2,1.13.07-.02.13-.05.19-.08,0,.01,0,.02,0,.03-.43.51-.48,1.24-.17,1.87.45.92,1.43,1.19,2.37,1.01.63-.12,1.26-.91,1.19-1.57l-1.19-10.99Z"/>
    <path class="cls-11" d="M147.41,101.75c-4.51.23-8.68-.76-12.94-2.16-3.48-1.14-6.97-2.2-10.53-3.08.61-.7,1.21-1.42,1.78-2.13,2.27-2.75,4.37-5.63,6.27-8.64,3.81-6.02,6.85-12.54,9.03-19.32,1.24-3.86,2.19-7.8,2.86-11.8.15-.91-.38-1.59-1.06-1.88.67-2.34,1.34-4.68,1.99-7.02.3-.29.6-.59.88-.91.67-.76.46-1.7-.08-2.28-.09-1.6-2.68-2.12-3.19-.31-.16.57-.32,1.14-.48,1.71-2.5,2.17-5.6,3.5-8.64,4.82-3.85,1.67-7.55,3.56-11.06,5.87-6.4,4.22-11.99,9.51-16.62,15.6-2.53-8.35-6.18-16.36-10.84-23.76-.58-.92-1.61-.91-2.32-.45-1.88-3.18-3.9-6.28-6.04-9.28-2.44-3.41-5.05-6.71-7.8-9.87-.13-.15-.27-.25-.41-.34-.08-.57-.16-1.14-.28-1.7-.42-2.05-3.55-1.18-3.13.86,1.21,5.93.2,12.17.37,18.18.17,5.83.87,11.64,2,17.36.05,3.03.05,6.06-.03,9.1-.02.83.48,1.33,1.1,1.5.28,3.05.67,6.09,1.19,9.12-5.07,0-10.15,0-15.22,0-.36-.37-.88-.59-1.51-.48-.99.18-1.97.36-2.96.53-.5.09-.82.37-1,.73-6.68-.46-13.36-.91-20.04-1.4-.67-.05-1.12.26-1.36.7-.05-.03-.11-.06-.16-.09-1.81-1.05-3.45,1.75-1.64,2.81,4.98,2.9,7.99,6.3,13.03,9.1-.4.77,1.92,1.11,2.63,1.58,4.33,2.81,8.77,5.44,13.32,7.87.77.41,1.77.19,2.22-.58.11-.18.17-.39.2-.6,5.13,2.7,10.28,5.35,15.46,7.95-.13.55-.27,1.1-.42,1.64-.21.13-.41.31-.56.57-4.29,7.31-9.22,14.21-14.78,20.61-1.01,1.17-.07,3.2,1.58,2.72.36-.11.72-.25,1.06-.41.1.02.2.02.31,0,8.51-1.06,17.27-2.94,24.01-8.59,4.81-4.03,7.88-9.59,10.01-15.46,2.33.39,4.67.72,7.01.98.13.67.64,1.24,1.53,1.21,9.32-.29,19.37,1.37,27.36-4.49l.49-.22c2.27-.99,4.84-2.6,7.38-2.63,2.07-.11,2.11-3.28,0-3.25Z"/>
    <path class="cls-1" d="M112.63,133.95c-.25-1.39-.57-2.76-.96-4.11-1.65-5.71-4.49-10.97-8.26-15.56-.52-.63-1.78-.63-2.3,0-2.63,3.23-4.11,7.1-6.34,10.58-1.11,1.73-2.46,3.26-4.26,4.29-2.23,1.27-4.87,1.88-7.34,2.5-5.35,1.36-10.82,2.17-16.33,2.41-1.05.04-2.17.19-3.19-.07-.04-.01-.07-.02-.1-.03.41-.49.81-.98,1.22-1.47,1.68-2.01,3.31-4.06,4.91-6.14,3.68-4.8,7.12-9.79,10.31-14.93.45-.73.17-1.81-.58-2.22-2.18-1.2-4.43-2.25-6.75-3.17-1.2-.47-2.41-.9-3.64-1.28-1.2-.38-2.46-.84-3.71-.42-.78.26-1.32.86-1.85,1.47-.44-.31-1.03-.4-1.65-.04-.63.39-1.26.78-1.89,1.18-.13.08-.26.17-.39.25-3.64,2.34-7.03,4.92-9.54,8.55-.13.18-.24.37-.36.56-.42-.05-.86.08-1.23.51-3.31,3.82-6.14,8-8.42,12.52,0,.01,0,.03-.01.04-.58.57-.78,1.52-.03,2.25,11.15,10.85,23.83,20.1,37.59,27.38,1.31.69,3.26-.83,2.22-2.22-1.54-2.07-2.22-4.52-2.31-7.08-.07-2.02.14-4.34,1.45-5.98,1.59-1.99,4.2-1.73,6.38-1.06,2.75.85,5.34,2.28,7.93,3.49,1.31.61,2.62,1.23,3.94,1.83,1.25.58,2.42,1.08,3.76.47,1.1-.5,2.05-1.45,3-2.18,1.22-.94,2.44-1.88,3.66-2.82,1.16-.89,2.31-1.78,3.47-2.67,1.09-.84,1.92-1.74,2.02-3.18.08-1.19-.22-2.46-.43-3.62Z"/>
    <path class="cls-1" d="M164.29,127.91c-.03-.78-.61-1.52-1.4-1.61-2.62-4.41-5.76-8.44-9.57-11.94-.61-.56-1.35-.53-1.91-.21-2.2-2.33-4.48-4.57-6.86-6.72-.63-.57-1.38-.52-1.95-.18-.22.03-.43.09-.61.18-3.24,1.49-6.67,2.52-10.18,3.14-1.2.21-1.4,1.37-.95,2.23-.86.09-1.73.17-2.59.22-5.15.3-10.3-.02-15.43-.44-.22-.02-.41,0-.58.06-1.24-.53-2.95.83-2.08,2.3,3.11,5.25,6.03,10.62,8.75,16.09.4.81,1.49.97,2.22.58,1.05-.56,2.12-1.05,3.25-1.45.62-.22,1.26-.42,1.9-.6.4-.11,1.15-.43,1.56-.29.65.23.78,1.73.91,2.29.3,1.33.57,2.67.81,4.01.7,3.91,1.11,7.86,1.29,11.82-.41,1.84-.82,3.68-1.23,5.53-.27,1.23,1.17,2.76,2.39,1.84l21.81-16.68c.33.04.66-.02.93-.22.11-.08.22-.17.33-.26h0s.01-.01.02-.02c1.73-1.29,3.4-2.66,4.98-4.12.81-.74,1.59-1.51,2.35-2.3.14-.14.28-.29.42-.44.94-.14,1.66-1.04,1.33-2.06.06-.24.1-.49.1-.76Z"/>
    <path class="cls-14" d="M127,152.39c-1.3-2.74-2.62-5.46-3.86-8.23-2.41-5.41-4.68-10.89-7.16-16.28-2.84-6.16-5.97-12.2-9.84-17.78-1.18-1.71-4-.08-2.81,1.64,2.43,3.51,4.56,7.19,6.52,10.97-.91.11-1.72.86-1.33,1.96,2.11,6.06,4.47,12.02,7.09,17.88,1.28,2.86,2.62,5.7,4.03,8.5.7,1.4,1.42,2.8,2.15,4.18.67,1.26,1.15,2.85,2.79,2.99,1.19.1,2.33-.67,2.85-1.71.69-1.37.18-2.84-.43-4.12Z"/>
    <path class="cls-7" d="M62.69,101.55c-2.12-.3-3.97-1.26-5.84-2.24-1.79-.94-3.55-1.94-5.28-3-.93-.57-1.85-1.15-2.76-1.76-.72-.48-1.42-1.03-2.35-.91-.95.13-1.44.87-1.92,1.6-.56.86-1.13,1.69-1.79,2.47-.65.78-1.35,1.51-2.08,2.21-.5.47-1.09,1.2-1.77,1.38-.85.23-2.03.03-2.92.08-1.07.06-2.13.15-3.19.28-4.1.5-8.09,1.5-11.93,3.03-.47.19-.77.51-.93.89-.65.44-1.01,1.48-.51,2.17,2.72,3.74,5.29,7.72,8.3,11.23.25.29.52.56.8.82-.14.48-.04,1.01.48,1.45,2.53,2.15,4.87,4.48,7.03,7,.68.71,1.51.6,2.08.12.55.28,1.23.27,1.8-.29.97-.96,1.36-2.15,1.84-3.38.52-1.32,1.27-2.55,2.1-3.7,1.63-2.27,3.62-4.3,5.51-6.35,1.91-2.06,3.88-4.07,6.05-5.86,2.11-1.74,4.57-3.55,7.3-4.1,1.5-.3,1.6-2.91,0-3.13Z"/>
    <path class="cls-7" d="M187.48,76c-8.96,3.54-19.42,4.28-26.61,11.3-4.3-4.94-10.89-7.15-17.38-7.78-1.75-.17-3.79-.5-5.38.44-1.5.89-2.14,2.7-2.97,4.13-2.01,3.47-4.53,6.57-7.46,9.3-.44.41-.56.89-.47,1.34-.43.82-.25,2.05.9,2.44,7.62,2.61,15.67,3.3,23.67,3.76-1.31,2.1-3.12,3.89-5.77,3.88-1.51,0-2.34,2.34-.82,3.03,4.18,1.89,7.8,4.65,11.24,7.65.95.83,1.91,1.67,2.85,2.52-.31.45-.41,1.04-.07,1.66,1.5,2.69,3.43,5.11,5.73,7.17,1.13,1.01,2.6.23,2.77-1.15.03-.25.04-.49.04-.73.08-.05.15-.11.23-.18,2.57-2.42,5.12-4.86,7.26-7.68,2.3-3.03,3.85-6.47,5.44-9.9,3.22-6.94,6.38-13.95,8.49-21.32.3-1.06-.42-1.79-1.25-1.96.55-1.96,1.07-3.94,1.55-5.92.26-1.09-.78-2.48-2-2Z"/>
    <path class="cls-13" d="M79.95,155.5c-5.97-4.51-12.81-7.6-19.18-11.46-6.66-4.03-12.76-9-18.96-13.72,2.66-4.91,5.9-9.49,9.79-13.52,2.13-2.21,4.42-4.27,6.9-6.08,2.52-1.85,5.36-3.85,8.55-4.23.88-.1,1.61-.67,1.62-1.62,0-.8-.75-1.73-1.62-1.62-3.58.43-6.63,2.14-9.53,4.2-2.73,1.94-5.29,4.1-7.65,6.48-4.77,4.81-8.7,10.43-11.77,16.46-.68,1.33.57,2.55,1.68,2.45,6.33,4.8,12.54,9.89,19.34,14.01.28.17.57.33.85.5-.18.64-.04,1.37.67,1.83,3.44,2.29,6.89,4.58,10.33,6.86,2.48,1.65,5.97,4.4,8.98,2.27,1.06-.75,1.01-2.04,0-2.81Z"/>
    <path class="cls-13" d="M113.2,134.58c-2.75-5.7-5.39-11.46-7.9-17.27-.17-.4-.56-.65-.99-.75-.01-.14-.03-.29-.05-.43-.16-2.09-3.08-2.09-3.25,0-.18,2.26-1.62,4.16-3.1,5.78-1.69,1.84-3.52,3.6-5.4,5.25-3.8,3.33-8.36,6.11-13.56,6.12-2.09,0-2.09,3.26,0,3.25,6.09-.02,11.41-3.17,15.86-7.07,2.46-2.15,5.33-4.6,7.26-7.49,1.14,4.06,3.01,7.89,5.09,11.6-2.81-.79-5.83-.85-8.67-.07-2.26.63-4.34,1.75-6.16,3.23-1.88,1.53-3.73,3.61-3.83,6.14-.08,2.09,3.17,2.09,3.25,0,.06-1.62,2-3.2,3.21-4.1,1.5-1.11,3.22-1.89,5.04-2.3,3.82-.87,7.79.19,10.89,2.52.71.53,1.81.11,2.22-.58.39-.65.23-1.33-.19-1.84.53-.51.6-1.31.27-1.98Z"/>
    <path class="cls-13" d="M164.35,126.83c-4.11-8.3-11.08-15.13-19.47-19.05-.09-1.16-1.66-2.16-2.81-1.12-8.21,7.38-20.82,9.4-30.9,4.85-1.89-.85-3.55,1.95-1.64,2.81,10.58,4.77,23.26,3.34,32.53-3.5,6.89,5.25,13.04,11.52,18.15,18.51.03.05.07.09.11.13-1.48,1.32-3.08,2.5-4.69,3.68-2.78,2.06-5.57,4.12-8.35,6.18-4.09,3.02-8.17,6.04-12.26,9.07-.09-.02-.17-.05-.27-.06-.47-.04-.94-.05-1.41-.06,0-.1-.03-.21-.06-.3-.29-.89-1.1-1.31-2-1.13-.99.19-1.99.51-2.69,1.28-.49.55-.8,1.2-.84,1.94-.05.88.41,1.68,1.22,2.03.34.15.72.18,1.09.18-.71,1.35.69,3.3,2.14,2.22,5.7-4.22,11.4-8.43,17.1-12.65,2.78-2.06,5.57-4.12,8.35-6.18,2.55-1.89,5.16-3.74,7.24-6.15.84-.97.29-2.21-.57-2.66Z"/>
    <path class="cls-3" d="M63.09,101.26c-2.25-1.53-4.71-2.65-7.18-3.77-2.76-1.25-5.53-2.5-8.29-3.75-.69-.31-1.39-.27-1.97.25-1.77,1.62-3.44,3.33-5,5.15-.67.78-1.32,2.01-2.14,2.62-.73.53-2.15.47-3.04.62-4.97.79-9.88,1.88-14.73,3.22-1.81.5-1.3,3.08.29,3.19.12.15.23.31.35.46-.32.57-.36,1.3.17,1.93,3.79,4.53,7.67,8.99,11.65,13.37.95,1.05,1.87,2.3,2.96,3.19,1.21.98,2.51.52,3.37-.62,1.72-2.3,3.23-4.79,4.61-7.31.02-.03.02-.06.03-.09,3.11-2.64,6.21-5.29,9.19-8.07,1.53-1.42,2.99-2.91,4.48-4.37,1.41-1.37,2.88-2.62,4.85-3.05,1.46-.32,1.47-2.24.39-2.97ZM51.76,108.71c-3.14,2.97-6.41,5.78-9.7,8.57-6.72-.78-13.1-4.19-17.52-9.31,4.21-1.07,8.46-1.95,12.75-2.6,1.1-.17,2.21-.23,3.11-.94.9-.71,1.53-1.76,2.26-2.63,1.4-1.66,2.91-3.22,4.49-4.71,2.37,1.07,4.75,2.15,7.12,3.22,1.49.67,2.97,1.36,4.41,2.13-2.62,1.62-4.74,4.23-6.92,6.29Z"/>
    <path class="cls-3" d="M136.72,80.86c-1.67,5.64-4.74,10.77-8.92,14.91-1.49,1.47.81,3.77,2.3,2.3,4.57-4.53,7.94-10.18,9.76-16.35.59-2.01-2.54-2.87-3.13-.86Z"/>
    <path class="cls-3" d="M188.63,77.54c-.11-.88-.67-1.61-1.62-1.62-.79,0-1.73.75-1.62,1.62.55,4.39-1.23,8.51-2.82,12.5-1.44,3.6-2.97,7.19-5.06,10.47-2.2,3.46-5.14,6.18-8.19,8.88-2.09,1.86-4.25,3.73-6.65,5.2-.8-.69-1.67-1.31-2.51-1.93-3.03-2.24-6.14-4.38-9.31-6.42,1.29-.9,2.49-1.92,3.57-3.07,1.43-1.52-.86-3.82-2.3-2.3-1.5,1.6-3.2,2.91-5.12,3.96-1.1.6-1,2.18,0,2.81,2.74,1.71,5.41,3.52,8.06,5.37,0,.24.05.5.17.76,1.49,3.08,3.51,5.88,5.93,8.28.36.48.71.97,1.07,1.45,1,1.35,2.14,2.55,3.99,2.14,1.67-.37,2.96-1.81,4.07-3.01,1.23-1.33,2.35-2.77,3.37-4.26,2.08-3.01,3.77-6.27,5.42-9.53,1.8-3.57,3.6-7.14,5.2-10.81,1.78-4.1,3.32-8.29,4.25-12.66.13-.6-.05-1.09-.38-1.44.51-2.07.77-4.19.5-6.36Z"/>
    <path class="cls-2" d="M84.3,70.79c-.72-4.8-1.62-9.58-2.49-14.35-1.77-9.61-3.42-19.27-3.31-29.07.02-2.09-3.23-2.09-3.25,0-.05,4.12.22,8.22.67,12.31-.09.14-.17.29-.19.47-1.91,13.69,4.2,26.74,3.68,40.38-.04,1.09,1.07,1.81,2.06,1.57,5-1.22,3.37-7.71,2.83-11.29Z"/>
    <path class="cls-2" d="M146.6,101.05c-5.2-.65-10.38-1.48-15.52-2.49-1.18-.23-2.37-.47-3.54-.72-.63-.13-1.26-.27-1.89-.41-.18-.04-.35-.08-.53-.12.1-.11.21-.22.31-.33.36-.4.72-.8,1.07-1.21.75-.87,1.46-1.77,2.15-2.68,5.27-6.95,8.76-15.13,11.14-23.47,1.37-4.79,2.36-9.67,3.15-14.58.09-.59-.1-1.08-.43-1.43.97-3.38,1.72-6.82,1.79-10.35.04-2.09-3.21-2.09-3.25,0-.08,4.07-1.18,7.99-2.39,11.85-1.16,3.7-2.46,7.36-3.89,10.96-2.82,7.15-6.18,14.09-9.99,20.77-2.18,3.82-4.52,7.55-7,11.19-.47.69-.17,1.85.58,2.22,3.93,1.94,8.13,4.03,10.88,7.48-3.24.78-6.58,1.03-9.95.82-2.48-.15-4.93-.54-7.35-1.1-1.21-.28-2.4-.6-3.59-.96-1.19-.36-2.41-.86-3.67-.89-2.51-.07-3.94,1.71-5.29,3.56-1.37,1.87-2.55,3.87-3.74,5.86-2.38,3.99-4.85,7.99-8.75,10.68-3.46,2.39-7.47,3.77-11.6,4.38,1.07-1.78,1.92-3.73,2.99-5.49,2.82-4.62,6.16-8.88,9.51-13.12.6-.76.7-2.03-.33-2.55-16.38-8.34-32.39-17.39-47.98-27.11-.51-.32-1.01-.31-1.42-.11-.54-.15-1.13-.06-1.54.39-.56.61-.69,1.71,0,2.3,2.37,2.03,4.83,3.95,7.37,5.77.68.49,1.78.16,2.19-.53,11.73,7.07,23.67,13.77,35.83,20.07-.13.11-.26.25-.37.42-4.42,7.26-9.08,14.37-13.98,21.32-.61.87.03,2.13.97,2.39,1.18.32,2.3.18,3.31-.27.19.07.41.11.66.09,4.63-.29,9.19-1.36,13.32-3.5,1.27-.66,2.45-1.43,3.55-2.27.54.7,1.61,1.04,2.44.25,3.97-3.77,7-8.38,8.97-13.48.18-.47.04-.98-.26-1.37.28-.43.56-.87.85-1.29.62-.91,1.27-2.04,2.14-2.74.98-.79,2.29-.12,3.35.21,1.25.39,2.51.74,3.79,1.05,2.41.58,4.87.99,7.33,1.21,4.46.41,9,.09,13.3-1.15.39.23.87.32,1.26.17,5.11-1.85,10.07-4.06,14.86-6.62,1.57-.84.64-2.85-.82-3.03ZM134.75,106.36c-.34-.17-.73-.24-1.09-.09-.37.15-.74.29-1.11.42-1.63-2.39-3.82-4.25-6.25-5.82.59.13,1.19.26,1.78.38,4.36.9,8.74,1.65,13.14,2.3-2.12,1.01-4.29,1.93-6.47,2.8Z"/>
    <path class="cls-15" d="M120.13,152.99c-.87-2.05-1.77-4.09-2.73-6.1-.58-1.22-1.37-2.5-1.86-3.84-.19-.75-.35-1.51-.49-2.28-.32-1.79-3.32-1.39-3.19.43.01.15.04.29.06.43,0,0,0,0,0,0,0,0,0,0,0,.01.08.65.21,1.29.4,1.92.51,2.15,1.21,4.24,2.11,6.27.93,2.1,3.37,5.04,1.68,7.3-1.41,1.89-4.18,2.9-6.22,3.89-2.36,1.14-4.78,2.16-7.23,3.1-.61-.33-1.32-.53-1.94-.76-1.15-.43-2.3-.85-3.45-1.27-2.03-.74-4.07-1.47-6.11-2.2-.15-.56-.17-1.09.18-1.72.55-1,0-2-.97-2.39-2.09-.83-4.38-1.72-5.83-3.52-1.53-1.9-2.04-4.67-2.2-7.03-.06-.88-.71-1.62-1.62-1.62-.83,0-1.68.74-1.62,1.62.06.94.18,1.9.35,2.85-.23.26-.38.61-.37,1.06.07,2.41.48,4.82,1.29,7.1.75,2.12,1.79,4.31,3.54,5.79,1.46,1.24,3.71,2.27,5.7,1.87,2.99,1.76,6.1,3.38,9.48,4.19,1.04.25,2.34.62,3.4.36.73-.18,1.23-.71,1.46-1.34,2.63-1.02,5.23-2.14,7.77-3.38,1.55-.75,3.23-1.52,4.69-2.54.21.52.69.92,1.43.89,1.76-.07,3.17-1.25,3.63-2.95.57-2.11-.56-4.25-1.35-6.14ZM87.78,159.42c-.43.07-.79.33-1.04.69-.15-.09-.3-.17-.43-.27-.95-.72-1.61-1.78-2.13-2.83-.17-.34-.32-.69-.47-1.04,1.25.98,2.71,1.69,4.19,2.32-.08.37-.13.75-.12,1.14,0,0,0,0,0,0Z"/>
    <path class="cls-15" d="M128.97,145.6c-1.64-4.38-3.71-8.57-6.23-12.51-.47-.74-1.44-1.04-2.22-.58-.74.43-1.06,1.48-.58,2.22,2.36,3.7,4.36,7.62,5.9,11.74.31.82,1.1,1.38,2,1.13.79-.22,1.44-1.17,1.14-2Z"/>
    <path class="cls-2" d="M128.26,70.76c-6.32,6.84-13.12,13.5-20.55,19.14-1.89,1.43-3.91,2.78-6.05,3.82-1.31-3.45-2.67-6.89-3.91-10.37-1.46-4.11-2.61-8.27-3.68-12.49-1.06-4.16-2.27-8.29-4.4-12.05-1.03-1.82-3.84-.18-2.81,1.64,2.1,3.71,3.19,7.81,4.23,11.91,1.05,4.16,2.23,8.25,3.68,12.29,1.24,3.44,2.58,6.85,3.88,10.27-.8.25-1.6.46-2.44.6-4.67.76-9.66-.33-14.27-1.03-5.33-.8-10.62-1.86-15.65-3.84-1.95-.77-2.79,2.37-.86,3.13,4.66,1.84,9.57,2.88,14.51,3.66,4.91.77,10.12,1.87,15.1,1.46,1.64-.13,3.22-.47,4.75-.96.48,1.3.93,2.6,1.37,3.91-.47.19-.78.64-.9,1.15-.52.11-.98.45-1.2,1.08-2.49,7.44-7.58,13.9-14.21,18.09-1.76,1.11-.14,3.93,1.64,2.81,7.3-4.6,12.82-11.63,15.62-19.78.04.01.09.03.13.04.42,1.4.82,2.81,1.17,4.24.12.51.42.82.77.99.58-.26,1.25-.41,2.01-.42.33-.35.51-.84.36-1.44-.19-.79-.41-1.57-.62-2.35,5.11,1.28,10.35,2.07,15.62,2.35,2.09.11,2.08-3.14,0-3.25-5.66-.3-11.25-1.23-16.7-2.75-.63-1.96-1.32-3.91-2.03-5.84,5.93-2.73,11.06-7.56,15.76-11.82,4.17-3.78,8.17-7.75,11.99-11.88,1.42-1.53-.88-3.84-2.3-2.3Z"/>
    <path class="cls-10" d="M127.85,153.3c-.15-.51-.41-1-.62-1.49-.19-.44-.38-.87-.56-1.31l-1.16-2.7c-.22-.51-.89-.8-1.4-.8-.58,0-1.1.31-1.4.8-1.03,1.67-1.59,3.52-1.78,5.46-.03.34.09.67.31.95-.1,1.11-.06,2.23.14,3.34.22,1.27,1.89,1.47,2.72.72.64-.59,1.29-1.18,1.93-1.78.2-.08.38-.2.52-.35.1-.11.17-.22.24-.33.73-.67,1.4-1.44,1.09-2.51Z"/>
    <path class="cls-6" d="M51.73,65.03c2.09,0,2.09-3.25,0-3.25s-2.09,3.25,0,3.25h0Z"/>
    <path class="cls-6" d="M59.71,54.93c.33-.62.7-1.2,1.13-1.76l-.25.33c.65-.84,1.4-1.59,2.24-2.24l-.33.25c.6-.46,1.24-.86,1.91-1.2.76-.39,1.04-1.52.58-2.22-.5-.78-1.41-1-2.22-.58-2.47,1.25-4.57,3.33-5.86,5.78-.4.75-.22,1.8.58,2.22.75.4,1.8.22,2.22-.58h0Z"/>
    <path class="cls-6" d="M155.51,57.75c.4.08.79.2,1.16.36l-.39-.16c.47.2.91.46,1.32.77l-.33-.25c.42.33.8.7,1.13,1.13l-.25-.33c.29.37.53.78.72,1.21.16.35.62.65.97.75.39.11.91.06,1.25-.16s.65-.56.75-.97l.06-.43c0-.29-.07-.57-.22-.82-.94-2.11-3.05-3.76-5.31-4.21-.43-.09-.86-.06-1.25.16-.34.2-.66.58-.75.97-.09.42-.07.88.16,1.25.22.34.56.66.97.75h0Z"/>
    <path class="cls-6" d="M168.97,101.51c2.09,0,2.09-3.25,0-3.25s-2.09,3.25,0,3.25h0Z"/>
    <path class="cls-6" d="M162.89,107.01c2.09,0,2.09-3.25,0-3.25s-2.09,3.25,0,3.25h0Z"/>
    <path class="cls-6" d="M47.96,106.14c2.09,0,2.09-3.25,0-3.25s-2.09,3.25,0,3.25h0Z"/>
    <path class="cls-6" d="M40.15,114.54c2.09,0,2.09-3.25,0-3.25s-2.09,3.25,0,3.25h0Z"/>
  </g>
  <g id="Layer_1" data-name="Layer 1">
    <path class="cls-4" d="M76.79,136.4c-.85-1.4-2.2-2.44-3.84-3.18-.74.52-1.68.85-2.83.85-1.95,0-3.31-.92-4.08-2.2-9.03-.08-18.86,5.21-11.84,13.25,6.5,5.93,28.8,4.17,22.59-8.72Z"/>
    <path class="cls-4" d="M145.38,136.4c-2.76-4.54-10.8-5.43-17.02-3.73v15.08c8.84,2.12,21.97-1.08,17.02-11.35Z"/>
    <g>
      <path class="cls-5" d="M74.42,30.97c-14.39-3.76-30.15-1.07-42.72,6.82-12.71,7.98-22.14,21.57-23.05,36.78s4.73,28.66,12.89,40.49c9,13.04,20.92,23.91,33.8,33.04,12.21,8.66,25.58,15.95,39.68,21.02,1.5.54,3.02,1.05,4.54,1.53,2,.63,2.85-2.5.86-3.13-13.41-4.24-26.12-10.75-37.87-18.43-12.81-8.36-24.75-18.41-34.31-30.41-8.58-10.77-15.4-23.75-16.33-37.7-.48-7.14.62-14.06,3.67-20.57s7.58-12.09,13.14-16.56c10.91-8.78,25.78-12.93,39.65-10.83,1.74.26,3.47.63,5.17,1.07,2.03.53,2.89-2.61.86-3.13h0Z"/>
      <path class="cls-5" d="M100.43,170.66c16.78-5.3,32.63-13.98,46.77-24.39s28.48-24.21,36.93-40.62c3.9-7.58,6.56-15.82,7.18-24.35.3-4.13.23-8.49-.67-12.54s-2.35-8-4.27-11.68c-7.48-14.36-22.2-24.18-38.01-26.94-7.91-1.38-16.12-1.1-23.85,1.14-3.93,1.14-7.73,2.78-11.25,4.88-1.99,1.19-3.79,2.71-5.85,3.76-2.41,1.23-5.14,1.77-7.84,1.71-2.96-.07-5.79-.93-8.31-2.47-1.79-1.1-3.42,1.71-1.64,2.81,4.79,2.93,10.77,3.71,16.16,2.09,4.44-1.34,7.91-4.61,12.01-6.67,6.92-3.48,14.72-5.03,22.45-4.82,15.33.43,30.68,7.87,39.75,20.38,4.72,6.51,7.77,14.2,8.16,22.26s-1.32,16.26-4.45,23.77c-6.82,16.38-19.64,29.89-33.33,40.82s-29.07,19.9-45.42,25.91c-1.77.65-3.56,1.26-5.36,1.83-1.99.63-1.14,3.77.86,3.13h0Z"/>
      <g>
        <path class="cls-5" d="M143.1,108.34c8.39,5.13,15.6,12.03,20.56,20.56,1.05,1.81,3.86.17,2.81-1.64-5.24-9-12.87-16.32-21.72-21.73-1.79-1.09-3.42,1.72-1.64,2.81h0Z"/>
        <path class="cls-5" d="M39.35,131.66c5.76-12.24,15.71-21.55,27.84-27.38,1.88-.9.24-3.71-1.64-2.81-12.57,6.03-23.04,15.86-29,28.54-.89,1.88,1.91,3.53,2.81,1.64h0Z"/>
        <path class="cls-5" d="M90.67,143.58c.08-.52.23-1.03.43-1.51l-.16.39c.22-.52.5-1.01.85-1.46l-.25.33c.17-.22.35-.42.54-.61.29-.3.48-.73.48-1.15s-.18-.87-.48-1.15-.72-.5-1.15-.48-.84.16-1.15.48c-1.14,1.16-1.98,2.69-2.23,4.31-.07.22-.08.43-.03.65,0,.22.07.42.19.6.2.34.58.66.97.75.42.09.88.07,1.25-.16.33-.21.68-.56.75-.97h0Z"/>
        <path class="cls-5" d="M98.27,137.3c.15-.07.3-.14.46-.21l-.39.16c.67-.28,1.37-.47,2.09-.57l-.43.06c.69-.09,1.39-.09,2.08,0l-.43-.06c.06,0,.11.02.17.02.45.07.84.07,1.25-.16.34-.2.66-.58.75-.97.09-.42.07-.88-.16-1.25-.21-.33-.56-.69-.97-.75-.56-.08-1.12-.15-1.68-.15s-1.07.07-1.6.15c-.97.15-1.89.48-2.77.92-.76.38-1.04,1.52-.58,2.22.5.78,1.41.99,2.22.58h0Z"/>
        <path class="cls-5" d="M109.48,140.22c.31.25.6.51.85.82l-.25-.33s.07.09.11.14c.1.19.24.34.42.46.16.14.34.24.55.29.22.07.43.08.65.03.22,0,.42-.07.6-.19l.33-.25c.2-.2.34-.44.42-.72l.06-.43c0-.29-.07-.57-.22-.82-.21-.29-.43-.59-.69-.84-.16-.16-.34-.31-.52-.45-.15-.16-.32-.27-.52-.34-.19-.1-.4-.15-.63-.14-.22,0-.43.04-.63.14-.2.07-.38.18-.52.34l-.25.33c-.15.25-.22.53-.22.82l.06.43c.08.28.22.51.42.72h0Z"/>
        <path class="cls-5" d="M131.81,138.11c0,1.33,0,2.67,0,4,0,.42.18.85.48,1.15s.74.49,1.15.48c.88-.04,1.63-.71,1.62-1.62,0-1.33,0-2.67,0-4,0-.42-.18-.85-.48-1.15s-.74-.49-1.15-.48c-.88.04-1.63.71-1.62,1.62h0Z"/>
        <path class="cls-5" d="M139.78,138.11v4c0,.42.18.85.48,1.15s.74.49,1.15.48c.88-.04,1.63-.71,1.62-1.62v-4c0-.42-.18-.85-.48-1.15s-.74-.49-1.15-.48c-.88.04-1.63.71-1.62,1.62h0Z"/>
        <path class="cls-5" d="M55.55,138.11v4c0,.42.18.85.48,1.15s.74.49,1.15.48c.88-.04,1.63-.71,1.62-1.62v-4c0-.42-.18-.85-.48-1.15s-.74-.49-1.15-.48c-.88.04-1.63.71-1.62,1.62h0Z"/>
        <path class="cls-5" d="M63.63,138.11c0,1.33,0,2.67,0,4,0,.42.18.85.48,1.15s.74.49,1.15.48c.88-.04,1.63-.71,1.62-1.62,0-1.33,0-2.67,0-4,0-.42-.18-.85-.48-1.15s-.74-.49-1.15-.48c-.88.04-1.63.71-1.62,1.62h0Z"/>
        <path class="cls-5" d="M71.71,138.11c0,1.33,0,2.67,0,4,0,.42.18.85.48,1.15s.74.49,1.15.48c.88-.04,1.63-.71,1.62-1.62,0-1.33,0-2.67,0-4,0-.42-.18-.85-.48-1.15s-.74-.49-1.15-.48c-.88.04-1.63.71-1.62,1.62h0Z"/>
      </g>
      <path class="cls-5" d="M80.73,80.11c-4.08-18.98-5.44-38.47-4.09-57.83l-2.77,1.15c3.25,3.83,6.49,7.65,9.74,11.48,3.02,3.56,6.07,7.1,8.74,10.93,5.36,7.68,8.8,16.42,12.16,25.1.51,1.32,2.15,1.6,2.97.39,3.61-5.32,8.68-9.5,13.87-13.21,5.49-3.92,11.27-7.39,16.85-11.18,3.01-2.05,5.96-4.19,8.72-6.57l-2.77-1.15c-1.24,15.59-3.71,31.78-11.71,45.49-2.41,4.13-5.32,7.92-8.77,11.24-1.51,1.45.79,3.75,2.3,2.3,12.53-12.07,17.73-29.53,20.07-46.31.59-4.23,1.02-8.47,1.36-12.73.12-1.52-1.8-1.98-2.77-1.15-10.22,8.77-22.74,14.39-32.75,23.45-2.7,2.44-5.15,5.15-7.2,8.16l2.97.39c-3.46-8.93-6.97-17.97-12.49-25.88-2.74-3.92-5.84-7.57-8.93-11.22-3.35-3.95-6.7-7.9-10.05-11.85-.98-1.16-2.68-.13-2.77,1.15-1.37,19.65.06,39.44,4.21,58.69.44,2.04,3.57,1.18,3.13-.86h0Z"/>
      <path class="cls-5" d="M78.74,79.32c-15.37-1.62-30.89-.78-46.26.5-1.34.11-2.23,1.73-1.15,2.77,10.7,10.37,24.75,16.36,37.91,22.92,3.71,1.85,7.4,3.75,11,5.84l-.58-2.22c-4.16,8.54-9.61,16.35-16.21,23.18-.7.73-.61,2.05.33,2.55,3.43,1.83,7.21,1.31,10.89.73s7.07-1.19,10.47-2.31,6.54-2.69,9.27-4.97,4.71-5.12,6.3-8.17c1.85-3.53,3.16-7.32,4.44-11.09.67-1.99-2.46-2.84-3.13-.86-2.55,7.5-5.44,15.54-12.68,19.73-3.48,2.02-7.42,3.06-11.34,3.82-2,.39-4.02.74-6.04,1-2.2.28-4.53.4-6.54-.68l.33,2.55c6.78-7.01,12.45-15.06,16.72-23.84.38-.79.22-1.76-.58-2.22-12.69-7.36-26.57-12.55-38.81-20.72-3.36-2.24-6.54-4.71-9.44-7.52l-1.15,2.77c15.36-1.27,30.88-2.12,46.26-.5,2.08.22,2.06-3.03,0-3.25h0Z"/>
      <path class="cls-5" d="M102.76,110.01c8.62,3.71,17.91,6.37,27.2,3.58,4.32-1.3,8.61-2.97,12.7-4.86s7.87-4.19,11.14-7.25c.97-.91.27-2.9-1.15-2.77-9.21.84-18.56-.6-27.41-3.16-2.01-.58-2.87,2.55-.86,3.13,9.09,2.64,18.8,4.15,28.27,3.28l-1.15-2.77c-5.99,5.59-14.25,8.73-21.97,11.14-4.19,1.31-8.36,1.58-12.69.81s-8.45-2.21-12.44-3.93c-1.9-.82-3.56,1.98-1.64,2.81h0Z"/>
      <path class="cls-5" d="M105.77,111.67c8.77,14.14,15.56,29.23,21.84,44.61.33.82,1.08,1.38,2,1.13.77-.2,1.47-1.19,1.13-2-6.38-15.64-13.25-31-22.17-45.38-1.1-1.77-3.91-.14-2.81,1.64h0Z"/>
      <path class="cls-5" d="M101.76,112.78c7.23,14.85,13.7,30.05,19.38,45.56.71,1.95,3.86,1.11,3.13-.86-5.78-15.77-12.36-31.23-19.71-46.33-.92-1.88-3.72-.23-2.81,1.64h0Z"/>
      <path class="cls-5" d="M130.81,106.34c9.54,9.22,17.62,21.94,17.38,35.63-.04,2.09,3.21,2.09,3.25,0,.25-14.54-8.19-28.13-18.33-37.93-1.5-1.45-3.81.84-2.3,2.3h0Z"/>
      <path class="cls-5" d="M131.08,103.69c-.73.25-1.38.62-1.93,1.16-.34.33-.68.73-.81,1.19-.21.72.09,1.57.76,1.94.31.17.63.26.99.26.49,0,.99-.21,1.41-.43.31-.16.6-.39.85-.63.1-.09.18-.19.27-.29.15-.19.31-.37.42-.58.35-.67.27-1.5-.27-2.04-.21-.21-.49-.36-.78-.44-.18-.05-.37-.05-.56-.07l.43.06c-.14-.02-.27-.05-.4-.11l.39.16c-.14-.06-.27-.14-.4-.23l.33.25c-.11-.09-.21-.19-.29-.3l.25.33c-.08-.11-.15-.23-.21-.36l.16.39c-.05-.11-.08-.23-.1-.35l.06.43s0-.07,0-.11l-.06.43v-.03c-.04.13-.1.26-.15.39l.02-.03-.25.33.03-.02-.72.42h.05c-.29-.01-.58-.01-.86-.01h.05c-.13-.05-.26-.1-.39-.16.24.11.47.3.69.45.24.16.47.32.71.47l1.64-2.81-.03-.02.33.25-.03-.03.25.33s-.03-.04-.04-.07l.16.39s-.02-.05-.02-.08l.06.43s0-.05,0-.08l-.06.43v-.05c-.04.13-.1.26-.15.39.02-.05.05-.09.08-.14l-.25.33c.13-.17.29-.31.45-.44l-.33.25c.2-.15.41-.27.63-.37l-.39.16c.07-.03.14-.06.21-.07l-.43.06c.05,0,.11,0,.16,0l-.43-.06s.05.01.07.02l-.39-.16.03.02-.33-.25.02.02-.25-.33.02.03-.16-.39v.03c0-.14-.03-.29-.04-.43,0,.03,0,.06,0,.09l.06-.43v.04c.04-.13.1-.26.15-.39-.05.12-.13.23-.21.34l.25-.33c-.12.16-.27.3-.42.43l.33-.25c-.16.12-.33.22-.52.3l.39-.16-.05.02c-.21.05-.4.15-.55.29-.18.11-.32.27-.42.46-.2.35-.29.86-.16,1.25s.37.77.75.97.85.32,1.25.16c.34-.14.66-.27.96-.48.42-.31.7-.59,1.01-1.01.28-.38.45-.81.44-1.29-.01-1-.88-1.76-1.86-1.76-.48,0-.92.18-1.33.4-.31.17-.6.39-.87.62-.36.31-.7.73-.83,1.2-.21.82.09,1.74.86,2.16.38.21.83.28,1.25.16.38-.1.79-.4.97-.75.2-.38.3-.83.16-1.25s-.38-.73-.75-.97c-.42-.28-.84-.57-1.26-.84-.3-.2-.65-.3-1.01-.31-.6-.03-1.16.35-1.48.84s-.31,1.1-.15,1.63c.2.66.59,1.23,1.14,1.65.32.25.59.39.97.53.3.11.62.14.94.17l-.43-.06h.03c-.13-.05-.26-.1-.39-.16h.03c-.19-.18-.39-.37-.58-.57l.02.02-.22-.82v.05c.07-.27.15-.55.22-.82-.04.09-.1.17-.16.25l.25-.33c-.12.16-.26.3-.42.42l.33-.25c-.17.13-.35.24-.55.33l.39-.16c-.13.05-.27.1-.41.13l.43-.06s-.05,0-.07,0l.43.06s-.05,0-.07-.02l.39.16-.03-.02.58.58-.02-.02.16.39v-.03c0,.29,0,.58,0,.86v-.05c-.04.13-.1.26-.15.39.03-.05.06-.09.09-.13l-.25.33c.17-.22.36-.41.57-.58l-.33.25c.22-.17.45-.3.7-.41l-.39.16c.08-.03.16-.06.24-.09.4-.14.75-.37.97-.75.2-.35.29-.86.16-1.25s-.37-.77-.75-.97-.84-.3-1.25-.16h0Z"/>
      <path class="cls-5" d="M137.34,80.82c8.18-.23,16.28,2.6,22.45,7.99.72.62,1.57.58,2.3,0,7.63-6.16,16.87-10.07,26.57-11.46.88-.13,1.34-1.23,1.13-2-.25-.94-1.13-1.26-2-1.13-10.27,1.47-19.94,5.78-28,12.29h2.3c-6.82-5.95-15.69-9.2-24.75-8.95-2.09.06-2.1,3.31,0,3.25h0Z"/>
      <path class="cls-5" d="M19.49,108.05c1.79-1.92,4.15-2.92,6.66-3.56,2.87-.73,5.85-1.14,8.8-1.38,1.44-.12,2.92-.07,4.36-.25s2.07-1.09,2.48-2.36c.81-2.52,2.19-4.71,4.37-6.27,1.68-1.21.06-4.03-1.64-2.81-2.16,1.55-3.93,3.54-5.04,5.98-.28.61-.47,1.24-.72,1.86-.18.46.1.27-.24.4-.28.11-.91.03-1.19.04-1.58.07-3.17.2-4.74.39-5.37.63-11.5,1.49-15.38,5.66-1.43,1.53.87,3.83,2.3,2.3h0Z"/>
      <path class="cls-5" d="M82.17,160.7c-1.39-3.75-2.18-7.68-2.23-11.68-.02-1.33-.13-3.23.96-4.21s2.96-.47,4.2-.06c3.63,1.21,7.13,3.2,10.43,5.12,1.3.76,3.08,2.43,4.71,2.03.89-.22,1.59-1.01,2.26-1.6.8-.71,1.61-1.41,2.41-2.12,3.58-3.15,7.16-6.3,10.74-9.45,1.57-1.38-.73-3.68-2.3-2.3-3.4,2.99-6.79,5.98-10.19,8.97-.8.71-1.61,1.41-2.41,2.12-.36.32-.78.62-1.11.98l-.19.16c-.27.19-.25.22.07.07.39-.06.34-.18-.15-.34l-.4-.25c-1.8-1.1-3.64-2.14-5.51-3.12s-3.78-1.88-5.72-2.71c-1.62-.69-3.34-1.31-5.13-1.31-3.84,0-5.72,3.07-5.9,6.58-.24,4.7.7,9.58,2.33,13.97.72,1.94,3.86,1.1,3.13-.86h0Z"/>
      <path class="cls-5" d="M66.32,155c7,1.78,14.16,2.85,21.37,1.91.87-.11,1.62-.67,1.62-1.62,0-.79-.75-1.74-1.62-1.62-6.95.91-13.77-.08-20.51-1.79-2.03-.52-2.89,2.62-.86,3.13h0Z"/>
      <path class="cls-5" d="M87.69,153.84c-.1-.09-.18-.18-.26-.28l.25.33c-.09-.13-.17-.26-.23-.4l.16.39c-.06-.14-.1-.29-.13-.44l.06.43c-.02-.13-.02-.26-.01-.39l-.06.43c.01-.08.03-.15.06-.23l-.16.39.04-.07-.25.33s.06-.07.09-.1l-.33.25s.08-.05.12-.07l-.39.16.06-.02-.43.06h.07c-.14-.02-.29-.04-.43-.06.04,0,.09.01.12.03l-.39-.16.05.03-.33-.25s.06.06.09.09l-.25-.33c.04.06.06.11.09.17l-.16-.39c.11.3.18.61.22.92l-.06-.43c.21,1.67.1,3.63,1.56,4.8.29.23.56.4.93.45.35.05.73,0,1.04-.19.23-.15.43-.35.58-.58.24-.38.24-.83.16-1.25s-.24-.85-.46-1.22c-.15-.26-.37-.49-.51-.76l.16.39c-.04-.09-.06-.18-.08-.28l.06.43s0-.1,0-.15l-.06.43c.01-.07.03-.14.06-.21l-.16.39c.03-.07.07-.13.11-.19l-.25.33c.13-.16.28-.3.44-.42l-.33.25c.26-.2.55-.36.85-.48l-.39.16c.3-.12.62-.21.94-.26l-.43.06c.11-.01.22-.02.32-.03l-1.4-2.45c-.08.15-.16.29-.27.42l.25-.33c-.12.15-.25.28-.4.4l.33-.25c-.17.13-.35.24-.55.33l.39-.16c-.2.08-.4.14-.62.18l.43-.06c-.1.01-.19.02-.28.02-.85.03-1.67.73-1.62,1.62s.71,1.66,1.62,1.62c1.44-.05,2.86-.85,3.52-2.16.27-.53.31-1.11,0-1.64-.28-.47-.84-.84-1.4-.8-1.3.08-2.63.56-3.56,1.5-.63.64-.99,1.59-.7,2.47.11.33.26.62.47.9.15.2.29.41.39.64l-.16-.39c.07.18.12.36.15.55l2.72-1.58c-.13-.11-.25-.22-.35-.36l.25.33c-.13-.18-.23-.36-.32-.56l.16.39c-.14-.35-.22-.7-.27-1.07l.06.43c-.09-.73-.1-1.46-.22-2.18-.15-.98-.6-2.04-1.66-2.3-1.43-.35-2.65.94-2.53,2.33.08.9.42,1.77,1.11,2.39.63.57,1.68.67,2.3,0,.57-.62.68-1.69,0-2.3h0Z"/>
      <path class="cls-5" d="M120.7,134.43c1.02-.74,2.06-1.47,3.11-2.16.59-.39,1.19-.77,1.79-1.15.3-.19.62-.21.09-.35-.58-.14-.2.12-.05.45.99,2.13,1.22,4.78,1.46,7.09.54,5.18.4,10.4.25,15.6-.06,2.09,3.19,2.09,3.25,0,.18-6.37.32-12.76-.71-19.07-.23-1.39-.47-2.81-.97-4.14-.41-1.08-.92-2.42-2.08-2.89-1.36-.56-2.58.3-3.68,1.01-1.4.89-2.76,1.84-4.1,2.81-1.68,1.22-.06,4.04,1.64,2.81h0Z"/>
      <path class="cls-5" d="M104.18,108.24c-7.64-15.71-8.94-33.65-16.37-49.47-.61-1.31-2.56-.17-1.94,1.14,7.42,15.81,8.72,33.74,16.37,49.47.63,1.3,2.57.16,1.94-1.14h0Z"/>
      <path class="cls-5" d="M62.11,90.77c5.61,1.77,11.32,3.17,17.11,4.17,2.84.49,5.69.89,8.55,1.19s5.89.74,8.77.62c1.24-.05,2.26-.5,3.32-1.11,1.26-.72,2.55-1.38,3.83-2.06,2.28-1.2,4.47-2.55,6.54-4.08,3.98-2.95,7.54-6.4,10.82-10.11,3.81-4.32,7.25-8.94,10.68-13.57.86-1.16-1.09-2.29-1.94-1.14-5.73,7.74-11.59,15.59-19.14,21.68-1.83,1.48-3.77,2.82-5.8,4.02-1.08.63-2.19,1.21-3.3,1.79-1.29.67-2.59,1.62-3.94,2.13-1.18.44-2.67.16-3.89.08-1.43-.09-2.85-.2-4.27-.33-2.82-.27-5.64-.62-8.44-1.08-6.19-1.01-12.3-2.48-18.29-4.36-1.38-.44-1.98,1.74-.6,2.17h0Z"/>
      <path class="cls-5" d="M81.56,125.36c8.9-5.49,15.73-13.87,19.37-23.66.5-1.36-1.67-1.95-2.17-.6-3.43,9.23-9.97,17.15-18.34,22.32-1.23.76-.1,2.71,1.14,1.94h0Z"/>
      <path class="cls-5" d="M100.13,101.93c7.65,2.47,15.54,4.94,23.68,4.24,1.43-.12,1.44-2.37,0-2.25-7.95.68-15.62-1.74-23.08-4.16-1.38-.45-1.97,1.73-.6,2.17h0Z"/>
      <path class="cls-5" d="M133.9,63.14c1.45,0,1.45-2.25,0-2.25s-1.45,2.25,0,2.25h0Z"/>
      <path class="cls-5" d="M56.03,87.67l-.16.16c-.11.1-.19.22-.23.36-.07.13-.1.28-.1.43,0,.15.03.3.1.43.05.14.12.26.23.36l.23.18c.18.1.36.15.57.15l.3-.04c.19-.05.36-.15.5-.29l.16-.16c.11-.1.19-.22.23-.36.07-.13.1-.28.1-.43,0-.15-.03-.3-.1-.43-.05-.14-.12-.26-.23-.36l-.23-.18c-.18-.1-.36-.15-.57-.15l-.3.04c-.19.05-.36.15-.5.29h0Z"/>
      <path class="cls-5" d="M84.75,57.42c1.45,0,1.45-2.25,0-2.25s-1.45,2.25,0,2.25h0Z"/>
      <path class="cls-5" d="M77.26,127.33v.16c0,.15.03.3.1.43.05.14.12.26.23.36.1.11.22.19.36.23.13.07.28.1.43.1l.3-.04c.19-.05.36-.15.5-.29l.18-.23c.1-.18.15-.36.15-.57v-.16c0-.15-.03-.3-.1-.43-.05-.14-.12-.26-.23-.36-.1-.11-.22-.19-.36-.23-.13-.07-.28-.1-.43-.1l-.3.04c-.19.05-.36.15-.5.29l-.18.23c-.1.18-.15.36-.15.57h0Z"/>
      <path class="cls-5" d="M94.18,160.69c2.41,2.09,4.49,4.48,6.22,7.17.39.61,1.23.75,1.77.23,5.41-5.35,10.2-11.29,14.29-17.7.78-1.22-1.17-2.35-1.94-1.14-3.99,6.25-8.66,12.02-13.94,17.24l1.77.23c-1.83-2.84-4.03-5.4-6.57-7.62-1.09-.95-2.69.64-1.59,1.59h0Z"/>
      <path class="cls-5" d="M27.88,109.91c.35-.19.7-.37,1.06-.53.07-.03.14-.06.22-.1.11-.05.1-.04-.05.02.05-.02.1-.04.15-.06.17-.07.34-.14.52-.2.72-.26,1.45-.47,2.2-.62.58-.12.96-.83.79-1.38-.2-.61-.77-.91-1.38-.79-1.62.33-3.18.92-4.63,1.72-.52.28-.73,1.04-.4,1.54s.99.71,1.54.4h0Z"/>
      <path class="cls-5" d="M34.95,108.69c1.45,0,1.45-2.25,0-2.25s-1.45,2.25,0,2.25h0Z"/>
      <path class="cls-5" d="M146.82,88.28c.47.12.93.27,1.37.45.05.02.11.04.16.07.13.05-.18-.08.01,0,.11.05.21.1.32.15.22.11.44.22.66.34.42.23.83.49,1.22.78.05.03.09.07.14.1.1.08.06.03-.02-.02.1.05.19.15.27.22.2.17.4.34.59.53.43.41,1.17.46,1.59,0s.46-1.16,0-1.59c-1.61-1.52-3.58-2.64-5.72-3.2-.57-.15-1.25.19-1.38.79s.18,1.22.79,1.38h0Z"/>
      <path class="cls-5" d="M157.91,91.75h-.16c-.15,0-.3.03-.43.1-.14.05-.26.12-.36.23-.11.1-.19.22-.23.36-.07.13-.1.28-.1.43l.04.3c.05.19.15.36.29.5l.23.18c.18.1.36.15.57.15h.16c.15,0,.3-.03.43-.1.14-.05.26-.12.36-.23.11-.1.19-.22.23-.36.07-.13.1-.28.1-.43l-.04-.3c-.05-.19-.15-.36-.29-.5l-.23-.18c-.18-.1-.36-.15-.57-.15h0Z"/>
      <path class="cls-5" d="M173.16,89.43c1.07-.8,2.22-1.47,3.45-1.99l-.27.11c.1-.04.21-.09.31-.13.28-.11.51-.24.67-.52.14-.24.2-.6.11-.87s-.26-.53-.52-.67-.59-.22-.87-.11c-1.44.58-2.79,1.3-4.03,2.23-.24.18-.43.37-.52.67-.07.27-.04.63.11.87s.39.45.67.52.63.06.87-.11h0Z"/>
      <path class="cls-5" d="M22.38,61.01c1.45,0,1.45-2.25,0-2.25s-1.45,2.25,0,2.25h0Z"/>
      <path class="cls-5" d="M26.69,56.05c3.14-4.03,6.95-7.49,11.29-10.2,1.23-.77.1-2.71-1.14-1.94-4.49,2.81-8.48,6.38-11.74,10.55-.37.48-.47,1.12,0,1.59.39.39,1.22.48,1.59,0h0Z"/>
      <path class="cls-5" d="M40.99,43.87c1.45,0,1.45-2.25,0-2.25s-1.45,2.25,0,2.25h0Z"/>
      <path class="cls-5" d="M163.31,47.48v.16c0,.15.03.3.1.43.05.14.12.26.23.36.1.11.22.19.36.23.13.07.28.1.43.1l.3-.04c.19-.05.36-.15.5-.29l.18-.23c.1-.18.15-.36.15-.57v-.16c0-.15-.03-.3-.1-.43-.05-.14-.12-.26-.23-.36-.1-.11-.22-.19-.36-.23-.13-.07-.28-.1-.43-.1l-.3.04c-.19.05-.36.15-.5.29l-.18.23c-.1.18-.15.36-.15.57h0Z"/>
      <path class="cls-5" d="M170.07,53.12c2.69,2.87,5.16,5.93,7.38,9.17.34.5.99.73,1.54.4.5-.29.75-1.04.4-1.54-2.33-3.4-4.92-6.62-7.73-9.63-.99-1.06-2.58.53-1.59,1.59h0Z"/>
      <path class="cls-5" d="M178.5,65.11v.16c0,.15.03.3.1.43.05.14.12.26.23.36.1.11.22.19.36.23.13.07.28.1.43.1l.3-.04c.19-.05.36-.15.5-.29l.18-.23c.1-.18.15-.36.15-.57v-.16c0-.15-.03-.3-.1-.43-.05-.14-.12-.26-.23-.36-.1-.11-.22-.19-.36-.23-.13-.07-.28-.1-.43-.1l-.3.04c-.19.05-.36.15-.5.29l-.18.23c-.1.18-.15.36-.15.57h0Z"/>
    </g>
  </g>
</svg>