<?xml version="1.0" encoding="UTF-8"?>
<svg xmlns="http://www.w3.org/2000/svg" viewBox="0 0 250 200">
  <defs>
    <style>
      .cls-1 {
        fill: #f9f0ea;
      }

      .cls-2 {
        fill: #f2cb86;
      }

      .cls-3 {
        fill: #edabac;
      }

      .cls-4 {
        fill: #a0a0a0;
      }

      .cls-5 {
        fill: #fffff8;
      }

      .cls-6 {
        fill: #fff;
      }

      .cls-7 {
        fill: #f9f9f2;
      }

      .cls-8 {
        fill: #e8cbb8;
      }

      .cls-9 {
        opacity: .14;
      }

      .cls-9, .cls-10 {
        fill: #122b3f;
      }

      .cls-11 {
        opacity: .76;
      }

      .cls-12 {
        fill: #f7e794;
      }

      .cls-13 {
        fill: #ecbe6b;
      }

      .cls-14 {
        fill: #fff6f0;
      }

      .cls-15 {
        fill: #edda8c;
      }

      .cls-16 {
        fill: #efd3bf;
      }
    </style>
  </defs>
  <g id="Colour">
    <g class="cls-11">
      <path class="cls-10" d="M17.83,42.19v123.82c0,5.33,4.32,9.65,9.65,9.65h195.05c5.33,0,9.65-4.32,9.65-9.65V40.63c0-5.36-4.37-9.69-9.73-9.65l-195.05,1.56c-5.3.04-9.57,4.35-9.57,9.65Z"/>
    </g>
    <path class="cls-12" d="M130.61,49.96c-2.7-2.48-7.1-2.6-10.75-2.08-2.54.36-4.54,1.6-6.15,3.58-1.67,2.05-2.94,4.33-3.96,6.76-.32.78.31,1.7,1.04,1.96-.57,5.4,2.36,10.52,7.13,12.79.04.59.4,1.14,1.15,1.32,6.3,1.54,13.27-1.96,15.44-8.15,1.89-5.4,1.84-13.37-3.92-16.18Z"/>
    <path class="cls-12" d="M96.12,72.54c-.94-2.22-2.02-4.38-3.04-6.57-2.28-4.91-4.56-9.82-6.84-14.73-.54-1.16-1.8-.99-2.49-.25-.09-.05-.17-.11-.27-.16-1.79-.71-3.32,1.73-3.85,3.07-.69,1.75-.73,3.7-.8,5.56-.08,2.16-.35,4.56.29,6.65.58,1.91,1.9,3.55,3.34,4.89,2.87,2.68,6.56,4.34,10.45,4.76.9.1,1.83.2,2.6-.35.97-.7,1.04-1.85.6-2.88Z"/>
    <path class="cls-12" d="M73.62,88.88c-2.67-1.72-5.37-3.46-7.48-5.87-2.29-2.6-3.51-6.1-4.94-9.2-.14-.3-.39-.51-.68-.64.15-.59.32-1.17.5-1.73.64-2-2.5-2.85-3.13-.86-1.71,5.37-2.27,11.62,1.5,16.29,3.21,3.97,8.62,4.8,13.42,5.05,1.69.09,2.1-2.2.82-3.03Z"/>
    <path class="cls-12" d="M168.93,56.36c-1.05-3-3.52-4.95-5.98-6.78-.64-.48-1.9-.16-2.22.58-3.34,7.8-6.55,15.65-9.6,23.57-.65,1.68,1.58,2.53,2.69,1.51,6.37.2,12.21-3.6,14.6-9.5,1.16-2.87,1.56-6.41.51-9.38Z"/>
    <path class="cls-12" d="M190.46,76.56c.28-2.33-.08-4.65-1.61-6.79-.42-.59-1.09-.95-1.84-.75-.65.18-1.26.87-1.19,1.57.18,2.05-.46,3.67-1.47,5.42-.87,1.53-1.76,3.05-2.71,4.53-1.83,2.84-3.99,5.54-6.87,7.39-1.76,1.13-.13,3.94,1.64,2.81.12-.08.24-.17.36-.25.21.38.55.7.97.8,1.82.45,3.55-.57,5.02-1.54,1.32-.87,2.54-1.88,3.64-3.01,1.11-1.13,2.1-2.37,3-3.67,1.09-1.56,1.81-3.26,1.72-5.2-.02-.53-.28-1.01-.68-1.31Z"/>
    <path class="cls-14" d="M231.02,125.73c-.06-.28-.22-.52-.42-.71.06-.73.13-1.45.22-2.17.03-.25-.04-.5-.16-.73.11-.21.17-.45.16-.69-.02-.14-.04-.29-.06-.43-.08-.28-.22-.51-.42-.72-1.01-1.28-2.48-2.21-4.04-2.68-.35-.11-.78-.05-1.12.11-.76-.26-1.55-.48-2.36-.67-2.29-.55-4.58-1.05-6.92-1.34-2.31-.29-4.63-.31-6.93.12-2.31.43-4.46,1.43-6.55,2.45-.08.04-.14.08-.2.13-.37-.35-.75-.69-1.16-1.01-2.54-2.65-5.49-4.91-8.75-6.64-.6-.32-1.33-.26-1.84.15-2.22-1.15-4.56-2.01-7.03-1.93-.58.02-.99.28-1.25.65-1.13-1.66-3.85-.06-2.76,1.7,2.03,3.28,3.82,6.72,5.28,10.29.7,1.73,1.34,3.49,1.9,5.27.59,1.87,1.42,3.95,1.24,5.93-.03.32.03.59.14.81.05.77.57,1.5,1.56,1.5h40.34c1.34,0,1.82-1.33,1.45-2.29.28-2.37.21-4.73-.32-7.08Z"/>
    <path class="cls-14" d="M75.04,102.03c-1.23-.06-2.45-.03-3.66.08,0-.05.02-.1.02-.15,0-.96-.75-1.52-1.62-1.62-1.97-.23-3.94.2-5.79.84-1.82.64-3.64,1.38-5.36,2.24-1.63.82-3.17,1.87-4.43,3.21-.94,1-1.73,2.13-2.48,3.28-5.25,0-10.45,1.45-14.65,4.79-2.55,2.03-4.6,4.69-5.87,7.69-1.34,3.16-2.03,7.09-.68,10.36.03.08.07.15.11.23-.68.94-.27,2.64,1.25,2.64h29.51c1.35,0,1.82-1.35,1.43-2.31.14-.18.25-.4.31-.68,1.99-9.85,4.25-21.12,12.75-27.58,1.25-.95.9-2.94-.82-3.03Z"/>
    <path class="cls-5" d="M79.05,143.14c-2.23-1.14-4.68-1.35-7.15-1.38-1.18-.01-2.31.09-3.16,1.02-.83.91-1.21,2.21-1.69,3.32-1.06,2.44-2.12,4.88-3.18,7.32-.55,1.27-1.1,2.55-1.66,3.82-.52,1.21-1.01,2.31-1.17,3.63-.11.87.83,1.62,1.62,1.62.86,0,1.38-.59,1.57-1.33l2.42.05c1.14.02,2.33.15,3.46-.06,2.36-.43,2.82-2.69,3.54-4.61,1.49-3.97,3.54-7.72,5.98-11.19.49-.69.15-1.85-.58-2.22Z"/>
    <path class="cls-5" d="M172.61,143.9h-.35c-.32-.09-.66-.1-.99,0h-70.34c-.12-.42-.39-.8-.75-1.01-.81-.47-1.72-.14-2.22.58-1.69,2.41-3.03,4.99-4.16,7.71-.97,2.3-1.86,4.75-3.52,6.66-.5.57-.62,1.38-.23,2.01-.17.91.33,1.98,1.53,1.98h72.95c.91,0,1.42-.61,1.54-1.31,3.92-3.51,4.18-8.99,6.59-13.37,2.04-.05,2.03-3.25-.05-3.25Z"/>
    <path class="cls-2" d="M185.71,130.35c.19-.48.25-1.04.15-1.63-.56-3.23-1.78-6.37-3.54-9.16-.09-.29-.18-.58-.27-.87-.62-1.99-1.3-4-2.39-5.78-1.08-1.78-2.48-3.35-3.89-4.86-.61-.65-1.31-.84-1.97-.75-.91-1.85-2.22-3.49-3.81-4.94-2.72-2.46-5.82-4.59-8.96-6.47-6.21-3.72-13.07-6.46-20.14-8.03-4.13-.92-8.36-1.45-12.59-1.6-.45-.02-.83.07-1.15.23-.14-.01-.28-.03-.42-.05-2.67-.23-5.36-.24-8.03-.02-1.41.12-2.81.3-4.21.52-1.15.19-2.25.33-3.1,1-1.55.16-3.1.35-4.64.57-2.42.35-4.85.96-6.97,2.19-2.05.49-4.04,1.14-5.94,2.02-.74-.88-2.22-1.33-3.2-.61-5.33,3.92-10.23,8.36-14.54,13.38-4.26,4.97-9.02,10.65-9.86,17.35-.07.57.15,1.09.52,1.52-.76,1.96-1.44,3.95-2.01,5.98-1.88,1.1-1.48,4.67,1.25,4.67h118.48c2.73,0,3.14-3.59,1.23-4.68Z"/>
    <path class="cls-16" d="M230.46,136.07H20.9c-1.65,0-2.45,1.31-2.41,2.59-.36.39-.61.93-.61,1.62-.02,7.47-.07,14.94-.05,22.4,0,3.3.24,6.92,2.25,9.68,1.7,2.33,4.11,3.75,6.88,3.79.33.18.72.29,1.19.29h189.85c1.14,0,1.87-.63,2.2-1.44.24.09.5.16.8.17,2.78.14,5.77-.91,7.62-3.04,2.3-2.65,2.15-6.08,2.26-9.39.25-7.28.51-14.56.76-21.84,0-.05,0-.09,0-.14,1.96-1.06,1.57-4.71-1.18-4.71ZM58.56,160.82c1.8-3.74,3.77-7.4,5.94-10.93,1.15-1.86,2.26-3.98,3.74-5.6,1.17-1.28,2.7-1.7,4.27-1.27,1.62.44,2.75-.66,3.02-1.93h6.02c-3.47,6.43-6.62,13.02-9.47,19.74h-13.53ZM166.21,161.1h-75.95c3.13-5.96,4.71-12.62,7.85-18.64.25-.48.32-.95.29-1.38h76.92c-2.79,6.7-5.47,13.46-8.04,20.24-.3-.14-.66-.22-1.07-.22Z"/>
    <path class="cls-6" d="M65.14,50.44c2.09,0,2.09-3.25,0-3.25s-2.09,3.25,0,3.25h0Z"/>
    <path class="cls-6" d="M44.48,61.16c2.09,0,2.09-3.25,0-3.25s-2.09,3.25,0,3.25h0Z"/>
    <path class="cls-6" d="M43.29,90.97c2.09,0,2.09-3.25,0-3.25s-2.09,3.25,0,3.25h0Z"/>
    <path class="cls-6" d="M189.52,53.22c2.09,0,2.09-3.25,0-3.25s-2.09,3.25,0,3.25h0Z"/>
    <path class="cls-6" d="M212.97,53.22c2.09,0,2.09-3.25,0-3.25s-2.09,3.25,0,3.25h0Z"/>
    <path class="cls-6" d="M213.36,91.76c2.09,0,2.09-3.25,0-3.25s-2.09,3.25,0,3.25h0Z"/>
    <path class="cls-6" d="M195.48,97.72c2.09,0,2.09-3.25,0-3.25s-2.09,3.25,0,3.25h0Z"/>
    <path class="cls-6" d="M86.21,87.79c2.09,0,2.09-3.25,0-3.25s-2.09,3.25,0,3.25h0Z"/>
    <path class="cls-6" d="M145.41,67.92c2.09,0,2.09-3.25,0-3.25s-2.09,3.25,0,3.25h0Z"/>
    <path class="cls-6" d="M176.81,75.07c2.09,0,2.09-3.25,0-3.25s-2.09,3.25,0,3.25h0Z"/>
    <path class="cls-6" d="M30.97,101.7c2.09,0,2.09-3.25,0-3.25s-2.09,3.25,0,3.25h0Z"/>
    <path class="cls-15" d="M73.18,88.37c-1.13-.6-2.5-.57-3.74-.82-1.15-.23-2.28-.56-3.38-.98-1.56-.59-3.03-1.42-4.39-2.39-.52-.67-1.02-1.36-1.48-2.06-.49-.73-1.43-1.05-2.22-.58-.31.18-.55.49-.69.84-.65.56-.92,1.56-.11,2.32.74.69,1.53,1.32,2.34,1.92,2.58,3.09,5.82,5.57,10,6.02,1.22.13,2.75.15,3.81-.53,1.44-.93,1.41-2.93-.13-3.73Z"/>
    <path class="cls-15" d="M94.52,71.51c-5.36-2.55-12.69-6.09-12.83-13.01-.04-2.09-3.29-2.1-3.25,0,.04,1.75.48,3.43,1.2,4.99-.03.01-.06.02-.09.04-.82.48-.95,1.42-.58,2.22.9,1.99,2.86,3.37,4.76,4.53.63,1.19,1.56,2.18,2.65,2.97,1.26.92,2.76,1.4,4.29,1.55.38.04.85-.2,1.12-.46.62.16,1.25.24,1.9.19.72-.05,1.37-.47,1.57-1.19.18-.65-.1-1.53-.75-1.84Z"/>
    <path class="cls-15" d="M132.39,51.13c-.51-.48-1.1-.54-1.61-.35-.14-.59-.28-1.17-.47-1.74-.65-1.98-3.79-1.13-3.13.86,1.42,4.34,1.21,9.13-.9,13.22-.92,1.78-2.11,3.37-3.57,4.75-.88.83-2.17,2.01-3.51,2.54-.97-.01-1.93.02-2.88.19-1.65.29-1.45,2.72,0,3.13,1.27.36,2.5.22,3.66-.2,2.55,0,5.11.35,7.62-.52,2.81-.97,5.22-2.84,6.88-5.31,3.46-5.15,2.38-12.37-2.08-16.57Z"/>
    <path class="cls-15" d="M168.83,57.6c-.18-.78-1.02-1.28-1.78-1.16-.83.13-1.35.77-1.41,1.6-.5,6.84-5.77,12.97-12.84,13.32-.88.04-1.62.72-1.62,1.62,0,.85.74,1.67,1.62,1.62,1.27-.06,2.53-.29,3.74-.64.35.16.75.2,1.16.15,3.66-.49,6.95-2.59,9.09-5.57,2.25-3.12,2.9-7.23,2.03-10.94Z"/>
    <path class="cls-15" d="M188.78,78.87c-2.56,4.94-7.51,9.87-13.6,8.51-2.04-.45-2.91,2.68-.86,3.13,3.61.81,7.43-.04,10.49-2.08,2.94-1.96,5.16-4.81,6.78-7.92.96-1.85-1.84-3.5-2.81-1.64Z"/>
    <path class="cls-1" d="M230.87,119.53c-.67-.21-1.33-.42-2-.64-1.13-1.1-2.7-1.67-4.19-2.1-2.04-.6-4.14-.96-6.25-1.14-.19-.02-.37,0-.53.04-.61-.33-1.25-.63-1.92-.86-.83-.29-1.78.33-2,1.13-.03.12-.05.23-.06.34-1.22.07-2.44.26-3.65.54-1.98.46-3.9,1.15-5.84,1.77-.45.14-.9.27-1.35.4-.13-.2-.3-.37-.51-.53-.04-.03-.06-.04-.08-.06,0,0-.02-.02-.04-.03-.1-.09-.21-.17-.31-.26-.2-.18-.39-.37-.58-.57-.36-.37-.69-.76-1.02-1.16-.68-.81-1.37-1.6-2.14-2.32-1.59-1.49-3.41-2.73-5.39-3.65-.77-.36-1.79-.24-2.22.58-.08.15-.13.32-.16.49-2.58-1.3-5.32-2.29-8.15-2.89-.49-.11-.91,0-1.25.22-1.4-1.21-3.46.97-2.12,2.46,2.59,2.9,4.71,6.24,6.19,9.83.72,1.75,1.3,3.57,1.73,5.41.15.64.28,1.29.39,1.94.04,1.61.05,3.21,0,4.82-.02.85.76,1.66,1.62,1.62.36-.02.69-.15.95-.35.13.03.26.05.41.05h38.97c1.65,0,2-2.02,1.04-2.88.3-.85.33-1.82.32-2.73-.01-1.74.02-3.49-.06-5.23-.02-.35-.05-.71-.09-1.06,1.54-.1,2.03-2.64.26-3.21ZM191.07,131.39c-.02-.26-.05-.52-.08-.79-.08-.77-.19-1.53-.31-2.3-.01-.47-.02-.94-.03-1.42-.02-.41-.19-.8-.46-1.1-.41-1.75-.94-3.48-1.6-5.15-1.16-2.93-2.66-5.69-4.48-8.23,2.41.71,4.71,1.7,6.89,2.99,2.89,1.71,5.22,3.87,7.54,6.28,1.34,1.39,2.77,1.25,4.52.78,1.81-.49,3.58-1.13,5.38-1.69,3.14-.98,6.71-1.83,9.94-.76,1.07.99,1.96,2.18,2.66,3.43.8,1.42,1.4,2.92,1.92,4.47.38,1.14.65,2.4,1.19,3.5h-33.07Z"/>
    <path class="cls-1" d="M74.01,102.44c-7.43-.84-15.02,1.57-20.7,6.41-.63.53-1.24,1.36-1.96,1.75-.88.48-2.1.45-3.07.65-2.06.43-4.06,1.11-5.98,1.99-2.91,1.33-5.35,3.35-6.86,6.11-.47-.91-1.67-1.43-2.51-.44-2.4,2.83-3.8,6.36-3.8,10.09,0,1.09.04,2.42.47,3.52-.76.92-.37,2.72,1.19,2.72h30.02c.31,0,.57-.08.79-.2.01,0,.03-.02.04-.02.06-.04.12-.07.17-.12.03-.03.06-.05.09-.08.05-.05.1-.1.14-.16,0,0,0,0,0-.01.03-.04.04-.09.06-.13.1,0,.19,0,.29,0,1.76-.03,2.3-2.85.43-3.19-.01,0-.03,0-.04,0,1.96-9.54,6.17-18.56,12.37-26.11.94-1.14.29-2.61-1.15-2.77ZM59.59,130.88c-2.58-.25-5.19-.29-7.79-.34-5.1-.79-10.09-2.23-14.84-4.31.05-.96.17-1.91.39-2.85.84-3.51,3.22-5.75,6.41-7.25,1.71-.8,3.54-1.36,5.38-1.75,1.92-.4,3.53-.52,5.03-1.91,2.48-2.3,5.19-4.2,8.38-5.38,2.67-.99,5.45-1.51,8.27-1.55-5.55,7.51-9.41,16.17-11.23,25.34Z"/>
    <path class="cls-7" d="M75.97,142.9c-1.23.22-2.51.06-3.75.26-1.5.25-2.7,1.11-3.5,2.39-.83,1.32-1.48,2.78-2.21,4.17-.78,1.49-1.56,2.99-2.34,4.48-.22.41-.24.81-.14,1.17-.09.1-.19.2-.28.31-1.2,1.3-2.44,2.53-3.06,4.22-.3.82.34,1.78,1.13,2,.9.25,1.7-.31,2-1.13.47-1.29,1.84-2.37,2.75-3.36,1.22-1.33,2.45-2.66,3.68-3.98,2.42-2.61,4.86-5.21,7.3-7.8,1.18-1.25-.02-2.99-1.58-2.72Z"/>
    <path class="cls-7" d="M173.22,143.7h-3.4c-.51-.42-1.3-.57-1.86-.18-.08.05-.15.12-.22.18h-66.33c-.14-.3-.37-.57-.64-.73-.81-.47-1.72-.14-2.22.58-.98,1.41-1.77,2.91-2.49,4.44-.53.02-1.02.26-1.32.77-.32.54-.27,1.36.14,1.87-1.32,3.1-2.56,6.25-4.46,9.06-1.18,1.74,1.64,3.36,2.81,1.64,1.96-2.9,3.22-6.17,4.6-9.37.4.12.8.24,1.22.33.65.15,1.3.24,1.96.33.15.02.3.03.45.04.02.27.06.54.13.79.28.96.98,1.72,1.92,2.07.88.33,1.83.19,2.67-.19.39-.18.74-.41,1.07-.69.15-.13.29-.27.43-.41,0,0,.01-.01.02-.02.66-.06,1.27-.54,1.45-1.19.24-.87-.29-1.74-1.13-2-.91-.28-1.78.08-2.45.72-.12.12-.24.25-.36.38-.02.02-.1.1-.11.11-.11.08-.23.16-.35.21-.01,0-.03,0-.05.01,0-.03,0-.04,0-.09.03-.14.03-.18,0-.02.1-.42.23-.79.16-1.23-.32-1.96-2.63-1.55-4-1.78-.55-.09-1.1-.22-1.64-.36.35-.71.72-1.41,1.12-2.09.14.04.3.07.47.07h63.86s-.05.06-.08.1c-.8,1.05-1.68,2.24-2.78,2.94-1.38.88-2.74,1.54-3.49,3.1-.06.12-.12.24-.18.36-.06-.03-.15-.07-.23-.12-.76-.54-1.39-1.16-2.35-1.33-.86-.16-1.75.24-2,1.13-.22.79.27,1.84,1.13,2,.71.13,1.28.88,1.94,1.23,1,.53,2.2.64,3.18.02.84-.53,1.05-1.38,1.55-2.15.3-.46.96-.78,1.55-1.12,1.48-.86,2.61-2.02,3.66-3.37.72-.93,1.45-1.97,2.32-2.79h1.54c-2.76,4.3-5.57,8.58-8.44,12.81-.49.73-.14,1.8.58,2.22.8.47,1.73.15,2.22-.58,3.2-4.71,6.33-9.47,9.39-14.27.15-.24.23-.47.25-.7.77-.92.38-2.73-1.18-2.73Z"/>
    <path class="cls-8" d="M230.61,136.45H18.97c-2.09,0-2.09,3.25,0,3.25h50.03c-.22.28-.36.62-.35.99.04.88.71,1.62,1.62,1.62h8.43c.53,0,1.04-.29,1.34-.72,3.53,4.23,8.26,7.37,13.49,9.08.83.27,1.77-.32,2-1.14.24-.88-.3-1.73-1.13-2-4.56-1.48-8.58-4.24-11.72-7.84h14.48c-.1.88.41,1.84,1.55,1.84h81.34c1.14,0,1.65-.96,1.55-1.84h48.99c2.09,0,2.09-3.25,0-3.25Z"/>
    <path class="cls-8" d="M174.2,147.51c-2.94,4.76-5.83,9.54-8.7,14.34h-72.81c-2.09,0-2.09,3.25,0,3.25h72.98s.09,0,.13-.01c.67.26,1.47.14,1.94-.66,3.05-5.12,6.14-10.21,9.26-15.28,1.1-1.79-1.71-3.42-2.81-1.64Z"/>
    <path class="cls-8" d="M78.81,146.69c-1.42,2.73-2.85,5.47-4.27,8.2-.7,1.34-1.4,2.68-2.1,4.03-.36.7-.72,1.39-1.09,2.09-.21.4-.41.98-.69,1.4-.38.03-.8-.02-1.16-.02-.72,0-1.43,0-2.15,0-1.38,0-2.76,0-4.13-.01-2.09,0-2.09,3.24,0,3.25,2.37,0,4.74.01,7.11.02,1.21,0,2.25-.18,2.93-1.28.63-1.01,1.12-2.14,1.67-3.19,2.23-4.28,4.45-8.55,6.68-12.83.96-1.85-1.84-3.5-2.81-1.64Z"/>
    <path class="cls-9" d="M50.31,101.53c-1.64-1.77-3.21-3.56-4.6-5.53-2.77-3.91-5.01-8.18-6.94-12.56-1.96-4.44-3.59-9.01-5.21-13.58-1.83-5.17-3.63-10.35-5.03-15.66-1.56-5.89-2.58-11.89-2.58-17.99,0-1.58-1.85-1.97-2.76-1.16-.81-.27-1.76,0-1.97,1.07-1.63,8.28-2.7,16.67-3.17,25.09-.23,4.22-.32,8.45-.25,12.68.06,3.94-.05,8.14,1.08,11.95-.32.26-.53.66-.52,1.2.19,15.61.39,31.21.58,46.82,0,.55.24.95.57,1.21.33.58.96,1,1.78.85,1.85-.33,4.09-.39,5.81-1.17,1.84-.83,1.94-2.63,2.24-4.39.64-3.7,1.62-7.52,3.27-10.91.72-1.47,1.6-2.89,2.89-3.93,1.42-1.15,3.22-1.72,4.91-2.32,3.94-1.41,7.88-2.82,11.82-4.23.62-.22,1.26-.83,1.19-1.57-.23-2.39-1.52-4.16-3.11-5.87Z"/>
    <path class="cls-9" d="M230.79,40.57c-1.02-3.53-2.72-6.84-5.32-9.47-.84-.85-1.94-.47-2.46.29-.93-.21-2.02.29-1.97,1.51l1.48,33.1c.25,5.49.56,10.98.7,16.48.14,5.25.02,10.57-1.23,15.7-1.09,4.48-3.03,8.73-6.09,12.17-3.81.17-7.59,1.02-11.13,2.52-4.71-7.4-14.08-9.82-22.46-9.1-1.15.1-2.3.33-3.45.38-1.19.05-1.78-.48-2.53-1.34-1.54-1.8-3.02-3.65-4.64-5.39-3.24-3.48-6.94-6.35-11.25-8.37-8.93-4.19-18.98-6.43-28.78-7.21-9.7-.77-19.56.12-28.91,2.82-10.04,2.89-19.42,7.81-27.43,14.53-1.6,1.35.71,3.63,2.3,2.3,13.96-11.72,32.26-17.26,50.36-16.6,9.61.35,19.23,2.34,28.19,5.85,4.32,1.7,8.23,4.03,11.56,7.28,1.61,1.57,3.09,3.27,4.54,4.99,1.26,1.5,2.46,3.43,4.4,4.12,1.19.43,2.41.29,3.63.14,1.35-.17,2.7-.3,4.06-.34,1.45-.04,2.89.01,4.32.18-.18.86.36,1.59,1.15,1.89,4.68,1.76,9.14,4.24,13.08,7.32.69.54,1.62.67,2.3,0,.03-.03.05-.07.08-.1,2.98-1.4,6.17-2.23,9.41-2.51.19.27.47.48.85.53,4.51.61,8.93,1.81,13.1,3.64.67.29,1.3.13,1.76-.23.52-.22.93-.69.96-1.41.53-10.74.71-21.5.55-32.25-.01-.65-.34-1.1-.78-1.35.89-6.73,1.4-13.51,1.48-20.3.09-7.15.18-14.8-1.83-21.73Z"/>
    <path class="cls-9" d="M190.49,86.03c-3.34,6.67-12.08,5.71-18.18,4.81-.87-.13-1.75.22-2,1.14-.21.77.26,1.87,1.13,2,4.42.65,9.02,1.34,13.41.13,3.5-.96,6.78-3.13,8.44-6.44.93-1.87-1.87-3.51-2.81-1.64Z"/>
    <path class="cls-9" d="M169.66,66.05c-.08,4.08-3.05,6.76-6.52,8.38-3.37,1.58-7.3,1.94-10.91,1.1-2.03-.47-2.9,2.66-.86,3.13,8.63,2.01,21.35-2.21,21.55-12.62.04-2.09-3.21-2.09-3.25,0Z"/>
    <path class="cls-9" d="M135.93,65.24c-.65,3.97-3.64,7.16-7.38,8.52-4.66,1.68-9.83.68-14.21-1.36-1.88-.88-3.54,1.92-1.64,2.81,5.23,2.43,11.48,3.72,17.04,1.56,4.6-1.79,8.52-5.66,9.33-10.66.33-2.05-2.8-2.93-3.13-.86Z"/>
    <path class="cls-9" d="M96.27,76.14c-3.76,1.24-7.81.77-11.24-1.18-1.53-.87-2.89-1.98-4.08-3.27-1.14-1.25-2.37-2.8-2.53-4.55-.18-2.07-3.43-2.09-3.25,0,.39,4.48,4.25,8.27,7.94,10.46,4.2,2.49,9.37,3.21,14.03,1.67,1.98-.65,1.13-3.79-.86-3.13Z"/>
    <path class="cls-9" d="M73.05,91.95c-1.93.52-3.93.46-5.91.41-1.93-.05-3.64-.27-5.25-1.4-2.69-1.87-5.08-5.08-5.5-8.39-.11-.87-.67-1.62-1.62-1.62-.79,0-1.73.75-1.62,1.62.56,4.48,3.25,8.39,6.86,11.02,1.93,1.41,4.12,1.91,6.48,2,2.48.09,5.02.14,7.44-.51,2.02-.54,1.16-3.67-.86-3.13Z"/>
    <path class="cls-13" d="M185.85,132.61h-.06c-.12-.35-.25-.69-.38-1.04.71-.26,1.24-.93.93-1.87-4.13-12.45-9.8-25.62-21.88-32.24-.79-.43-1.54-.16-2,.37-6.56-4.93-14.15-8.23-22.42-9.64-12.11-2.07-24.91-1.48-36.85,1.39-9.74,2.34-18.5,7.29-25.3,14.68-7.2,7.83-11.85,17.77-13.01,28.35h-.35c-2.09,0-2.09,3.25,0,3.25h121.31c2.09,0,2.09-3.25,0-3.25ZM132.17,131.98c-.14.19-.21.41-.23.63h-17.28c0-.07,0-.14-.03-.21-1.17-5.3,3.43-9.77,8.57-9.69,2.48.04,4.82,1.12,6.58,2.84,1.41,1.37,3.83,4.44,2.38,6.42ZM135.53,132.61c.87-2.21-.13-4.86-1.35-6.78-1.46-2.29-3.57-4.19-6.06-5.27-5.18-2.26-11.47-.85-14.83,3.8-1.71,2.38-2.35,5.39-1.89,8.26h-43.25c1.95-17.86,15.15-33.67,32.3-38.92,11.18-3.42,23.47-4.18,35.05-2.89,5.51.61,11.06,1.87,16.11,4.19,4.55,2.09,8.73,4.93,12.42,8.32,8.64,7.92,14.38,18.37,18.32,29.29h-46.82Z"/>
    <path class="cls-6" d="M181.57,155.68c10.54,0,21.08,0,31.63,0,2.09,0,2.09-3.25,0-3.25-10.54,0-21.08,0-31.63,0-2.09,0-2.09,3.25,0,3.25h0Z"/>
    <path class="cls-6" d="M221.33,158.45h-23.49c-2.09,0-2.09,3.25,0,3.25h23.49c2.09,0,2.09-3.25,0-3.25h0Z"/>
    <path class="cls-6" d="M188.2,162.3c2.09,0,2.09-3.25,0-3.25s-2.09,3.25,0,3.25h0Z"/>
    <path class="cls-6" d="M52.06,148.51c-5.12,0-10.24,0-15.36,0-2.09,0-2.09,3.25,0,3.25,5.12,0,10.24,0,15.36,0,2.09,0,2.09-3.25,0-3.25h0Z"/>
    <path class="cls-6" d="M43.93,160.2c2.09,0,2.09-3.25,0-3.25s-2.09,3.25,0,3.25h0Z"/>
    <path class="cls-6" d="M38.51,156.95h-10.84c-.85,0-1.66.75-1.62,1.62s.71,1.62,1.62,1.62h10.84c.85,0,1.66-.75,1.62-1.62s-.71-1.62-1.62-1.62h0Z"/>
  </g>
  <g id="Layer_1" data-name="Layer 1">
    <path class="cls-3" d="M105.39,120.44c-5.62-9.25-33.14-3.36-22.59,8.72,6.5,5.93,28.8,4.17,22.59-8.72Z"/>
    <path class="cls-3" d="M164.47,120.44c-5.62-9.25-33.14-3.36-22.59,8.72,6.5,5.93,28.8,4.17,22.59-8.72Z"/>
    <g>
      <path class="cls-4" d="M16.2,42.19v21.69c0,15.36,0,30.72,0,46.08s0,28.63,0,42.94v11.43c0,.56,0,1.11,0,1.67.08,5.45,4.03,10.28,9.48,11.12,1.75.27,3.6.15,5.37.15h10.58c12.12,0,24.23,0,36.35,0,15.88,0,31.77,0,47.65,0h47.29c12.05,0,24.09,0,36.14,0h10.19c2.11,0,4.34.16,6.38-.43,4.84-1.39,8.1-5.88,8.17-10.87,0-.65,0-1.3,0-1.95,0-3.92,0-7.85,0-11.77,0-14.28,0-28.55,0-42.83s0-30.78,0-46.18c0-7.53.11-15.07,0-22.6-.07-5.01-3.36-9.52-8.23-10.88-1.25-.35-2.53-.42-3.82-.41l-6.89.05c-10.52.08-21.05.17-31.57.25-15.18.12-30.35.24-45.53.36-16.22.13-32.45.26-48.67.39l-40.14.32-20.74.17c-.62,0-1.23,0-1.85.07-5.76.61-10.05,5.46-10.15,11.21-.04,2.09,3.21,2.09,3.25,0,.08-4.42,3.57-7.93,7.99-8.02.46-.01.93,0,1.39-.01l8.14-.06c10.9-.09,21.8-.17,32.7-.26,15.21-.12,30.43-.24,45.64-.36s31.85-.25,47.78-.38l39.1-.31,19.62-.16c1.31-.01,2.6.09,3.83.61,3.1,1.31,4.89,4.35,4.91,7.64.01,2.59,0,5.18,0,7.77,0,12.83,0,25.66,0,38.48s0,31.65,0,47.48c0,9.92,0,19.83,0,29.75,0,.55,0,1.09,0,1.64-.07,4.44-3.61,7.96-8.04,8.03-1.44.02-2.89,0-4.33,0-9.1,0-18.21,0-27.31,0-14.4,0-28.8,0-43.19,0-16.09,0-32.18,0-48.26,0H30.9c-1.72,0-3.67.19-5.34-.23-3.68-.92-6.07-4.21-6.11-7.94,0-.8,0-1.61,0-2.41,0-10.7,0-21.39,0-32.09s0-31.7,0-47.55v-41.63c0-2.09-3.25-2.09-3.25,0Z"/>
      <g>
        <path class="cls-4" d="M64.79,135.83c1.04-12.14,5.81-23.67,14.56-32.28,7.48-7.36,17.16-12.12,27.32-14.55,10.52-2.52,21.67-2.62,32.26-.46,10.32,2.1,20.4,6.33,28.57,13.06s14.08,15.72,16.55,26.02c.56,2.35.94,4.72,1.16,7.12.19,2.07,3.44,2.09,3.25,0-1.16-12.5-6.51-24.03-15.6-32.73-8.07-7.73-18.37-12.91-29.13-15.7-11.06-2.87-22.76-3.31-34-1.27s-21.49,6.49-29.98,13.73c-8.87,7.56-14.81,18-17.14,29.39-.52,2.53-.86,5.09-1.08,7.66-.18,2.08,3.07,2.07,3.25,0h0Z"/>
        <path class="cls-4" d="M114.88,128.05c.07-.46.2-.91.38-1.34l-.16.39c.2-.46.45-.89.75-1.29l-.25.33c.15-.19.31-.37.48-.54.29-.3.48-.73.48-1.15s-.18-.87-.48-1.15-.72-.5-1.15-.48-.84.16-1.15.48c-.52.52-.98,1.13-1.31,1.79s-.6,1.37-.72,2.1c-.07.22-.08.43-.03.65,0,.22.07.42.19.6.2.34.58.66.97.75.42.09.88.07,1.25-.16.33-.21.68-.56.75-.97h0Z"/>
        <path class="cls-4" d="M121.52,122.61c.13-.07.27-.13.4-.19l-.39.16c.59-.25,1.21-.42,1.85-.5l-.43.06c.61-.08,1.23-.08,1.84,0l-.43-.06s.1.01.15.02c.45.07.84.07,1.25-.16.34-.2.66-.58.75-.97.09-.42.07-.88-.16-1.25-.21-.33-.56-.69-.97-.75-.51-.08-1.02-.14-1.54-.14s-.98.06-1.46.14c-.87.13-1.71.44-2.49.83-.35.17-.65.6-.75.97-.11.39-.06.91.16,1.25.5.78,1.41.99,2.22.58h0Z"/>
        <path class="cls-4" d="M131.2,125.16c.33.26.62.56.88.9l-.25-.33c.28.36.5.76.68,1.18l-.16-.39c.17.42.3.86.36,1.31l-.06-.43s0,.07.01.11c0,.22.04.43.14.63.07.2.18.38.34.52.28.28.74.49,1.15.48s.86-.16,1.15-.48c.27-.3.52-.73.48-1.15-.06-.48-.12-.96-.27-1.42s-.33-.9-.56-1.32c-.39-.72-.94-1.4-1.58-1.91-.35-.28-.69-.48-1.15-.48-.4,0-.87.18-1.15.48s-.5.72-.48,1.15c.02.4.15.88.48,1.15h0Z"/>
        <path class="cls-4" d="M143.85,123.17c0,1.18,0,2.36,0,3.54,0,.42.18.85.48,1.15s.74.49,1.15.48.86-.16,1.15-.48.48-.71.48-1.15c0-1.18,0-2.36,0-3.54,0-.42-.18-.85-.48-1.15s-.74-.49-1.15-.48-.86.16-1.15.48-.48.71-.48,1.15h0Z"/>
        <path class="cls-4" d="M150.9,123.17c0,1.18,0,2.36,0,3.54,0,.42.18.85.48,1.15s.74.49,1.15.48.86-.16,1.15-.48.48-.71.48-1.15c0-1.18,0-2.36,0-3.54,0-.42-.18-.85-.48-1.15s-.74-.49-1.15-.48-.86.16-1.15.48-.48.71-.48,1.15h0Z"/>
        <path class="cls-4" d="M157.94,123.17v3.54c0,.42.18.85.48,1.15s.74.49,1.15.48.86-.16,1.15-.48.48-.71.48-1.15v-3.54c0-.42-.18-.85-.48-1.15s-.74-.49-1.15-.48-.86.16-1.15.48-.48.71-.48,1.15h0Z"/>
        <path class="cls-4" d="M83.45,123.17c0,1.18,0,2.36,0,3.54,0,.42.18.85.48,1.15s.74.49,1.15.48.86-.16,1.15-.48.48-.71.48-1.15c0-1.18,0-2.36,0-3.54,0-.42-.18-.85-.48-1.15s-.74-.49-1.15-.48-.86.16-1.15.48-.48.71-.48,1.15h0Z"/>
        <path class="cls-4" d="M90.59,123.17c0,1.18,0,2.36,0,3.54,0,.42.18.85.48,1.15s.74.49,1.15.48.86-.16,1.15-.48.48-.71.48-1.15c0-1.18,0-2.36,0-3.54,0-.42-.18-.85-.48-1.15s-.74-.49-1.15-.48-.86.16-1.15.48-.48.71-.48,1.15h0Z"/>
        <path class="cls-4" d="M97.74,123.17c0,1.18,0,2.36,0,3.54,0,.42.18.85.48,1.15s.74.49,1.15.48.86-.16,1.15-.48.48-.71.48-1.15c0-1.18,0-2.36,0-3.54,0-.42-.18-.85-.48-1.15s-.74-.49-1.15-.48-.86.16-1.15.48-.48.71-.48,1.15h0Z"/>
      </g>
      <path class="cls-4" d="M19.17,137.46c12.08.04,24.16.06,36.23.08,14.68.02,29.37.03,44.05.04,15.69,0,31.38,0,47.06,0,14.86,0,29.73-.02,44.59-.04,12.4-.02,24.79-.04,37.19-.08,1.29,0,2.58,0,3.87-.01,2.09,0,2.09-3.26,0-3.25-12.02.04-24.04.06-36.06.08-14.65.02-29.31.03-43.96.04-15.69,0-31.37,0-47.06,0-14.89,0-29.78-.02-44.67-.04-12.45-.02-24.9-.04-37.35-.08-1.3,0-2.6,0-3.9-.01-2.09,0-2.09,3.24,0,3.25h0Z"/>
      <path class="cls-4" d="M88.02,163.95c20.33,0,40.66,0,61,0,5.83,0,11.67,0,17.5,0,.55,0,1.14-.3,1.4-.8,2.95-5.66,5.91-11.33,8.86-16.99.43-.83.86-1.66,1.3-2.48.56-1.08-.13-2.45-1.4-2.45-20.33,0-40.66,0-61,0-5.83,0-11.67,0-17.5,0-.55,0-1.14.3-1.4.8-2.95,5.66-5.91,11.33-8.86,16.99-.43.83-.86,1.66-1.3,2.48-.97,1.85,1.84,3.5,2.81,1.64,2.95-5.66,5.91-11.33,8.86-16.99.43-.83.86-1.66,1.3-2.48l-1.4.8c20.33,0,40.66,0,61,0,5.83,0,11.67,0,17.5,0l-1.4-2.45c-2.95,5.66-5.91,11.33-8.86,16.99-.43.83-.86,1.66-1.3,2.48l1.4-.8c-20.33,0-40.66,0-61,0-5.83,0-11.67,0-17.5,0-2.09,0-2.09,3.25,0,3.25Z"/>
      <path class="cls-4" d="M58.73,163.95h9.41c2.09,0,2.09-3.25,0-3.25h-6.04c-2.09,0-2.09,3.25,0,3.25h9.41c.55,0,1.15-.3,1.4-.8,2.91-5.68,5.83-11.37,8.74-17.05.41-.81.83-1.62,1.24-2.43.55-1.08-.12-2.45-1.4-2.45h-9.38c-2.09,0-2.09,3.25,0,3.25h6.15c2.09,0,2.09-3.25,0-3.25h-9.38c-.55,0-1.14.3-1.4.8-2.96,5.68-5.93,11.37-8.89,17.05-.42.81-.84,1.62-1.27,2.43-.97,1.85,1.84,3.5,2.81,1.64,2.96-5.68,5.93-11.37,8.89-17.05.42-.81.84-1.62,1.27-2.43l-1.4.8h9.38c2.09,0,2.09-3.25,0-3.25h-6.15c-2.09,0-2.09,3.25,0,3.25h9.38l-1.4-2.45c-2.91,5.68-5.83,11.37-8.74,17.05-.41.81-.83,1.62-1.24,2.43l1.4-.8h-9.41c-2.09,0-2.09,3.25,0,3.25h6.04c2.09,0,2.09-3.25,0-3.25h-9.41c-2.09,0-2.09,3.25,0,3.25Z"/>
      <path class="cls-4" d="M122.8,45.26c-6.4,0-12.16,4.13-14.35,10.12s-.34,12.79,4.42,16.83,12.09,4.88,17.66,1.58,8.26-9.57,7.28-15.8c-1.14-7.32-7.71-12.64-15.02-12.73-2.09-.03-2.09,3.22,0,3.25,5.16.07,9.88,3.38,11.43,8.37s-.05,10.01-3.92,13.14-9.49,3.47-13.74.88-6.54-7.81-5.53-12.72c1.14-5.56,6.06-9.67,11.76-9.67,2.09,0,2.09-3.25,0-3.25Z"/>
      <path class="cls-4" d="M96.49,72.86c-6.09,2.51-13.18-.25-15.8-6.34s.32-13.41,6.23-15.85l-2-1.13c3.04,7.38,6.09,14.77,9.13,22.15.44,1.06.87,2.11,1.31,3.17.34.82,1.08,1.38,2,1.13.77-.2,1.47-1.19,1.13-2-3.04-7.38-6.09-14.77-9.13-22.15-.44-1.06-.87-2.11-1.31-3.17-.3-.73-1.11-1.5-2-1.13-5.88,2.42-9.87,8.27-9.61,14.69s4.49,12.06,10.55,14.09c3.33,1.11,7.12,1.01,10.36-.33.82-.34,1.38-1.08,1.13-2-.2-.77-1.19-1.47-2-1.13Z"/>
      <path class="cls-4" d="M76.56,87.81c-4.15,2.9-9.65,2.95-13.84.09-4.15-2.84-6.11-8.23-4.82-13.07.71-2.66,2.34-5.08,4.6-6.66l-2.45-1.4c-.04,2.14-.06,4.23.29,6.35.47,2.8,1.53,5.53,3.04,7.93,3.06,4.84,7.97,8.41,13.55,9.73,2.03.48,2.9-2.65.86-3.13-4.88-1.16-9.16-4.22-11.77-8.5-1.32-2.16-2.19-4.55-2.58-7.05-.27-1.77-.19-3.55-.15-5.33.02-1.16-1.42-2.12-2.45-1.4-5.24,3.66-7.75,10.28-6.1,16.49s7.11,10.74,13.47,11.38c3.47.35,7.11-.61,9.97-2.61,1.7-1.19.08-4.01-1.64-2.81Z"/>
      <path class="cls-4" d="M150.26,76c5.82,2.4,12.89.68,17.02-4.05,4.2-4.82,5.08-11.83,2.07-17.49-1.69-3.17-4.49-5.56-7.79-6.92-.88-.36-1.7.41-2,1.13-3.04,7.38-6.09,14.77-9.13,22.15-.44,1.06-.87,2.11-1.31,3.17-.34.82.37,1.78,1.13,2,.93.27,1.67-.33,2-1.13,3.04-7.38,6.09-14.77,9.13-22.15.44-1.06.87-2.11,1.31-3.17l-2,1.13c5.91,2.44,8.83,9.8,6.23,15.85s-9.71,8.85-15.8,6.34c-.82-.34-1.78.37-2,1.13-.27.93.33,1.67,1.13,2Z"/>
      <path class="cls-4" d="M169.41,90.62c5.14,3.6,12.41,3.54,17.48-.17,5.15-3.78,7.64-10.41,5.91-16.62-.96-3.45-3.13-6.42-6.06-8.46-1.02-.71-2.47.24-2.45,1.4.03,1.73.12,3.46-.13,5.18-.36,2.55-1.26,5.01-2.6,7.2-2.62,4.28-6.9,7.34-11.77,8.5-2.03.48-1.17,3.62.86,3.13,5.58-1.32,10.5-4.89,13.55-9.73,1.51-2.4,2.58-5.13,3.04-7.93.35-2.12.33-4.22.29-6.35l-2.45,1.4c4.08,2.85,5.89,8.2,4.57,12.96s-5.71,8.54-10.74,8.88c-2.83.19-5.57-.58-7.89-2.2-1.72-1.2-3.34,1.62-1.64,2.81Z"/>
      <path class="cls-4" d="M169.05,126.05c1.52,9.01-4.52,20.07-13.09,23.4-1.93.75-1.09,3.89.86,3.13,10.35-4.01,17.2-16.5,15.36-27.4-.35-2.06-3.48-1.19-3.13.86h0Z"/>
      <path class="cls-4" d="M154.31,150.11v.04c.04-.13.1-.26.15-.39l-.02.04.25-.33-.03.03.33-.25-.04.02.39-.16s-.06.02-.09.02l.43-.06h-.05c.14.02.29.04.43.06h-.05c.13.04.26.1.39.15-.05-.02-.09-.05-.14-.08l.33.25c-.09-.08-.16-.16-.23-.25l.25.33c-.11-.14-.2-.29-.27-.46l.16.39c-.04-.09-.07-.18-.09-.27l.06.43s0-.07,0-.1l-.06.43v-.05c-.04.13-.1.26-.15.39l.02-.04-.25.33.03-.03-.33.25s.05-.03.07-.04l-.39.16s.06-.02.09-.02l-.43.06s.06,0,.09,0l-.43-.06h.04c-.13-.04-.26-.1-.39-.15.03.01.06.03.09.05l-.33-.25s.08.07.12.12l-.25-.33c.22.31.39.67.58.99.2.35.4.7.6,1.05l1.84-2.39c-.4-.11-.81-.18-1.23-.21-.21-.01-.41.01-.62.04-.19.02-.37.04-.55.1-.48.16-.84.37-1.21.7s-.57.73-.73,1.18c-.2.53.04,1.2.42,1.58.2.2.44.34.72.42.29.08.58.08.86,0,.96-.14,1.85-.64,2.56-1.29l-2.72-.72c.09.51.3,1.02.59,1.44.17.25.36.51.59.72.47.45,1.03.73,1.68.64s1.3-.59,1.46-1.29c.13-.52.06-1.07-.2-1.54-.29-.53-.78-1.01-1.32-1.29-.39-.2-.82-.28-1.25-.16-.38.1-.79.4-.97.75-.2.38-.3.83-.16,1.25.13.39.37.78.75.97.1.05.19.11.28.17l-.33-.25c.12.09.22.19.31.31l-.25-.33c.05.07.1.14.14.22l-.16-.39c.02.05.03.1.04.15l-.06-.43s0,.05,0,.08l.06-.43s-.01.07-.03.1l.16-.39-.02.03.25-.33-.02.02.33-.25-.03.02.39-.16h-.03c.14,0,.29-.03.43-.05h-.03c.14.02.29.04.43.06h-.06c.13.04.26.1.39.15l-.05-.03.33.25c-.15-.12-.28-.26-.41-.41l.25.33c-.14-.18-.26-.38-.35-.59l.16.39c-.08-.2-.14-.4-.18-.6-.09-.54-.63-1-1.13-1.13-.58-.16-1.15.02-1.58.42-.07.07-.15.13-.22.19l.33-.25c-.24.18-.49.33-.76.45l.39-.16c-.28.11-.56.19-.85.23l2,2,.02-.05-.16.39c.04-.1.09-.18.16-.26l-.25.33c.07-.08.14-.15.22-.21l-.33.25c.1-.07.2-.13.32-.18l-.39.16c.14-.06.28-.09.43-.11l-.43.06c.2-.02.4-.01.6.01l-.43-.06c.2.03.4.08.59.13.63.18,1.32-.07,1.71-.58s.45-1.23.13-1.8c-.31-.54-.61-1.07-.92-1.61-.25-.43-.51-.88-.96-1.14-.62-.35-1.38-.39-2.01-.02-.74.44-1.05,1.36-.8,2.17.11.36.27.71.49,1.01.35.48.78.96,1.4,1.1.95.2,2.01-.29,2.24-1.3.1-.42.06-.87-.16-1.25-.2-.34-.58-.66-.97-.75-.42-.09-.88-.07-1.25.16-.35.22-.65.56-.75.97h0Z"/>
      <path class="cls-4" d="M74.99,127.74c2.95,14.47,17.39,23.48,31.48,24.01,2.09.08,2.09-3.17,0-3.25-12.72-.48-25.68-8.58-28.34-21.62-.42-2.05-3.55-1.18-3.13.86h0Z"/>
      <path class="cls-4" d="M104.2,149.14c-.59.56-1,1.23-1.29,1.98-.39,1.01-.48,2.36.62,2.98.72.4,1.68.24,2.24-.36.35-.37.56-.85.71-1.33.21-.7.22-1.44.31-2.16l-.06.43c.05-.34.12-.67.24-.99l-.16.39c.13-.29.29-.56.49-.81l-.25.33c.25-.31.52-.62.81-.9l-.33.25.06-.04-.39.16.06-.02h-.86.06c-.24-.12-.48-.26-.72-.4l.04.04-.25-.33.02.05-.16-.39v.06c0-.14-.03-.29-.05-.43,0,.07,0,.14,0,.21l.06-.43c-.01.09-.04.18-.07.27l.16-.39c-.05.11-.11.21-.18.31l.25-.33c-.14.18-.31.33-.49.47l.33-.25c-.12.09-.25.18-.38.26-.49.32-.8.81-.8,1.4s.31,1.11.8,1.4c.65.38,1.29.76,1.94,1.14l.39-2.97c-.21.08-.42.14-.64.17l.43-.06c-.22.03-.44.03-.66,0l.43.06c-.22-.03-.43-.09-.64-.17l.39.16c-.13-.05-.25-.12-.37-.19-.73-.44-1.82-.18-2.22.58s-.19,1.75.58,2.22c1.03.62,2.42.81,3.55.35.26-.11.51-.21.72-.42.25-.25.4-.58.45-.93.09-.64-.21-1.29-.78-1.62-.65-.38-1.29-.76-1.94-1.14v2.81c.8-.52,1.55-1.16,1.83-2.11.2-.7.11-1.61-.46-2.12-.45-.41-1.11-.62-1.71-.41-.38.13-.68.35-.95.63-.64.67-1.19,1.38-1.54,2.25-.31.77-.31,1.63-.41,2.44l.06-.43c-.05.34-.11.66-.24.98l.16-.39c-.04.1-.09.19-.15.28l.25-.33s-.06.07-.1.1l.33-.25s-.07.05-.11.06l.39-.16h-.06c.29,0,.58,0,.86,0h-.05c.13.04.26.1.39.15l-.05-.03.58.58-.03-.05.16.39-.02-.06.06.43c0-.07,0-.14.01-.21l-.06.43c.05-.3.13-.58.24-.86l-.16.39c.12-.28.27-.53.45-.77l-.25.33c.12-.15.25-.29.38-.42.62-.58.63-1.72,0-2.3s-1.64-.62-2.3,0h0Z"/>
      <path class="cls-4" d="M31.09,134.03c-1.54-8.99,3.94-17.97,12.62-20.7.99-.31,2.02-.56,3.05-.71,1.17-.17,2.36-.05,3.53-.21,2.14-.29,2.78-2.43,4.03-3.89,2.37-2.78,5.61-4.69,9.13-5.61,3.96-1.03,8.26-.75,11.93,1.09,1.86.94,3.51-1.87,1.64-2.81-7.55-3.79-16.99-2.29-23.27,3.26-.74.65-1.43,1.37-2.05,2.14-.33.41-.65.82-.95,1.25-.22.31-.56,1.15-.88,1.35-.29.17-1.23,0-1.6.02-.59.03-1.19.09-1.78.17-1.24.16-2.46.42-3.65.79-4.68,1.48-8.78,4.47-11.54,8.53-3.2,4.72-4.31,10.58-3.35,16.17.35,2.06,3.49,1.19,3.13-.86h0Z"/>
      <path class="cls-4" d="M177.75,110.32c8.67-1.87,18.27,1.71,23.53,8.88.56.76,1.35.99,2.22.58,8.7-4.05,18.57-4.2,26.92.77,1.8,1.07,3.44-1.74,1.64-2.81-9.4-5.6-20.44-5.32-30.2-.77l2.22.58c-6.17-8.41-16.99-12.58-27.2-10.37-2.04.44-1.18,3.57.86,3.13h0Z"/>
      <path class="cls-4" d="M146.4,149.02c-8.72,0-17.43,0-26.15,0-2.09,0-2.09,3.25,0,3.25,8.72,0,17.43,0,26.15,0,2.09,0,2.09-3.25,0-3.25h0Z"/>
      <path class="cls-4" d="M114.17,151.76c2.09,0,2.09-3.25,0-3.25s-2.09,3.25,0,3.25h0Z"/>
      <path class="cls-4" d="M32.83,141.14v-.15c0-.15-.03-.3-.1-.43-.05-.14-.12-.26-.23-.36-.1-.11-.22-.19-.36-.23-.13-.07-.28-.1-.43-.1l-.3.04c-.19.05-.36.15-.5.29l-.18.23c-.1.18-.15.36-.15.57v.15c0,.15.03.3.1.43.05.14.12.26.23.36.1.11.22.19.36.23.13.07.28.1.43.1l.3-.04c.19-.05.36-.15.5-.29l.18-.23c.1-.18.15-.36.15-.57h0Z"/>
      <path class="cls-4" d="M36.51,142.41c7.33,0,14.66,0,21.99,0,1.45,0,1.45-2.25,0-2.25-7.33,0-14.66,0-21.99,0-1.45,0-1.45,2.25,0,2.25h0Z"/>
      <path class="cls-4" d="M62,142.26c1.45,0,1.45-2.25,0-2.25s-1.45,2.25,0,2.25h0Z"/>
      <path class="cls-4" d="M188.57,143.86h.09c1.45,0,1.45-2.25,0-2.25h-.09c-1.45,0-1.45,2.25,0,2.25h.09c1.45,0,1.45-2.25,0-2.25h-.09c-1.45,0-1.45,2.25,0,2.25h0Z"/>
      <path class="cls-4" d="M193.96,143.57c8.21,0,16.41,0,24.62,0,1.45,0,1.45-2.25,0-2.25-8.21,0-16.41,0-24.62,0-1.45,0-1.45,2.25,0,2.25h0Z"/>
      <path class="cls-4" d="M222.22,143.28c1.45,0,1.45-2.25,0-2.25s-1.45,2.25,0,2.25h0Z"/>
      <path class="cls-4" d="M219.01,122.59c2.45.05,4.88.66,7.06,1.8.54.28,1.22.14,1.54-.4.3-.51.14-1.26-.4-1.54-2.53-1.33-5.33-2.05-8.19-2.1-.61-.01-1.12.53-1.12,1.12s.52,1.11,1.12,1.12h0Z"/>
      <path class="cls-4" d="M214.35,122.16c1.45,0,1.45-2.25,0-2.25s-1.45,2.25,0,2.25h0Z"/>
      <path class="cls-4" d="M37.01,124.11s.04-.1.06-.14c.1-.24-.07.16,0,.02.05-.11.09-.21.14-.32.09-.2.19-.39.29-.59.22-.41.46-.8.72-1.19.12-.18.26-.35.39-.53-.07.1-.1.13,0,.02.03-.04.06-.08.1-.12.07-.09.15-.18.22-.27.3-.35.63-.68.97-1,.43-.4.44-1.19,0-1.59-.46-.43-1.13-.43-1.59,0-1.53,1.42-2.68,3.17-3.45,5.1-.1.25-.02.64.11.87s.4.46.67.52c.65.15,1.15-.2,1.38-.79h0Z"/>
      <path class="cls-4" d="M42.3,118.17c1.45,0,1.45-2.25,0-2.25s-1.45,2.25,0,2.25h0Z"/>
      <path class="cls-4" d="M39.02,38.93h.41c.15,0,.3-.03.43-.1.14-.05.26-.12.36-.23.11-.1.19-.22.23-.36.07-.13.1-.28.1-.43l-.04-.3c-.05-.19-.15-.36-.29-.5l-.23-.18c-.18-.1-.36-.15-.57-.15h-.41c-.15,0-.3.03-.43.1-.14.05-.26.12-.36.23-.11.1-.19.22-.23.36-.07.13-.1.28-.1.43l.04.3c.05.19.15.36.29.5l.23.18c.18.1.36.15.57.15h0Z"/>
      <path class="cls-4" d="M47.57,38.93h52.5c1.45,0,1.45-2.25,0-2.25h-52.5c-1.45,0-1.45,2.25,0,2.25h0Z"/>
      <path class="cls-4" d="M106.98,38.93c1.45,0,1.45-2.25,0-2.25s-1.45,2.25,0,2.25h0Z"/>
      <path class="cls-4" d="M226.62,58.47c1.45,0,1.45-2.25,0-2.25s-1.45,2.25,0,2.25h0Z"/>
      <path class="cls-4" d="M225.5,65.07v26.04c0,1.45,2.25,1.45,2.25,0v-26.04c0-1.45-2.25-1.45-2.25,0h0Z"/>
      <path class="cls-4" d="M226.62,96.72c1.45,0,1.45-2.25,0-2.25s-1.45,2.25,0,2.25h0Z"/>
    </g>
  </g>
</svg>