<?xml version="1.0" encoding="UTF-8"?>
<svg xmlns="http://www.w3.org/2000/svg" viewBox="0 0 200 200">
  <defs>
    <style>
      .cls-1 {
        fill: #959fb0;
      }

      .cls-2 {
        fill: #a0a0a0;
      }

      .cls-3 {
        opacity: .24;
      }
    </style>
  </defs>
  <g id="Colour">
    <g class="cls-3">
      <path class="cls-1" d="M100,169.1c38.59-12.14,96.24-53.69,89.23-99.14-7.06-34.62-50.97-50.34-78.7-30.05-3.04,2.23-6.75,3.35-10.52,3.35h0c-3.77,0-7.48-1.12-10.52-3.35-27.73-20.28-71.64-4.57-78.7,30.05-7.02,45.45,50.63,87,89.23,99.14"/>
    </g>
  </g>
  <g id="Layer_1" data-name="Layer 1">
    <g>
      <path class="cls-2" d="M93.18,168.45c2.11.79,4.24,1.54,6.39,2.22.81.26,1.81-.3,2-1.13.2-.89-.27-1.73-1.13-2-2.15-.68-4.28-1.42-6.39-2.22-.8-.3-1.82.33-2,1.13-.21.92.28,1.68,1.13,2h0Z"/>
      <path class="cls-2" d="M69.59,157.22c3.86,2.21,7.79,4.28,11.8,6.19.79.38,1.75.22,2.22-.58.41-.71.21-1.84-.58-2.22-4.01-1.91-7.95-3.98-11.8-6.19-.76-.44-1.78-.18-2.22.58s-.18,1.79.58,2.22h0Z"/>
      <path class="cls-2" d="M46.8,141.65c3.44,2.77,6.97,5.4,10.61,7.9.7.48,1.83.15,2.22-.58.44-.83.17-1.71-.58-2.22-3.43-2.36-6.74-4.82-9.95-7.4-.66-.53-1.66-.69-2.3,0-.54.59-.71,1.73,0,2.3h0Z"/>
      <path class="cls-2" d="M27,122.28c3,3.64,6.22,7.1,9.61,10.38.61.59,1.7.65,2.3,0s.65-1.67,0-2.3c-3.39-3.28-6.61-6.74-9.61-10.38-.54-.66-1.74-.6-2.3,0-.64.7-.58,1.6,0,2.3h0Z"/>
      <path class="cls-2" d="M11.75,96.04c1.69,4.89,3.93,9.57,6.57,14.01,1.07,1.8,3.88.16,2.81-1.64-2.5-4.2-4.64-8.61-6.24-13.23-.29-.83-1.11-1.38-2-1.13-.81.22-1.42,1.17-1.13,2h0Z"/>
      <path class="cls-2" d="M8.72,73.67c-.3,3.95-.11,7.89.45,11.8.12.87,1.23,1.35,2,1.13.93-.26,1.26-1.13,1.13-2-.52-3.62-.61-7.3-.33-10.94.07-.88-.79-1.62-1.62-1.62-.93,0-1.56.75-1.62,1.62h0Z"/>
      <path class="cls-2" d="M15.88,53.25c-2.29,3.54-4.09,7.37-5.39,11.38-.27.83.32,1.77,1.13,2,.88.24,1.73-.3,2-1.13,1.21-3.75,2.9-7.26,5.06-10.6.48-.74.15-1.79-.58-2.22-.79-.46-1.75-.16-2.22.58h0Z"/>
      <path class="cls-2" d="M33.29,36.84c-3.65,2.13-7.06,4.68-10.12,7.6-.62.59-.64,1.71,0,2.3s1.64.63,2.3,0c.72-.69,1.46-1.35,2.21-2,.38-.32.76-.64,1.15-.95.21-.16.41-.33.62-.49-.13.1.06-.04.09-.07.12-.09.23-.18.35-.26,1.62-1.21,3.3-2.31,5.04-3.33.73-.43,1.06-1.49.58-2.22s-1.44-1.04-2.22-.58h0Z"/>
      <path class="cls-2" d="M57.41,29.42c-4.95.37-9.82,1.37-14.5,3-.83.29-1.38,1.11-1.13,2,.22.8,1.17,1.43,2,1.13,4.41-1.54,8.98-2.54,13.64-2.89.88-.07,1.62-.7,1.62-1.62,0-.83-.75-1.69-1.62-1.62h0Z"/>
      <path class="cls-2" d="M80.6,33.08c-3.59-1.5-7.36-2.55-11.2-3.15-.87-.14-1.75.22-2,1.13-.21.77.26,1.86,1.13,2,3.85.6,7.61,1.65,11.2,3.15.81.34,1.79-.36,2-1.13.26-.94-.32-1.66-1.13-2h0Z"/>
      <path class="cls-2" d="M100,41.63c-3.48,0-6.79-1.02-9.7-3.13-.69-.5-1.84-.14-2.22.58-.44.84-.15,1.69.58,2.22,3.27,2.36,7.32,3.57,11.34,3.57.85,0,1.66-.75,1.62-1.62s-.71-1.62-1.62-1.62h0Z"/>
      <path class="cls-2" d="M117.08,34.1c-2.59,1.24-5.06,2.71-7.38,4.4-.68.5-1.09,1.43-.58,2.22.44.68,1.49,1.12,2.22.58,2.32-1.69,4.79-3.16,7.38-4.4.77-.37,1.03-1.53.58-2.22-.51-.79-1.4-.98-2.22-.58h0Z"/>
      <path class="cls-2" d="M151.24,30.72c-6.68-1.52-13.51-1.82-20.3-.85-.87.12-1.35,1.23-1.13,2,.26.93,1.13,1.26,2,1.13,6.17-.89,12.5-.54,18.57.85,2.04.46,2.91-2.67.86-3.13h0Z"/>
      <path class="cls-2" d="M181.15,49.16c-3.28-4.09-7.22-7.6-11.56-10.52-.73-.49-1.8-.14-2.22.58-.47.8-.15,1.73.58,2.22,4.09,2.75,7.78,6.13,10.91,10.02.55.68,1.72.57,2.3,0,.68-.68.55-1.61,0-2.3h0Z"/>
      <path class="cls-2" d="M191.41,79.12c.1-3.98-.15-8.02-1.15-11.88-.92-3.57-2.27-7.02-3.97-10.28-.97-1.86-3.77-.21-2.81,1.64,1.57,3.03,2.8,6.2,3.64,9.51.92,3.59,1.13,7.32,1.03,11.02-.05,2.09,3.2,2.09,3.25,0h0Z"/>
      <path class="cls-2" d="M181.35,110.6c2.65-4.38,4.9-9,6.64-13.82.3-.83-.34-1.78-1.13-2-.9-.25-1.7.31-2,1.13-1.64,4.56-3.81,8.9-6.31,13.04-1.08,1.79,1.72,3.43,2.81,1.64h0Z"/>
      <path class="cls-2" d="M168.54,127.4c2.88-3.12,5.6-6.4,8.12-9.81.51-.69.14-1.84-.58-2.22-.85-.45-1.68-.15-2.22.58-.3.4-.6.8-.9,1.2-.32.43-.43.57-.77,1-.62.79-1.26,1.58-1.9,2.35-1.3,1.57-2.65,3.1-4.04,4.6-.58.63-.66,1.69,0,2.3.63.58,1.68.67,2.3,0h0Z"/>
      <path class="cls-2" d="M149.74,144.36c2.67-2.05,5.28-4.16,7.83-6.37.64-.56.62-1.73,0-2.3-.69-.63-1.61-.6-2.3,0-1.2,1.04-2.41,2.06-3.64,3.07-.6.49-1.2.97-1.8,1.45-.32.25-.64.51-.97.76-.15.12-.3.24-.46.35-.2.15.19-.14-.01.01-.1.07-.19.15-.29.22-.35.27-.62.53-.75.97-.11.39-.06.91.16,1.25.43.66,1.5,1.14,2.22.58h0Z"/>
      <path class="cls-2" d="M125.27,160.06c3.36-1.79,6.67-3.68,9.91-5.68.72-.45,1.07-1.47.58-2.22s-1.45-1.06-2.22-.58c-3.24,2-6.55,3.89-9.91,5.68-.75.4-1.05,1.51-.58,2.22.49.76,1.42,1.01,2.22.58h0Z"/>
      <path class="cls-2" d="M100.43,170.66c4.18-1.32,8.27-2.88,12.3-4.6.81-.34.99-1.53.58-2.22-.49-.84-1.41-.93-2.22-.58-3.77,1.6-7.62,3.04-11.52,4.27-.84.26-1.37,1.13-1.13,2s1.16,1.4,2,1.13h0Z"/>
      <path class="cls-2" d="M161.1,37.69c2.09,0,2.09-3.25,0-3.25s-2.09,3.25,0,3.25h0Z"/>
      <path class="cls-2" d="M23.58,116.91c2.09,0,2.09-3.25,0-3.25s-2.09,3.25,0,3.25h0Z"/>
      <path class="cls-2" d="M118.13,163.85c2.09,0,2.09-3.25,0-3.25s-2.09,3.25,0,3.25h0Z"/>
      <path class="cls-2" d="M142.61,149.52c2.09,0,2.09-3.25,0-3.25s-2.09,3.25,0,3.25h0Z"/>
    </g>
  </g>
</svg>