<?xml version="1.0" encoding="UTF-8"?>
<svg xmlns="http://www.w3.org/2000/svg" viewBox="0 0 200 200">
  <defs>
    <style>
      .cls-1 {
        fill: #f2cb86;
      }

      .cls-2 {
        fill: #f4cccb;
      }

      .cls-3 {
        fill: #f47b0f;
      }

      .cls-4 {
        fill: #f9f2e8;
      }

      .cls-5 {
        fill: #fd8810;
      }

      .cls-6 {
        fill: #fff5e1;
      }

      .cls-7 {
        fill: #f47f00;
      }

      .cls-8 {
        fill: #fff9ee;
      }

      .cls-9, .cls-10, .cls-11 {
        fill: #eab69b;
      }

      .cls-12 {
        fill: #edabac;
      }

      .cls-13 {
        fill: #b3c178;
      }

      .cls-14 {
        fill: #a0a0a0;
      }

      .cls-15 {
        fill: #fb8900;
      }

      .cls-16 {
        fill: #f9eedc;
      }

      .cls-17 {
        fill: #b0ba74;
      }

      .cls-18 {
        fill: #fff;
      }

      .cls-19 {
        fill: #eac3c3;
      }

      .cls-10 {
        opacity: .16;
      }

      .cls-11, .cls-20 {
        opacity: .24;
      }

      .cls-21 {
        opacity: .64;
      }

      .cls-22 {
        fill: #f2c3c0;
      }

      .cls-23 {
        fill: #ecbe6b;
      }

      .cls-24 {
        fill: #eab8b7;
      }

      .cls-25 {
        fill: #c5d4e2;
      }
    </style>
  </defs>
  <g id="Colour">
    <g class="cls-20">
      <path class="cls-9" d="M100,169.1c38.59-12.14,96.24-53.69,89.23-99.14-7.06-34.62-50.97-50.34-78.7-30.05-3.04,2.23-6.75,3.35-10.52,3.35h0c-3.77,0-7.48-1.12-10.52-3.35-27.73-20.28-71.64-4.57-78.7,30.05-7.02,45.45,50.63,87,89.23,99.14"/>
    </g>
    <path class="cls-10" d="M65.05,31.49c-8.94.06-18.21.52-26.31,4.25-.44-.59-1.19-.88-1.96-.31-3.24,2.39-5.93,5.31-8.36,8.45-.51-.36-1.21-.48-1.79-.16-5,2.81-8.3,7.8-10.62,12.92-2.49,5.48-3.92,11.35-4.4,17.35-.94,11.78,2.06,23.55,7.54,33.94,3.07,5.83,6.93,11.22,11.26,16.17.65.74,1.49.62,2.07.13,1.12,1.53,2.32,3,3.64,4.38.65.68,2.14.64,2.55-.33,1.03-2.41,2.29-4.69,3.8-6.83,1.21-1.71-1.61-3.34-2.81-1.64-1.06,1.51-2,3.09-2.82,4.74-3.61-4.31-6.2-9.37-8.71-14.38-2.93-5.87-5.64-11.87-7.5-18.18-1.85-6.3-2.8-12.86-2.22-19.42.59-6.67,3.11-12.62,6.68-18.23,2.66-4.18,5.5-8.52,8.97-12.18.29-.07.57-.21.82-.41,8.52-6.58,19.89-6.93,30.18-7,2.09-.01,2.1-3.26,0-3.25Z"/>
    <path class="cls-10" d="M188.96,74.54c-.1-.72-.48-1.33-1.14-1.54-.68-8.09-3-16.04-7.01-23.23-.65-1.17-2.04-.92-2.68-.1-.56-1.63-1.16-3.25-1.8-4.85-.33-.82-1.08-1.38-2-1.13-.77.2-1.46,1.19-1.13,2,3.99,9.88,6.34,20.39,6.87,31.04.26,5.35.08,10.72-.55,16.05-.31,2.62-.7,5.26-1.37,7.82-.4,1.53-.98,2.96-1.68,4.34-.52-.23-1.15-.18-1.66.38-2.07,2.27-4.68,3.94-7.65,4.75-3.39.93-6.96.8-10.45.69-.32,0-.59.07-.81.19-.29-.2-.58-.4-.87-.59-.74-.47-1.79-.15-2.22.58-.46.79-.16,1.75.58,2.22,3.88,2.48,7.11,5.82,9.54,9.7-.48,1.03.15,2.48,1.35,2.38.13.26.28.51.4.78.38.79,1.51,1,2.22.58.49-.29.74-.75.77-1.25.15-.1.29-.23.42-.4,3.25-4.43,6.51-8.85,9.74-13.29,2.72-3.73,4.88-7.65,6.07-12.07,3.17-7.95,6.21-16.36,5.06-25.04ZM169.33,115.6c-.9,1.26-1.8,2.53-2.71,3.79-.34.47-.71.98-1.12,1.43-1.59-2.49-3.51-4.76-5.67-6.76,2.88.01,5.77-.15,8.53-.97,1.4-.41,2.74-1,4.01-1.72-1.01,1.41-2.03,2.81-3.04,4.22Z"/>
    <path class="cls-10" d="M146.9,52.19c-3.62,5.77-9.15,10.36-15.57,12.69-7.62,2.77-15.84,2.54-23.82,2.31-1.86-.05-2.06,2.52-.6,3.12,0,.03,0,.06.01.09.57,2.2,1.04,4.43,1.36,6.69.31,2.2.63,4.57.16,6.76-.81,3.8-3.83,6.56-6.75,8.87-.69.55-.56,1.72,0,2.3.67.68,1.61.54,2.29,0,.29.36.71.6,1.21.57,3.51-.26,7.03-.16,10.52.3.85.11,1.66-.83,1.62-1.62-.04-.97-.72-1.51-1.62-1.62-2.86-.37-5.73-.49-8.61-.39,2.1-2.12,3.84-4.59,4.48-7.54.52-2.44.31-4.93-.01-7.38-.3-2.3-.73-4.57-1.27-6.82,7.63.17,15.46.03,22.63-2.78,6.94-2.72,12.82-7.61,16.78-13.91,1.12-1.78-1.69-3.41-2.81-1.64Z"/>
    <path class="cls-10" d="M87.2,86.57c-.44-4.3-2.11-8.6-5.6-11.32-.69-.54-1.62-.67-2.3,0-.56.56-.7,1.75,0,2.3,2.72,2.13,4.18,5.29,4.61,8.67.24,1.88.2,3.81.02,5.69-.08.78-.21,1.74-.6,2.52-.44-.02-.88.12-1.15.47-.63.82-.94,1.88-.26,2.78.49.65,1.44,1.14,2.22.58,1.61-1.14,2.47-2.83,2.82-4.75.4-2.26.47-4.65.24-6.93Z"/>
    <path class="cls-18" d="M40.45,33.77c-6.4,4.46-8.9,12.44-11.39,19.46-2.87,8.08-5.42,16.95-4.3,25.61.95,7.33,5.27,14.61,12.75,16.75s14.04-2.5,18.51-7.95c5.41-6.6,9.18-14.48,13.4-21.85,2.13-3.74,4.34-7.46,6.89-10.94,2.33-3.17,5.21-6.13,9-7.46s8.22-1.71,12.27-1.92,8.05.29,11.17,3.03c2.84,2.5,5.01,6.1,5.83,9.8.41,1.83.41,3.82-.33,5.57s-2.31,3.24-3.79,4.5c-11.01,9.32-24.32,16.1-32.94,28.02-4.16,5.74-8.76,14.82-3.92,21.47s14.49,5.93,20.85,1.71c6.86-4.55,11.22-11.97,15.45-18.81,2.2-3.56,4.4-7.14,6.95-10.47,2.55-3.35,5.54-6.31,8.72-9.06s6.64-5.4,9.92-8.14c3.09-2.58,6.02-5.31,8.94-8.08,5.8-5.49,11.6-11.12,18.48-15.26,2.36-1.43,7.65-5.05,9.4-1.09,1.65,3.73-.19,7.93-2.14,11.15-2.16,3.57-4.88,6.79-7.28,10.2s-4.56,6.8-6.47,10.41c-3.73,7.05-6.38,14.88-6.25,22.94.06,3.92.92,8.05,3.68,10.99,2.53,2.69,6.32,3.92,9.85,2.65,1.79-.64,3.36-1.71,5.02-2.62,1.51-.83,3.54-1.68,5.23-.88,1.88.89,3.53-1.91,1.64-2.81-3.88-1.83-7.43.3-10.79,2.21-1.53.87-3.2,1.65-5.01,1.3-1.64-.32-3.1-1.38-4.12-2.68-2.42-3.12-2.44-7.56-2.16-11.31s1.27-7.72,2.64-11.38c2.82-7.56,7.4-14.38,12.18-20.82,2.45-3.3,5.02-6.55,6.59-10.4,1.41-3.45,1.9-7.73-.07-11.09-2.18-3.7-6.41-3.21-9.79-1.64s-6.73,3.85-9.77,6.19c-6.27,4.82-11.78,10.5-17.61,15.81s-12.97,10.24-18.77,16.12c-5.88,5.95-9.93,13.27-14.39,20.26-4.15,6.5-9.25,13.98-17.17,16.03-3.61.93-7.68.37-10.36-2.4-2.86-2.94-2.42-7.22-1.14-10.78,2.42-6.7,7.54-12.33,12.79-16.96s11.24-8.7,16.96-12.91c2.95-2.18,6.07-4.34,8.68-6.93,2.91-2.89,4.24-6.53,3.65-10.62-1.04-7.23-6.7-14.58-14.05-16.06-4.11-.83-8.32-.29-12.43.23s-8.07,1.28-11.46,3.67c-3.14,2.21-5.52,5.23-7.67,8.37-2.49,3.63-4.7,7.45-6.85,11.29s-4.19,7.58-6.42,11.28c-2.03,3.38-4.15,6.76-6.86,9.65-2.35,2.5-5.17,4.72-8.58,5.51s-6.77-.24-9.44-2.33c-6.43-5.01-7.1-13.88-5.95-21.36.67-4.36,1.87-8.63,3.28-12.81,1.3-3.85,2.65-7.76,4.4-11.44,1.47-3.1,3.34-6.1,6.2-8.09,1.7-1.19.08-4-1.64-2.81h0Z"/>
    <path class="cls-5" d="M101.91,47.07c-.42-.39-.94-.59-1.49-.71-.39-.44-1.02-.71-1.66-.56-.53.12-1.06.23-1.59.32-.68-.01-1.35-.01-2.03-.01-3.96,0-8.55,0-11.32-3.31-.31-.37-.8-.5-1.28-.46-.7-.9-1.41-1.79-2.16-2.65-1.94-2.25-4.15-4.82-7.18-5.49-4.95-1.1-13.72.94-13.02,7.55.04.41.2.79.45,1.08.25,8.11,8.89,13.56,15.39,16.9,3.94,2.02,8.11,3.63,12.4,4.73,2.33.6,12.21,2.71,10.37-2.63-.79-2.29-1.89-4.27-1.41-6.78.28-1.47.88-2.83,1.6-4.14.16.12.35.21.58.27,2.38.61,4.24-2.36,2.35-4.11Z"/>
    <g>
      <path class="cls-14" d="M41.26,101.11s.01-.02,0,0h0Z"/>
      <g>
        <path class="cls-14" d="M44.48,106.54s.01,0,.02.01c-.26-.26-.12-.09-.02-.01Z"/>
        <path class="cls-2" d="M69.98,84.37c-2.27-1.15-5.01-.66-7.1.66-1.13.72-2.13,1.65-3.05,2.61-.91.96-1.34,1.57-2.74,1.34-1.44-.23-2.82-.68-4.29-.33-1.16.28-2.19.98-3.02,1.82-.95.96-1.64,2.13-2.44,3.21-.35.47-.87,1.11-1.46,1.56-.5-.32-1.15-.4-1.69-.06-1.17.74-2.35,1.47-3.51,2.23-1.08.71-2.11,1.55-2.63,2.77-.58,1.38-.36,2.94.42,4.2.14.22.29.42.46.61-.41.52-.59,1.27-.17,1.84,2.05,2.76,4.97,4.71,8.26,5.52.16.63.66,1.17,1.51,1.18,5.61.04,11.65-.59,16.9-2.68,2.29-.91,4.42-2.21,5.86-4.27,1.58-2.27,2.07-5.13,2.46-7.81.65-4.48,1.12-11.94-3.75-14.41Z"/>
      </g>
    </g>
    <path class="cls-6" d="M146.56,96.62c-2.46-1.67-5.57-2.09-8.22-3.37-3.03-1.47-5.36-3.69-8.05-5.64-2.53-1.84-6.02-2.99-8.95-1.36-2.33,1.29-3.54,4.02-3.54,6.61,0,3.24,1.8,6.14,3.7,8.63,2.1,2.76,4.53,5.25,7.39,7.24,2.94,2.04,6.17,3.2,9.67,3.85.68.13,1.23-.15,1.59-.57,4.77-.31,9.26-3.06,9.75-8.35.27-2.83-1-5.43-3.34-7.01Z"/>
    <path class="cls-15" d="M126.27,28.35c-2.35-.27-4.67.1-6.91.83-1.92.63-4.01,1.6-6.07,1.24-2.05-.36-3.76-1.77-5.8-2.22-1.85-.42-3.74-.13-5.5.5-1.99.72-3.86,1.81-5.92,2.34-2.41.62-4.56-.39-6.87-.98-2.15-.56-4.77-.41-6.62.73-.21-.23-.47-.42-.78-.49-.43-.1-.87-.06-1.25.16-1.12.65-2.17,1.46-3.08,2.37-.29.29-.48.73-.48,1.15s.18.87.48,1.15c.15.14.33.26.52.35-.21.41-.2.9.18,1.41,2.55,3.38,5.92,5.88,9.95,7.21,2.32.77,4.75,1.14,7.14,1.55,2.43.42,4.86.83,7.29,1.21,4.93.77,9.88,1.42,14.86,1.69,4.07.22,9.45.95,12.58-2.3,1.39-1.45,2.21-3.34,2.94-5.19.69-1.72,1.22-3.6,1.18-5.47-.09-4.51-3.74-6.75-7.85-7.23Z"/>
    <path class="cls-13" d="M120.47,158.44c-.39-2.74-.32-5.52-.49-8.28-.18-2.87-.68-5.7-1.19-8.53-.96-5.3-1.44-11.05-3.82-15.95,0,0,0,0,0,0,0-.11,0-.21,0-.32-.96-6.78-5.64-13.21-12.61-14.59-.27-.69-.94-1.22-1.87-.95-.21.06-.43.11-.64.15-.61-.39-1.25-.73-1.9-1.03-2.32-1.09-4.64-2.1-6.82-3.46-.18-.11-.35-.18-.53-.21-.29-.92-.52-1.83-.41-2.79.3-2.64,3.09-4.83,4.97-6.42,2.23-1.89,4.61-3.61,6.95-5.36.54.28,1.22.26,1.77-.32,1.45-1.55,2.9-3.15,3.71-5.14.87-2.13.73-4.53.59-6.78-.26-4.23-1.55-8.75-5.52-10.92-.48-.26-1.02-.24-1.48-.03-.52-.66-1.05-1.3-1.58-1.93-1.35-1.6-3.64.71-2.3,2.3,1.65,1.95,3.37,4.04,4.14,6.44.15.91.27,1.83.34,2.75-.13.3-.14.65.02,1.06,1.76,4.47-1.86,9.94-6.1,11.42-2.45.86-4.63,1.87-6.71,3.46-1.92,1.47-3.95,3.11-5.14,5.25-2.33,4.17-1.44,9.56,2.39,12.51.82.63,1.17,1.69,2.26,1.53.04,0,2.11,2.3,2,.83,3.01,2.82,6.25,2.24,10.29,2.51.08.07.18.14.28.21,2.26,1.33,4.56,2.67,6.48,4.39.25.23.5.47.75.72-.12.37-.11.79.11,1.23,3.02,5.99,5.15,12.44,6.26,19.06-.53.2-.92.68-.86,1.44.47,5.68,1.63,11.26,3.53,16.63.71,2.01,3.43,1.18,3.13-.86Z"/>
    <path class="cls-13" d="M142.9,118.94c0-1.49-.01-2.98-.02-4.48,0-.85-.74-1.66-1.62-1.62-.88.04-1.63.71-1.62,1.62,0,1.17.01,2.33.02,3.5-.46.07-.89.32-1.15.76-.63,1.04-1.23,2.11-1.91,3.13-.12.19-.25.33-.37.46-.05,0-.1,0-.16.01-1.45-.31-2.71.56-3.72,1.73-.71.41-1.4.87-2.02,1.42-1.4,1.25-2.31,2.94-2.86,4.71-1.19,3.83-.5,7.95-1.72,11.78-.16.49-.08.91.12,1.24-.92,4.34-1.79,8.7-2.65,13.05-.4,2.03,2.65,2.92,3.13.86.77-3.26,1.53-6.56,2.81-9.67.64-1.56,1.24-2.89,1.29-4.6.05-1.46.08-2.86.39-4.3,1.18-5.38,4.65-10.04,9.49-12.66.68-.37.88-.98.78-1.56.39-.32.76-.67,1.04-1.08.88-1.27.76-2.84.75-4.31Z"/>
    <path class="cls-13" d="M107.96,147.12c-1.03-3.64-2.63-7.11-5.35-9.66-1.08-1.59-2.47-2.95-4.06-4.04-.88-.61-1.73-.17-2.13.55-3.19-1.01-6.63-1.27-9.96-1.29-1.18,0-2.37.03-3.56.05-.29-.5-.81-.89-1.39-.82-4.2.52-7.31-3.67-9.33-6.77-1.18-1.81-2.21-3.72-3.19-5.65-.93-1.85-2.36-3.98-2.56-6.08-.08-.87-.69-1.62-1.62-1.62-.36,0-.74.15-1.04.4-.77.04-1.65.78-1.54,1.62.61,4.8,2.55,9.19,5.29,13.16,1.41,2.04,2.99,3.98,4.65,5.82.74.82,1.51,1.67,2.47,2.23,1.13.65,2.42.81,3.7.89,5.27.31,10.67-.49,15.85.81,2.39.6,4.43,1.64,6.08,3.11.25.41.48.84.67,1.28,1,2.28,1.07,4.82,1.43,7.25.78,5.29,2.95,10.45,4.62,15.51.56,1.71,3.17,1.45,3.19-.43.07-5.48-.73-11.01-2.22-16.29Z"/>
    <path class="cls-22" d="M51.31,114.16c-2.75-.53-5.49-1.15-8.2-1.86-.33-.25-.63-.5-.92-.72-2.57-2.03-3.98-4.41-4.62-7.62-.28-1.4-.68-3.1-.57-4.53.09-1.21,1.78-2.29,2.68-2.96,1.38-1.03,2.72-1.18,4.32-1.61,1.52-.41,2.86-1.25,3.94-2.37.49-.51.63-1.35.25-1.97-.79-1.29-1.28-2.63-1.53-4.13-.26-1.51-2.02-1.44-2.79-.48-1.64-.71-4.01.25-5.46.95-1.81.88-4.03,2.02-4.62,4.12-.26.94-.38,1.8-.86,2.67-.44.79-.98,1.51-1.53,2.21-.64-.42-1.48-.38-2.06.18-1.99,1.91-2.25,4.63-2.11,7.24-.78,3.78-.13,8.59,2.84,10.88,2.12,1.63,5.15,2.1,7.7,2.57,2.76.51,5.56.79,8.37.86,1.8.56,3.69.57,5.55-.47,1.16-.65,1.01-2.7-.39-2.97Z"/>
    <path class="cls-8" d="M168.97,81.77c-.74-1.31-2.13-2.52-2.09-4.12.03-1.07-.73-1.58-1.52-1.56-.37-2-2.08-3.68-3.83-5-.61-.46-1.22-.37-1.66-.01-.52-.41-1.06-.79-1.66-1.09-1.81-.92-3.78-1.2-5.78-1.33-1.83-.12-3.68-.2-5.5.05-.85.12-1.66.31-2.45.63-.37.15-.73.31-1.08.51-.16.09-.35.19-.49.31-.01,0-.1.09-.19.18-.07-.06-.14-.12-.21-.18-.16-.13-.31-.25-.47-.37-.3-.22-.61-.43-.94-.6-.78-.41-1.64-.71-2.51-.86-3.43-.6-6.82.73-9.19,3.24-2.99,3.18-4,7.51-4.14,11.76-.02.49.16.86.42,1.12.1.52.45.99,1.1,1.18,1.92.56,3.48,2.11,5.08,3.26,1.69,1.21,3.42,2.36,5.2,3.43,3.61,2.18,7.4,4.09,11.31,5.66,2.18.88,4.22.61,6.5.32,2.2-.29,4.4-.66,6.48-1.47,3.38-1.33,7.06-3.96,7.66-7.81.1-.62.09-1.22.03-1.82.23-.18.43-.42.56-.74.62-1.58.16-3.25-.64-4.67Z"/>
    <path class="cls-6" d="M176.8,95.49c-2.97-2.38-7.65-.34-10.82.51-4.88,1.3-9.76,2.61-14.63,3.91-.37.1-.65.29-.83.53-.39.35-.61.89-.45,1.54.45,1.88.23,3.78-.66,5.5-.62,1.19.18,2.28,1.4,2.45,7.55,1.01,16.74-.24,22.76-5.29,1.37-1.15,2.57-2.62,3.33-4.24.77-1.63,1.56-3.59-.09-4.91Z"/>
    <g>
      <path class="cls-25" d="M95.05,102.8s-.03-.03-.03-.03c0,0,0,0,0,0,.01.01.02.02.03.03Z"/>
      <path class="cls-1" d="M137.6,114.67c-.11-.9-.66-1.59-1.62-1.62-3.86-.13-7.01-2.56-9.67-5.14-2.7-2.62-5.53-5.37-7.52-8.59-.37-.6-.68-1.28-1.22-1.75-.72-.61-1.58-.66-2.48-.74-2.11-.18-4.22-.31-6.33-.4-4.22-.18-8.45-.19-12.68-.03-1.02.04-1.54.83-1.56,1.63-.96.71-1.6,1.67-2.15,2.73-.17.33-.33.66-.44,1.01-1.73.34-1.62,3.22.35,3.22.11,0,.21-.01.31-.03,0,0,.02.02.02.03.79.87,2.03,1.28,3.11,1.63.64.21,1.29.36,1.95.49-.12.89.39,1.85,1.55,1.79,1.92-.1,3.57.77,5.25,1.61,1.93.96,3.87,1.91,5.79,2.89.04.02.07.04.11.06.91,2.69,2.74,5.15,4.3,7.47.88,1.3,1.93,2.58,2.49,4.06.55,1.46.6,3.1.77,4.63.79,7.01,1.58,14.03,2.37,21.04.24,2.09,3.01,2.09,3.25,0,1-8.86,3.03-17.58,5.97-26,.15-.04.3-.09.44-.17.33-.19.67-.38,1-.58.19-.1.34-.24.46-.42.14-.16.24-.34.29-.55,0,0,0,0,0,0,1.21-.25,2.42-.5,3.48-1.17,2.51-1.58,2.74-4.38,2.42-7.08Z"/>
    </g>
    <path class="cls-1" d="M116.61,157.05c-.32-2.69-1.15-5.3-1.88-7.9-.79-2.78-1.61-5.55-2.59-8.26-.44-1.2-.92-2.37-1.52-3.47-.22-1.14-.4-2.29-.46-3.45-.15-2.82.1-5.62-.44-8.42-.17-.88-.84-1.22-1.52-1.16-.44-1.19-.96-2.34-1.72-3.28-1.43-1.77-3.89-2.54-5.94-3.33-2.27-.88-4.49-1.15-6.89-1.45-2.13-.27-4.11-1.1-5.73-2.52-.53-.46-1.13-.5-1.65-.31-1.9-.75-3.14-2.64-3.69-4.55-.81-2.83-.35-5.87.02-8.73.21-1.64-2.31-2.16-3.03-.82-1.24,2.3-3.64,3.54-5.68,5.04-1.11.82-2.17,1.69-3.03,2.78-.86,1.09-1.56,2.49-2.76,3.24-1.12.7-.88,2.09-.09,2.72-.28,2.84,2.07,5.42,3.57,7.64,1.79,2.65,3.44,5.58,5.62,7.94,1.97,2.13,4.54,3.11,7.42,2.81,2.63-.27,5.45-1.46,8.02-.39.2.08.41.1.62.07.14.04.28.07.44.08,3.95.17,7.93,1.55,11.02,4.06.03.11.06.22.11.34.99,2.32,1.95,4.66,2.82,7.03.01.06.03.11.04.17.45,2.58.2,5.22.65,7.8.49,2.83,1.5,5.58,2.33,8.33.55,1.82,1.07,5.53,3.85,4.75,2.66-.74,2.35-4.65,2.1-6.75Z"/>
    <path class="cls-1" d="M104.78,161.09c-.85-4.34-.84-8.89-3.32-12.73-.17-.26-.38-.44-.62-.56-.56-2.95-1.44-5.77-3.8-7.99-.4-.38-.9-.48-1.37-.4-.2-.17-.4-.34-.62-.49-3.04-2.03-7.33-1.35-10.78-1.36-1.89,0-3.83.04-5.71-.17-1.79-.2-3.26-.96-4.65-2.09-2.48-2.02-4.77-4.3-6.93-6.67.01-.27-.04-.55-.19-.83l-5.72-11.07c-.86-1.68-1.69-2.4-3.62-1.93-1.84.46-3.66,1.04-5.44,1.69-3.15,1.16-6.42,2.5-8.7,5.06-2.25,2.52-3.47,5.7-4.63,8.83-.29.78.03,1.37.57,1.7-.02.39.13.79.54,1.13,8.26,6.97,17.14,13.18,26.53,18.53,4.01,3.32,8.8,5.33,13.35,7.79,4.81,2.59,9.31,6.22,14.88,6.97.24.03.48.02.71-.02,1.18.89,2.41,1.75,3.91,1.9,1.75.18,4.39-.5,5.65-1.82,1.5-1.56.32-3.7-.03-5.48Z"/>
    <path class="cls-1" d="M164.04,127.75c-1.1-4.2-4.64-7.81-7.48-10.91-.35-.39-.76-.53-1.15-.51-.19-.23-.39-.47-.58-.7-.77-.93-1.51-1.9-2.35-2.77-1.73-1.78-4.62-3.26-6.96-1.65-.34.23-.6.58-.73.97-.84-.04-1.7.48-1.69,1.56.03,3.36,2.04,7.34-.32,10.3-2.25,2.83-6.01,3.89-8.74,6.11-1.42,1.15-1.88,3.13-2.41,4.8-.62,1.93-1.14,3.9-1.54,5.89-.81,4.05-1.17,8.18-1.08,12.31.02,1.11,1.01,1.78,2.06,1.57,2.21-.45,4.29-1.99,6.22-3.1,2.1-1.21,4.19-2.45,6.21-3.8,4.02-2.69,7.54-5.89,11.04-9.21,1.86-1.76,3.73-3.52,5.59-5.28.96-.91,1.94-1.81,2.89-2.73.85-.83,1.35-1.59,1.03-2.83Z"/>
    <path class="cls-5" d="M145.67,42c-1.97-.41-3.99.93-5.73,1.68-2.09.91-4.21,1.75-6.35,2.55-2.34.87-4.71,1.69-7.09,2.44-2.39.75-5.04,1.82-7.57,1.31-1.11-.22-1.87.6-2.01,1.47-.08-.02-.17-.04-.25-.06-2.03-.46-3.99-1.11-5.99-1.7-3.28-.96-7.4-1.27-9.93,1.53-2.08,2.29-2.19,5.77-1.19,8.61,0,.02-.02.03-.02.05-.42,2,.52,3.79,2.21,4.89,1.83,1.19,4.07,1.01,6.09,1.63,1.04.32,1.73-.3,1.91-1.09,3.32.2,6.65.31,9.98.19,3.92-.15,7.86-.61,11.65-1.66,1.63-.45,3.8-.89,5.11-1.99.65-.54.97-1.3.96-2.05,1.92-.83,3.43-2.28,4.86-3.78,1.42-1.48,2.77-3.04,4.01-4.67,1.16-1.52,2.26-3.32,2.31-5.29.05-1.84-1.08-3.68-2.96-4.07Z"/>
    <path class="cls-22" d="M82.21,84.12c-.33-2.07-1.27-3.77-2.59-5.37-1.27-1.54-2.67-3.23-4.64-3.85-2.02-.63-4.59-.73-6.68-.5-2.13.24-4.16.9-6.23,1.45-.99.26-2,.51-3.03.59-1.26.1-2.52.01-3.76.24-4,.73-6.93,4.57-6.96,8.56,0,.14.01.26.04.38-.09.07-.19.13-.28.2-.7.54-.56,1.73,0,2.3.68.69,1.61.53,2.3,0,1.25-.97,2.87-1.4,4.44-1.32,1.66.09,3.12,1.27,4.81.72,1.56-.51,2.35-2.17,3.66-3.05,1.47-.99,3.38-1.8,5.12-2.09,3.58-.58,5.83,2.76,6.49,5.84.82,3.84.22,8.1.1,11.99-.05,1.55,1.75,1.95,2.77,1.15,3.18-2.49,4.56-6.46,4.83-10.37.16-2.28-.02-4.62-.38-6.87Z"/>
    <g class="cls-21">
      <path class="cls-9" d="M170.81,89.75s-.03.03-.04.04c.01-.01.03-.02.04-.03,0,0,0,0,0,0Z"/>
      <path class="cls-11" d="M172.76,83.17c-1.12-2.76-2.7-5.54-2.7-8.59,0-2.09-3.25-2.09-3.25,0,0,2.92,1.15,5.58,2.29,8.21.51,1.18,1.01,2.36,1.35,3.59.17.6.32,1.22.37,1.85.03.33.04.65.03.98,0,.12-.03.26-.02.39,0,.06,0,.1-.02.14.04-.04.1-.09.19-.16-.07.05-.13.11-.2.17-.04.09-.11.11-.04.03-.54.53-.77,1.3-.35,2.02.41.69,1.51,1.11,2.22.58,2.74-2.03,1.16-6.62.11-9.21Z"/>
    </g>
    <path class="cls-3" d="M97.46,60.83c-13.57-3.09-27.55-9.55-33.55-22.95-.74-1.66-2.96-.62-2.96.93-.7.17-1.34.73-1.41,1.55-.58,7.69,5.78,13.28,12.19,16.13,1.47.65,2.97,1.21,4.47,1.76.13.09.27.17.4.26,3.57,2.36,6.97,5.36,11,6.88,3.52,1.33,7.87,1.02,10.57-1.83.8-.85.52-2.44-.72-2.72Z"/>
    <path class="cls-3" d="M148.67,43.14c-.09-1.18-1.33-2.09-2.45-1.4-1.79,1.11-2.74,2.83-3.73,4.63-.96,1.76-2.11,3.38-3.49,4.84-2.74,2.89-6.14,5.09-9.79,6.68-.31.13-.62.25-.93.37-.34.13-.69.26-1.03.4-8.32,3.03-17.48,2.91-26.21,2.56-1.72-.07-2.02,2.11-.91,2.94-.01.08-.02.16-.02.24.04.92.71,1.58,1.62,1.62.67.03,1.35.07,2.02.1.25.39.68.66,1.31.62,5.28-.36,10.55-.71,15.83-1.09,4.46-.32,8.98-.78,13.06-2.74,3.71-1.78,6.57-4.81,8.97-8.07,1.25-1.7,2.37-3.49,3.47-5.29,1.2-1.97,2.45-4.01,2.28-6.41Z"/>
    <path class="cls-7" d="M134.08,38.28s-.03,0-.04,0c.38-1.56.28-3.18-.64-4.79-.71-1.24-2.57-.93-2.97.39-1.01,3.34-2.95,6.28-5.58,8.57-2.64,2.31-6.55,4.39-10.16,3.96-2.08-.25-3.92-1.5-5.88-2.16-1.95-.66-3.98-1-6.02-1.25-4.18-.52-8.46-.48-12.54-1.63-4.18-1.17-7.85-3.59-10.71-6.84-1.38-1.57-3.67.73-2.3,2.3,2.78,3.17,6.31,5.57,10.26,7.06,4.32,1.63,8.98,1.73,13.53,2.17,2.34.23,4.68.57,6.92,1.33,2.21.75,4.16,2,6.53,2.25,2.09.22,4.2-.17,6.19-.92.22.14.47.25.78.27,2.6.24,4.89-.89,6.83-2.51,0,0,0,0,0,.01.45.69,1.47,1.1,2.22.58,2.33-1.61,4.06-4.01,4.71-6.79.19-.83-.26-1.8-1.14-2Z"/>
    <path class="cls-19" d="M71.35,84.71c-.34-.32-.72-.45-1.08-.45-.15-.24-.29-.48-.45-.71-1.21-1.68-4.03-.06-2.81,1.64,3.84,5.35,3.2,12.75-1.07,17.66-4.33,4.99-11.71,7.71-18.15,5.68-3.36-1.06-6.24-3.63-7.32-7.03-.63-1.99-3.77-1.14-3.13.86,2.66,8.37,11.98,11.42,19.94,9.43.31-.08.62-.17.93-.27.19.22.44.39.74.43,6.61.9,11.06-4.31,13.34-9.89,2.24-5.48,3.93-12.74-.94-17.36Z"/>
    <path class="cls-16" d="M149.13,101.65c-.69-3.12-3.29-4.95-6.08-6.07-1.4-.56-2.86-.97-4.26-1.52-1.64-.63-3.2-1.47-4.67-2.42-2.97-1.93-5.32-4.7-8.49-6.34-1.86-.96-3.5,1.84-1.64,2.81,2.7,1.4,4.78,3.66,7.2,5.45,2.5,1.84,5.29,3.18,8.22,4.17,2.19.74,5.08,1.45,6.23,3.7,1.12,2.21.14,4.96-1.45,6.67-1.43,1.53.87,3.83,2.3,2.3,2.17-2.32,3.36-5.58,2.66-8.74Z"/>
    <path class="cls-16" d="M177.27,93.86c-.89-1.01-2.3-.32-2.72.72-1,2.46-2.05,5.04-3.93,6.98-1.81,1.87-4.22,3.01-6.66,3.82-2.33.77-4.85,1.53-7.31,1.56-1.14.02-2.36-.13-3.33-.77-.69-.46-.38-.79-.19-1.54.19-.74.39-1.48.58-2.22.53-2.03-2.61-2.89-3.13-.86-.44,1.67-1.51,3.96-.68,5.63.66,1.34,2.16,2.14,3.53,2.58,3.17,1.03,6.76.11,9.85-.77,2.18-.62,4.33-1.43,6.28-2.57.44.28,1,.34,1.58-.03,3.7-2.33,10.29-7.8,6.12-12.52Z"/>
    <path class="cls-23" d="M104.69,163.54c-3.83,2.09-8.99-.63-12.58-2.11-4.61-1.9-9.09-4.11-13.51-6.41-8.56-4.45-17.35-8.9-25.26-14.45-3.84-2.69-7.37-5.79-10.69-9.09.05-.07.11-.15.15-.24.94-1.8,1.88-3.59,2.81-5.39.81-1.56,1.48-3.03,3.2-3.7,1.86-.73,3.73-1.39,5.56-2.23,1.88-.87,3.72-1.83,5.55-2.78,1.85-.97.21-3.77-1.64-2.81-1.89.98-3.77,1.97-5.7,2.86-1.9.87-3.95,1.42-5.83,2.34-1.8.87-2.81,2.53-3.7,4.24-.99,1.89-1.98,3.79-2.97,5.69-1.25-.05-2.41,1.6-1.27,2.78,3.53,3.66,7.3,7.06,11.4,10.07,4.15,3.06,8.6,5.66,13.1,8.15,9.05,5.01,18.15,10.05,27.72,14.02,4.7,1.95,10.38,4.56,15.3,1.87,1.84-1,.2-3.81-1.64-2.81Z"/>
    <path class="cls-23" d="M103.07,155.18c-3.99.89-8.34-.42-11.2-3.32-1.6-1.61-2.7-3.66-2.44-5.98.24-2.13,1.11-4.66,2.81-6.05.68-.56.58-1.72,0-2.3-.67-.67-1.62-.56-2.3,0-2.28,1.86-3.39,5.2-3.72,8.03-.37,3.1.93,5.95,2.99,8.21,3.66,4.03,9.47,5.72,14.73,4.54,2.04-.46,1.18-3.59-.86-3.13Z"/>
    <path class="cls-23" d="M111.89,136.13c-2.81-3.78-7.49-5.65-12.13-4.8-.84.15-1.39,1.21-1.14,2,.29.9,1.1,1.3,2,1.13.12-.02.24-.04.36-.06,0,0,.01,0,.03,0,.23,0,.45-.04.68-.05.45-.02.91,0,1.36.05.03,0,.06,0,.08,0,.1.02.21.03.31.05.22.04.45.09.67.14.44.11.87.25,1.3.41.04.01.07.03.09.03.07.03.15.07.22.1.21.1.41.2.61.31.4.22.78.46,1.15.73.05.04.13.1.15.12.06.05.11.09.17.14.17.15.34.3.5.46.16.16.32.32.47.49.07.08.13.15.2.23.03.03.04.05.06.07.01.02.03.04.06.08.51.68,1.43,1.09,2.22.58.67-.43,1.12-1.49.58-2.22Z"/>
    <path class="cls-23" d="M112.68,140.62c-.08-2.08-3.33-2.1-3.25,0,.27,7.27,2.85,14.34,2.26,21.65-.17,2.09,3.09,2.07,3.25,0,.58-7.33-1.99-14.38-2.26-21.65Z"/>
    <path class="cls-23" d="M162.8,127.49c.02-.14.06-.27.07-.42.06-.49-.17-.9-.53-1.19-.17-.56-.4-1.11-.7-1.63-.96-1.67-2.54-2.87-3.52-4.52-.49-.82-1.34-.92-2.02-.62-2.19-2.75-4.66-5.26-7.39-7.48-.7-.57-1.6-.65-2.3,0-.57.53-1.2.94-1.89,1.29-1.28.65-.91,2.16.04,2.75.12,2.1.19,4.4-.64,6.22-.85,1.86-2.31,3.18-4.09,4.14-.77.41-1.01,1.49-.58,2.22.46.78,1.45,1,2.22.58,2.2-1.18,4.19-3.02,5.26-5.31,1.24-2.66,1.21-5.54,1.05-8.41,4.23,3.72,7.75,8.14,10.42,13.1-8.25,9.69-18.34,17.67-29.71,23.44-1.87.95-.22,3.75,1.64,2.81,10.34-5.25,19.71-12.34,27.59-20.83.36.1.77.07,1.21-.16,1.77-.95,3.18-2.27,4.31-3.91.58-.84.21-1.65-.46-2.07Z"/>
    <path class="cls-23" d="M118.18,98.2c-6.87-1.91-14.04-2.6-21.14-2.01-.12.01-.24.03-.35.06-.61-.29-1.42-.29-1.87.28-1.09,1.36-2.05,2.81-2.79,4.39-.37.81-.69,1.59-.74,2.48-.06,1.1.42,2.01,1.3,2.64.69.5,1.84.14,2.22-.58.37-.71.22-1.42-.27-1.95,0-.03,0-.06,0-.09,0-.02,0-.04.01-.06.03-.12.06-.24.1-.37.02-.05.04-.1.05-.15.13-.29.26-.57.4-.85.3-.59.62-1.16.97-1.71.19-.29.38-.58.58-.87.12.02.24.02.38,0,6.83-.57,13.67.06,20.28,1.9,2.02.56,2.88-2.57.86-3.13Z"/>
    <path class="cls-23" d="M82.5,99.92c-.65-.65-1.64-.59-2.3,0-2.2,1.97-4.42,3.91-6.6,5.9-.51.47-.98.96-1.39,1.53-.39.54-.63,1.16-.98,1.72-.06.1-.26.33-.46.51-.2.18-.21.18-.47.34-.52.33-1.08.59-1.64.86-.79.37-1,1.51-.58,2.22.48.81,1.43.96,2.22.58,1.13-.53,2.32-1.13,3.15-2.1.48-.56.79-1.15,1.13-1.8.3-.57.69-.99,1.17-1.44,2.21-2.06,4.5-4.03,6.75-6.04.65-.59.6-1.7,0-2.3Z"/>
    <path class="cls-17" d="M66.3,112.3c-.31-.28-.72-.5-1.15-.48-.41.02-.88.15-1.15.48-.08.1-.16.21-.24.31-.17-.08-.35-.12-.55-.11-.42.02-.86.16-1.15.48l-.25.33c-.15.25-.22.53-.22.82-.03.28-.03.57,0,.85.04.41.1.82.22,1.22.08.26.22.52.42.72.11.08.22.17.33.25.19.12.39.18.6.19.14.04.29.04.43,0,.15,0,.28-.04.41-.11.14-.04.26-.11.36-.21.18-.11.32-.27.42-.46.27-.38.55-.75.83-1.12.23-.29.45-.58.69-.86.16-.15.27-.32.34-.52.1-.19.15-.4.14-.63,0-.4-.18-.87-.48-1.15Z"/>
    <path class="cls-17" d="M111.41,162.8c-.24-1.22-.54-2.43-.78-3.65-.45-2.38-.78-4.78-1-7.19-.08-.87-.69-1.62-1.62-1.62-.33,0-.67.13-.96.33-.27-.2-.6-.32-.95-.32-.9,0-1.6.74-1.62,1.62-.09,2.59.53,5.16,1.02,7.69.24,1.23.47,2.46.71,3.69.13.67.23,1.32.75,1.8.59.55,1.3.53,2.05.51.74-.02,1.43-.08,1.97-.66.58-.62.6-1.42.44-2.2Z"/>
    <path class="cls-17" d="M127.64,151.2c-.17-.83-1.2-1.39-2-1.13-.88.29-1.32,1.11-1.14,2,.03.13.05.26.07.4,0,.04,0,.07.01.11.02.25.04.49.04.74s0,.49-.02.74c0,.09-.05.27-.04.38,0,.03,0,.05-.01.08-.09.5-.22,1-.39,1.48-.02.07-.05.13-.07.2-.01.03-.01.04-.02.05-.03.07-.06.13-.07.14-.12.25-.26.5-.4.74-.44.73-.19,1.82.58,2.22.79.42,1.76.2,2.22-.58,1.36-2.27,1.77-4.97,1.24-7.55Z"/>
    <path class="cls-17" d="M104.6,68.5c-.52-.13-1.02-.28-1.52-.47-.06-.02-.12-.05-.18-.07-.02,0-.02,0-.04-.01-.08-.04-.16-.07-.24-.11-.25-.11-.49-.24-.73-.37-.47-.25-.92-.53-1.35-.84-.09-.06-.17-.13-.25-.19-.04-.03-.07-.06-.11-.09-.22-.18-.44-.38-.65-.57-.62-.58-1.69-.66-2.3,0-.58.63-.66,1.68,0,2.3,1.83,1.71,4.08,2.96,6.51,3.56.82.2,1.8-.26,2-1.13.19-.84-.25-1.78-1.14-2Z"/>
    <path class="cls-17" d="M142.92,116.6c-.53-.83-1.03-1.69-1.5-2.56-.19-.35-.59-.64-.97-.75-.39-.11-.91-.06-1.25.16-.35.22-.65.56-.75.97-.1.44-.05.85.16,1.25.47.87.97,1.73,1.5,2.56.22.35.56.63.97.75.39.11.91.06,1.25-.16.35-.22.65-.56.75-.97.1-.42.07-.88-.16-1.25Z"/>
    <path class="cls-17" d="M120.67,156.49c-.21-1.3-.42-2.6-.64-3.9-.03-.16-.09-.3-.18-.44-.21-3.08-.75-6.14-1.43-9.15,0-.06,0-.11-.01-.17-.59-3.68-1.5-7.29-2.71-10.81-.29-1.14-.59-2.27-.87-3.41-.14-.54-.46-.86-.84-1.03-.65-1.53-1.34-3.04-2.1-4.52-.94-1.81-1.98-3.62-3.5-5.01-2.91-2.65-6.79-3.6-10.48-4.58-4.22-1.12-8.35-2.67-11.68-5.59-1.57-1.38-3.87.91-2.3,2.3,3.23,2.84,7.11,4.68,11.21,5.9,3.48,1.03,7.44,1.55,10.41,3.82,1.63,1.24,2.62,3.03,3.54,4.81.98,1.9,1.87,3.84,2.65,5.83.31.79.58,1.58.85,2.38.9,3.48,1.8,6.96,2.6,10.46.56,2.46,1.03,4.93,1.29,7.42-.24.27-.39.62-.36,1.01.06.86.11,1.72.17,2.58-.12.28-.17.62-.09.99.08.38.15.76.23,1.13.07,1.04.13,2.08.2,3.11.04.66.37,1.22,1,1.49.6.25,1.3.13,1.78-.34.55-.54,1.22-1.07,1.45-1.83.24-.78-.04-1.66-.17-2.44Z"/>
    <path class="cls-4" d="M169.25,81.82c-.93-1.7-2.41-3.03-3.33-4.73-.95-1.75-1.3-3.71-1.19-5.68.12-2.09-3.13-2.08-3.25,0-.11,1.83.14,3.72.79,5.44.69,1.84,1.74,3.33,2.96,4.86.97,1.22,1.81,2.5,1.83,4.11.02,1.5-.54,2.91-1.59,3.97-.17.17-.28.35-.36.53-.13.05-.26.09-.38.15-1.39.76-2.82,1.34-4.33,1.81l-2.17.57c-1.23.29-2.47.55-3.72.77-1.78.32-3.57.78-5.28-.08-1.53-.77-2.87-1.85-4.4-2.62-1.69-.85-3.46-1.52-5.19-2.27-2.9-1.27-6.17-2.95-7.48-6.03-1.76-4.13.52-8.71,2.32-12.39.92-1.87-1.88-3.52-2.81-1.64-.21.42-.41.84-.61,1.27-.65-.25-1.4-.1-1.79.73-1.62,3.49-3.26,7.17-3.19,11.11.03,1.67.44,3.27,1.74,4.4,1.36,1.19,3.08,2.04,4.61,2.98,3.53,2.17,7.05,4.35,10.58,6.52,1.49.92,3.04,2.16,4.76,2.62,1.79.49,3.63-.22,5.36-.67,1.91-.5,3.81-1,5.72-1.5.68-.16,1.35-.34,2.02-.53,1.99-.52,3.98-1.04,5.98-1.56.73-.19,1.14-.85,1.19-1.57.01-.2,0-.38-.03-.56,2.46-2.7,3.02-6.77,1.25-10Z"/>
    <path class="cls-24" d="M74.43,74.45c-1.69-.85-3.15,1.13-1.97,2.55,1.89,2.28,3.34,4.93,4.21,7.71-.42-.54-.87-1.06-1.39-1.53-2.41-2.22-5.65-3.41-8.91-3.46-1.59-.02-3.24.23-4.72.8-.7.27-1.39.58-2.04.97-.75.46-1.33,1.13-2.06,1.6.13-.08-.24.22-.07.18-.16.04-.52-.12-.68-.15-.5-.09-1.01-.16-1.52-.18-.98-.04-2.02.1-2.96.37-.87.25-1.69.62-2.46,1.09-.27-1.99-3.44-1.99-3.24.07l.31,3.19c.12,1.23,1.79,2.35,2.77,1.15,1.14-1.39,2.67-2.35,4.48-2.58.77-.1,1.52.03,2.24.11.11.7.63,1.33,1.55,1.33,1.2,0,1.71-1.06,1.53-1.97,1.32-1.06,2.44-1.97,4.12-2.41,1.63-.43,3.37-.43,5.01-.04,7.35,1.76,9.57,10.6,5.96,16.66-1.09,1.83,1.61,3.32,2.81,1.64,1.09-1.53,1.89-3.15,2.45-4.81.81-.12,3.13-3.27,3.23-4.05.92-7.35-.97-14.38-8.65-18.24Z"/>
    <path class="cls-24" d="M50.32,113.85c-4.73-2.19-10.93-4.26-13.25-9.38-.95-2.08-1.02-4.58.47-6.43,1.35-1.68,3.61-2.65,5.75-2.22.52.11,1.22.04,1.58-.42,1.08-1.37,2.16-2.8,2.4-4.59.11-.82.01-1.62-.22-2.41-.2-.68-.71-1.54-.55-2.27.44-2.04-2.69-2.91-3.13-.86-.32,1.47.13,2.61.55,4,.37,1.24-.19,2.29-.91,3.26-5.96-.46-10.92,4.97-9.64,11.02,1.11,5.25,5.4,8.27,9.96,10.59-6.03.15-12.18-1.08-14.68-7.34-.77-1.92-3.91-1.08-3.13.86,1.75,4.39,5.24,7.59,9.78,8.93,4.6,1.36,9.52.85,14.2.28,1.39-.17,2.47-2.27.82-3.03Z"/>
    <path class="cls-23" d="M101.47,150.86c-8.64.89-17.32,1.19-26,.89-2.09-.07-2.09,3.18,0,3.25,8.68.3,17.36,0,26-.89,2.06-.21,2.08-3.46,0-3.25Z"/>
  </g>
  <g id="Layer_1" data-name="Layer 1">
    <path class="cls-12" d="M76.79,136.4c-5.62-9.25-33.14-3.36-22.59,8.72,6.5,5.93,28.8,4.17,22.59-8.72Z"/>
    <path class="cls-12" d="M145.38,136.4c-2.35-3.88-8.55-5.09-14.18-4.31-.51,3.1-1.42,6.06-1.99,9.15-.4,2.18-.38,4.4-.37,6.62,8.82,1.89,21.4-1.39,16.54-11.47Z"/>
    <path class="cls-12" d="M126.6,133.24c-5.44,2.06-8.67,6.31-3.8,11.88.36.33.77.63,1.22.91.45-4.37,1.02-8.73,2.58-12.79Z"/>
    <g>
      <path class="cls-14" d="M78.34,32.2c-14.14-5.04-30.17-3.33-43.34,3.69-6.6,3.51-12.44,8.4-16.99,14.33s-8.06,13.32-9.03,20.82c-1.93,14.84,3.08,29.5,11.09,41.85,8.85,13.63,21.01,24.95,34.12,34.41,12.47,9,26.19,16.55,40.68,21.78,1.55.56,3.11,1.09,4.68,1.58,2,.63,2.85-2.5.86-3.13-13.79-4.36-26.85-11.12-38.88-19.09-13.01-8.62-25.24-19.03-34.69-31.53-8.56-11.32-15.04-24.82-15.06-39.27,0-7.34,1.92-14.32,5.59-20.68s8.56-11.4,14.43-15.38c11.71-7.93,26.71-11.06,40.53-7.78,1.73.41,3.44.92,5.12,1.52,1.97.7,2.82-2.44.86-3.13h0Z"/>
      <path class="cls-14" d="M100.43,170.66c13.29-4.2,25.93-10.57,37.63-18.1,12.73-8.19,24.67-17.97,34.39-29.62,8.92-10.69,16.29-23.34,18.36-37.29,1.04-6.98.89-14.17-1.26-20.92-2.28-7.15-6.25-13.68-11.47-19.06-10.24-10.54-24.97-16.49-39.63-16.4-1.77.01-3.53.12-5.29.31-2.06.22-2.08,3.47,0,3.25,13.93-1.49,28.39,2.78,39.11,11.86,5.4,4.58,9.76,10.28,12.6,16.77s3.7,13.19,3.16,20.13c-1.05,13.34-7.47,25.75-15.56,36.17-8.97,11.55-20.24,21.31-32.3,29.51-11.27,7.66-23.47,14.22-36.33,18.81-1.41.51-2.84.98-4.27,1.44-1.99.63-1.14,3.77.86,3.13h0Z"/>
      <g>
        <path class="cls-14" d="M146.99,110.89c6.75,4.78,12.51,10.86,16.67,18.01,1.05,1.81,3.86.17,2.81-1.64-4.45-7.65-10.63-14.08-17.83-19.18-.72-.51-1.81-.13-2.22.58-.48.81-.14,1.71.58,2.22h0Z"/>
        <path class="cls-14" d="M96.51,97.15c7.01-.33,14.04.14,20.93,1.47,2.04.39,2.92-2.74.86-3.13-7.18-1.38-14.49-1.93-21.8-1.59-2.08.1-2.09,3.35,0,3.25h0Z"/>
        <path class="cls-14" d="M80.7,99.48c1.16-.29,2.33-.56,3.51-.8.38-.08.78-.42.97-.75.2-.35.29-.86.16-1.25s-.37-.77-.75-.97c-.4-.21-.81-.26-1.25-.16-1.18.24-2.35.51-3.51.8-.39.1-.77.4-.97.75s-.29.86-.16,1.25c.28.85,1.12,1.36,2,1.13h0Z"/>
        <path class="cls-14" d="M39.35,131.66c2-4.27,4.52-8.3,7.55-11.93.56-.67.66-1.64,0-2.3-.58-.58-1.73-.68-2.3,0-3.21,3.84-5.93,8.05-8.06,12.58-.37.79-.22,1.75.58,2.22.7.41,1.85.22,2.22-.58h0Z"/>
        <path class="cls-14" d="M90.67,143.58c.08-.52.23-1.03.43-1.51l-.16.39c.22-.52.5-1.01.85-1.46l-.25.33c.17-.22.35-.42.54-.61.29-.3.48-.73.48-1.15s-.18-.87-.48-1.15-.72-.5-1.15-.48-.84.16-1.15.48c-1.14,1.16-1.98,2.69-2.23,4.31-.07.22-.08.43-.03.65,0,.22.07.42.19.6.2.34.58.66.97.75.42.09.88.07,1.25-.16.33-.21.68-.56.75-.97h0Z"/>
        <path class="cls-14" d="M109.48,140.22c.37.3.7.64.99,1.01l-.25-.33c.31.41.57.86.77,1.33l-.16-.39c.2.48.33.97.41,1.49l-.06-.43s.01.08.02.12c.05.45.15.82.48,1.15.28.28.74.49,1.15.48s.86-.16,1.15-.48c.27-.3.52-.73.48-1.15-.06-.53-.14-1.04-.3-1.55s-.36-.98-.61-1.44c-.44-.8-1.04-1.55-1.75-2.12-.35-.28-.69-.48-1.15-.48-.4,0-.87.18-1.15.48s-.5.72-.48,1.15c.02.4.15.88.48,1.15h0Z"/>
        <path class="cls-14" d="M131.81,138.11c0,1.33,0,2.67,0,4,0,.42.18.85.48,1.15s.74.49,1.15.48c.88-.04,1.63-.71,1.62-1.62,0-1.33,0-2.67,0-4,0-.42-.18-.85-.48-1.15s-.74-.49-1.15-.48c-.88.04-1.63.71-1.62,1.62h0Z"/>
        <path class="cls-14" d="M139.78,138.11v4c0,.42.18.85.48,1.15s.74.49,1.15.48c.88-.04,1.63-.71,1.62-1.62v-4c0-.42-.18-.85-.48-1.15s-.74-.49-1.15-.48c-.88.04-1.63.71-1.62,1.62h0Z"/>
        <path class="cls-14" d="M55.55,138.11v4c0,.42.18.85.48,1.15s.74.49,1.15.48c.88-.04,1.63-.71,1.62-1.62v-4c0-.42-.18-.85-.48-1.15s-.74-.49-1.15-.48c-.88.04-1.63.71-1.62,1.62h0Z"/>
        <path class="cls-14" d="M63.63,138.11c0,1.33,0,2.67,0,4,0,.42.18.85.48,1.15s.74.49,1.15.48c.88-.04,1.63-.71,1.62-1.62,0-1.33,0-2.67,0-4,0-.42-.18-.85-.48-1.15s-.74-.49-1.15-.48c-.88.04-1.63.71-1.62,1.62h0Z"/>
        <path class="cls-14" d="M71.71,138.11c0,1.33,0,2.67,0,4,0,.42.18.85.48,1.15s.74.49,1.15.48c.88-.04,1.63-.71,1.62-1.62,0-1.33,0-2.67,0-4,0-.42-.18-.85-.48-1.15s-.74-.49-1.15-.48c-.88.04-1.63.71-1.62,1.62h0Z"/>
      </g>
      <path class="cls-14" d="M94.44,66.91c1.59,2.1,2.67,4.72,3.68,7.14.56,1.34,1.09,2.7,1.49,4.09s.51,2.32.17,3.86c-.45,1.98-1.55,3.61-3.3,4.67-1.83,1.11-3.92,1.71-5.83,2.66-3.43,1.71-6.5,4.51-8.21,7.98s-2.04,7.41-.68,10.99,4.32,6.32,8.16,7.45,8.34.87,12,3c3.78,2.2,5.52,5.92,6.58,10.01,2.87,11.1,5.1,22.41,7.19,33.67.38,2.05,3.51,1.18,3.13-.86-1.89-10.17-4.02-20.3-6.39-30.37-1-4.26-2-8.58-4.92-11.99-2.76-3.21-6.56-4.79-10.65-5.46-3.82-.63-8.3-.85-10.82-4.23-2.2-2.96-2.44-7.11-.88-10.4,1.71-3.62,4.93-6.1,8.55-7.62,1.92-.81,3.89-1.52,5.55-2.82s2.75-2.95,3.39-4.89c1.17-3.53.16-6.74-1.17-10.03-1.15-2.86-2.37-6.01-4.24-8.48-1.25-1.65-4.07-.03-2.81,1.64h0Z"/>
      <path class="cls-14" d="M102.73,67.84c2.68,3.87,4.59,8.53,3.8,13.32-.65,3.92-2.96,7.38-6.14,9.72-.81.6-1.68,1.12-2.57,1.59-1.06.55-1.94,1.13-2.87,1.9-1.55,1.28-3.07,2.62-4.35,4.17-1.46,1.77-2.84,4.15-1.68,6.44.96,1.91,3.18,2.82,5.07,3.53,2.47.94,5.03,1.61,7.5,2.56s4.96,2.27,6.77,4.35c3.17,3.63,5.37,7.98,6.78,12.57,3.1,10.07,2.79,20.78,5.18,31,.48,2.04,3.61,1.17,3.13-.86-2.14-9.12-2.12-18.6-4.29-27.71-1.09-4.59-2.78-9.1-5.34-13.08-2.03-3.16-4.4-5.98-7.74-7.77-2.54-1.36-5.3-2.25-8.03-3.14-1.19-.38-2.38-.76-3.54-1.23-.26-.11-.78-.33-1.18-.55-.18-.1-.36-.2-.53-.31-.1-.06-.2-.13-.3-.2-.09-.06.14.14-.1-.08-.14-.13-.28-.26-.41-.41.25.29-.04-.05-.09-.16-.16-.35.11.24,0,.02-.04-.07-.07-.2-.08-.28s-.08-.32,0,.08c-.02-.09-.02-.29,0-.37-.1.41.06-.21.09-.3.11-.3-.02-.05.17-.43.27-.53.61-1.01.98-1.47,1.24-1.52,2.76-2.83,4.27-4.08,1.67-1.38,3.75-2.16,5.48-3.51,3.62-2.82,6.3-6.89,6.99-11.47.85-5.56-1.04-10.95-4.18-15.49-1.18-1.71-4-.09-2.81,1.64h0Z"/>
      <path class="cls-14" d="M141.57,110.47c-2.88.48-5.9-.02-8.64-.96s-4.82-2.7-6.86-4.56c-3.73-3.41-8.58-9.03-5.9-14.46.97-1.97,3.1-3.57,5.38-3.25s4.14,2.19,5.81,3.65c2.19,1.91,4.49,3.36,7.15,4.54,2.43,1.07,5.04,2.03,7.07,3.8,1.92,1.67,3.41,4.13,2.3,6.68s-3.72,4.07-6.31,4.57c-2.05.39-1.18,3.53.86,3.13,5.95-1.14,11.14-7.18,8.18-13.24-3.11-6.37-11.12-6.88-16.1-11.06-2.29-1.92-4.5-4.27-7.49-5.07s-6.26.33-8.31,2.68c-4.93,5.66-1.64,13.4,2.83,18.15,2.67,2.83,5.8,5.66,9.43,7.16s7.62,2.02,11.46,1.38c2.06-.34,1.19-3.48-.86-3.13h0Z"/>
      <path class="cls-14" d="M148.68,110.94c8.96,2.09,20.21,1.04,27.42-5.21,2.89-2.51,5.52-7.06,3.78-10.93-2.09-4.66-8.69-3.06-12.46-1.99-5.88,1.68-11.68,3.67-17.51,5.51-1.99.63-1.14,3.77.86,3.13,4.32-1.37,8.64-2.73,12.96-4.1,2.19-.69,4.37-1.44,6.6-1.94,1.65-.38,3.94-.93,5.58-.21s1.34,2.67.88,4.06c-.5,1.54-1.54,2.84-2.73,3.93-2.78,2.53-6.55,3.89-10.16,4.7-4.73,1.07-9.66,1.01-14.37-.09-2.03-.48-2.9,2.66-.86,3.13h0Z"/>
      <path class="cls-14" d="M127.5,85.06c-.7-4.66-.28-9.94,3.19-13.47,1.45-1.48,3.87-3.07,6.01-2.22,2,.8,3.49,2.38,5.81,2.18,1.1-.09,2.09-.56,3.07-1.03,1.17-.56,2.32-.96,3.62-1.07,2.51-.21,5.18.19,7.62.74,2.28.51,4.53,1.37,6.19,3.07s1.85,4.13,2.84,6.25c1.05,2.26,3.2,3.99,3.14,6.66-.06,2.5-1.48,4.71-2.98,6.62-1.28,1.63,1,3.94,2.3,2.3,1.62-2.06,3.11-4.22,3.67-6.84.61-2.84-.06-5.34-1.66-7.71-.77-1.13-1.53-2.2-1.96-3.51s-.75-2.73-1.46-3.98c-1.33-2.34-3.61-3.99-6.07-5-2.7-1.11-5.69-1.55-8.59-1.79s-5.63.17-8.32,1.47c-1.25.6-2.13.77-3.38.1s-2.33-1.47-3.69-1.78c-2.68-.61-5.47.71-7.5,2.38-5.19,4.26-5.93,11.29-4.99,17.51.13.87,1.22,1.34,2,1.13.93-.25,1.26-1.14,1.13-2h0Z"/>
      <path class="cls-14" d="M136.04,90.57c.26-2.35.11-4.73-.39-7.04-.12-.58-.83-.97-1.38-.79-.61.2-.92.77-.79,1.38.06.29.12.58.17.88.02.13.04.25.06.38,0,0,.05.35.03.21.07.55.12,1.1.15,1.66.05,1.11.02,2.22-.1,3.32-.06.59.56,1.15,1.12,1.12.66-.03,1.06-.5,1.12-1.12h0Z"/>
      <path class="cls-14" d="M135.13,80.23c1.45,0,1.45-2.25,0-2.25s-1.45,2.25,0,2.25h0Z"/>
      <path class="cls-14" d="M139.56,85.49c.72,2.53.59,5.16-.33,7.62-.21.57.24,1.23.79,1.38.63.17,1.17-.21,1.38-.79,1.05-2.81,1.15-5.94.33-8.82-.17-.58-.79-.95-1.38-.79s-.95.8-.79,1.38h0Z"/>
      <path class="cls-14" d="M146.28,95.99c-.2-2.54.23-5.07,1.34-7.36.27-.55.15-1.22-.4-1.54-.49-.29-1.27-.14-1.54.4-1.28,2.63-1.88,5.57-1.65,8.49.05.61.48,1.12,1.12,1.12.57,0,1.17-.52,1.12-1.12h0Z"/>
      <path class="cls-14" d="M148.05,98.51c1.47-.63,2.8-1.52,4.05-2.51s2.38-2.11,3.31-3.41c.34-.48.1-1.27-.4-1.54-.58-.31-1.17-.11-1.54.4-.05.07-.1.14-.15.2-.05.06-.14.18-.04.06-.11.14-.22.27-.34.41-.24.28-.49.54-.75.8-.53.53-1.09,1.02-1.68,1.49-.17.13.2-.15-.1.07-.06.05-.12.09-.19.14-.16.11-.31.23-.47.34-.31.22-.63.42-.95.62-.61.37-1.23.7-1.88.98-.54.23-.71,1.07-.4,1.54.36.56.96.65,1.54.4h0Z"/>
      <path class="cls-14" d="M156.95,90.06c1.45,0,1.45-2.25,0-2.25s-1.45,2.25,0,2.25h0Z"/>
      <path class="cls-14" d="M149.03,82.92l-.05-.05c-.1-.11-.22-.19-.36-.23-.13-.07-.28-.1-.43-.1-.15,0-.3.03-.43.1-.14.05-.26.12-.36.23l-.18.23c-.1.18-.15.36-.15.57l.04.3c.05.19.15.36.29.5l.05.05c.1.11.22.19.36.23.13.07.28.1.43.1.15,0,.3-.03.43-.1.14-.05.26-.12.36-.23l.18-.23c.1-.18.15-.36.15-.57l-.04-.3c-.05-.19-.15-.36-.29-.5h0Z"/>
      <path class="cls-14" d="M143.72,79.42v-.05c0-.15-.03-.3-.1-.43-.05-.14-.12-.26-.23-.36-.1-.11-.22-.19-.36-.23-.13-.07-.28-.1-.43-.1l-.3.04c-.19.05-.36.15-.5.29l-.18.23c-.1.18-.15.36-.15.57v.05c0,.15.03.3.1.43.05.14.12.26.23.36.1.11.22.19.36.23.13.07.28.1.43.1l.3-.04c.19-.05.36-.15.5-.29l.18-.23c.1-.18.15-.36.15-.57h0Z"/>
      <path class="cls-14" d="M63.22,110.14c-5.85,2.63-13.62,2.65-19.22-.68-2.52-1.5-5.29-3.96-5.47-7.1-.08-1.34.42-2.76,1.34-3.75,1.18-1.26,2.42-1.02,4.01-.98,1.8.05,3.26-.67,4.34-2.11.92-1.22,1.37-2.74,2.36-3.91s2.3-2.1,3.81-2.18c.87-.05,1.64.35,2.47.53.98.21,1.97.16,2.85-.34,1.51-.85,2.52-2.48,3.9-3.53s2.94-1.92,4.64-1.81c3.17.21,4.35,3.78,4.77,6.42,1.19,7.44-1.36,16.94-9.42,19.27-2.01.58-1.15,3.72.86,3.13,8.49-2.46,12.32-11.36,12.04-19.6-.12-3.66-.78-7.93-3.62-10.55-3.22-2.96-7.67-2.08-10.92.32-.84.62-1.63,1.29-2.36,2.04-.33.33-.63.69-.96,1.02-.56.56-.83.5-1.57.3-2.02-.55-3.78-.61-5.73.3-1.74.81-3.21,2.25-4.2,3.89-.46.76-.8,1.58-1.26,2.34-.58.96-1.11,1.26-2.25,1.19-2.03-.11-3.73.01-5.38,1.32-1.38,1.1-2.36,2.74-2.76,4.46-.9,3.84,1.11,7.53,3.95,10.01,6.83,5.97,17.37,6.39,25.4,2.79,1.9-.86.25-3.66-1.64-2.81h0Z"/>
      <path class="cls-14" d="M46.7,84.08c-3.17-.7-6.48-.49-9.51.72-2.77,1.11-6.37,3.08-6.26,6.46.04,1.37-1.28,2.03-2.22,2.84-1.14.98-2.11,2.21-2.8,3.55-1.3,2.52-1.8,5.44-1.47,8.25.72,6.12,5.15,10.82,10.72,13.09,2.33.95,4.92,1.57,7.45,1.38,2.38-.18,4.73-.75,7.01-1.41,5.21-1.51,10.41-3.5,15.22-6.01,1.86-.97.21-3.77-1.64-2.81-3.64,1.9-7.51,3.41-11.4,4.72-3.64,1.23-7.94,2.82-11.83,2.13-4.92-.86-9.96-3.91-11.7-8.81-.8-2.26-.91-4.73-.27-7.05.69-2.48,2.18-4.01,4.08-5.63,1.1-.94,2-2.11,2.1-3.6.02-.34-.09-.74-.03-1.07.09-.45.41-.69.77-1,.59-.5,1.24-.93,1.92-1.31,2.72-1.52,5.94-1.99,8.98-1.32,2.04.45,2.91-2.68.86-3.13h0Z"/>
      <path class="cls-14" d="M49.97,89.03c-1.26-1.82-1.04-3.95-.37-5.96s1.91-4.43,3.93-5.4,4.67-.53,6.91-.56c2.61-.04,4.89-.95,7.39-1.55,4.11-.99,8.42.73,11.1,3.92,2.88,3.42,3.44,8.4,2.2,12.6-1.45,4.91-5.29,9.42-9.79,11.81-1.85.98-.21,3.79,1.64,2.81,9.56-5.07,16.07-18.6,9.17-28.31-2.94-4.14-8.04-6.83-13.18-6.31-3,.31-5.7,1.76-8.75,1.78-2.75.03-5.59-.33-8.16.91-2.78,1.34-4.46,4.27-5.48,7.07s-1.24,6.23.57,8.83c1.19,1.71,4,.08,2.81-1.64h0Z"/>
      <path class="cls-14" d="M59.54,115.41c2.44,4.63,3.94,9.76,6.93,14.09,2.78,4.04,6.59,6.83,11.42,7.9,2.33.52,4.73.69,7.11.72,2.5.02,5.08-.31,7.57.05,5.14.74,7.24,5.95,8.54,10.37,1.77,6.03,2.98,12.26,3.94,18.46.32,2.06,3.45,1.19,3.13-.86-.88-5.63-2.01-11.22-3.46-16.73-1.22-4.61-2.93-9.75-6.97-12.65-4.13-2.96-9.7-1.71-14.44-1.93s-9.5-1.56-12.81-5.38c-3.89-4.49-5.42-10.51-8.15-15.68-.98-1.85-3.78-.21-2.81,1.64h0Z"/>
      <path class="cls-14" d="M64.9,112.16c2.02,4.62,4.01,9.48,6.82,13.69s6.27,6.64,11.11,7.31c5.17.71,10.37.07,15.48,1.39,2.43.63,3.94,2.04,5.07,4.24s1.81,4.55,2.5,6.87c1.79,6.04,2.88,12.27,3.83,18.49.13.87,1.22,1.34,2,1.13.93-.25,1.27-1.14,1.13-2-.84-5.53-1.79-11.05-3.25-16.45-.69-2.56-1.47-5.11-2.46-7.57-.84-2.09-1.89-4.19-3.62-5.69-1.97-1.7-4.47-2.28-6.98-2.69-2.65-.43-5.3-.61-7.98-.65-2.44-.04-4.93-.03-7.3-.7s-4.11-2.02-5.62-3.83c-1.65-1.98-2.82-4.34-3.95-6.63-1.39-2.82-2.71-5.68-3.97-8.56-.84-1.91-3.64-.26-2.81,1.64h0Z"/>
      <path class="cls-14" d="M102,64.49c-2.72-2.69-3.54-6.87-1.68-10.28.91-1.66,2.32-3.06,4.07-3.82,2.17-.95,4.17-.28,6.31.39,8.69,2.71,17.68-.28,25.28-4.64,2.85-1.63,7.33-5.24,10.64-2.62,1.7,1.35.79,3.65.06,5.29s-1.71,3.37-2.81,4.91c-2.19,3.07-5.12,5.65-8.54,7.26-4.06,1.91-8.91,2.2-13.28,2.95-3.21.55-6.41,1.09-9.66,1.33-3.45.26-7.5.49-10.72-1.03-1.88-.89-3.53,1.91-1.64,2.81,3.44,1.62,7.41,1.74,11.14,1.55s7.19-.74,10.74-1.35c4.71-.81,9.77-1.19,14.2-3.07,4.07-1.73,7.47-4.68,10.11-8.2,1.36-1.81,2.5-3.78,3.41-5.86.96-2.2,1.75-4.67.7-6.99-1.94-4.28-7.37-4.24-11.04-2.58-2.33,1.05-4.43,2.55-6.68,3.75s-4.64,2.25-7.11,3.02-4.88,1.25-7.4,1.3-4.94-.46-7.38-1.23c-2.89-.9-5.61-1.01-8.36.4-2.09,1.07-3.85,2.89-4.94,4.96-2.44,4.67-1.45,10.38,2.27,14.06,1.49,1.47,3.79-.83,2.3-2.3h0Z"/>
      <path class="cls-14" d="M97.71,63.07c-6.5,3.29-13.78,0-19.45-3.44-3.08-1.87-6.08-3.87-9.02-5.95-2.73-1.93-5.7-3.95-7.41-6.9-1.52-2.62-1.81-5.94.4-8.26,1.75-1.83,4.35-2.74,6.85-2.72,3.16.02,6.2,1.42,8.45,3.6s3.85,4.61,6.41,6.25c3.18,2.03,6.97,1.83,10.59,1.89,1.53.03,3.07.03,4.6.12,1.18.07,2.08.29,2.48,1.5.64,1.98,3.78,1.13,3.13-.86-1.03-3.19-3.66-3.87-6.71-3.92-1.74-.02-3.48-.09-5.23-.1-1.96-.01-4.01,0-5.86-.73-3.15-1.25-4.98-4.48-7.37-6.7-2.72-2.53-6.26-4.08-9.97-4.27-6.81-.36-13.45,4.92-12.01,12.15.76,3.84,3.53,6.85,6.51,9.19,3.25,2.55,6.72,4.86,10.2,7.08,7.37,4.7,16.44,9.26,25.06,4.9,1.87-.94.22-3.75-1.64-2.81h0Z"/>
      <path class="cls-14" d="M78.97,36.89c.82-4.56,5.8-6.98,10.12-5.77,2.39.67,4.25,1.99,6.85,1.66,2.23-.28,4.18-1.36,6.27-2.11.94-.34,1.9-.61,2.91-.59,1.26.03,2.48.55,3.66.95,2.5.84,4.7.88,7.23.13,2.79-.82,5.41-1.16,8.33-.88,2.34.22,5.15.58,7.02,2.13,4.1,3.4,1.16,9.41-1.15,12.88-1.16,1.75,1.65,3.37,2.81,1.64,2.72-4.09,4.83-9.17,2.69-14.01-2.38-5.37-9.76-6.27-14.93-5.99-1.55.08-3.08.34-4.56.77s-2.91.99-4.44.77c-2.75-.4-5.01-1.94-7.89-1.57-2.48.32-4.62,1.64-6.98,2.35-1.17.35-2.27.46-3.45.09-1.42-.45-2.7-1.24-4.18-1.54-5.77-1.16-12.32,2.13-13.41,8.21-.37,2.05,2.76,2.92,3.13.86h0Z"/>
      <path class="cls-14" d="M124.31,158.47c.66-4.85,1.32-9.7,1.99-14.56.63-4.6,1.01-9.35,2.44-13.79.57-1.76,1.4-3.11,3.03-4.01,1.44-.79,3.04-1.27,4.46-2.13,1.53-.93,2.69-2.23,3.24-3.96.6-1.9.3-3.93.71-5.86.43-2.04-2.7-2.91-3.13-.86-.4,1.9-.06,4.02-.71,5.86-.55,1.57-2.07,2.26-3.49,2.89-1.54.69-3.09,1.29-4.39,2.4-1.46,1.24-2.27,3.01-2.85,4.8-1.43,4.44-1.81,9.19-2.44,13.79-.66,4.85-1.32,9.7-1.99,14.56-.12.88.21,1.73,1.13,2,.76.22,1.88-.27,2-1.13h0Z"/>
      <path class="cls-14" d="M129.58,156.85c.39-2.83.77-5.67,1.16-8.5.55-4,.94-8.08,1.96-11.99.45-1.74.98-3.75,2.46-4.92,1.18-.93,2.69-1.41,4.04-2.03,2.73-1.25,4.44-3.08,4.93-6.07.54-3.31.52-6.7.52-10.05,0-2.09-3.25-2.09-3.25,0,0,2.86.03,5.74-.31,8.58-.13,1.04-.27,2.23-.88,3-.89,1.12-2.43,1.65-3.7,2.2-1.38.6-2.75,1.24-3.87,2.28-1.37,1.26-2.12,3.04-2.66,4.78-1.24,3.97-1.64,8.16-2.2,12.26-.44,3.2-.87,6.39-1.31,9.59-.12.88.21,1.73,1.13,2,.76.22,1.88-.27,2-1.13h0Z"/>
      <path class="cls-14" d="M93.83,44.68s-.04-.08-.06-.12c-.05-.11-.04-.08.03.08-.01-.07-.06-.15-.09-.22-.06-.16-.1-.33-.14-.49-.02-.07-.03-.13-.04-.2,0-.05-.02-.09-.02-.14.02.19.03.22.01.09-.01-.16-.03-.32-.03-.48s0-.32.02-.48c0-.05,0-.09.01-.14-.03.19-.03.22-.01.1.01-.07.02-.14.04-.2.03-.16.07-.31.12-.46.03-.09.06-.17.09-.26.04-.11.03-.09-.03.08.02-.04.04-.08.06-.12.13-.28.2-.56.11-.87-.07-.26-.27-.54-.52-.67-.5-.26-1.27-.16-1.54.4-.8,1.68-.79,3.58.04,5.25.26.53,1.05.72,1.54.4.54-.35.68-.97.4-1.54h0Z"/>
      <path class="cls-14" d="M100.23,45.81c1.08-1.82,1.62-3.97,1.49-6.08-.04-.59-.49-1.15-1.12-1.12-.58.03-1.16.5-1.12,1.12.03.48.03.96-.02,1.44,0,.1-.02.19-.03.29-.02.13-.02.13,0-.01,0,.06-.02.13-.03.19-.04.22-.08.44-.14.66-.11.44-.25.86-.41,1.28-.05.12-.05.12,0,0-.03.06-.05.12-.08.18-.04.09-.08.17-.12.26-.11.23-.24.45-.37.67-.3.51-.13,1.26.4,1.54s1.22.14,1.54-.4h0Z"/>
      <path class="cls-14" d="M104.94,48.97c1.88-2.11,3.08-4.76,3.88-7.45.17-.56-.2-1.25-.79-1.38s-1.2.18-1.38.79c-.38,1.27-.77,2.31-1.32,3.41-.28.56-.59,1.11-.92,1.64-.18.27-.36.54-.56.8-.11.15.09-.11-.03.04-.05.06-.09.12-.14.18-.11.13-.22.26-.33.38-.39.44-.47,1.16,0,1.59.43.39,1.17.47,1.59,0h0Z"/>
      <path class="cls-14" d="M108.31,37.55c1.45,0,1.45-2.25,0-2.25s-1.45,2.25,0,2.25h0Z"/>
      <path class="cls-14" d="M99.64,36.64c1.45,0,1.45-2.25,0-2.25s-1.45,2.25,0,2.25h0Z"/>
      <path class="cls-14" d="M92.17,38.41c1.45,0,1.45-2.25,0-2.25s-1.45,2.25,0,2.25h0Z"/>
      <path class="cls-14" d="M112.6,49.57c1.48-1.45,2.87-2.99,4.15-4.62.19-.24.33-.47.33-.8,0-.28-.12-.61-.33-.8-.4-.37-1.2-.49-1.59,0-1.28,1.63-2.67,3.17-4.15,4.62-.42.41-.44,1.18,0,1.59s1.14.44,1.59,0h0Z"/>
      <path class="cls-14" d="M118.27,38.36h-.13c-.15,0-.3.03-.43.1-.14.05-.26.12-.36.23-.11.1-.19.22-.23.36-.07.13-.1.28-.1.43l.04.3c.05.19.15.36.29.5l.23.18c.18.1.36.15.57.15h.13c.15,0,.3-.03.43-.1.14-.05.26-.12.36-.23.11-.1.19-.22.23-.36.07-.13.1-.28.1-.43l-.04-.3c-.05-.19-.15-.36-.29-.5l-.23-.18c-.18-.1-.36-.15-.57-.15h0Z"/>
      <path class="cls-14" d="M63.67,40.24c-.57,2-.05,4.12,1.25,5.71.37.46,1.21.42,1.59,0,.45-.49.4-1.1,0-1.59-.08-.09-.06-.07.04.06-.03-.04-.06-.08-.09-.12-.06-.08-.11-.16-.16-.24-.1-.16-.19-.33-.28-.51-.02-.04-.04-.09-.06-.13.07.16.08.18.03.07-.03-.09-.07-.18-.1-.27-.06-.18-.11-.37-.15-.56-.01-.07-.01-.23-.05-.28.02.18.03.21.01.08,0-.05,0-.1-.01-.14-.02-.19-.02-.38-.01-.58,0-.1,0-.19.02-.29,0-.05,0-.1.01-.14-.03.18-.03.21,0,.09.04-.19.07-.38.13-.56.16-.57-.2-1.25-.79-1.38s-1.21.18-1.38.79h0Z"/>
      <path class="cls-14" d="M67.27,48.51v.12c0,.15.03.3.1.43.05.14.12.26.23.36.1.11.22.19.36.23.13.07.28.1.43.1l.3-.04c.19-.05.36-.15.5-.29l.18-.23c.1-.18.15-.36.15-.57v-.12c0-.15-.03-.3-.1-.43-.05-.14-.12-.26-.23-.36-.1-.11-.22-.19-.36-.23-.13-.07-.28-.1-.43-.1l-.3.04c-.19.05-.36.15-.5.29l-.18.23c-.1.18-.15.36-.15.57h0Z"/>
      <path class="cls-14" d="M74.87,43.83c.17.2-.12-.2.01.02.03.06.07.11.1.17.07.12.14.25.21.38.13.24.25.48.4.71.32.51.68.99,1.09,1.43.76.82,1.68,1.52,2.69,2.01.53.26,1.24.16,1.54-.4.27-.51.16-1.26-.4-1.54-.47-.23-.9-.5-1.32-.8-.11-.08.19.15.03.02-.06-.05-.11-.09-.17-.14-.09-.08-.18-.16-.27-.24-.19-.18-.38-.37-.56-.56-.08-.09-.16-.18-.23-.27-.05-.06-.09-.11-.13-.17.07.08.12.16.02.03-.15-.2-.29-.41-.42-.63-.33-.55-.58-1.12-1-1.61-.38-.45-1.2-.42-1.59,0-.44.48-.41,1.11,0,1.59h0Z"/>
      <path class="cls-14" d="M82.31,50.51l.12.12c.1.11.22.19.36.23.13.07.28.1.43.1.15,0,.3-.03.43-.1.14-.05.26-.12.36-.23l.18-.23c.1-.18.15-.36.15-.57l-.04-.3c-.05-.19-.15-.36-.29-.5l-.12-.12c-.1-.11-.22-.19-.36-.23-.13-.07-.28-.1-.43-.1-.15,0-.3.03-.43.1-.14.05-.26.12-.36.23l-.18.23c-.1.18-.15.36-.15.57l.04.3c.05.19.15.36.29.5h0Z"/>
      <path class="cls-14" d="M105.33,62.85c.1.05.21.1.32.13s.23.04.35.05c.02,0,.04,0,.05,0,.11-.01.21-.02.32-.04,0,0,.02,0,.03,0,.11-.03.21-.08.31-.13.02,0,.03-.02.05-.03l.23-.18s0,0,0,0c0,0,0,0,.01,0,0,0,.01-.01.02-.02,0,0,0,0,0-.01.03-.04.06-.08.09-.12.03-.04.06-.08.09-.12,0,0,.01-.02.02-.02.08-.13.13-.27.13-.42.03-.15.03-.3-.02-.45-.03-.15-.1-.27-.2-.38-.08-.12-.18-.22-.32-.29l-.27-.11c-.2-.05-.4-.05-.6,0l-.27.11c-.17.1-.3.23-.4.4,0,0-.01.02-.02.03l.18-.23s-.03.03-.05.05l.23-.18s-.04.03-.06.04l.27-.11s-.05.02-.08.02l.3-.04s-.05,0-.08,0l.3.04s-.04,0-.06-.02l.27.11s0,0-.01,0c-.13-.08-.27-.13-.42-.13-.15-.03-.3-.03-.45.02-.15.03-.27.1-.38.2-.12.08-.22.18-.29.32l-.11.27c-.05.2-.05.4,0,.6l.11.27c.1.17.23.3.4.4h0Z"/>
      <path class="cls-14" d="M113,63.19c5.85-.72,11.74-1.49,17.11-4.07,1.31-.63.17-2.57-1.14-1.94-4.98,2.39-10.55,3.09-15.97,3.76-.61.07-1.12.46-1.12,1.12,0,.55.52,1.2,1.12,1.12h0Z"/>
      <path class="cls-14" d="M133.14,57.47c1.45,0,1.45-2.25,0-2.25s-1.45,2.25,0,2.25h0Z"/>
      <path class="cls-14" d="M124.94,100.62h.24c.15,0,.3-.03.43-.1.14-.05.26-.12.36-.23.11-.1.19-.22.23-.36.07-.13.1-.28.1-.43l-.04-.3c-.05-.19-.15-.36-.29-.5l-.23-.18c-.18-.1-.36-.15-.57-.15h-.24c-.15,0-.3.03-.43.1-.14.05-.26.12-.36.23-.11.1-.19.22-.23.36-.07.13-.1.28-.1.43l.04.3c.05.19.15.36.29.5l.23.18c.18.1.36.15.57.15h0Z"/>
      <path class="cls-14" d="M128.49,104.39c2.28,1.89,4.83,3.36,7.6,4.4.55.21,1.26-.23,1.38-.79.15-.64-.19-1.16-.79-1.38-1.17-.44-2.3-.97-3.46-1.64s-2.22-1.41-3.15-2.18c-.45-.37-1.15-.48-1.59,0-.38.41-.48,1.19,0,1.59h0Z"/>
      <path class="cls-14" d="M142.18,108.94c1.45,0,1.45-2.25,0-2.25s-1.45,2.25,0,2.25h0Z"/>
      <path class="cls-14" d="M156.82,107.54c3.76-.59,7.48-1.43,11.13-2.51,1.38-.41.79-2.58-.6-2.17-3.65,1.09-7.37,1.93-11.13,2.51-.6.09-.93.85-.79,1.38.18.64.78.88,1.38.79h0Z"/>
      <path class="cls-14" d="M171.63,102.39v-.12c0-.15-.03-.3-.1-.43-.05-.14-.12-.26-.23-.36-.1-.11-.22-.19-.36-.23-.13-.07-.28-.1-.43-.1l-.3.04c-.19.05-.36.15-.5.29l-.18.23c-.1.18-.15.36-.15.57v.12c0,.15.03.3.1.43.05.14.12.26.23.36.1.11.22.19.36.23.13.07.28.1.43.1l.3-.04c.19-.05.36-.15.5-.29l.18-.23c.1-.18.15-.36.15-.57h0Z"/>
      <path class="cls-14" d="M68.04,92.07c1.45,0,1.45-2.25,0-2.25s-1.45,2.25,0,2.25h0Z"/>
      <path class="cls-14" d="M67.5,96.56c.38,1.44.32,2.96.02,4.41-.26,1.24-.59,2.31-1.57,3.08-.48.37-.39,1.2,0,1.59.47.47,1.11.38,1.59,0,1.25-.98,1.83-2.57,2.15-4.07.39-1.85.46-3.76-.02-5.61-.37-1.4-2.54-.81-2.17.6h0Z"/>
      <path class="cls-14" d="M48.05,107.73c2.18,1.19,4.61,1.83,7.09,1.88.59.01,1.15-.53,1.12-1.12s-.49-1.11-1.12-1.12c-2.06-.04-4.14-.59-5.96-1.57-.52-.28-1.25-.14-1.54.4s-.15,1.24.4,1.54h0Z"/>
      <path class="cls-14" d="M43.89,104.32v.12c0,.15.03.3.1.43.05.14.12.26.23.36.1.11.22.19.36.23.13.07.28.1.43.1l.3-.04c.19-.05.36-.15.5-.29l.18-.23c.1-.18.15-.36.15-.57v-.12c0-.15-.03-.3-.1-.43-.05-.14-.12-.26-.23-.36-.1-.11-.22-.19-.36-.23-.13-.07-.28-.1-.43-.1l-.3.04c-.19.05-.36.15-.5.29l-.18.23c-.1.18-.15.36-.15.57h0Z"/>
      <path class="cls-14" d="M34.55,112.42c1.94,1.49,4.18,2.59,6.54,3.24.57.16,1.25-.19,1.38-.79s-.18-1.22-.79-1.38c-.56-.15-1.11-.33-1.65-.54-.14-.05-.27-.11-.4-.16-.12-.05-.13-.06-.03-.01-.07-.03-.13-.06-.2-.09-.26-.12-.53-.24-.79-.37-1.04-.52-2.02-1.14-2.94-1.85-.47-.36-1.28-.09-1.54.4-.32.6-.1,1.15.4,1.54h0Z"/>
      <path class="cls-14" d="M33.36,107.82v-.12c0-.15-.03-.3-.1-.43-.05-.14-.12-.26-.23-.36-.1-.11-.22-.19-.36-.23-.13-.07-.28-.1-.43-.1l-.3.04c-.19.05-.36.15-.5.29l-.18.23c-.1.18-.15.36-.15.57v.12c0,.15.03.3.1.43.05.14.12.26.23.36.1.11.22.19.36.23.13.07.28.1.43.1l.3-.04c.19-.05.36-.15.5-.29l.18-.23c.1-.18.15-.36.15-.57h0Z"/>
      <path class="cls-14" d="M76.72,83.75c1.45,0,1.45-2.25,0-2.25s-1.45,2.25,0,2.25h0Z"/>
      <path class="cls-14" d="M77.2,87.38c.33,2.01.2,4.26-.34,6.28-.15.57.19,1.25.79,1.38s1.22-.18,1.38-.79c.65-2.45.74-4.98.34-7.48-.09-.58-.85-.96-1.38-.79-.63.2-.89.76-.79,1.38h0Z"/>
      <path class="cls-14" d="M109.16,151.21c5.61,1.08,11.35,1.69,17.07,1.59s11.43-.88,16.51-3.44c1.87-.94.22-3.75-1.64-2.81-4.67,2.35-10.1,2.93-15.26,3-5.3.07-10.61-.48-15.82-1.48-2.04-.39-2.92,2.74-.86,3.13h0Z"/>
      <path class="cls-14" d="M108.41,147.92h-.06c.14.01.29.03.43.05-.04,0-.08-.02-.11-.04l.39.16s-.07-.04-.1-.07l.33.25s-.09-.09-.13-.14l.25.33c-.08-.12-.14-.24-.2-.38l.16.39c-.09-.22-.15-.44-.19-.68l.06.43c-.03-.21-.03-.41-.02-.62l-.06.43c.01-.08.03-.14.05-.22l-.16.39.04-.06-.25.33s.06-.06.09-.09l-.33.25.06-.03-.39.16.06-.02-.43.06h.06c-.14-.02-.29-.04-.43-.06l.06.02-.39-.16.05.03-.33-.25.04.05-.25-.33c.07.1.12.21.17.32l-.16-.39c.15.35.23.72.29,1.1l-.06-.43c.11.84.06,1.69.16,2.53.03.28.05.6.15.87.27.75.89,1.3,1.72,1.3.64,0,1.29-.36,1.59-.93.32-.61.32-1.34-.04-1.94-.33-.55-.88-.92-1.45-1.19-.61-.28-1.21-.52-1.89-.53-.72,0-1.39.26-1.92.73-.29.25-.54.63-.65,1.01-.22.74.07,1.62.77,2.01.49.27,1.1.33,1.64.14.41-.15.71-.35,1.05-.61.45-.35.88-.72,1.26-1.14.57-.63.67-1.69,0-2.3-.63-.57-1.68-.67-2.3,0-.34.37-.7.7-1.1,1.01l.33-.25c-.15.11-.3.22-.46.3l.39-.16c-.07.03-.14.05-.22.06l.43-.06s-.09,0-.13,0l.43.06-.05-.02.39.16-.04-.03.58.58-.02-.04.22.82v-.06c-.02.14-.04.29-.06.43l.02-.06-.16.39c.03-.06.06-.11.1-.16l-.25.33s.08-.09.13-.13l-.33.25c.09-.06.17-.12.27-.16l-.39.16c.1-.04.2-.06.31-.08l-.43.06c.12-.01.23-.01.35,0l-.43-.06c.24.03.47.11.69.2l-.39-.16c.29.12.57.25.83.44l-.33-.25c.08.06.15.13.22.21l-.25-.33s.06.08.08.13l-.16-.39.02.07-.06-.43v.07c.03-.14.04-.29.06-.43v.06c.04-.13.1-.26.15-.39l-.03.06.25-.33-.04.05.33-.25-.05.03.39-.16-.06.02.43-.06h-.06c.27.07.55.14.82.22l-.05-.02.33.25-.04-.04.25.33-.03-.05.16.39c-.05-.13-.07-.26-.09-.4l.06.43c-.09-.75-.06-1.51-.13-2.26-.04-.47-.1-.95-.23-1.41-.15-.53-.38-1.12-.78-1.51-.87-.84-2.31-.61-2.93.41-.31.51-.37,1.14-.3,1.72.07.62.21,1.15.51,1.71.13.23.29.45.48.63.4.38.88.54,1.42.58.4.03.88-.2,1.15-.48s.49-.74.48-1.15-.16-.86-.48-1.15-.7-.44-1.15-.48h0Z"/>
      <path class="cls-14" d="M106.82,150.17c-.19.28-.32.59-.44.91-.08.2-.13.4-.16.61-.05.34-.1.68-.07,1.02.02.22.03.44.1.65.1.33.26.63.49.87.57.6,1.58.74,2.28.27.26-.17.51-.38.71-.62.41-.49.72-1.01.89-1.63.19-.68.19-1.37.04-2.06-.08-.39-.41-.78-.75-.97s-.86-.29-1.25-.16-.77.37-.97.75c-.21.4-.26.81-.16,1.25.01.06.02.12.03.19l-.06-.43c.03.21.03.43,0,.64l.06-.43c-.03.23-.09.44-.18.65l.16-.39c-.08.2-.19.38-.32.55l.25-.33c-.12.15-.25.28-.39.4l.33-.25s-.07.05-.1.07l.39-.16s-.05.02-.08.02l.43-.06h-.04c.14.02.29.04.43.06-.02,0-.04,0-.06-.01l.39.16s-.03-.02-.05-.03l.33.25s-.03-.03-.04-.04l.25.33s-.03-.05-.05-.08l.16.39c-.02-.06-.04-.13-.05-.2l.06.43c-.03-.22-.03-.45,0-.67l-.06.43c.03-.24.09-.47.19-.69l-.16.39c.07-.16.15-.3.24-.44.12-.19.18-.39.19-.6.05-.22.04-.43-.03-.65-.1-.38-.4-.79-.75-.97-.38-.2-.83-.3-1.25-.16l-.39.16c-.24.14-.44.34-.58.58h0Z"/>
      <path class="cls-14" d="M61.33,151.91c7.37,1.31,14.83,1.31,22.28,1.06s15.06-.58,22.47-2.18c2.04-.44,1.18-3.57-.86-3.13-7.13,1.54-14.34,1.82-21.6,2.07s-14.35.31-21.42-.94c-2.05-.36-2.92,2.77-.86,3.13h0Z"/>
      <path class="cls-14" d="M106.29,146.67c.41.32.1.05,0-.04-.2-.2.2.32.04.06-.05-.07-.09-.15-.13-.22-.15-.26.13.39.01.03-.03-.1-.05-.19-.08-.29-.07-.28,0,.4.02.09,0-.09,0-.17,0-.26.02-.17,0-.12-.03.17.01-.06.02-.11.04-.17l-2.39.97c.06.03.26.18.04,0s-.02,0,.02.03c.04.03.07.09.11.12-.23-.16-.19-.26-.09-.1.07.1.11.21.17.32-.24-.44-.04-.09,0,.08.02.07.03.14.05.21.01.06.04.27,0,0-.04-.3,0-.03,0,.04s0,.14.01.21c.01.34-.01.68-.04,1.02-.07.83-.1,1.62.05,2.44.23,1.22,1.39,2.08,2.62,1.78.71-.17,1.17-.86,1.19-1.57.02-.66-.07-1.35-.29-1.98-.12-.33-.26-.65-.42-.96-.03-.06-.06-.11-.09-.17.2.34.2.71-.01,1.12-.25.4-.06.09.06-.01.05-.04.1-.09.15-.13.13-.11.1-.09-.1.07.11-.04.23-.16.32-.22.08-.05.17-.1.25-.15.12-.07.52-.19.04-.04.39-.12.1-.17-.89-.17-.29-.17-.48-.41-.58-.72-.11-.38,0-.81.29-1.08.23-.16.28-.2.14-.11-.15.08-.1.06.16-.06-.1,0-.23.07-.32.09-.82.21-1.4,1.18-1.13,2s1.12,1.36,2,1.13c.54-.14,1.06-.36,1.46-.76.53-.54.74-1.36.55-2.09-.22-.82-.98-1.48-1.85-1.48-.6,0-1.16.26-1.67.57-1.08.65-2.27,1.71-1.9,3.12.08.29.23.56.37.83l.05.09c.06.13.06.13,0,0-.05-.13-.06-.13,0,0,.02.05.03.1.05.15.03.1.06.2.08.3.02.07.05.42.04.14s0,.09,0,.15c0,.12,0,.24,0,.37l1.19-1.57.99.14.22.17c.16.23.21.29.14.18-.04-.07-.03-.04.03.09.15.36-.05-.35,0-.04.04.26,0-.07,0-.13,0-.08,0-.15,0-.23,0-.17,0-.35.02-.52.04-.63.13-1.26.09-1.89-.09-1.42-.64-2.83-1.92-3.58-.89-.52-2.14-.05-2.39.97-.18.73-.19,1.55.08,2.27.13.35.27.69.49,1,.32.43.62.71,1.04,1.04.31.24.9.26,1.25.16.38-.1.79-.4.97-.75.2-.38.3-.83.16-1.25s-.39-.7-.75-.97h0Z"/>
      <path class="cls-14" d="M17.2,72.63c1.45,0,1.45-2.25,0-2.25s-1.45,2.25,0,2.25h0Z"/>
      <path class="cls-14" d="M21.57,65.59c1.21-3.93,3.26-7.58,5.99-10.66.96-1.08-.63-2.68-1.59-1.59-3,3.38-5.24,7.34-6.57,11.66-.43,1.39,1.74,1.98,2.17.6h0Z"/>
      <path class="cls-14" d="M30.07,51.91h.2c.15,0,.3-.03.43-.1.14-.05.26-.12.36-.23.11-.1.19-.22.23-.36.07-.13.1-.28.1-.43l-.04-.3c-.05-.19-.15-.36-.29-.5l-.23-.18c-.18-.1-.36-.15-.57-.15h-.2c-.15,0-.3.03-.43.1-.14.05-.26.12-.36.23-.11.1-.19.22-.23.36-.07.13-.1.28-.1.43l.04.3c.05.19.15.36.29.5l.23.18c.18.1.36.15.57.15h0Z"/>
      <path class="cls-14" d="M174.16,54.81v.2c0,.15.03.3.1.43.05.14.12.26.23.36.1.11.22.19.36.23.13.07.28.1.43.1l.3-.04c.19-.05.36-.15.5-.29l.18-.23c.1-.18.15-.36.15-.57v-.2c0-.15-.03-.3-.1-.43-.05-.14-.12-.26-.23-.36-.1-.11-.22-.19-.36-.23-.13-.07-.28-.1-.43-.1l-.3.04c-.19.05-.36.15-.5.29l-.18.23c-.1.18-.15.36-.15.57h0Z"/>
      <path class="cls-14" d="M178.07,61.41c2.02,3.2,4.19,6.62,4.41,10.51.08,1.44,2.33,1.45,2.25,0-.24-4.32-2.46-8.07-4.71-11.65-.77-1.22-2.72-.09-1.94,1.14h0Z"/>
      <path class="cls-14" d="M183.14,74.33l-.2.2c-.11.1-.19.22-.23.36-.07.13-.1.28-.1.43,0,.15.03.3.1.43.05.14.12.26.23.36l.23.18c.18.1.36.15.57.15l.3-.04c.19-.05.36-.15.5-.29l.2-.2c.11-.1.19-.22.23-.36.07-.13.1-.28.1-.43,0-.15-.03-.3-.1-.43-.05-.14-.12-.26-.23-.36l-.23-.18c-.18-.1-.36-.15-.57-.15l-.3.04c-.19.05-.36.15-.5.29h0Z"/>
    </g>
  </g>
</svg>