<?xml version="1.0" encoding="UTF-8"?>
<svg xmlns="http://www.w3.org/2000/svg" viewBox="0 0 200 200">
  <defs>
    <style>
      .cls-1 {
        fill: #f2cb86;
      }

      .cls-2 {
        fill: #e0e0e0;
      }

      .cls-3 {
        fill: #f2f8f9;
      }

      .cls-4 {
        fill: #eaeaea;
      }

      .cls-5 {
        fill: #f8feff;
      }

      .cls-6 {
        fill: #edabac;
      }

      .cls-7 {
        fill: #a0a0a0;
      }

      .cls-8 {
        fill: #fffff8;
      }

      .cls-9 {
        fill: #f7f7ed;
      }

      .cls-10 {
        fill: #fff3b6;
      }

      .cls-11 {
        fill: #7c5e55;
      }

      .cls-12 {
        fill: #fff;
      }

      .cls-13 {
        fill: #445477;
      }

      .cls-14 {
        fill: #ecbe6b;
      }

      .cls-15 {
        fill: #49587f;
      }

      .cls-16 {
        fill: #755750;
      }

      .cls-17 {
        fill: #f9eaaf;
      }
    </style>
  </defs>
  <g id="Colour">
    <path class="cls-4" d="M100,169.1c38.59-12.14,96.24-53.69,89.23-99.14-7.06-34.62-50.97-50.34-78.7-30.05-3.04,2.23-6.75,3.35-10.52,3.35h0c-3.77,0-7.48-1.12-10.52-3.35-27.73-20.28-71.64-4.57-78.7,30.05-7.02,45.45,50.63,87,89.23,99.14"/>
    <path class="cls-11" d="M63.51,86.28c-.18-.69-.72-1.05-1.33-1.14.07-.49.13-.99.2-1.48.15-1.15-1.16-1.72-2.06-1.57-2.89.48-5.82-.52-8.66-.92-2.81-.4-5.68-.43-8.36-1.47-.82-.32-1.78.35-2,1.14,0,.01,0,.03,0,.04-1-.7-2-1.41-2.98-2.14-.32-.24-.63-.47-.94-.71-.03-.03-.3-.23-.33-.25-.13-.1-.26-.2-.39-.31-.62-.49-1.24-.98-1.85-1.47-.62-.5-1.53-.66-2.17-.11-1.35-1.19-2.68-2.39-4-3.61-4.21-3.91-8.24-8-12.11-12.25-.82-.9-1.94-.5-2.45.3-.32.18-.58.5-.67,1-.95,5.17-2.15,10.36-2.86,15.57-.34,2.48,1.58,3.8,3.62,4.7,2.08.92,4.16,1.55,6.07,2.85,1.91,1.3,3.64,2.86,5.53,4.19,2.04,1.43,4.22,2.67,6.39,3.88,2.06,1.15,3.45.09,5.82-.25,2.4-.35,5.24.59,7.56-.12,5.53-1.68,11.13-3,16.84-3.85.87-.13,1.34-1.22,1.13-2Z"/>
    <path class="cls-8" d="M114.1,65.59c-.35-1.1-.9-2.14-1.69-3.07-.42-.5-1.16-.58-1.76-.35-.09-.11-.17-.22-.26-.33-6.83-8.35-23.24-5.22-24.81,6.1-.9,6.49,3.66,11.74,8.59,15.25.93.67,1.84.12,2.19-.71,1.44-.07,2.88-.13,4.31-.21.07.04.14.09.22.13,4.97,2.21,10.44-.38,12.53-5.26.79-1.84,1.06-3.77.94-5.69.51-1.98.39-4-.28-5.87Z"/>
    <path class="cls-8" d="M103.67,112.85c-.15-2.88-1.6-5.32-4.31-6.43-1.28-.52-2.65-.74-3.97-1.11-1.13-.32-2.21-.73-3.26-1.22.2-.18.38-.41.47-.72.22-.76-.27-1.87-1.14-2-5.37-.8-9.98,3.43-11.93,8.13-1.9,4.6-.72,9.95,2.78,13.47,3.56,3.57,9.17,4.56,13.84,2.77,2.38-.91,4.62-2.44,5.73-4.8,1.12-2.38,1.93-5.45,1.79-8.08Z"/>
    <path class="cls-8" d="M128.89,107.75c-.29-.85-1.03-1.18-1.73-1.11-.11-.35-.21-.69-.32-1.02-.99-2.95-3.06-4.61-5.87-5.76-1.41-.57-2.93-1.14-4.48-.88-1.54.26-2.46,1.31-3.37,2.48-1.72,2.21-3.51,4.88-6.41,5.54-1.28.29-1.42,1.64-.83,2.49.03,2.93.15,5.9,1.47,8.58,1.2,2.45,3.45,4.23,6.15,4.74.29.05.58.09.87.12.12.34.34.62.68.77,2.31.99,4.43-.11,6.77-.36,2.37-.25,4.02-1.95,5.31-3.83,1.53-2.22,2.32-4.91,2.35-7.61.06-1.39-.12-2.8-.58-4.13Z"/>
    <path class="cls-15" d="M133.43,148.68c-.9.2-1.81-.14-2.69-.34-1-.22-2.01-.4-3.02-.55-1.94-.27-3.89-.43-5.85-.48-3.97-.1-7.93.2-11.88.49-8.27.62-16.53,1.31-24.81,1.78-4.71.26-9.42.44-14.14.45-.48,0-.85.18-1.11.45-.17-.09-.35-.18-.52-.27-.44-.22-.87-.45-1.3-.69-.06-.04-.08-.06-.1-.07,0,0,0,0-.01-.01,0-.41-.2-.79-.51-1.07-.13-.14-.28-.24-.46-.3-.02-.01-.05-.02-.07-.03-.19-.1-.39-.14-.61-.13l-.43.06c-.28.08-.51.22-.72.42-.08.11-.17.22-.25.33-.15.25-.22.53-.22.82v.14c0,.12.01.24.04.35.13,1.04.96,1.86,1.84,2.38.93.54,1.91,1.01,2.88,1.49.12.18.29.34.52.48,3.52,2.13,7.05,4.26,10.57,6.38,1.62.98,3.06,1.89,5.02,1.43.58-.13,1.15-.32,1.72-.52.26.34.66.58,1.2.61,5.48.31,10.84-1.1,16.3-1.26,5.35-.15,10.63,1.26,15.94.06.5-.11.82-.39,1-.73.08-.03.15-.06.23-.11,4.34-2.71,8.57-5.58,12.69-8.61,1.45-1.06.63-3.39-1.25-2.97Z"/>
    <path class="cls-5" d="M172.26,41.2c-.66-.6-1.59-.94-2.39-1.33-1.02-.5-2.05-.97-3.09-1.43-1.93-.85-3.88-1.64-5.86-2.35-4.48-1.61-9.1-2.84-13.78-3.7-.35-.06-.67-.02-.94.09-.54-.78-1.35-1.07-2.32-.93-.87.13-1.35,1.23-1.13,2,.14.52.48.85.9,1.02.05.1.09.21.14.31.12.27.25.53.38.78-.2.45-.18.98.06,1.49.79,1.7,1.97,3.2,3.24,4.58.72.78,1.5,1.48,2.52,1.84.44.16.96.22,1.42.17.72-.08,1.28-.32,1.84-.76.75.18,1.52.3,2.31.34,1.49,1.04,2.94,2.13,4.33,3.31,1.33,1.13,2.72,2.51,4.61,2.45,1.11-.04,2.01-.52,2.61-1.28.28,0,.57,0,.85-.03,1.54-.16,3.11-.71,4.17-1.9,1.17-1.31,1.57-3.4.16-4.68Z"/>
    <path class="cls-5" d="M48.77,75.89c-2.66-.94-5.54-.92-8.26-1.61-3.1-.78-5.09-3.18-7.34-5.29-1.52-1.43-3.83.86-2.3,2.3,1.42,1.33,2.79,2.75,4.3,3.96.73.59,1.53,1.05,2.37,1.43-.13.54-.02,1.15.42,1.51,1.2,1.01,2.58,1.45,4.1,1.74,1.72.32,3.46.52,5.21.6,1.46.06,3.94.44,4.52-1.37.62-1.92-1.62-2.78-3.03-3.28Z"/>
    <path class="cls-8" d="M91.17,83.51c0-.26-.07-.53-.24-.81-2.79-4.58-7.63-8.62-13.32-7.94-2.95.35-5.97,1.7-8.5,3.23-2.43,1.47-4.3,3.52-5.16,6.27-.83,2.67-.62,5.57-.17,8.29.5,2.96,1.51,5.91,3.57,8.16,4,4.37,11.08,3.57,16.13,1.65,1.55-.59,3.03-1.33,4.37-2.31,1.54-1.13,2.02-2.17,1.9-4.07-.22-3.57.44-7.12,1.98-10.36.41-.86.04-1.67-.56-2.12Z"/>
    <path class="cls-8" d="M137.7,82.02c-.17-.53-.61-.97-1.14-1.13-.13-.83-.32-1.64-.61-2.42-.87-2.39-2.49-4.3-4.88-5.26-2.36-.95-4.97-.81-7.44-.4-2.95.49-6.12,1.3-8.53,3.14-2.27,1.73-3.61,4.35-3.33,7.17-.33.35-.5.85-.31,1.46.88,2.91,1.89,5.79,3.06,8.6.54,1.3,1.16,2.6,2.23,3.56,1.05.94,2.35,1.52,3.69,1.94,5.3,1.68,11.63.3,14.7-4.63.91-1.46,1.33-3.1,1.52-4.77.05,0,.1.01.15.01.91-.04,1.59-.71,1.62-1.62.08-1.9-.18-3.83-.75-5.64Z"/>
    <path class="cls-1" d="M163.29,126.7c.15-.39.16-.85-.07-1.32-1.55-3.22-4.05-5.83-6.68-8.2-2.71-2.45-5.58-4.73-8.58-6.82-6.01-4.19-12.55-7.56-19.42-10.12-1.96-.73-2.81,2.41-.86,3.13.23.09.45.18.68.27-.1.41-.05.86.13,1.29,1.99,4.6,1.76,10.1-.51,14.54-.25.49-.24.96-.07,1.36-1.52,2.49-4.41,3.55-7.26,3.78-1.85.15-3.72.07-5.57-.02-.97-.05-1.9-.17-2.77-.45-.86-.45-1.69-.94-2.51-1.46-.38-.24-.78-.28-1.15-.19-.85-.87-1.57-1.88-2.1-3-.36-.77-1.04-.95-1.66-.77-.76.06-1.61.79-1.5,1.61.42,3.19-2.37,5.18-5.05,6.15-2.84,1.03-6.01,1.96-9.04,2.12-1.44.08-2.92-.04-4.25-.64-1.39-.63-2.45-1.76-3.44-2.88-1.92-2.18-4.26-4.69-4.66-7.69-.07-.49-.27-.94-.61-1.24.24-2.49.8-4.94,1.62-7.31.5-.18.79-.62.88-1.11,1.39-.61,1.17-3.12-.67-3.12-.78,0-1.26.45-1.46,1.01-.92-.1-1.82-.29-2.7-.6-1.04-.37-1.95-.99-2.98-1.36-1.96-.7-3.97-.13-5.8.67-3.63,1.58-6.97,4.11-10.05,6.57-6.2,4.95-11.48,11.01-15.61,17.78-.22.36-.28.71-.23,1.03-.24.38-.34.83-.18,1.26.74,2.02,2.31,3.42,3.82,4.88,1.61,1.55,3.25,3.07,4.92,4.57,1.66,1.49,3.35,2.96,5.07,4.4,1.6,1.33,3.3,2.66,5.4,3.02.33.06.65.04.95-.06h77c.3,0,.55-.07.76-.18,1.42.17,2.88.25,4.27-.17,1.8-.54,2.97-1.84,4.15-3.22.25-.3.51-.59.76-.89.31.03.62-.03.89-.19,3.02-1.85,5.85-4.02,8.38-6.49,1.11-1.08,2.16-2.23,3.15-3.42,2.04-1.43,6.51-4.07,4.62-6.54Z"/>
    <path class="cls-13" d="M109.5,163.36c-.18-.66-.86-1.23-1.57-1.19-5.63.31-11.26.42-16.89.32-2.09-.03-2.09,3.22,0,3.25.71.01,1.41.01,2.12.02.05.06.08.12.14.18,1.06,1.02,2.29,1.75,3.63,2.34,1.24.55,2.58,1.24,3.96,1.24,1.45,0,2.76-.72,3.92-1.52,1.33-.92,2.63-1.86,3.95-2.8.6-.42.95-1.1.75-1.84Z"/>
    <path class="cls-10" d="M111.16,86.56c-2.14-2.16-5.1-3.26-8.07-3.66-3.18-.43-6.46,0-8.95,2.17-.29.25-.45.53-.5.82-1.03.73-1.81,1.86-2.22,3.12-.55,1.7-.47,3.52,0,5.24-.09,1.43.08,2.87.6,4.25,1.48,3.92,5.17,6.63,9.3,6.59.19.21.43.37.78.43,3.08.52,5.9-.88,7.88-3.22,1.91-2.26,3.64-5.12,4-8.1.34-2.83-.84-5.63-2.83-7.63Z"/>
    <path class="cls-5" d="M163.46,80.07c-.49-1.78-2.73-2.29-4.3-2.5-1.84-.25-3.67-.08-5.52-.05-4.71.08-9.28-1.15-13.79-2.37-.57-.15-1.05,0-1.4.29-1.12-.37-2.6.46-2.13,1.89.65,1.95,1.28,3.91,1.95,5.86.27.79.57,1.58,1.31,2.05.77.49,1.7.45,2.57.43,4.17-.1,8.33-.5,12.44-1.16,1.99-.32,3.96-.7,5.92-1.15,1.58-.36,3.49-1.27,2.94-3.27Z"/>
    <path class="cls-11" d="M164.79,81.05c-6.64,4.6-14.93,4.22-22.61,3.49-1.04-.1-1.56.67-1.55,1.49-.4.16-.72.49-.83,1.07-.68,3.57-2.28,6.79-4.79,9.43-1.14,1.21,0,3.06,1.58,2.72,7.8-1.71,16.09-.99,23.45,2.13.68.29,1.41.3,1.97-.25.47-.47.67-1.39.25-1.97-1.17-1.61-2.33-3.21-3.5-4.82-.58-.8-1.17-1.6-1.75-2.41-.12-.16-.71-.83-.72-1.06,0-.09.3-.28.54-.44,3.19-2.2,6.4-4.37,9.6-6.56,1.71-1.18.1-3.99-1.64-2.81Z"/>
    <path class="cls-2" d="M66.85,99.57c-2.71-1.79-4.36-4.65-4.79-7.85-.08-.62-.94-1.28-1.57-1.19-4.43.59-8.86,1.19-13.28,1.78-4.2.56-8.66,1.33-12.9.89-3.32-.35-6.06-2.33-8.61-4.33-2.55-2-5.03-3.99-8.03-5.26-.02-.08-.04-.16-.05-.24-.38-1.85-2.97-1.32-3.15.31-.14-.53-.29-1.06-.43-1.59-.51-2.03-3.65-1.17-3.13.86.98,3.87,2.2,7.66,3.65,11.37-.44.34-.67.9-.43,1.6,3.3,9.41,7.98,18.28,13.94,26.27.67.9,1.81.83,2.51.31.63,1.03,1.26,2.07,1.89,3.1,1.11,1.83,2.43,4.57,5.02,4.2,2.39-.34,3.6-3.41,4.66-5.25.63-1.1,1.22-2.23.8-3.52-.37-1.14-1.38-1.8-2.31-2.45-7.52-5.3-13.65-12.47-17.86-20.63-1.69-3.27-3.04-6.7-4.06-10.24,2.1,1.26,3.98,2.91,5.9,4.39,2.77,2.12,5.71,3.88,9.24,4.3,4.32.51,8.84-.24,13.12-.8,4.08-.54,8.15-1.09,12.23-1.64.84,3.46,3.03,6.45,6.02,8.42,1.75,1.16,3.38-1.66,1.64-2.81Z"/>
    <path class="cls-2" d="M27.88,66.65c-3.16-3.53-6.52-6.87-10.07-10-.64-.56-1.68-.67-2.3,0-.57.62-.68,1.7,0,2.3,3.55,3.14,6.91,6.48,10.07,10,.57.64,1.73.62,2.3,0,.62-.68.61-1.62,0-2.3Z"/>
    <path class="cls-2" d="M84.97,72.87c-4-2.75-9.05-2.29-13.49-1.03-3.64,1.03-7.83,2.43-9.24,6.04-2.62-.05-5.24-.1-7.86-.15-.85-.02-1.66.76-1.62,1.62.04.89.71,1.61,1.62,1.62,2.77.05,5.53.11,8.3.16.24.12.49.2.74.2.96,0,1.53-.75,1.62-1.62.37-3.31,5.51-4.28,8.06-4.94,3.44-.9,7.18-1.2,10.24.91,1.73,1.19,3.36-1.63,1.64-2.81Z"/>
    <path class="cls-2" d="M168.49,77.78c-2.52-3.16-6.86-3.57-10.62-3.4-2.36.11-4.85.42-7.15-.3-2.21-.69-4.07-2.08-6.38-2.61-2.24-.51-4.54-.54-6.8-.14-.53.09-1.17.17-1.66.4-.54.25-.3.15-.88-.3-.84-.65-1.77-1.12-2.78-1.46-3.98-1.36-8.75-.99-12.91-.17.24-4.4-2.04-8.7-6.06-10.79-.78-.4-1.77-.2-2.22.58-.43.73-.2,1.82.58,2.22,1.64.85,2.82,2.01,3.67,3.67.86,1.68,1.04,3.71.6,5.53-.21.85.27,1.76,1.14,2,.2.06.41.07.62.04.32.19.71.27,1.17.17,2.37-.53,4.76-.81,7.19-.8,2.01,0,4.21.07,6.05.96.89.43,1.51,1.27,2.42,1.62.93.36,1.78-.02,2.69-.26,2.05-.56,4.25-.61,6.32-.14,2.16.49,3.89,1.74,5.95,2.47,2.11.75,4.42.75,6.63.65,3.44-.16,7.72-.69,10.13,2.35,1.3,1.64,3.59-.68,2.3-2.3Z"/>
    <path class="cls-2" d="M174.32,79.81c-2.53,2.29-5.21,4.39-8.06,6.27-1.41.93-2.85,1.82-4.32,2.64-1.42.79-2.94,1.59-4.59,1.79-.87.11-1.62.67-1.62,1.62,0,.8.75,1.73,1.62,1.62,3.79-.46,7.14-2.64,10.28-4.69,3.17-2.08,6.18-4.42,8.99-6.96,1.55-1.41-.75-3.7-2.3-2.3Z"/>
    <path class="cls-2" d="M186.91,63.42c-.23-.57-.67-1.01-1.22-1.14-.2-1.03-.42-2.05-.69-3.05-1.6-6.09-5.11-11.84-11.27-14.05-1.07-.38-1.8.36-1.94,1.23-.38-.01-.78.12-1.13.46-2.09,2.05-5.19,2.89-8.05,2.25-3.25-.73-5.08-3.94-8.37-4.47-1.83-.3-3.69.1-5.51-.33-1.58-.38-3.07-1.11-4.28-2.2-2.54-2.27-3.66-5.8-2.98-9.13.42-2.04-2.71-2.91-3.13-.86-.84,4.09.19,8.37,3.01,11.49,1.38,1.53,3.15,2.66,5.07,3.39,1.97.75,3.93.77,6.01.77,1.2,0,2.12.2,3.11.9.72.51,1.36,1.13,2.07,1.65,1.52,1.14,3.3,1.84,5.18,2.1,3.71.52,7.5-.63,10.18-3.26.21-.21.34-.43.41-.66,4.56,1.9,7.12,6.58,8.38,11.15,1.47,5.31,1.88,10.94,1.55,16.42-.63,10.59-4.46,20.83-10.87,29.28-3.36,4.43-7.44,8.32-11.99,11.51-1.87-1.91-3.83-3.74-5.86-5.5-3.61-3.13-7.32-6.28-11.18-9.15,2.13.3,4.24.73,6.34,1.24,4.72,1.13,9.41,2.43,14.07,3.8,2.01.59,2.87-2.54.86-3.13-4.81-1.42-9.66-2.76-14.54-3.91-4.94-1.16-10.01-2.01-15.09-1.52-2.06.2-2.08,3.45,0,3.25.96-.09,1.91-.12,2.86-.13.1.34.3.66.66.91,4.8,3.28,9.33,7.13,13.71,10.94,4.31,3.75,8.43,7.78,11.84,12.38.95,1.28,2.84.61,3.08-.54,5.98-6.19,12.15-12.62,15.71-20.59,1.87-4.19,2.96-8.62,3.94-13.08.98-4.45,1.85-8.95,2.14-13.5.32-5.05-.16-10.19-2.08-14.91Z"/>
    <path class="cls-13" d="M134.13,149.74c-6.91,5.13-15.16,8.37-23.76,9.06-4.92.4-9.89.16-14.81-.13-2.68-.16-5.35-.37-8.02-.63-3.23-.77-6.39-1.82-9.41-3.22-4.12-1.9-7.9-4.68-12.37-5.73-2.03-.48-2.9,2.65-.86,3.13,4.47,1.06,8.26,3.95,12.43,5.78.64.28,1.28.54,1.92.8-.05.79.44,1.38,1.17,1.67,3.45,1.33,7.15,1.87,10.84,1.59.34-.03.64-.16.89-.36,1.3.1,2.61.18,3.91.26,5.08.28,10.23.52,15.31.01,8.81-.89,17.3-4.13,24.42-9.41,1.66-1.23.04-4.05-1.64-2.81Z"/>
    <path class="cls-17" d="M113.46,93.31c-.13-.82-.39-1.6-.74-2.35-.15-1.11-.45-2.21-.94-3.27-1.73-3.77-5.46-6.02-9.6-5.65-2.94.26-6.59,1.34-8.87,3.52-.85-.49-2.07-.32-2.32.91-.59,2.89-.67,5.95.12,8.74-.19.03-.38.09-.53.18-.84.49-.93,1.41-.58,2.22,1.67,3.93,5.64,6.37,9.75,7.03,2.18.35,4.67.48,6.79-.25,1.41-.48,2.48-1.38,3.32-2.5,2.58-2.01,4.16-5.16,3.6-8.6ZM105.37,100.61c-2.99.86-6.33-.04-8.61-2.13-2.17-1.99-2.98-4.73-2.99-7.53.27-.21.49-.49.62-.85,1.1-3.07,4.8-4.21,7.75-3.53,2.84.66,6.02,2.71,7.46,5.41.13,1.93-.33,3.92-1.06,5.67-.26.61-.56,1.28-.94,1.89-.67.47-1.42.84-2.22,1.06Z"/>
    <path class="cls-9" d="M110.99,60.37c-.52-.64-1.19-.66-1.73-.37-.89-1.32-1.96-2.51-3.23-3.43-1.7-1.23-3.32,1.59-1.64,2.81,2.99,2.16,4.64,6.8,4.81,10.35.09,1.87-.19,3.77-.97,5.49-.79,1.75-2.34,3.07-2.78,4.97-.2.84.26,1.77,1.13,2,1.22.31,2.03-.29,2.85-1.12.84-.84,1.69-1.67,2.52-2.53,1.63-1.68,2.43-3.55,2.62-5.88.35-4.36-.82-8.89-3.59-12.3Z"/>
    <path class="cls-9" d="M95.53,80.78c-5.22-6.86-3.18-15.73-.29-23.11.76-1.95-2.38-2.79-3.13-.86-.42,1.07-.81,2.17-1.17,3.3-.62-.86-1.76-1.22-2.9-.52-1.4.87-2.26,2.78-2.66,4.31-.87,3.37-.4,7.46.58,10.76,1.15,3.92,4.06,6.22,7.36,8.34,1.3.84,3.23-.9,2.22-2.22Z"/>
    <path class="cls-9" d="M92.6,85.44c-.3-1.01-1.29-1.96-1.98-2.74-1.48-1.66-3.24-3.11-5.13-4.29-3.76-2.32-8.28-3.54-12.7-3.01-.87.1-1.62.67-1.62,1.62,0,.8.75,1.73,1.62,1.62,3.27-.39,6.54.2,9.48,1.68,1.46.73,2.83,1.63,4.07,2.7.63.55,1.24,1.14,1.8,1.76.28.31.56.63.82.95.09.11.18.22.26.33.01.02.03.04.04.05-.13.88.39,1.91,1.54,1.98,1.44.08,2.16-1.42,1.8-2.66Z"/>
    <path class="cls-9" d="M88.04,96.21c-2.84,1.62-5.73,3.27-8.98,3.9-3.34.64-6.66-.39-9.79-1.48-1.98-.69-2.83,2.45-.86,3.13,3.63,1.26,7.32,2.19,11.18,1.54,3.63-.62,6.94-2.49,10.1-4.29,1.82-1.04.18-3.85-1.64-2.81Z"/>
    <path class="cls-9" d="M89.03,101.62c-2.68.13-5.18,1.47-7.02,3.38-2.17,2.25-3.41,5.17-4.4,8.09-.41,1.2.58,1.98,1.57,1.98-.25,1.23-.34,2.49-.24,3.74.07.87.7,1.62,1.62,1.62.82,0,1.7-.75,1.62-1.62-.43-5.23,2.93-9.59,7.22-12.19,1.12-.68,2.73-1.25,2.76-2.81.03-1.74-1.71-2.25-3.13-2.18Z"/>
    <path class="cls-9" d="M101.93,107.63c-.35-.81-1.53-.99-2.22-.58-.06.03-.1.07-.15.11-.39-.51-1.02-.79-1.7-.6-.79.22-1.44,1.17-1.13,2,1.08,2.93,1.06,6.26-.32,9.1-.72,1.48-1.76,2.73-2.85,3.95-1.19,1.33-2.38,2.65-3.75,3.8-.55.46-.59,1.39-.25,1.97.38.65,1.12.88,1.84.75,4.13-.79,7.88-3.45,9.97-7.1,2.36-4.11,2.44-9.08.58-13.39Z"/>
    <path class="cls-9" d="M114.37,121.29c-3.3-4.5-4.83-9.97-4.33-15.53.08-.88-.8-1.62-1.62-1.62-.94,0-1.55.75-1.62,1.62-.02.24-.02.49-.03.73-.56.14-1.08.54-1.16,1.12-.86,6.12,1.62,12.16,6.55,15.9,1.28.97,3.16-.95,2.22-2.22Z"/>
    <path class="cls-9" d="M130.6,110.63c-1.85-3.33-3.77-6.67-6.94-8.9-2.81-1.98-6.35-2.97-9.78-2.75-1.34.08-1.82,1.47-1.42,2.41-.17.02-.35.03-.52.06-.87.14-1.35,1.22-1.14,2,.25.92,1.13,1.27,2,1.14,6.1-.98,11.77,2.77,15,7.7,1.14,1.74,3.83.2,2.81-1.64Z"/>
    <path class="cls-9" d="M134.79,88.42c-4.21,5.8-11.87,7.67-18.41,4.98-.81-.33-1.79.36-2,1.13-.26.93.32,1.66,1.13,2,.73.3,1.47.53,2.21.73,0,.03-.01.06-.01.1,0,.96.75,1.53,1.62,1.62,4.05.44,8.3.24,12-1.64,3.07-1.55,5.56-4.31,6.42-7.68.48-1.87-1.92-2.7-2.97-1.25Z"/>
    <path class="cls-9" d="M132.28,73.49c-.75-1.69-3.29-1.54-5.21-1.2l-.25-.03c-1.32-.14-2.72-.41-4.02,0-1.24.39-2.32,1.25-3.4,1.95-1.23.79-2.45,1.59-3.68,2.38-.84.55-.9,1.48-.53,2.18-.33.34-.66.69-.97,1.05-1.62,1.89-3.51,4.19-2.83,6.85.52,2.03,3.65,1.17,3.13-.86-.2-.77.38-1.55.8-2.15.48-.69,1-1.33,1.56-1.95,1.18-1.31,2.49-2.5,3.95-3.49,1.4-.94,2.9-1.71,4.51-2.21.64-.2,1.3-.35,1.97-.46,1.19.12,2.37.25,3.56.37,1.36.14,1.84-1.45,1.4-2.45Z"/>
    <path class="cls-3" d="M161.01,79.14c-3.95,2.04-8.34,3.11-12.78,3.12-1.09,0-2.19-.06-3.27-.18-.66-.08-2.31-.1-2.73-.57-.21-.25-.31-1.02-.45-1.35-.2-.49-.42-.97-.69-1.43-.56-.97-1.29-1.84-2.11-2.6-1.53-1.42-3.84.87-2.3,2.3.91.84,1.66,1.82,2.12,2.98.42,1.08.61,2.2,1.66,2.88,1,.64,2.3.75,3.45.91,1.29.18,2.6.29,3.9.31,5.16.07,10.25-1.19,14.83-3.56,1.86-.96.22-3.77-1.64-2.81Z"/>
    <path class="cls-3" d="M52.22,77.45c-3.37-1.51-6.84-.86-10.38-1.33-1.76-.23-3.14-1-4.47-2.14-1.56-1.34-3.11-2.7-4.66-4.05-1.57-1.37-3.88.92-2.3,2.3,1.55,1.35,3.1,2.71,4.66,4.05,1.5,1.29,3.08,2.36,5.04,2.81,1.76.41,3.57.41,5.37.43,1.7.02,3.52.02,5.1.73.8.36,1.75.23,2.22-.58.41-.69.22-1.86-.58-2.22Z"/>
    <path class="cls-3" d="M171.7,43.42c-1.25-1.38-2.68-2.55-4.25-3.54-.64-.41-1.26-.29-1.71.07-.25-.23-.48-.48-.74-.7-1.83-1.62-3.87-3.01-6.06-4.1-4.4-2.19-9.32-3.25-14.23-2.93-2.08.13-2.09,3.38,0,3.25,5.46-.35,10.85,1.11,15.42,4.12,2.26,1.49,4.17,3.35,5.85,5.46.83,1.04,1.85,1.96,3.26,1.99,1.39.03,2.39-.8,2.89-2.03.22-.54-.06-1.19-.42-1.58Z"/>
    <path class="cls-14" d="M62.86,145.98c-8.36-3.91-15.09-10.29-21.69-16.6-1.51-1.45-3.81.85-2.3,2.3,6.78,6.49,13.76,13.08,22.35,17.1,1.88.88,3.54-1.92,1.64-2.81Z"/>
    <path class="cls-14" d="M140.17,145.21h-24.29c0-.16,0-.34-.05-.52-1.78-6.74-7.93-12.27-15.09-12.24-6.74.03-14.41,5.44-14.03,12.76h-20.36c-2.09,0-2.09,3.25,0,3.25h73.82c2.09,0,2.09-3.25,0-3.25ZM101.09,135.7c5.47.12,10.02,4.43,11.5,9.51h-22.63c-.21-5.69,5.91-9.62,11.12-9.51Z"/>
    <path class="cls-14" d="M161.53,125.86c-4.37,6.4-10.16,11.75-16.86,15.65-1.81,1.05-.17,3.86,1.64,2.81,7.19-4.18,13.34-9.95,18.02-16.81,1.18-1.73-1.63-3.36-2.81-1.64Z"/>
    <path class="cls-14" d="M78.84,104.78c-.72-.04-1.43-.09-2.15-.16-.33-.03-.66-.07-.99-.11-.14-.02-.28-.03-.41-.05,0,0-.34-.05-.39-.05-1.37-.2-2.73-.46-4.07-.78-.04-.03-.07-.06-.11-.09-2.66-1.76-5.66-.04-7.9,1.59-2.67,1.94-5.26,3.98-7.75,6.14-4.95,4.28-9.5,9-13.63,14.07-.6.74-.44,1.63.04,2.22-.44.62-.88,1.25-1.29,1.9-1.13,1.77,1.68,3.4,2.81,1.64,6.67-10.4,17.47-16.98,27.13-24.3,2.86.66,5.78,1.08,8.72,1.23.85.04,1.66-.78,1.62-1.62-.04-.92-.71-1.58-1.62-1.62Z"/>
    <path class="cls-14" d="M106.98,119.95c-.1-.87-.68-1.62-1.62-1.62-.8,0-1.72.75-1.62,1.62.27,2.5-2.05,4.92-3.89,6.33-2.11,1.61-4.85,2.52-7.5,2-.86-.17-1.75.24-2,1.14-.22.8.27,1.83,1.13,2,3.68.72,7.38-.31,10.33-2.58,2.6-2,5.56-5.36,5.17-8.88Z"/>
    <path class="cls-14" d="M162.73,126.27c-3.94-6.24-9.41-11.19-15.3-15.56-2.94-2.18-5.98-4.22-9.03-6.24-3.1-2.05-6.5-4.18-10.38-3.79-1.29.13-2.28,1.74-1.15,2.77,3.63,3.3,5.04,8.77,3.16,13.37-1.92,4.7-7.03,7.54-12,7.18-2.09-.15-2.08,3.1,0,3.25,6.31.45,12.59-3.39,15-9.24,1.81-4.38,1.26-9.49-1.14-13.51,1.99.75,3.81,2.07,5.56,3.23,2.82,1.87,5.63,3.76,8.34,5.78,5.42,4.02,10.5,8.65,14.13,14.39,1.11,1.76,3.93.13,2.81-1.64Z"/>
    <path class="cls-12" d="M43.23,54.78c5.33,3.64,10.2,7.91,14.56,12.67,1.42,1.55,3.71-.76,2.3-2.3-4.54-4.96-9.66-9.37-15.21-13.17-.72-.5-1.8-.14-2.22.58-.47.8-.14,1.73.58,2.22h0Z"/>
    <path class="cls-12" d="M66.73,57.74c.99.56,1.93,1.19,2.83,1.88l-.33-.25c.67.52,1.31,1.08,1.93,1.67s1.7.66,2.3,0,.65-1.67,0-2.3c-1.52-1.47-3.24-2.76-5.08-3.8-.74-.42-1.81-.2-2.22.58s-.21,1.78.58,2.22h0Z"/>
    <path class="cls-12" d="M120.19,54.2c4.44,3.73,8.48,7.95,11.94,12.61.52.7,1.41,1.06,2.22.58.69-.41,1.11-1.51.58-2.22-3.63-4.89-7.78-9.35-12.45-13.27-.67-.56-1.64-.66-2.3,0-.58.58-.68,1.73,0,2.3h0Z"/>
    <path class="cls-12" d="M142.05,59.42c4.36,3.13,8.45,6.62,12.25,10.4,1.48,1.48,3.78-.82,2.3-2.3-4-3.98-8.32-7.62-12.91-10.91-.71-.51-1.81-.12-2.22.58-.48.82-.13,1.71.58,2.22h0Z"/>
    <path class="cls-16" d="M61.27,86.56c-8.11-1.58-15.91,2.15-24.01,1.38-7.37-.69-13.83-5.25-19.35-9.84-.05-.05-.11-.09-.16-.14-.97-5.49-1.24-11.06-.85-16.62.15-2.09-3.1-2.08-3.25,0-.07.93-.11,1.85-.13,2.78-.65-.03-1.32.31-1.63,1.13-1.19,3.17-1.76,6.59-1.58,9.97.07,1.38.06,3.01,1.28,3.91,1.19.88,2.96,1.26,4.33,1.78.13.05.25.07.38.08,2.04,1.67,4.17,3.25,6.35,4.67,3.31,2.15,6.93,3.95,10.78,4.89,4.08.99,8.16.78,12.27.16,4.85-.73,9.8-1.99,14.71-1.03,2.04.4,2.92-2.73.86-3.13Z"/>
    <path class="cls-16" d="M161.94,100.05c-1.99-.1-4.02-1.29-5.89-1.93-1.99-.69-4.01-1.29-6.06-1.8-2.95-.73-5.94-1.27-8.95-1.63,1.38-1.75,2.32-3.81,2.01-6.09-.12-.88-.66-1.61-1.62-1.62-.79,0-1.74.75-1.62,1.62.35,2.64-1.56,4.61-3.42,6.21-.07.06-.11.13-.16.2-.16-.05-.33-.09-.52-.09-2.09,0-2.09,3.25,0,3.25.63,0,1.07-.3,1.32-.72.16.07.33.12.51.13,4.21.32,8.38,1.02,12.47,2.09,2.04.54,4.05,1.16,6.04,1.87,1.95.7,3.8,1.65,5.9,1.75,2.09.1,2.09-3.15,0-3.25Z"/>
    <path class="cls-12" d="M33.87,103.07l7.8,8.02c.59.61,1.71.64,2.3,0s.63-1.65,0-2.3l-7.8-8.02c-.59-.61-1.71-.64-2.3,0s-.63,1.65,0,2.3h0Z"/>
    <path class="cls-12" d="M48.02,100.56c.73,1.15,1.57,2.23,2.51,3.22.28.3.74.48,1.15.48s.87-.18,1.15-.48.5-.72.48-1.15-.17-.83-.48-1.15c-.45-.47-.87-.96-1.27-1.47l.25.33c-.35-.46-.68-.93-.99-1.42-.22-.35-.56-.63-.97-.75s-.91-.06-1.25.16-.65.56-.75.97-.07.88.16,1.25h0Z"/>
    <path class="cls-12" d="M168.8,66.31c2.09,0,2.09-3.25,0-3.25s-2.09,3.25,0,3.25h0Z"/>
    <path class="cls-12" d="M176.28,95.04c2.09,0,2.09-3.25,0-3.25s-2.09,3.25,0,3.25h0Z"/>
    <path class="cls-12" d="M59.36,50.17c2.09,0,2.09-3.25,0-3.25s-2.09,3.25,0,3.25h0Z"/>
  </g>
  <g id="Layer_1" data-name="Layer 1">
    <path class="cls-6" d="M76.79,136.4c-5.62-9.25-33.14-3.36-22.59,8.72,6.5,5.93,28.8,4.17,22.59-8.72Z"/>
    <path class="cls-6" d="M145.38,136.4c-5.62-9.25-33.14-3.36-22.59,8.72,6.5,5.93,28.8,4.17,22.59-8.72Z"/>
    <g>
      <path class="cls-7" d="M100.43,170.66c16.29-5.15,31.69-13.48,45.5-23.47,14.57-10.53,28.18-23.46,36.99-39.29,4.02-7.22,6.94-15.07,8.04-23.28.54-4.05.64-8.14.22-12.2s-1.62-8.22-3.28-12.1c-6.23-14.57-19.69-25.1-34.84-29.15-7.62-2.04-15.65-2.45-23.43-1.09-3.86.68-7.61,1.83-11.2,3.4-1.78.78-3.51,1.67-5.18,2.66-1.93,1.15-3.68,2.63-5.67,3.67-4.77,2.5-10.83,2.41-15.53-.2-1.93-1.07-3.65-2.5-5.56-3.63-1.72-1.01-3.5-1.9-5.33-2.68-7.23-3.09-15.15-4.4-22.99-3.94-15.72.92-30.9,8.58-40.42,21.21-4.82,6.39-8.17,14.16-8.95,22.15s.49,16.49,3.27,24.19c6,16.64,18.09,30.6,31.39,41.94,13.56,11.56,29.03,21.07,45.49,27.9,3.49,1.45,7.03,2.76,10.63,3.89,2,.63,2.85-2.5.86-3.13-15.75-4.98-30.61-13.04-44.02-22.63-14.14-10.12-27.36-22.59-36.05-37.8-7.78-13.61-11.74-30.48-5.33-45.41,6.01-14,19.02-23.95,33.63-27.6,7.16-1.79,14.75-2.1,22-.65,3.71.74,7.35,1.9,10.76,3.54,1.76.84,3.47,1.8,5.1,2.86,2.03,1.32,3.88,2.74,6.15,3.65,4.85,1.94,10.45,1.82,15.24-.24,2.17-.94,3.97-2.4,5.95-3.66,1.6-1.02,3.27-1.93,4.99-2.74,6.82-3.22,14.44-4.57,21.96-4.28,14.81.58,29.5,7.69,38.55,19.53,4.65,6.09,8,13.57,8.65,21.25.67,7.89-.64,15.75-3.37,23.15-5.92,16.07-17.9,29.49-30.79,40.41-13.09,11.08-28.08,20.3-43.94,26.84-3.4,1.4-6.84,2.67-10.35,3.78-1.99.63-1.14,3.77.86,3.13h0Z"/>
      <g>
        <path class="cls-7" d="M128.53,101.57c14.33,4.92,27.34,14.01,35.07,27.24,1.05,1.8,3.86.17,2.81-1.64-8.17-13.98-21.89-23.55-37.02-28.74-1.98-.68-2.83,2.46-.86,3.13h0Z"/>
        <path class="cls-7" d="M39.08,132.25c6.01-13.16,16.82-22.97,29.94-28.81,1.91-.85.26-3.65-1.64-2.81-13.56,6.03-24.9,16.39-31.11,29.98-.86,1.89,1.94,3.54,2.81,1.64h0Z"/>
        <path class="cls-7" d="M90.67,143.58c.08-.52.23-1.03.43-1.51l-.16.39c.22-.52.5-1.01.85-1.46l-.25.33c.17-.22.35-.42.54-.61.29-.3.48-.73.48-1.15s-.18-.87-.48-1.15-.72-.5-1.15-.48-.84.16-1.15.48c-1.14,1.16-1.98,2.69-2.23,4.31-.07.22-.08.43-.03.65,0,.22.07.42.19.6.2.34.58.66.97.75.42.09.88.07,1.25-.16.33-.21.68-.56.75-.97h0Z"/>
        <path class="cls-7" d="M98.27,137.3c.15-.07.3-.14.46-.21l-.39.16c.67-.28,1.37-.47,2.09-.57l-.43.06c.69-.09,1.39-.09,2.08,0l-.43-.06c.06,0,.11.02.17.02.45.07.84.07,1.25-.16.34-.2.66-.58.75-.97.09-.42.07-.88-.16-1.25-.21-.33-.56-.69-.97-.75-.56-.08-1.12-.15-1.68-.15s-1.07.07-1.6.15c-.97.15-1.89.48-2.77.92-.76.38-1.04,1.52-.58,2.22.5.78,1.41.99,2.22.58h0Z"/>
        <path class="cls-7" d="M109.48,140.22c.37.3.7.64.99,1.01l-.25-.33c.31.41.57.86.77,1.33l-.16-.39c.2.48.33.97.41,1.49l-.06-.43s.01.08.02.12c.05.45.15.82.48,1.15.28.28.74.49,1.15.48s.86-.16,1.15-.48c.27-.3.52-.73.48-1.15-.06-.53-.14-1.04-.3-1.55s-.36-.98-.61-1.44c-.44-.8-1.04-1.55-1.75-2.12-.35-.28-.69-.48-1.15-.48-.4,0-.87.18-1.15.48s-.5.72-.48,1.15c.02.4.15.88.48,1.15h0Z"/>
        <path class="cls-7" d="M123.84,138.11c0,1.33,0,2.67,0,4,0,.42.18.85.48,1.15s.74.49,1.15.48c.88-.04,1.63-.71,1.62-1.62,0-1.33,0-2.67,0-4,0-.42-.18-.85-.48-1.15s-.74-.49-1.15-.48c-.88.04-1.63.71-1.62,1.62h0Z"/>
        <path class="cls-7" d="M131.81,138.11c0,1.33,0,2.67,0,4,0,.42.18.85.48,1.15s.74.49,1.15.48c.88-.04,1.63-.71,1.62-1.62,0-1.33,0-2.67,0-4,0-.42-.18-.85-.48-1.15s-.74-.49-1.15-.48c-.88.04-1.63.71-1.62,1.62h0Z"/>
        <path class="cls-7" d="M139.78,138.11v4c0,.42.18.85.48,1.15s.74.49,1.15.48c.88-.04,1.63-.71,1.62-1.62v-4c0-.42-.18-.85-.48-1.15s-.74-.49-1.15-.48c-.88.04-1.63.71-1.62,1.62h0Z"/>
        <path class="cls-7" d="M55.55,138.11v4c0,.42.18.85.48,1.15s.74.49,1.15.48c.88-.04,1.63-.71,1.62-1.62v-4c0-.42-.18-.85-.48-1.15s-.74-.49-1.15-.48c-.88.04-1.63.71-1.62,1.62h0Z"/>
        <path class="cls-7" d="M63.63,138.11c0,1.33,0,2.67,0,4,0,.42.18.85.48,1.15s.74.49,1.15.48c.88-.04,1.63-.71,1.62-1.62,0-1.33,0-2.67,0-4,0-.42-.18-.85-.48-1.15s-.74-.49-1.15-.48c-.88.04-1.63.71-1.62,1.62h0Z"/>
        <path class="cls-7" d="M71.71,138.11c0,1.33,0,2.67,0,4,0,.42.18.85.48,1.15s.74.49,1.15.48c.88-.04,1.63-.71,1.62-1.62,0-1.33,0-2.67,0-4,0-.42-.18-.85-.48-1.15s-.74-.49-1.15-.48c-.88.04-1.63.71-1.62,1.62h0Z"/>
      </g>
      <path class="cls-7" d="M102.23,80.79c-5.94-.31-11.4,2.6-13.35,8.41-1.67,4.96-.36,10.87,3.23,14.66,4.09,4.31,11.2,5.2,16.45,2.59s7.47-8.48,6.9-13.87c-.33-3.12-1.54-6.16-3.81-8.38-2.51-2.46-5.96-3.51-9.43-3.41-2.09.06-2.1,3.31,0,3.25,4.9-.14,8.65,2.65,9.76,7.31.94,3.97-.22,8.85-3.6,11.4-3.59,2.71-9.57,2.48-12.94-.22s-4.58-7.07-3.86-10.87c.43-2.25,1.4-4.15,3.17-5.61,1.99-1.64,4.8-2.15,7.47-2.01,2.09.11,2.08-3.14,0-3.25h0Z"/>
      <path class="cls-7" d="M94.51,81.76c-4.07-2.14-7.49-6.14-7.8-10.88-.33-5.1,2.77-9.86,7.35-11.99s9.56-1.64,13.63.89c3.6,2.24,6.33,6.18,6.29,10.52-.04,4.69-2.8,9.48-7.11,11.46-1.9.87-.25,3.67,1.64,2.81,4.84-2.23,7.96-7.41,8.6-12.59.67-5.47-2-10.66-6.29-13.96-4.65-3.58-10.94-4.67-16.51-2.71-5.87,2.06-10.14,7.2-10.8,13.42-.7,6.65,3.64,12.85,9.36,15.85,1.85.97,3.49-1.83,1.64-2.81h0Z"/>
      <path class="cls-7" d="M112.22,84.64c.96-4.3,3.87-8.19,8.02-9.87,4.45-1.79,9.88-.87,13.31,2.52,6.47,6.39,3.31,18.06-5.38,20.6-4.19,1.22-9.48.55-12.61-2.7-1.45-1.51-3.75.79-2.3,2.3,3.56,3.7,9.18,4.75,14.09,3.92,5.33-.9,9.69-4.74,11.74-9.67s1.45-10.81-1.88-15.16c-3.66-4.78-9.86-6.8-15.7-5.58-6.23,1.31-11.07,6.67-12.44,12.78-.46,2.04,2.68,2.91,3.13.86h0Z"/>
      <path class="cls-7" d="M93.93,84.43c-2.2-5.47-6.86-9.95-12.7-11.27-6.22-1.41-13.09.85-17.03,5.91s-4.44,11.28-1.95,16.82,7.47,9.32,13.27,10.07,12.83-1.49,16.35-6.61c1.19-1.73-1.63-3.36-2.81-1.64-2.47,3.59-7.3,5.2-11.49,5.15-4.61-.05-8.85-2.56-11.34-6.43-2.68-4.16-3.03-9.4-.57-13.75s7.66-6.98,12.79-6.66c5.44.34,10.34,4.29,12.34,9.28.77,1.92,3.91,1.08,3.13-.86h0Z"/>
      <path class="cls-7" d="M91.15,99.53c-5.3.33-10.4,3.12-13.13,7.76-2.86,4.85-2.82,11.43.47,16.07,2.99,4.22,8.01,6.68,13.2,6.19s9.92-3.33,12.31-7.89,2.78-11.49-.57-15.95c-1.24-1.65-4.07-.03-2.81,1.64,2.34,3.11,2.48,7.37,1.29,10.97-1.29,3.89-4.62,6.7-8.56,7.68s-8.14-.11-11.01-3.05c-3.17-3.26-3.92-8.2-2.3-12.39,1.74-4.51,6.38-7.47,11.12-7.77,2.08-.13,2.09-3.38,0-3.25h0Z"/>
      <path class="cls-7" d="M113.75,101.1c3.93-.92,8.33.06,11.25,2.92s4.15,7.3,2.92,11.22c-2.55,8.09-13.67,9.82-19.02,3.51-2.46-2.91-3.75-7.26-2.41-10.92.72-1.97-2.42-2.82-3.13-.86-1.54,4.21-.28,9.25,2.26,12.82,2.97,4.16,7.94,6.47,13.05,6.04,5.08-.42,9.66-3.39,11.76-8.11,2.16-4.86,1.31-10.54-1.97-14.69-3.66-4.63-9.93-6.39-15.57-5.06-2.04.48-1.17,3.61.86,3.13h0Z"/>
      <path class="cls-7" d="M14.41,60.9l12.3,10.16,6.15,5.08c1.81,1.5,3.6,3.18,5.66,4.33,3.83,2.12,8.69,2.04,12.95,2.39s8.37.65,12.55,1.06c2.08.21,2.07-3.04,0-3.25-4.04-.4-8.1-.7-12.14-1.03-1.86-.15-3.72-.31-5.58-.5-2.25-.23-4.52-.51-6.5-1.69s-3.66-2.8-5.41-4.25l-5.77-4.76-11.92-9.85c-1.6-1.32-3.91.96-2.3,2.3h0Z"/>
      <path class="cls-7" d="M139.11,87.45c11.94-1.37,23.74-3.72,35.28-7.09l-1.58-2.72c-5.39,5.09-11.64,9.14-18.47,12.03-1.02.43-.95,1.87-.33,2.55,4.12,4.52,8.25,9.04,12.37,13.56l1.97-2.55c-11.61-4.91-24.28-6.91-36.83-5.6-2.06.21-2.08,3.47,0,3.25,11.94-1.24,24.12.48,35.19,5.16,1.63.69,3.3-1.1,1.97-2.55-4.12-4.52-8.25-9.04-12.37-13.56l-.33,2.55c7.07-3,13.54-7.26,19.12-12.54,1.18-1.12-.04-3.17-1.58-2.72-11.25,3.29-22.77,5.64-34.41,6.98-2.05.24-2.08,3.49,0,3.25h0Z"/>
      <path class="cls-7" d="M9.35,80.38l12.16,7.64c2.07,1.3,4.14,2.63,6.22,3.91,1.81,1.11,3.59,1.81,5.72,1.93s4.51-.11,6.74-.24c2.44-.15,4.88-.33,7.31-.56,4.69-.44,9.36-1.02,14.02-1.73.87-.13,1.34-1.22,1.13-2-.25-.93-1.14-1.27-2-1.13-4.53.69-9.08,1.25-13.64,1.66-4.32.39-8.76.88-13.1.77-2.17-.06-3.75-1-5.54-2.12l-5.66-3.55-11.74-7.37c-1.78-1.12-3.41,1.7-1.64,2.81h0Z"/>
      <path class="cls-7" d="M59.51,150.16c3.67.33,7.37.34,11.05.41,6.09.11,12.18.15,18.27.17,13.18.04,26.37-.01,39.56-.27,4.34-.08,8.7-.1,13.02-.45,2.07-.17,2.09-3.42,0-3.25-3.67.3-7.37.33-11.05.41-6.09.13-12.18.2-18.27.25-13.18.1-26.37.13-39.55-.08-4.33-.07-8.7-.06-13.02-.44-2.08-.19-2.07,3.06,0,3.25h0Z"/>
      <path class="cls-7" d="M81.14,163.04c12.28.98,24.71,1.18,37,.37,2.08-.14,2.09-3.39,0-3.25-12.29.81-24.73.6-37-.37-2.09-.17-2.07,3.08,0,3.25h0Z"/>
      <path class="cls-7" d="M28.4,69.93c2.33-.47,4.57.05,6.56,1.3,1.89,1.19,3.53,2.74,5.56,3.69,3.61,1.7,9.33,1.63,11.16,5.81.84,1.91,3.64.26,2.81-1.64-.96-2.19-2.95-3.67-5.1-4.6-2.47-1.07-5.23-1.35-7.63-2.57-2.23-1.13-4.01-2.99-6.24-4.11-2.51-1.26-5.25-1.56-7.99-1.01-2.05.41-1.18,3.54.86,3.13h0Z"/>
      <path class="cls-7" d="M141.11,31.8c-.67,3.92.47,8.04,3.49,10.74,1.36,1.22,3.01,2.14,4.78,2.62s3.95.04,5.73.7c.94.34,1.62,1.16,2.38,1.77s1.5,1.15,2.32,1.61c1.64.93,3.44,1.53,5.32,1.68,3.47.28,7.12-1.47,8.72-4.62.94-1.86-1.86-3.51-2.81-1.64-1.23,2.44-4.05,3.43-6.66,2.9-1.5-.31-2.88-1-4.13-1.88-1.32-.93-2.36-2.22-3.9-2.82s-3.05-.45-4.6-.58-3.02-.66-4.28-1.57c-2.51-1.81-3.76-5.01-3.24-8.05.35-2.05-2.78-2.92-3.13-.86h0Z"/>
      <path class="cls-7" d="M135.11,76.94c3.05-.84,6.26-.71,9.21.48,2.65,1.07,5.05,2.61,8.03,2.28,1.44-.16,2.8-.66,4.22-.92.95-.17,1.84.02,2.76.28,2.03.57,4.06,1.46,5.77,2.69s3.33-1.6,1.64-2.81c-1.84-1.32-4.07-2.27-6.24-2.93-1.04-.32-2.18-.59-3.28-.57-1.52.03-2.99.61-4.47.91-3.14.64-5.77-1.55-8.63-2.45-3.2-1.01-6.66-1-9.88-.11-2.01.55-1.16,3.69.86,3.13h0Z"/>
      <path class="cls-7" d="M97.12,74.52c1.45,0,1.45-2.25,0-2.25s-1.45,2.25,0,2.25h0Z"/>
      <path class="cls-7" d="M96.52,76.96c-.22,3.32-.32,6.7,1.12,9.79.26.55,1.05.69,1.54.4.56-.33.66-.99.4-1.54-1.25-2.67-1-5.79-.81-8.65.04-.61-.55-1.12-1.12-1.12-.64,0-1.09.52-1.12,1.12h0Z"/>
      <path class="cls-7" d="M105.38,86.74c.43-3.4.76-6.8.97-10.22.04-.61-.54-1.12-1.12-1.12-.64,0-1.09.52-1.12,1.12-.22,3.42-.54,6.82-.97,10.22-.08.6.57,1.12,1.12,1.12.67,0,1.05-.52,1.12-1.12h0Z"/>
      <path class="cls-7" d="M105.13,74.52c1.45,0,1.45-2.25,0-2.25s-1.45,2.25,0,2.25h0Z"/>
      <path class="cls-7" d="M109.37,90.93c2.09-1.36,4.2-2.38,6.49-3.14.56-.19.98-.78.79-1.38-.18-.56-.79-.98-1.38-.79-2.47.82-4.84,1.95-7.02,3.37-.49.32-.74,1.01-.4,1.54.32.49,1.01.75,1.54.4h0Z"/>
      <path class="cls-7" d="M119.83,86.84c1.45,0,1.45-2.25,0-2.25s-1.45,2.25,0,2.25h0Z"/>
      <path class="cls-7" d="M109.14,94.71h9.94c1.45,0,1.45-2.25,0-2.25h-9.94c-1.45,0-1.45,2.25,0,2.25h0Z"/>
      <path class="cls-7" d="M125.61,95.45c1.45,0,1.45-2.25,0-2.25s-1.45,2.25,0,2.25h0Z"/>
      <path class="cls-7" d="M107.49,100.07c.32.17.63.36.93.56.07.05.14.1.21.15.01,0,.28.21.1.07.13.11.27.22.4.33.55.48,1.05,1,1.52,1.56.11.13.22.27.33.41,0,0,.18.23.11.13-.08-.1.09.12.1.14.22.3.44.6.65.9.43.62.84,1.26,1.24,1.89.32.5,1.01.74,1.54.4.5-.32.74-1.01.4-1.54-1.7-2.65-3.54-5.43-6.4-6.95-.52-.28-1.25-.15-1.54.4-.27.52-.15,1.25.4,1.54h0Z"/>
      <path class="cls-7" d="M115.88,109.57c1.45,0,1.45-2.25,0-2.25s-1.45,2.25,0,2.25h0Z"/>
      <path class="cls-7" d="M103.81,103.33c.55,1.01,1.11,2.02,1.67,3.03.51.92,1.06,1.85,1.85,2.56.44.39,1.17.46,1.59,0,.39-.43.47-1.17,0-1.59-.18-.16-.35-.33-.5-.52-.04-.05-.08-.09-.11-.14.08.11.09.11.01.01-.07-.1-.14-.2-.21-.3-.27-.4-.5-.83-.74-1.25-.54-.98-1.08-1.97-1.63-2.95-.28-.52-1.04-.73-1.54-.4s-.71.99-.4,1.54h0Z"/>
      <path class="cls-7" d="M110.38,111.87c1.45,0,1.45-2.25,0-2.25s-1.45,2.25,0,2.25h0Z"/>
      <path class="cls-7" d="M96.6,113.44c1.45,0,1.45-2.25,0-2.25s-1.45,2.25,0,2.25h0Z"/>
      <path class="cls-7" d="M98.39,103.28c-.02.25-.05.5-.08.75.03-.23-.01.08-.02.13-.02.14-.04.28-.07.42-.08.46-.17.91-.28,1.37-.23.94-.52,1.86-.88,2.76-.22.55.24,1.26.79,1.38.65.15,1.15-.2,1.38-.79.77-1.93,1.22-3.95,1.41-6.02.06-.59-.56-1.15-1.12-1.12-.66.03-1.07.5-1.12,1.12h0Z"/>
      <path class="cls-7" d="M89.54,108.62c1.45,0,1.45-2.25,0-2.25s-1.45,2.25,0,2.25h0Z"/>
      <path class="cls-7" d="M92.67,105.95c.23-.49.5-.97.82-1.41.03-.05.07-.1.1-.14.15-.2-.07.08,0,0,.08-.1.16-.2.25-.3.18-.21.37-.41.56-.6s.38-.36.58-.52c.03-.03.24-.16.08-.07s.02-.02.06-.04c.11-.08.23-.17.35-.25.45-.3.94-.56,1.44-.78.24-.1.45-.43.52-.67.07-.27.04-.63-.11-.87s-.39-.45-.67-.52c-.31-.07-.57-.01-.87.11-2.19.95-4.04,2.76-5.05,4.92-.25.53-.17,1.24.4,1.54.5.26,1.27.17,1.54-.4h0Z"/>
      <path class="cls-7" d="M82.75,97.48c1.45,0,1.45-2.25,0-2.25s-1.45,2.25,0,2.25h0Z"/>
      <path class="cls-7" d="M86.55,97.05c2.58.06,5.16.06,7.74.02.61-.01,1.12-.51,1.12-1.12s-.51-1.14-1.12-1.12c-2.58.05-5.16.04-7.74-.02-.61-.01-1.12.53-1.12,1.12s.52,1.11,1.12,1.12h0Z"/>
      <path class="cls-7" d="M85.47,87.36c1.45,0,1.45-2.25,0-2.25s-1.45,2.25,0,2.25h0Z"/>
      <path class="cls-7" d="M87.89,88.1c.46.27.91.55,1.35.85.23.15.45.31.67.47.11.08.22.16.33.24.05.04.1.07.15.11.17.13-.08-.07.02.02.84.68,1.65,1.39,2.4,2.16.41.42,1.18.44,1.59,0s.44-1.14,0-1.59c-1.59-1.64-3.41-3.06-5.38-4.2-.51-.3-1.26-.13-1.54.4s-.14,1.22.4,1.54h0Z"/>
      <path class="cls-7" d="M101.85,95.5c1.45,0,1.45-2.25,0-2.25s-1.45,2.25,0,2.25h0Z"/>
      <path class="cls-7" d="M11.7,74.48c4.1,1.4,7.97,3.48,11.38,6.16.48.38,1.13.47,1.59,0,.39-.39.48-1.21,0-1.59-3.73-2.93-7.88-5.21-12.37-6.74-1.37-.47-1.96,1.7-.6,2.17h0Z"/>
      <path class="cls-7" d="M28.43,84.17c1.45,0,1.45-2.25,0-2.25s-1.45,2.25,0,2.25h0Z"/>
      <path class="cls-7" d="M32.09,86.79c1.83,1.57,3.53,3.28,5.09,5.12.38.45,1.2.42,1.59,0,.44-.48.41-1.11,0-1.59-1.55-1.84-3.25-3.56-5.09-5.12-.45-.38-1.16-.47-1.59,0-.39.42-.48,1.18,0,1.59h0Z"/>
      <path class="cls-7" d="M142.58,99.13c1-.63,1.98-1.11,2.98-1.47.54-.19,1.09-.35,1.65-.48.27-.06.54-.12.81-.17.16-.03.31-.05.47-.08.14-.02.16-.02.05,0,.08-.01.16-.02.24-.03.58-.07,1.15-.47,1.12-1.12-.02-.55-.5-1.2-1.12-1.12-2.61.3-5.11,1.14-7.34,2.54-.5.31-.74,1.02-.4,1.54s1.01.74,1.54.4h0Z"/>
      <path class="cls-7" d="M152.74,96.19c1.45,0,1.45-2.25,0-2.25s-1.45,2.25,0,2.25h0Z"/>
      <path class="cls-7" d="M77.07,150.73c4.03,2.86,7.32,6.68,9.64,11.04.68,1.28,2.62.14,1.94-1.14-2.5-4.71-6.1-8.76-10.44-11.85-.5-.35-1.25-.09-1.54.4-.33.56-.09,1.19.4,1.54h0Z"/>
      <path class="cls-7" d="M88.08,150.44c2.56,3.22,4.57,6.9,5.91,10.78.2.57.77.95,1.38.79.56-.15.99-.81.79-1.38-1.48-4.28-3.67-8.24-6.49-11.78-.38-.48-1.2-.4-1.59,0-.47.47-.38,1.11,0,1.59h0Z"/>
      <path class="cls-7" d="M97.87,150.71c2.21,3.38,3.89,7.04,4.99,10.92.39,1.39,2.57.8,2.17-.6-1.15-4.06-2.91-7.93-5.22-11.46-.79-1.21-2.74-.08-1.94,1.14h0Z"/>
      <path class="cls-7" d="M107.27,150.65c1.28,3.43,2.06,7.02,2.29,10.67.04.61.49,1.12,1.12,1.12.58,0,1.16-.52,1.12-1.12-.24-3.85-1.02-7.65-2.37-11.27-.21-.57-.76-.96-1.38-.79-.55.15-1,.81-.79,1.38h0Z"/>
      <path class="cls-7" d="M115.64,150.51c1.18,3.32,1.62,6.8,1.29,10.31-.06.61.56,1.12,1.12,1.12.66,0,1.07-.52,1.12-1.12.34-3.68-.13-7.43-1.37-10.91-.2-.57-.77-.96-1.38-.79-.55.15-.99.81-.79,1.38h0Z"/>
      <path class="cls-7" d="M123.96,150.53c1.15,2.11,1.66,4.45,1.52,6.87-.03.59.54,1.15,1.12,1.12.64-.03,1.09-.49,1.12-1.12.16-2.78-.49-5.57-1.82-8.01-.29-.53-1.03-.7-1.54-.4s-.7,1-.4,1.54h0Z"/>
    </g>
  </g>
</svg>