<?xml version="1.0" encoding="UTF-8"?>
<svg xmlns="http://www.w3.org/2000/svg" viewBox="0 0 200 200">
  <defs>
    <style>
      .cls-1 {
        fill: #f2cb86;
      }

      .cls-2 {
        fill: #f7e8ad;
      }

      .cls-3 {
        fill: #edabac;
      }

      .cls-4 {
        fill: #a0a0a0;
      }

      .cls-5 {
        fill: #ffcfcf;
      }

      .cls-6 {
        fill: #fff3b6;
      }

      .cls-7, .cls-8 {
        fill: #e85b5b;
      }

      .cls-9 {
        fill: #fff;
      }

      .cls-10 {
        fill: #d6e2a6;
      }

      .cls-11 {
        opacity: .16;
      }

      .cls-8 {
        opacity: .09;
      }

      .cls-12 {
        fill: #ecbe6b;
      }

      .cls-13 {
        fill: #f9caca;
      }

      .cls-14 {
        fill: #dceaac;
      }

      .cls-15 {
        fill: #f9e8e8;
      }

      .cls-16 {
        fill: #fff3f3;
      }
    </style>
  </defs>
  <g id="Colour">
    <g class="cls-11">
      <path class="cls-7" d="M100,169.1c38.59-12.14,96.24-53.69,89.23-99.14-7.06-34.62-50.97-50.34-78.7-30.05-3.04,2.23-6.75,3.35-10.52,3.35h0c-3.77,0-7.48-1.12-10.52-3.35-27.73-20.28-71.64-4.57-78.7,30.05-7.02,45.45,50.63,87,89.23,99.14"/>
    </g>
    <path class="cls-8" d="M42.3,107.02c-2.66-2.96-5.75-5.53-9.16-7.59-3.67-2.23-7.54-4.15-11.32-6.19-.02-.01-.05-.02-.07-.03-.26-2.36-.25-4.74-.15-7.13.17-3.95.48-7.91.84-11.86.68-7.59,1.85-15.29,4.86-22.34,1.57-3.68,3.65-7.15,6.29-10.17,1.38-1.57-.91-3.87-2.3-2.3-1.25,1.43-2.36,2.92-3.37,4.47-.03-.02-.06-.05-.09-.07-.83-.5-1.69-.11-2.22.58-9.56,12.53-17.45,27.5-15.07,43.75.63,4.29,2.07,8.45,4.28,12.18.45.76,1.46,1.03,2.22.58,1.25-.73,2.56-1.09,4-1.11.59,0,1.1-.34,1.39-.82.29.02.57.03.86.06.02,0,.03,0,.04,0,.01,0,.02,0,.03,0,.17.03.34.05.5.08.27.05.54.1.81.16,1.15.25,2.26.61,3.34,1.06.1.04.21.06.32.06.95.53,1.9,1.06,2.83,1.62,3.31,1.97,6.25,4.41,8.82,7.28,1.4,1.56,3.69-.74,2.3-2.3Z"/>
    <path class="cls-8" d="M73.97,93.38c-2.32.13-4.54,1.09-6.06,2.88-.75.88-1.18,2.05-2.03,2.84-.86.8-2.15,1.26-3.19,1.77-2.25,1.1-4.57,1.99-6.86,2.97-2.03.86-3.96,2.01-5.03,4.02-.98,1.85,1.82,3.49,2.81,1.64.85-1.59,2.56-2.33,4.16-2.96,2.22-.88,4.42-1.81,6.57-2.85,1.54-.75,2.95-1.46,4.08-2.62.58.19,1.28.11,1.66-.38,1.33-1.7,2.89-3.14,4.73-4.28,1.3-.81.86-3.12-.82-3.03Z"/>
    <path class="cls-8" d="M188.78,70.73c-.77-6.31-2.02-13.14-6.75-17.78-.5-.5-1.1-.55-1.61-.37-.94-2.39-2.09-4.68-3.74-6.72-1.31-1.63-3.6.68-2.3,2.3,2.94,3.65,4.1,8.5,5.39,12.91,1.42,4.82,2.67,9.7,3.43,14.67.84,5.54.99,11.29.03,16.83.03-.28.08-.55.09-.83.13-2.09-3.12-2.08-3.25,0-.25,3.89-2.15,7.55-5.13,10.05-3.07,2.57-7.22,3.55-11.14,3.03-.73-.1-1.38.56-1.56,1.24-.35.06-.69.12-1.03.2-2.52.62-5.51,2.02-7.15,4.25-3.36-3.64-7.17-6.83-11.33-9.52-.03-.02-.06-.03-.09-.05-.97-2.86-3.26-5.17-5.43-7.26-1.6-1.54-3.3-3.35-5.23-4.7,8.74-.85,17.66-3.1,22.62-10.99,1.12-1.78-1.7-3.41-2.81-1.64-.16.25-.34.48-.51.72-.48-.26-1.08-.31-1.56.02-2.1,1.44-4.11,3.01-6.04,4.68-.41.36-.55.96-.43,1.5-5.32,2.2-11.64,2.6-17.18,2.88-2.03.11-2.09,3.2-.13,3.24.19.42.55.77,1.01.86.96.18,1.81.57,2.61,1.07.02.24.08.47.22.67,3.09,4.5,6.61,8.69,10.54,12.48.56.54,1.41.54,2.03.18,4.09,2.81,7.76,6.15,10.98,9.94.77.9,2.49.44,2.72-.72.67-3.45,5.86-4.82,8.84-4.82,1.66,0,3.43.78,5.07.41,1.7-.38,2.82-1.78,3.79-3.12h0c.84-.42,1.63-.92,2.4-1.46.01.02.02.04.03.06.45.7,1.47,1.1,2.22.58.44-.3.85-.63,1.26-.97.48,1.11,2.17,1.63,2.87.27,1.74-3.35,2.91-6.81,3.62-10.34.83.34,1.84.09,2.03-1.03,1.25-7.5,1.5-15.13.59-22.69Z"/>
    <path class="cls-9" d="M45.12,33.76c-6.77,8.98-11.89,19.18-15.06,29.97-3.11,10.56-5.33,23.08-.31,33.41,4.26,8.77,14.28,14.78,23.91,11.09,5.08-1.94,9.01-5.68,12.24-9.95,3.62-4.79,6.57-10.11,9.72-15.21,1.78-2.89,3.55-5.79,5.35-8.67,1.58-2.51,3.25-4.98,5.45-6.99,3.47-3.16,9.59-4.98,13.22-1.03,1.42,1.54,3.71-.76,2.3-2.3-3.04-3.3-7.99-3.86-12.09-2.47-4.8,1.63-8.12,5.68-10.81,9.78-3.27,5-6.31,10.16-9.44,15.25-2.96,4.79-5.78,9.83-9.83,13.8-3.55,3.47-8.29,6.07-13.38,5.66-4.51-.36-8.56-3.16-11.33-6.61-6.93-8.61-5.38-20.96-2.93-30.92,2.95-12,8.37-23.29,15.8-33.16,1.26-1.67-1.56-3.29-2.81-1.64h0Z"/>
    <path class="cls-9" d="M106.17,74.34c2.14,4.31,7.03,6.68,11.74,5.84,2.66-.48,5.04-1.97,7.23-3.48,2.42-1.67,4.77-3.43,7.08-5.25,4.52-3.57,8.82-7.42,12.86-11.53,1.91-1.94,3.71-4.1,6.45-4.81s5.9-.68,8.64-.25c9.59,1.52,14.02,11.76,13.21,20.58-.52,5.68-2.85,11.07-5.53,16.04-2.46,4.55-5.21,8.97-8.22,13.18-6.37,8.89-14.6,17.09-25.36,20.22-2,.58-1.15,3.72.86,3.13,9.95-2.89,17.98-9.78,24.33-17.77,3.23-4.07,6.11-8.4,8.77-12.86,2.98-5.01,5.77-10.25,7.32-15.9,2.56-9.36.95-20.57-7.26-26.71-4.4-3.29-10.13-3.83-15.44-3.19-2.99.36-5.4,1.52-7.6,3.56s-4.17,4.23-6.34,6.27c-4.87,4.56-10.06,8.8-15.56,12.58-2.4,1.65-5.18,3.43-8.23,3.08-2.66-.31-4.93-2.02-6.11-4.39-.93-1.87-3.73-.23-2.81,1.64h0Z"/>
    <path class="cls-16" d="M110.13,36.61c-.52-1.89-1.13-3.79-2.11-5.44-.89-1.49-2.32-1.69-3.82-.95-1.23.61-2.42,1.37-3.56,2.15-1.9,1.3-3.69,2.76-5.35,4.37-.48-.34-.95-.66-1.43-1-1.61-1.13-3.23-2.24-4.87-3.35-.47-.32-1.12-.28-1.62,0-.8-.26-1.83-.01-2.22.99-2.65,6.8-3.03,14.18-1.98,21.35.52,3.5,1.37,6.98,2.6,10.3,1.12,3.04,2.69,5.88,5.48,7.67.14.09.27.15.41.19,1.58,1.5,3.41,2.75,5.48,3.66.63.7,1.65.84,2.39.14,2.13-2.03,3.84-4.36,5.18-6.94,3.49-4.41,6.13-9.49,7.29-15,1.28-6.12.69-12.54-1.88-18.14Z"/>
    <path class="cls-16" d="M101.41,101.8c-.05-4.79-2.03-9.32-4.47-13.35-.67-1.11-2.01-.9-2.67-.15-.34-.25-.79-.37-1.32-.22-1.61.44-3.24.86-4.85,1.31.09-.07.18-.12.27-.2,1.76-1.47,3.21-3.38,4.14-5.48.41-.93.92-2,.85-3.05-.06-.95-.66-1.88-1.57-2.1-.48-1.1-1.27-2.06-2.08-2.93-1.13-1.2-2.32-2.35-3.55-3.45-2.51-2.25-5.2-4.31-8.02-6.15-.37-.24-.83-.28-1.25-.15-1.71-1-3.51-1.83-5.38-2.48-2.24-.77-4.8-1.42-7.11-.56-.23.09-.43.21-.61.36-4.34-.31-8.74.09-13,1.26-.42-.71-1.49-.98-2.19-.53-.76.49-1.01,1.42-.58,2.22.78,1.47,1.53,2.95,2.24,4.45.67,1.42,1.41,3.08,1.93,4.32.02.05.05.09.07.14-.7,3.51-7.56,5.13-5.44,9.65,1.03,2.2,3.48,2.87,5.59,3.6,2.54.89,5.11,1.71,7.71,2.42,4.99,1.36,10.16,2.28,15.34,2.28,1.1,0,2.18-.05,3.25-.15-1.98,1.07-3.82,2.39-5.47,4.1-4.93,5.12-7.45,11.98-8.51,18.9-.44,2.88-1.65,7.82,2.4,8.59,1.49.29,3.07-.2,4.56-.3.92-.07,1.85-.09,2.77-.07.93.02,2.22-.09,3.1.25.68.26.73,1.02.95,1.68.3.9.61,1.8.91,2.7.55,1.63,1.16,3.71,3.36,3.24,1.56-.33,3.03-1.75,4.22-2.74,1.29-1.09,2.5-2.29,3.6-3.58,3.35-3.91,5.75-8.5,7.1-13.42,2.53-2.82,3.75-6.65,3.71-10.42Z"/>
    <path class="cls-16" d="M141.46,114.74c-.32-2.14-1.03-4.26-2-6.23.23-.33.3-.76.11-1.28-1.24-3.29-3.53-6.06-5.8-8.69-2.24-2.6-4.72-4.99-7.53-6.97-5.47-3.86-12.49-5.85-19.06-4.01-.85-.62-2.22-.51-2.47.81-.72,3.83-1.48,7.77-1.07,11.67.39,3.66,1.82,7.01,3.46,10.27.42.83.86,1.65,1.33,2.46-.08.49.08.99.44,1.42.1.12.2.23.29.34-.11.4-.08.83.18,1.16.06.09.13.17.2.25-.18.51-.11,1.09.41,1.58,1.4,1.32,2.87,2.57,4.37,3.79.11.11.21.23.33.33.13.12.28.2.43.28.58.46,1.15.92,1.74,1.36.02.02.04.04.05.06.14.15.32.27.51.35.44.32.88.63,1.33.94.13.23.32.42.56.55.32.16.62.33.92.51.39.27.8.52,1.19.78.55.39,1.08.82,1.57,1.29,1.22,1.17,2.25,2.39,4.06,2.5.52.03,1.18-.32,1.4-.8,1.59-3.37,3.1-6.79,4.54-10.23,1.75.01,3.5-.09,5.23-.35.87-.13,1.73-.4,2.39-1,.92-.83,1.06-1.99.88-3.15Z"/>
    <path class="cls-16" d="M153.99,71.87c-2.57-3.34-5.77-6.06-9.52-7.94.47-1.86.93-3.72,1.4-5.57.45-1.81,1.18-4.22-1.25-4.92-1.94-.56-4.27-.47-6.26-.3-2.23.19-4.43.6-6.59,1.15-7.69,1.93-15.28,5.45-20.14,11.94-2.61,3.48-4.19,7.67-4.3,12.03-.02.82.47,1.32,1.08,1.49.09.35.33.68.75.91,3.21,1.77,6.67,3.06,10.23,3.94,3.57.89,7.4,1.63,11.09,1.61,3.71-.02,6.86-1.4,10.07-3.11,1.72-.92,3.44-1.86,5.13-2.83,1.4-.8,2.7-1.66,3.15-3.29.07-.24.08-.46.05-.67,1.55-.66,3.07-1.39,4.54-2.22.7-.39,1.11-1.53.58-2.22Z"/>
    <path class="cls-5" d="M177.53,93.23s.02-.03.03-.05c1.07-1.79,1.99-3.75,1.81-5.89-.06-.65-.46-1.45-1.19-1.57-1.45-.24-3.04-.72-4.51-.75,0-.06-.03-.15-.1-.29.02-.33-.19-.81-.27-1.13-.18-.75-.36-1.5-.53-2.26-.29-1.24-1.85-1.51-2.72-.72-2.76,2.52-4.41,5.92-5.52,9.44-1.23,3.88-1.99,7.92-2.89,11.89-.27,1.18.67,1.96,1.59,2.02.23.14.48.26.79.28,6.11.5,9.64-5.11,13.7-8.62.88-.77.55-1.82-.18-2.36Z"/>
    <path class="cls-14" d="M178.46,105.5c-3.45,1.14-6.59,3.01-9.22,5.49-3.98-1.21-8.58.07-11.37,3.17-.36.41-.47.86-.42,1.29-.25.31-.41.71-.44,1.17-.05.85.78,1.66,1.62,1.62.07,0,.14-.02.21-.03,0,0,.01.01.02.02.34.29.68.59,1.02.9.67.61,1.32,1.24,1.95,1.88.62.63,1.21,1.28,1.79,1.94.03.04.07.08.1.12-1.3-.12-2.53,1.58-1.35,2.77.31.31.63.63.94.94.38.39,1.05.61,1.58.42,1.95-.71,3.32-2.36,4.66-3.88,1.39-1.57,2.69-3.23,3.92-4.93,2.46-3.38,4.63-6.95,6.81-10.51.72-1.17-.48-2.84-1.84-2.39Z"/>
    <path class="cls-14" d="M51.33,109.27c-2.18-1.59-5.35-1.02-7.76-.3-.74.22-1.46.5-2.16.82-.47-.4-.98-.78-1.41-1.12-1.75-1.41-3.6-2.68-5.57-3.76-3.96-2.18-8.29-3.65-12.76-4.31-.37-.05-.73-.02-1.06.11-.09-.16-.18-.31-.27-.47-1.03-1.82-3.84-.18-2.81,1.64.18.31.35.63.52.94-.35.51-.45,1.22-.09,1.75,1.39,1.96,2.8,3.91,4.22,5.85-.65.68-.51,1.59.02,2.27,3.16,4.02,6.4,7.97,9.74,11.85.24.28.57.42.93.45,1.11,1.25,2.18,2.52,3.22,3.83.71.89,2.01.43,2.55-.33,4.08-5.75,8.42-11.3,13-16.66.73-.85.56-1.9-.33-2.55Z"/>
    <path class="cls-6" d="M110.6,83.06c-3.11-1.06-6.64-3.74-5.49-7.47.55-1.78-2.04-2.83-2.97-1.25-1.13,1.93-4.07,5.26-6.46,2.97-.73-.7-1.64-.52-2.22,0-.51.22-.89.69-.84,1.42.11,1.91-.47,3.7-1.78,5.12-.8.86-.52,2.42.72,2.72,4.82,1.17,8.64,5,9.78,9.83.42,1.77,3.27,1.41,3.19-.43-.09-2.32.65-4.51,1.51-6.63.6-1.47,1.73-3.82,3.7-3.13,1.99.68,2.82-2.44.86-3.13Z"/>
    <path class="cls-1" d="M162.16,125.01c-1.38-1.59-2.8-3.15-4.24-4.7-3.3-3.54-6.73-6.96-10.27-10.26-.54-.5-1.16-.54-1.69-.32l-.71-.68c-.11-.1-.21-.21-.32-.31-.3-.8-.7-1.58-1.23-2.29-.74-1.01-2.68-1.12-2.97.39-.3,1.54.37,2.6,1.32,3.6.56,1.85.51,3.86.32,5.84-.06.58.04,1.69-.28,2.18.11-.17-.18.04-.41.08-.39.06-.79.09-1.18.12-1.89.16-3.78.17-5.67.07-1.47-.08-2.79.27-3.39,1.76-.5,1.26-.53,2.76-.83,4.09-.53,2.32-1.33,4.54-2.94,6.25-5.04-2.68-9.96-5.56-14.75-8.67-.59-.38-1.14-.33-1.57-.06-3.75-4.58-5.97-10.4-6.08-16.38-.04-2.12-3.08-2.06-3.25,0-.97,11.97-9.23,22.94-20.38,27.34-1.44-2.06-2.71-4.22-3.79-6.5-.22-.46-.89-.86-1.4-.8-4.24.47-8.46.21-12.58-.79-.13-6.63,1.37-13.18,4.49-19.06.52-.98-.1-2.59-1.4-2.45-6.28.68-11.24,4.66-15.39,9.16-4.7,5.09-8.87,10.69-12.54,16.56-.46.74-.24,1.44.24,1.9,0,.36.12.73.41,1.06,5.39,6.21,11.98,11.33,19.32,15.03-.24.66-.12,1.46.65,1.94,10.78,6.76,22.19,12.48,34.05,17.1,2.7,1.05,5.74,2.66,8.71,2.15,1.39-.24,2.66-.89,3.92-1.49,1.65-.78,3.3-1.57,4.95-2.35,5.96-2.83,11.94-5.61,17.87-8.5,5.39-2.63,10.76-5.66,14.74-10.23,3.82-2.39,7.41-5.17,10.84-8.14,1.46-1.26,2.9-2.56,4.32-3.87,1.33-1.22,3.04-2.42,4.03-3.95,1.14-1.76.31-3.41-.91-4.82Z"/>
    <path class="cls-15" d="M109.27,35.9c-.35-.2-.74-.23-1.1-.15-.36-1.77-.81-3.53-1.36-5.26-.63-1.98-3.77-1.14-3.13.86,4.46,13.98,2.34,29.4-4.95,42.02-11.64-9.18-11.35-26.16-9.64-39.57.11-.88-.83-1.62-1.63-1.62-.97-.01-1.51.76-1.62,1.62,0,.02,0,.04,0,.06-.59.01-1.17.36-1.41,1.16-1.89,6.23-2.6,12.88-1.67,19.32,0,.08,0,.15,0,.23-.04,3.05.13,6.17,1.03,9.09.93,3.01,2.52,5.75,4.12,8.44.7,1.18,2.14.88,2.75.03,1.93,2.23,4.29,4.18,7.13,5,.48.57,1.31.86,2.04.39,6.61-4.28,9.21-12.03,10.99-19.31,1.05-4.3,2.26-8.72,2.3-13.18.03-3.38-.63-7.29-3.83-9.11Z"/>
    <path class="cls-15" d="M150.88,70.84c-2.28,2.4-4.86,4.45-7.73,6.1-2.44,1.39-5.02,2.38-7.68,3.19-.94.09-1.89.15-2.84.17-7.45.2-14.99-1.01-22.29-2.53,0-.03,0-.05,0-.08-.07-3.33,2.69-6.47,4.82-8.78,2.31-2.51,4.98-4.64,7.93-6.35,6.55-3.83,14.15-5.36,21.69-5.04,1.04.04,1.87-1.08,1.57-2.06-1.37-4.43-6.54-3.87-10.18-3.43-4.49.55-8.54,1.83-12.32,4.34-6.34,4.21-13.11,9-16.15,16.25-.17.41-.08.85.15,1.22-.49,1.23-.78,2.51-.76,3.85,0,.13.02.25.04.37-.64.84-.54,2.24.78,2.52.32.07.65.13.98.2.18.24.44.45.79.59,8,3.08,16.47,6.01,25.18,4.93.88-.11,1.61-.67,1.62-1.62,0-.46-.26-.97-.64-1.29.07-.02.13-.04.2-.06,3.67-.39,7.26-1.25,10.6-2.86,3.46-1.67,6.75-4.38,7-8.47.09-1.41-1.83-2.14-2.77-1.15Z"/>
    <path class="cls-15" d="M98.46,91.35c-.3-1.11-.76-2.19-1.43-3.19-.53-.8-1.37-.9-2.03-.61-.11-.03-.21-.06-.32-.07-2.1-.24-4.02.66-5.81,1.67-1.63.92-3.24,1.9-4.82,2.9.69-.53,1.31-1.18,1.77-2.02.31-.55.24-1.22-.08-1.73,2.85-1.55,5.3-3.75,6.95-6.69.34-.6.24-1.24-.1-1.72.46-.67.32-1.44-.18-2.05-6.98-8.61-16.65-14.86-27.34-17.76-2.02-.55-2.88,2.59-.86,3.13.29.08.58.17.87.25-4.99-1.11-10.17-1.28-15.48-.08-2.04.46-1.18,3.6.86,3.13,14.53-3.29,28.09,4.88,39.24,13.3-2.95,1.7-6,3.22-9.16,4.46-3.44,1.35-7.09,2.66-10.79,3.04-1.23.13-2.47.14-3.71.06-1.74-.25-3.49-.54-5.22-.84-4.4-1.11-8.68-3.11-12.45-5.23-1.83-1.03-3.47,1.78-1.64,2.81.94.53,1.91,1.05,2.9,1.55.07.23.2.46.42.67,4.64,4.54,10.9,6.51,17.22,7.22,3.46.39,7.01.49,10.49.37,1.81-.06,3.66-.39,5.23-1.2-1.98,1.27-4,2.59-5.9,4.04-.7-.52-1.83-.59-2.49.33-1.35,1.88-2.54,3.87-3.55,5.94-.87,1.38-1.55,2.85-2.1,4.38-.36.09-.7.33-.94.73-2.23,3.8-3.29,8.16-2.99,12.56.02.23.09.45.19.65-.1.67-.14,1.34-.09,2.02.1,1.6,2.06,1.97,2.89,1.1.97.3,2.18-.21,2.12-1.48-.09-2.06,0-4.1.23-6.12.68-1.35,1.37-2.69,2.1-4,1.83-3.3,3.78-6.55,6-9.6,2.11-2.91,4.6-5.49,7.57-7.52,2.75-1.89,5.74-3.39,8.73-4.86.2.42.38.85.56,1.28.75,2.55.41,5.38-.05,7.99-.64,3.64-1.65,7.21-3.03,10.64-2.71,6.78-6.95,12.92-12.4,17.78-1.2,1.07-.12,2.66,1.14,2.72.35.5.97.82,1.73.68,3.64-.67,6.3-3.85,8.55-6.55,2.51-3,4.7-6.24,6.54-9.68.47-.88.08-1.7-.56-2.13.52-.93.99-1.89,1.4-2.87,2.59-6.2,2.21-13.19-.17-19.38Z"/>
    <path class="cls-15" d="M141.84,114.53c-.51-3.01-2.34-5.8-3.83-8.41-1.59-2.77-3.2-5.53-4.96-8.2-1.92-2.91-4.02-5.72-6.43-8.26-.12-.19-.28-.36-.48-.5-2.18-2.2-4.9-4.19-8.14-3.94-1.49.12-1.91,1.83-1.25,2.72-2.72-.86-5.55-1.32-8.42-1.34-.38,0-.69.1-.93.28-.94-.35-2.26.13-2.3,1.46-.19,5.92-.24,12.1,1.25,17.87-.67.37-.95,1.05-.83,1.84.58,3.71,1.79,7.3,3.51,10.63.36.7,1.34.99,2.05.67,4.28,4.38,9.38,7.9,15.02,10.29,1.69.71,3.2-1.07,1.97-2.55-4.64-5.6-11.87-8.6-15.75-14.88-4.11-6.67-4.24-14.72-4.02-22.34,0,0,.02,0,.02,0,5.43.04,10.67,1.85,15.07,5.02,4.83,3.48,7.66,8.37,9.78,13.82,1.12,2.87,2.17,5.79,3.65,8.5.41.75.73,1.37,1.62,1.54.68.14,1.39-.02,1.97-.39,1.31-.84,1.67-2.38,1.42-3.83Z"/>
    <path class="cls-13" d="M179.99,86.71c-.49-1.65-2.56-1.43-3.13,0-2.64,6.63-7.75,12.12-14.06,15.4-1.86.97-.21,3.77,1.64,2.81,1.21-.63,2.38-1.34,3.49-2.11,3.62.16,6.87-2.16,9.13-4.8,2.73-3.19,4.17-7.13,2.93-11.29Z"/>
    <path class="cls-10" d="M178.85,105.13c-.93-.25-1.67.32-2,1.13-2.34,5.83-5.99,11.06-10.54,15.36-1.64-2.55-3.62-4.87-5.9-6.86-1.57-1.37-3.88.92-2.3,2.3,2.6,2.26,4.76,4.9,6.45,7.9.54.97,1.78.99,2.55.33,5.71-4.93,10.07-11.18,12.88-18.16.33-.81-.36-1.79-1.13-2Z"/>
    <path class="cls-10" d="M49.83,109.61c-.56,0-1.1.09-1.63.26-.26-.25-.61-.42-1.08-.42-1.33-.01-2.65-.03-3.98-.04-.61,0-1.29.08-1.88-.02-.54-.09-.89-.41-1.31-.74-1.98-1.56-3.95-3.15-6.05-4.55-4.02-2.67-8.58-4.62-13.47-4.66-.59,0-1.01.26-1.27.63-1.1.03-2.19,1.18-1.46,2.43,4.33,7.47,9.34,14.54,14.94,21.11-.17.31-.23.7-.1,1.15.51,1.79,1.71,3.28,3.42,4.05.85.38,2.2.17,2.39-.97.26-1.55,1.18-2.72,2.15-3.91,1.09-1.34,2.21-2.67,3.35-3.97,2.28-2.6,4.67-5.12,7.13-7.56,1.01-1,.25-2.76-1.15-2.77ZM41.37,115.64c-1.92,2.2-3.64,4.56-5.29,6.97-5.39-6.18-10.21-12.82-14.44-19.84,4.48.38,8.51,2.58,12.13,5.18,1.01.73,2,1.49,2.97,2.27.87.7,1.73,1.54,2.75,2.01,1.06.49,2.25.41,3.4.42.39,0,.77,0,1.16.01-1,1-1.9,2.08-2.68,2.98Z"/>
    <path class="cls-2" d="M110.28,82.74c-1.54-.15-2.98-1.31-3.5-2.76-.67-1.86-.2-3.84-1.28-5.62-.9-1.46-2.87-.73-3.03.82-.13,1.23-1.41,2.07-2.5,2.33-1.73.41-3.57-.27-5.12-1-.79-.37-1.75-.22-2.22.58-.41.71-.22,1.85.58,2.22.08.04.17.07.25.11.55,1.88-.56,3.42-1.69,4.86-1.03,1.31-.08,2.98,1.58,2.72,4.78-.75,6.35,5.03,7.19,8.52.43,1.79,3.19,1.39,3.19-.43,0-1.32.04-2.64.13-3.96.06-.86-.07-2.42.52-3.13.52-.63,1.57-.82,2.31-1.02,1.34-.36,2.69-.7,4.03-1.05,1.88-.49,1.31-3.02-.43-3.19ZM101.89,85.91c-.46.54-.72,1.15-.89,1.8-.26-.38-.53-.76-.84-1.12-1.18-1.37-2.69-2.24-4.33-2.61.58-1.06.98-2.17,1.03-3.35,1.5.34,3.04.39,4.51-.14.74-.27,1.4-.64,1.98-1.09.15,1.11.45,2.16,1.07,3.11.34.53.74,1,1.18,1.41-.11.03-.23.06-.35.09-1.24.36-2.52.89-3.37,1.91Z"/>
    <path class="cls-12" d="M104.71,105.43c-.23-2.05-3.48-2.08-3.25,0,.18,1.56.15,3.09-.02,4.59-.35.2-.63.53-.75.96-.24.86-.51,1.7-.84,2.53-.04.1-.08.21-.12.31,0,.02-.02.06-.04.09-.09.2-.17.39-.27.59-.2.43-.41.85-.63,1.27-.87,1.62-1.83,3.01-2.91,4.25-.56.64-.68,1.68,0,2.3.06.05.13.1.2.15-.77,1.01-1.59,1.98-2.45,2.9-1.22,1.3-2.51,2.52-3.85,3.69-1.27,1.11-2.62,2.35-4.25,2.9-3.76,1.27-6.63-2.4-8.35-5.18-.19-.31-.44-.51-.7-.63-.17-.73-.78-1.27-1.58-1.28l-7.46-.17c-.85-.02-1.66.76-1.62,1.62.04.9.71,1.6,1.62,1.62l6.78.16c.04.11.09.21.16.32,2.18,3.54,5.42,7.23,9.99,7.04,4.15-.18,7.61-3.82,10.37-6.56,6.19-6.15,11-14.45,9.98-23.46Z"/>
    <path class="cls-12" d="M162.45,125.77c-.09.1-.19.19-.29.29-2.06-3.64-4.67-7.08-7.32-10.28-2.68-3.25-5.91-6.13-10.02-7.35-.11-.03-.22-.05-.32-.06-.14-.48-.3-.96-.48-1.42-.32-.81-1.09-1.39-2-1.14-.77.21-1.46,1.18-1.14,2,1.32,3.31,1.25,6.85,1.08,10.35-.02.31-.01.59-.07.84-.02.11-.2.44-.06.33-.17.14-.48.12-.74.13-.4.01-.8,0-1.21,0-1.96,0-3.92-.01-5.88-.02-2.09,0-2.09,3.24,0,3.25,2.23,0,4.45.03,6.68.02.98,0,2-.09,2.84-.63.92-.59,1.41-1.56,1.56-2.62.3-2.04.28-4.23.17-6.29-.02-.39-.06-.77-.1-1.16,3.07,1.28,5.47,3.74,7.56,6.3,2.58,3.17,5.11,6.57,7.06,10.18-11.84,11.63-26.34,20.07-41.08,27.55-3.98,2.02-7.99,3.98-12,5.93-2.04.99-4.14,2.21-6.42,2.52-2.3.32-4.66-.4-6.76-1.28-4.61-1.92-9-4.49-13.38-6.87-4.21-2.3-8.42-4.6-12.58-6.99-8.9-5.1-17.57-10.72-24.74-18.13-.07-.07-.14-.13-.22-.19,1.43-5.15,5.64-8.94,9.52-12.38,4.82-4.28,9.94-8.2,15.06-12.11.7-.54,1.06-1.39.58-2.22-.39-.69-1.53-1.11-2.22-.58-5.46,4.18-10.94,8.35-16.07,12.94-4.39,3.93-8.97,8.38-10.22,14.37-.18.85.27,1.5.88,1.82.07.23.19.45.4.66,6.59,6.8,14.45,12.2,22.57,17,8.64,5.1,17.48,10.04,26.5,14.45,4.46,2.18,9.19,3.82,14.06,1.97,3.68-1.39,7.22-3.29,10.75-5.09.35.68,1.11.94,1.87.81,4.33-.69,8.35-2.56,11.78-5.26.69-.54.57-1.73,0-2.3-.06-.06-.13-.12-.2-.17,4.3-2.32,8.55-4.75,12.68-7.36,8.78-5.54,17.08-11.91,24.21-19.48,1.43-1.52-.86-3.82-2.3-2.3Z"/>
    <path class="cls-12" d="M114.85,141.63c-2.2-5.31-8.81-8.23-14.24-8.24-.13,0-.26.01-.37.04-.29-.08-.61-.1-.92-.05-2.67.37-5.41,1.92-7.49,3.59-1.98,1.59-3.61,3.78-4.2,6.28-1.25,5.35,2.4,10.23,7.02,12.51,4.72,2.33,11.25,3.61,15.93.52,2.27-1.5,3.62-3.79,4.28-6.39.67-2.64,1.07-5.68,0-8.26ZM112.08,147.19c-.3,1.98-.82,4.12-2.29,5.57-3.15,3.11-8.3,2.17-12.02.82-3.53-1.29-7.25-4.2-7.15-8.33.11-4.52,5.29-8.08,9.42-8.72.17.06.36.1.58.11,3.83,0,7.57,1.6,10.11,4.49,1.55,1.77,1.7,3.8,1.36,6.06Z"/>
    <path class="cls-8" d="M115.14,39.28c-.89-1.89-3.69-.24-2.81,1.64,2.68,5.69,2.29,12.58-.87,17.99-1.06,1.81,1.75,3.45,2.81,1.64,3.78-6.47,4.05-14.51.87-21.27Z"/>
    <path class="cls-9" d="M69.72,51.74c2.09,0,2.09-3.25,0-3.25s-2.09,3.25,0,3.25h0Z"/>
    <path class="cls-9" d="M35.94,85.52c2.09,0,2.09-3.25,0-3.25s-2.09,3.25,0,3.25h0Z"/>
    <path class="cls-9" d="M19.79,71.77c2.09,0,2.09-3.25,0-3.25s-2.09,3.25,0,3.25h0Z"/>
    <path class="cls-9" d="M140.89,47.25c2.09,0,2.09-3.25,0-3.25s-2.09,3.25,0,3.25h0Z"/>
    <path class="cls-9" d="M161.52,70.57c2.09,0,2.09-3.25,0-3.25s-2.09,3.25,0,3.25h0Z"/>
  </g>
  <g id="Layer_1" data-name="Layer 1">
    <path class="cls-3" d="M76.79,136.4c-5.62-9.25-33.14-3.36-22.59,8.72,6.5,5.93,28.8,4.17,22.59-8.72Z"/>
    <path class="cls-3" d="M145.38,136.4c-5.62-9.25-33.14-3.36-22.59,8.72,6.5,5.93,28.8,4.17,22.59-8.72Z"/>
    <g>
      <path class="cls-4" d="M84.01,34.64c-13.54-6.82-29.75-6.95-43.7-1.23-14.17,5.81-25.72,17.34-30.12,32.19s.3,31.17,7.94,44.12c8.53,14.47,20.99,26.42,34.4,36.35,12.88,9.53,27.15,17.5,42.23,22.97,1.59.58,3.2,1.12,4.82,1.63,2,.63,2.85-2.5.86-3.13-14.33-4.53-27.89-11.65-40.31-20.05-13.35-9.04-25.87-20-35.2-33.24-8.5-12.05-14.3-26.38-12.88-41.35,1.37-14.51,11.7-27.18,24.19-33.97,12.51-6.81,27.83-8.44,41.31-3.57,1.66.6,3.26,1.3,4.84,2.09,1.86.94,3.51-1.86,1.64-2.81h0Z"/>
      <path class="cls-4" d="M100.43,170.66c15.68-4.96,30.53-12.89,43.94-22.35,14.23-10.05,27.48-22.28,36.67-37.21,8.21-13.34,13.39-30.33,8.68-45.82-4.53-14.88-16.25-26.39-30.54-32.08s-30.55-5.33-44.03,1.87c-1.69.91-3.32,1.92-4.89,3.03-1.7,1.19-.08,4.01,1.64,2.81,12.07-8.5,27.53-10.37,41.58-6.24s25.91,13.81,31.56,27.17c3.01,7.1,3.73,14.72,2.73,22.34s-3.7,14.85-7.34,21.53c-7.98,14.63-20.25,26.77-33.47,36.72-12.93,9.74-27.33,17.95-42.57,23.47-1.59.58-3.2,1.12-4.82,1.63-1.99.63-1.14,3.77.86,3.13h0Z"/>
      <g>
        <path class="cls-4" d="M137.39,105.22c10.78,5.32,20.18,13.23,26.27,23.68,1.05,1.81,3.86.17,2.81-1.64-6.35-10.91-16.18-19.3-27.43-24.85-1.87-.92-3.52,1.88-1.64,2.81h0Z"/>
        <path class="cls-4" d="M39.35,131.66c6.19-13.14,17.28-23.01,30.59-28.62.81-.34,1.38-1.07,1.13-2-.2-.76-1.19-1.48-2-1.13-14.08,5.93-25.97,16.16-32.53,30.11-.89,1.88,1.92,3.53,2.81,1.64h0Z"/>
        <path class="cls-4" d="M90.67,143.58c.08-.52.23-1.03.43-1.51l-.16.39c.22-.52.5-1.01.85-1.46l-.25.33c.17-.22.35-.42.54-.61.29-.3.48-.73.48-1.15s-.18-.87-.48-1.15-.72-.5-1.15-.48-.84.16-1.15.48c-1.14,1.16-1.98,2.69-2.23,4.31-.07.22-.08.43-.03.65,0,.22.07.42.19.6.2.34.58.66.97.75.42.09.88.07,1.25-.16.33-.21.68-.56.75-.97h0Z"/>
        <path class="cls-4" d="M98.27,137.3c.15-.07.3-.14.46-.21l-.39.16c.67-.28,1.37-.47,2.09-.57l-.43.06c.69-.09,1.39-.09,2.08,0l-.43-.06c.06,0,.11.02.17.02.45.07.84.07,1.25-.16.34-.2.66-.58.75-.97.09-.42.07-.88-.16-1.25-.21-.33-.56-.69-.97-.75-.56-.08-1.12-.15-1.68-.15s-1.07.07-1.6.15c-.97.15-1.89.48-2.77.92-.76.38-1.04,1.52-.58,2.22.5.78,1.41.99,2.22.58h0Z"/>
        <path class="cls-4" d="M109.48,140.22c.37.3.7.64.99,1.01l-.25-.33c.31.41.57.86.77,1.33l-.16-.39c.2.48.33.97.41,1.49l-.06-.43s.01.08.02.12c.05.45.15.82.48,1.15.28.28.74.49,1.15.48s.86-.16,1.15-.48c.27-.3.52-.73.48-1.15-.06-.53-.14-1.04-.3-1.55s-.36-.98-.61-1.44c-.44-.8-1.04-1.55-1.75-2.12-.35-.28-.69-.48-1.15-.48-.4,0-.87.18-1.15.48s-.5.72-.48,1.15c.02.4.15.88.48,1.15h0Z"/>
        <path class="cls-4" d="M123.84,138.11c0,1.33,0,2.67,0,4,0,.42.18.85.48,1.15s.74.49,1.15.48c.88-.04,1.63-.71,1.62-1.62,0-1.33,0-2.67,0-4,0-.42-.18-.85-.48-1.15s-.74-.49-1.15-.48c-.88.04-1.63.71-1.62,1.62h0Z"/>
        <path class="cls-4" d="M131.81,138.11c0,1.33,0,2.67,0,4,0,.42.18.85.48,1.15s.74.49,1.15.48c.88-.04,1.63-.71,1.62-1.62,0-1.33,0-2.67,0-4,0-.42-.18-.85-.48-1.15s-.74-.49-1.15-.48c-.88.04-1.63.71-1.62,1.62h0Z"/>
        <path class="cls-4" d="M139.78,138.11v4c0,.42.18.85.48,1.15s.74.49,1.15.48c.88-.04,1.63-.71,1.62-1.62v-4c0-.42-.18-.85-.48-1.15s-.74-.49-1.15-.48c-.88.04-1.63.71-1.62,1.62h0Z"/>
        <path class="cls-4" d="M55.55,138.11v4c0,.42.18.85.48,1.15s.74.49,1.15.48c.88-.04,1.63-.71,1.62-1.62v-4c0-.42-.18-.85-.48-1.15s-.74-.49-1.15-.48c-.88.04-1.63.71-1.62,1.62h0Z"/>
        <path class="cls-4" d="M63.63,138.11c0,1.33,0,2.67,0,4,0,.42.18.85.48,1.15s.74.49,1.15.48c.88-.04,1.63-.71,1.62-1.62,0-1.33,0-2.67,0-4,0-.42-.18-.85-.48-1.15s-.74-.49-1.15-.48c-.88.04-1.63.71-1.62,1.62h0Z"/>
        <path class="cls-4" d="M71.71,138.11c0,1.33,0,2.67,0,4,0,.42.18.85.48,1.15s.74.49,1.15.48c.88-.04,1.63-.71,1.62-1.62,0-1.33,0-2.67,0-4,0-.42-.18-.85-.48-1.15s-.74-.49-1.15-.48c-.88.04-1.63.71-1.62,1.62h0Z"/>
      </g>
      <g>
        <path class="cls-4" d="M99.34,76.22c-3.38-.25-6.57-2.53-9-4.73-.98-.89-1.98-1.85-2.73-2.95-1.03-1.52-1.64-3.42-2.23-5.14-2.86-8.36-3.76-18.68.04-26.91.32-.7.82-2.16,1.46-2.62.19-.13-.05-.04-.09-.03.15-.03.49.15.64.21.59.22,1.17.5,1.73.79.94.48,1.85,1.02,2.72,1.61.8.55,1.54,1.3,2.53,1.49,2.13.41,3.96-1.86,5.54-2.95.93-.64,1.89-1.23,2.88-1.78.53-.29,1.06-.58,1.6-.84s.68-.39,1.08.09c2.75,3.31,4.3,7.87,5.11,12.04.73,3.75.89,7.63.03,11.37-.96,4.17-2.72,8.14-4.9,11.81-1.91,3.21-4.22,6.49-7.22,8.76-1.65,1.25-.03,4.07,1.64,2.81,3.1-2.34,5.54-5.42,7.62-8.68,2.36-3.69,4.28-7.75,5.51-11.96,2.58-8.82.83-19.12-4.25-26.75-1.4-2.1-2.96-3.78-5.63-2.58-2.39,1.08-4.65,2.52-6.73,4.11-.47.36-.99.96-1.52,1.2-.4.18.19.15-.22.1-.18-.02-.41-.3-.56-.41-1.07-.8-2.2-1.52-3.39-2.14-1.94-1.01-4.54-2.45-6.4-.56-1.6,1.62-2.53,4.32-3.22,6.44-.8,2.45-1.24,5-1.46,7.56-.45,5.16.07,10.45,1.38,15.46.74,2.85,1.72,5.78,3.09,8.4.75,1.44,1.94,2.69,3.1,3.81,3.21,3.08,7.33,5.88,11.87,6.22,2.09.16,2.08-3.1,0-3.25h0Z"/>
        <path class="cls-4" d="M108.01,79.7c-.8-3.44.48-7.33,1.97-10.42.55-1.14,1.21-2.43,2.02-3.36,1.33-1.52,3.12-2.79,4.77-3.95,3.81-2.67,8.01-4.76,12.47-6.11,4.68-1.42,10.14-2.31,14.95-.92.56.16.57.12.49.68-.09.6-.11,1.2-.21,1.8-.2,1.26-.52,2.5-.92,3.71-.36,1.09-.78,2.16-.24,3.27.51,1.04,1.52,1.59,2.45,2.22,1.9,1.29,3.66,2.78,5.27,4.43.17.18.82.7.83.96.01.35-.73,1.08-.94,1.33-.71.87-1.5,1.68-2.33,2.44-3.26,2.97-7.28,5.01-11.24,6.87-1.4.66-2.72,1.27-4.25,1.57-1.41.27-2.86.32-4.28.32-4.01-.02-8.02-.68-11.89-1.72-3.36-.9-6.79-2.06-9.64-4.1-1.71-1.22-3.33,1.6-1.64,2.81,2.88,2.06,6.4,3.3,9.78,4.25,3.94,1.11,8.06,1.82,12.15,1.98,3.53.14,6.9-.22,10.12-1.7,4.44-2.05,8.85-4.25,12.59-7.45.9-.78,1.76-1.61,2.54-2.51s1.8-2.01,2.17-3.22c.76-2.55-2.03-4.59-3.7-6.05-.91-.8-1.86-1.56-2.84-2.27-.49-.36-1.39-.76-1.77-1.22-.1-.12-.32-.13-.36-.3-.04-.2.37-1.06.44-1.26.42-1.28.72-2.6.92-3.94.18-1.18.48-2.58.12-3.76-.78-2.62-4.63-2.75-6.84-2.93-2.78-.23-5.59.02-8.33.53-5.22.98-10.3,3.02-14.84,5.75-3.96,2.39-7.99,5.2-10.19,9.38s-3.79,9.12-2.71,13.74c.48,2.04,3.61,1.17,3.13-.86h0Z"/>
        <path class="cls-4" d="M91.56,80.12c-.93,3.26-3.72,5.93-6.38,7.88-1.12.82-2.41,1.7-3.66,2.2-1.76.7-4.03.94-5.96,1.15-9.05.99-19.91-.44-27.03-6.62-.22-.19-.91-.61-.95-.91-.03-.23.36-.69.57-.98.68-.99,1.45-1.9,2.29-2.76,1.45-1.49,3.43-2.66,2.66-5.05-.34-1.07-1.01-2.06-1.48-3.08-.5-1.1-.93-2.24-1.31-3.39-.23-.72-1.07-2.56-.68-3.1.21-.29.93-.46,1.26-.59.61-.25,1.24-.46,1.88-.65,4.57-1.36,9.4-1.26,14.11-.94,1.67.11,3.27.18,4.87.7,1.4.45,2.72,1.11,3.99,1.84,3.47,1.96,6.63,4.47,9.5,7.23,2.52,2.43,4.97,5.14,6.48,8.33.89,1.89,3.7.24,2.81-1.64-1.53-3.22-4-6.03-6.51-8.52-2.92-2.89-6.17-5.53-9.69-7.66-3.01-1.83-6.12-3.14-9.65-3.41-5.29-.4-10.73-.65-15.92.7-2.03.53-5.54,1.32-6.32,3.58-.42,1.23,0,2.5.34,3.7.39,1.37.87,2.72,1.42,4.04.49,1.18,1.07,2.29,1.61,3.45.26.56.25.38-.3.86-.58.51-1.14,1.05-1.67,1.61-1.42,1.51-3.94,3.98-3.53,6.25s3.19,3.83,4.89,4.93c2.09,1.36,4.4,2.4,6.75,3.22,5.12,1.79,10.68,2.53,16.09,2.35,4.88-.15,9.9-.71,14.01-3.51,3.67-2.5,7.38-5.96,8.64-10.36.58-2.01-2.56-2.87-3.13-.86h0Z"/>
        <path class="cls-4" d="M94.16,88.73c2.61,1.92,4.04,5.38,4.94,8.38.38,1.26.71,2.57.82,3.88.14,1.66-.25,3.35-.6,4.97-1.83,8.67-6.38,17.94-13.76,23.2-.87.62-1.79,1.22-2.75,1.69-.18.09-.6.37-.78.34.22.03.19.27-.12-.22-.35-.56-.76-1.08-1.11-1.65-.63-1.03-1.19-2.1-1.65-3.21-.41-1-.69-2.07-1.64-2.7s-1.99-.5-3.03-.38c-1.26.15-2.52.24-3.79.25s-2.53-.03-3.8-.14c-.18-.02-1.04,0-1.2-.14-.29-.25-.15-1.39-.16-1.74-.1-5.03,1.64-9.89,3.65-14.43.73-1.66,1.4-3.42,2.48-4.89.84-1.14,1.89-2.14,2.95-3.08,3.05-2.69,6.6-4.84,10.24-6.62,3.12-1.53,6.6-2.99,10.1-3.29,2.07-.18,2.09-3.43,0-3.25-3.68.32-7.19,1.63-10.53,3.16-3.8,1.74-7.41,3.92-10.68,6.51-2.96,2.34-5.15,4.92-6.71,8.35-2.31,5.06-4.45,10.33-4.73,15.96-.11,2.25-.27,5.54,2.37,6.39,1.13.36,2.45.36,3.63.42,1.58.08,3.17.05,4.75-.07.69-.06,1.38-.15,2.07-.22s.52-.14.79.56c.53,1.32,1.12,2.6,1.84,3.82,1.35,2.29,2.96,4.73,5.93,3.45,4.56-1.97,8.29-5.89,11.14-9.85,3.08-4.27,5.38-9.15,6.83-14.21.73-2.55,1.42-5.32,1.52-7.97.06-1.63-.32-3.33-.73-4.89-1.11-4.19-3.1-8.55-6.68-11.18-1.69-1.24-3.31,1.58-1.64,2.81h0Z"/>
        <path class="cls-4" d="M105.76,89.23c2.98-1.78,6.87-1.78,10.21-1.39,1.35.16,2.74.42,4.02.89,1.42.52,3.32,1.9,4.72,2.91,7.35,5.29,14.07,13.56,15.52,22.71.09.56.15,1.12.18,1.69.03.65.07.45-.43.72-1.08.56-2.9.54-4.09.59-2.19.11-4.53-.42-5.56,2.03-.94,2.23-1.43,4.61-2.5,6.82-.26.54-.53,1.08-.82,1.61s-.27.79-.85.73c-1.11-.12-2.4-.9-3.38-1.41-4-2.11-7.27-5.29-10.33-8.55-1.14-1.21-2.31-2.36-3.13-3.81-.72-1.27-1.25-2.62-1.69-4.01-1.23-3.83-1.85-7.85-2.06-11.85-.18-3.53-.15-7.23.94-10.63.64-2-2.5-2.85-3.13-.86-1.11,3.45-1.23,7.25-1.08,10.84.16,4.05.72,8.15,1.82,12.06.99,3.54,2.43,6.64,4.92,9.35,3.4,3.7,7,7.38,11.41,9.89,1.93,1.1,5.06,2.98,7.33,2.07,1.15-.46,1.71-1.53,2.26-2.57.7-1.32,1.31-2.69,1.86-4.08.5-1.26.89-2.55,1.28-3.85.02-.08.1-.5.18-.59-.22.23-.01.05.22.08.81.12,1.76.03,2.57-.01,2.23-.13,6.17-.18,7.24-2.57.48-1.07.29-2.33.14-3.46-.17-1.34-.43-2.67-.81-3.97-.75-2.6-1.88-5.1-3.24-7.44-2.61-4.49-6.05-8.55-10.02-11.89-3.51-2.96-7.25-5.71-11.86-6.44s-9.52-.75-13.48,1.61c-1.79,1.07-.16,3.88,1.64,2.81h0Z"/>
        <path class="cls-4" d="M68.38,71.62c4.96,1.47,10.1,3.25,13.74,7.11,1,1.05,2.59-.54,1.59-1.59-3.91-4.14-9.4-6.11-14.73-7.69-1.39-.41-1.99,1.76-.6,2.17h0Z"/>
        <path class="cls-4" d="M67.45,87.28c5.34.66,10.76.32,15.99-.98,1.4-.35.81-2.52-.6-2.17-5.04,1.25-10.24,1.54-15.39.9-.61-.08-1.12.57-1.12,1.12,0,.67.52,1.05,1.12,1.12h0Z"/>
        <path class="cls-4" d="M61.77,86.8c1.45,0,1.45-2.25,0-2.25s-1.45,2.25,0,2.25h0Z"/>
        <path class="cls-4" d="M77.38,108.09c1.45,0,1.45-2.25,0-2.25s-1.45,2.25,0,2.25h0Z"/>
        <path class="cls-4" d="M82.93,104.06c2.02-2.59,4.4-4.74,7.13-6.43.52-.32.72-1.01.4-1.54s-1.02-.72-1.54-.4c-2.9,1.8-5.49,4.09-7.59,6.78-.37.48-.47,1.12,0,1.59.39.39,1.22.48,1.59,0h0Z"/>
        <path class="cls-4" d="M93.36,96.01c.52,5.09-.37,10.24-2.66,14.83-.64,1.29,1.3,2.43,1.94,1.14,2.46-4.93,3.53-10.48,2.97-15.97-.06-.61-.47-1.12-1.12-1.12-.56,0-1.19.52-1.12,1.12h0Z"/>
        <path class="cls-4" d="M88.84,118.18c1.45,0,1.45-2.25,0-2.25s-1.45,2.25,0,2.25h0Z"/>
        <path class="cls-4" d="M108.69,98.56c.73,4.98,2.88,9.64,6.1,13.49.39.47,1.19.4,1.59,0,.46-.46.39-1.12,0-1.59-2.97-3.56-4.85-7.92-5.52-12.5-.09-.6-.85-.93-1.38-.79-.65.18-.87.78-.79,1.38h0Z"/>
        <path class="cls-4" d="M119.48,114.87c1.45,0,1.45-2.25,0-2.25s-1.45,2.25,0,2.25h0Z"/>
        <path class="cls-4" d="M115.95,95.07c4.23,1.16,7.17,4.65,9.91,7.86.39.46,1.19.41,1.59,0,.46-.46.39-1.13,0-1.59-3-3.53-6.27-7.17-10.9-8.44-1.4-.39-1.99,1.78-.6,2.17h0Z"/>
        <path class="cls-4" d="M129.39,108.65c1.45,0,1.45-2.25,0-2.25s-1.45,2.25,0,2.25h0Z"/>
        <path class="cls-4" d="M114.07,74.3c.46-.69.73-1.04,1.23-1.63s1.03-1.12,1.59-1.63c.27-.25.55-.49.84-.73.07-.06.14-.12.22-.17.15-.12,0,0,.08-.06.15-.11.3-.22.45-.33.62-.44,1.26-.84,1.93-1.21.52-.28.73-1.04.4-1.54s-.99-.71-1.54-.4c-2.87,1.58-5.31,3.86-7.14,6.58-.33.49-.11,1.27.4,1.54.57.3,1.19.12,1.54-.4h0Z"/>
        <path class="cls-4" d="M126.64,65.79c1.45,0,1.45-2.25,0-2.25s-1.45,2.25,0,2.25h0Z"/>
        <path class="cls-4" d="M119.19,80.23c4.7.58,9.52-.05,13.92-1.81.56-.23.96-.75.79-1.38-.15-.54-.82-1.01-1.38-.79-4.24,1.7-8.78,2.29-13.32,1.73-.6-.07-1.12.57-1.12,1.12,0,.67.52,1.05,1.12,1.12h0Z"/>
        <path class="cls-4" d="M138.16,76.82c1.45,0,1.45-2.25,0-2.25s-1.45,2.25,0,2.25h0Z"/>
        <path class="cls-4" d="M103.31,48.71h-.12c-.15-.01-.3.02-.43.09-.14.05-.26.12-.36.23-.11.1-.19.22-.23.36-.07.13-.1.28-.1.43l.04.3c.05.19.15.36.29.5l.23.18c.18.1.36.15.57.15h.12c.15.01.3-.02.43-.09.14-.05.26-.12.36-.23.11-.1.19-.22.23-.36.07-.13.1-.28.1-.43l-.04-.3c-.05-.19-.15-.36-.29-.5l-.23-.18c-.18-.1-.36-.15-.57-.15h0Z"/>
        <path class="cls-4" d="M101.25,57.95c-.05,3.35-.4,7.07-2.54,9.81-.37.48-.47,1.12,0,1.59.39.39,1.21.48,1.59,0,2.55-3.26,3.15-7.37,3.2-11.4.02-1.45-2.23-1.45-2.25,0h0Z"/>
        <path class="cls-4" d="M89.8,57.07c.5,4.08,1.11,8.23,3.74,11.54.38.48,1.2.4,1.59,0,.47-.47.38-1.11,0-1.59-2.2-2.77-2.67-6.55-3.08-9.95-.07-.6-.46-1.12-1.12-1.12-.55,0-1.2.52-1.12,1.12h0Z"/>
        <path class="cls-4" d="M89.11,52.5c1.45,0,1.45-2.25,0-2.25s-1.45,2.25,0,2.25h0Z"/>
      </g>
      <path class="cls-4" d="M50.52,140.13c-1.37-13.26-1.61-28.38,7.73-39.04,1.37-1.57-.92-3.88-2.3-2.3-9.96,11.38-10.15,27.09-8.68,41.34.21,2.06,3.46,2.08,3.25,0h0Z"/>
      <path class="cls-4" d="M55.63,98.41c-.09,0-.18,0-.27,0l.43.06c-.07-.01-.42-.13-.15-.01s-.03-.03-.09-.06c-.32-.2.2.23,0,0-.04-.05-.15-.2-.2-.21.14.19.18.24.11.14-.03-.04-.06-.08-.08-.12-.05-.08-.11-.16-.16-.24s-.1-.17-.15-.25c-.03-.05-.06-.1-.09-.15.1.26.13.32.09.16l.06.43v-.07c-.02.14-.04.29-.05.43l.02-.07-.42.72-.53.3-.43.06c.08,0,.16,0,.24,0l-.43-.06c.08.01.16.03.24.05.25.06-.17-.04-.16-.07,0,0,.1.06.11.06s.11.07.1.07c-.01.02-.27-.24-.17-.12.08.08.16.16.24.24.11.12-.14-.16-.13-.16,0,0,.07.1.07.11.06.1.12.19.17.3.1.19.18.38.27.57.37.83.88,1.61,1.59,2.19.91.75,2.14,1.49,3.36,1.21.88-.2,1.61-1.03,1.61-1.95,0-.82-.47-1.51-1.16-1.92-.5-.3-1.12-.48-1.67-.65-.25-.08-.5-.14-.75-.21-.04,0-.07-.02-.11-.03-.18-.06-.07.03.33.27.26.1.41.28.48.54,0-.1-.05-.21-.06-.32l.06.43c-.04-.28-.04-.55,0-.83l-.06.43c.03-.19.07-.38.13-.57.02-.06.16-.41.04-.12s.03-.05.06-.1c.04-.07.08-.14.13-.21.03-.05.06-.09.1-.14-.17.22-.2.26-.1.14.06-.06.11-.12.17-.18.04-.04.08-.08.12-.11-.11.12-.25.2-.4.26l-.43.06h.09c-.27-.06-.55-.14-.82-.21.1.05.09.03-.04-.05-.11-.07-.2-.16-.26-.28,0,.05.09.15.12.2.09.13-.11-.38-.04-.09.02.09.05.17.06.26l-.06-.43c.02.12.02.24.01.36l.06-.43c0,.06-.02.11-.03.16-.05.16-.02.1.09-.17l-.04.07c-.09.14-.05.09.12-.14-.12.11-.24.16.1-.05-.14.08-.08.06.19-.06-.05.02-.1.03-.14.04l.43-.06h-.08c-.45.06-.82.15-1.15.48-.28.28-.49.74-.48,1.15s.16.86.48,1.15c.3.27.73.53,1.15.48.7-.08,1.34-.3,1.82-.85s.77-1.25.73-1.98c-.04-.63-.23-1.27-.6-1.79-.28-.38-.56-.66-1-.85-.57-.24-1.21-.16-1.74.15s-.92.8-1.24,1.28c-.28.41-.48.89-.6,1.37s-.19.98-.16,1.46c.05.69.18,1.43.72,1.92s1.24.58,1.9.79c.26.09.52.18.78.28.3.11-.36-.15-.04,0,.17.08-.26-.25-.14-.11.06.06.04.03-.06-.08-.1-.1-.16-.23-.2-.37l-.06-.43s0,.1,0,.14l.06-.43c.1-.31.27-.54.54-.7.28-.1.34-.13.18-.09l.43-.06c-.06,0-.13.01-.19,0l.43.06c-.1-.01-.19-.03-.28-.06-.04-.01-.09-.03-.13-.05-.16-.05.21.07.19.08-.07.03-.43-.22-.49-.26-.07-.04-.15-.09-.22-.14-.01,0-.1-.06-.1-.07,0-.02.28.23.16.12-.15-.13-.3-.26-.44-.41-.06-.06-.11-.13-.17-.19-.11-.12.14.16.12.16-.01,0-.07-.09-.07-.1-.11-.16-.21-.33-.29-.5-.18-.36-.33-.74-.52-1.1-.48-.9-1.35-1.76-2.39-1.93-.4-.06-.79-.1-1.18.02-.6.19-1.09.66-1.26,1.27-.2.72.08,1.39.45,1.99.69,1.13,1.78,2.13,3.19,2.06.85-.04,1.67-.72,1.62-1.63-.04-.85-.72-1.67-1.62-1.62h0Z"/>
      <path class="cls-4" d="M142.69,96.48c5.11,4.78,6.35,12.08,7.51,18.67,1.4,7.96,2.53,16.28-.08,24.12-.66,1.99,2.48,2.84,3.13.86,2.79-8.4,1.57-17.33.08-25.85-1.26-7.17-2.79-14.91-8.34-20.1-1.53-1.43-3.83.87-2.3,2.3h0Z"/>
      <path class="cls-4" d="M143.21,93.85c-.19-.02-.36,0-.55.03s-.36.05-.54.12c-.45.17-.87.4-1.19.77-.64.75-.92,1.76-.63,2.72.14.49.47.86.94,1.05.5.21.97.15,1.45-.08.95-.46,1.77-1.27,2.27-2.19s.04-2.07-.97-2.39c-.09-.03-.17-.06-.25-.09l.39.16c-.2-.09-.38-.2-.56-.33l.33.25c-.19-.15-.35-.31-.49-.5l.25.33c-.14-.19-.26-.39-.35-.6l.16.39c-.07-.18-.13-.37-.16-.57l-2.39,1.84c.28.16.55.34.8.54l-.33-.25c.48.37.9.79,1.28,1.26l.33.25.39.16c.35.1.72.06,1.06-.08.27-.11.47-.27.65-.5.23-.3.31-.6.35-.98,0-.04,0-.07.01-.11l-.06.43c.02-.12.05-.24.1-.35l-.16.39c.06-.13.13-.25.21-.36l-.25.33c.1-.13.21-.24.34-.34l-.33.25c.12-.08.24-.15.37-.21l-.39.16c.13-.05.26-.09.41-.11l-.43.06c.09,0,.18-.01.26,0l-1.57-2.06-.02.05.16-.39c-.06.14-.14.26-.23.38l.25-.33c-.09.12-.2.22-.31.31l.33-.25c-.12.09-.25.16-.38.22l.39-.16-.05.02c-.41.16-.74.35-.97.75-.2.35-.29.86-.16,1.25s.37.77.75.97.85.32,1.25.16c.51-.2.92-.42,1.32-.81s.61-.81.81-1.31c.19-.46,0-1.05-.29-1.42-.32-.41-.75-.62-1.28-.64-.86-.03-1.65.34-2.29.89-.26.23-.49.52-.64.83-.25.47-.34.87-.39,1.4l2.77-1.15c-.65-.83-1.5-1.52-2.41-2.05-.57-.33-1.29-.27-1.8.13-.23.18-.39.38-.5.65-.15.36-.15.67-.08,1.06.13.76.54,1.44,1.03,2.02s1.2.98,1.92,1.21l-.97-2.39c-.1.17-.2.34-.32.5l.25-.33c-.21.27-.45.5-.71.71l.33-.25c-.21.15-.42.29-.66.4l2.39.97c-.02-.07-.04-.14-.05-.22l.06.43c-.01-.11,0-.22,0-.34l-.06.43c.02-.09.04-.18.07-.27l-.16.39c.04-.11.1-.2.17-.29l-.25.33c.06-.07.12-.14.2-.2l-.33.25c.09-.07.19-.12.29-.17l-.39.16c.11-.04.21-.07.32-.09l-.43.06c.11-.01.22-.01.34,0,.38.05.89-.22,1.15-.48.28-.28.49-.74.48-1.15s-.16-.86-.48-1.15l-.33-.25c-.25-.15-.53-.22-.82-.22h0Z"/>
      <path class="cls-4" d="M163.05,104.5c-.4-4.53-.14-9.2,1.26-13.55.67-2.07,1.64-4.12,3.06-5.79.66-.77,1.4-1.49,2.24-2.07.48-.33,1-.65,1.53-.9.14-.07.56-.16.69-.25-.03.02-.31,0-.35-.12.48,1.27.74,3.52,2.34,4.28,1.38.65,3.35.65,4.48.83.15.02.92.17.62.14.12.01.07-.04.11.09.09.33-.08,1.6-.27,2.35-.6,2.5-1.47,4.79-2.96,6.9-3.28,4.63-8.75,7.08-14.37,6.45-.88-.1-1.62.82-1.62,1.62-.01.96.76,1.53,1.62,1.62,5.9.66,11.8-1.76,15.71-6.2,1.99-2.26,3.49-4.95,4.32-7.85.61-2.11,1.66-5.3-.09-7.16-1.26-1.34-3.16-1.14-4.83-1.36-.14-.02-.72-.13-1.01-.23-.07-.02-.32-.15-.35-.14-.29.08.28.03.22.25.02-.07-.1-.25-.11-.33-.14-.92-.51-2.08-1-2.88-1.62-2.67-4.76-1.08-6.68.33-2.15,1.58-3.84,3.69-5.03,6.08-2.71,5.45-3.31,11.89-2.78,17.88.18,2.07,3.43,2.09,3.25,0h0Z"/>
      <path class="cls-4" d="M64.05,70.49c1.45,0,1.45-2.25,0-2.25s-1.45,2.25,0,2.25h0Z"/>
      <path class="cls-4" d="M172.31,92.09c1.45,0,1.45-2.25,0-2.25s-1.45,2.25,0,2.25h0Z"/>
      <path class="cls-4" d="M162.87,104.28c2.69-3.42,5.65-6.63,8.85-9.59,1.06-.99-.53-2.57-1.59-1.59-3.2,2.96-6.15,6.16-8.85,9.59-.38.48-.47,1.13,0,1.59.39.39,1.21.48,1.59,0h0Z"/>
      <path class="cls-4" d="M16.97,102.53c3.82-2.08,8.45-.7,12.2.87s7.65,3.69,10.18,7.02c.4.53,1.12,1.03,1.84.75,3.33-1.33,6.92-1,9.91,1,1.75,1.16,3.37-1.65,1.64-2.81-3.63-2.42-8.36-2.95-12.41-1.32l1.84.75c-3.09-4.07-7.45-6.58-12.11-8.51s-10.05-3.08-14.71-.55c-1.84,1-.2,3.81,1.64,2.81h0Z"/>
      <path class="cls-4" d="M158.67,115.84c.11-1.81,1.81-3.07,3.43-3.51,2.44-.66,5.06.13,7.42.77.68.19,1.48-.12,1.84-.75,2.02-3.6,5.92-5.69,10.03-5.46,2.09.12,2.08-3.13,0-3.25-5.21-.29-10.29,2.54-12.84,7.07l1.84-.75c-3.27-.88-6.89-1.76-10.16-.41-2.66,1.1-4.62,3.36-4.8,6.28-.13,2.09,3.12,2.08,3.25,0h0Z"/>
    </g>
  </g>
</svg>