<?xml version="1.0" encoding="UTF-8"?>
<svg xmlns="http://www.w3.org/2000/svg" viewBox="0 0 250 200">
  <defs>
    <style>
      .cls-1 {
        fill: #f2cb86;
      }

      .cls-2 {
        fill: #ffe7ab;
      }

      .cls-3 {
        fill: #f7cd84;
      }

      .cls-4 {
        fill: #c16564;
      }

      .cls-5 {
        fill: #f4c582;
      }

      .cls-6 {
        fill: #f4e07a;
      }

      .cls-7 {
        fill: #edabac;
      }

      .cls-8 {
        opacity: .75;
      }

      .cls-8, .cls-9 {
        fill: #f9f3d9;
      }

      .cls-10 {
        fill: #a0a0a0;
      }

      .cls-11 {
        fill: #fffff8;
      }

      .cls-12 {
        fill: #fff;
      }

      .cls-13 {
        fill: #f9f9f2;
      }

      .cls-14 {
        fill: #e8cbb8;
      }

      .cls-15 {
        opacity: .67;
      }

      .cls-16 {
        fill: #b75e5e;
      }

      .cls-17 {
        fill: #ecbe6b;
      }

      .cls-18 {
        fill: #5a7041;
      }

      .cls-19 {
        fill: #617a47;
      }

      .cls-20 {
        fill: #fce2a9;
      }

      .cls-21 {
        fill: #7c5a4d;
      }

      .cls-22 {
        fill: #efd3bf;
      }

      .cls-23 {
        fill: #826051;
      }

      .cls-24 {
        fill: #fce97c;
      }
    </style>
  </defs>
  <g id="Colour">
    <g class="cls-15">
      <path class="cls-9" d="M17.83,42.19v123.82c0,5.33,4.32,9.65,9.65,9.65h195.05c5.33,0,9.65-4.32,9.65-9.65V40.63c0-5.36-4.37-9.69-9.73-9.65l-195.05,1.56c-5.3.04-9.57,4.35-9.57,9.65Z"/>
    </g>
    <path class="cls-8" d="M91.17,109.73c-.15-4.03-1.34-7.64-3.71-10.91-2.32-3.2-5.04-6.14-7.7-9.06-11.2-12.31-23.63-23.4-36.09-34.4-7.52-6.64-15.04-13.28-22.56-19.93-1.38-1.22-3.35.43-2.69,1.79-.13.24-.19.5-.23.8-.23,1.88-.28,3.77-.14,5.66,0,0,0,0,0,0-.02.09-.03.19-.03.29v50.18c0,.8.48,1.3,1.07,1.48-.14,6.2-.19,12.4-.15,18.6.04,6.86.19,13.73.44,20.59.07,1.8,2.49,2.05,3.11.74h62.48c.92,0,1.44-.63,1.55-1.34.02-.05.05-.09.07-.14,2.95-7.61,4.89-16.16,4.58-24.36Z"/>
    <path class="cls-2" d="M81.61,76.21c-7.8-2.32-15.97-2.81-24-1.56-.66.1-1.08.74-1.17,1.38-.2.04-.4.06-.6.11-.56.12-.89.44-1.05.83-.38.51-.47,1.24-.12,1.8.64,1.04,1.68,1.38,2.83,1.54,1.25.18,2.51.31,3.77.36.64.02,1.27.03,1.91.01.17.18.39.33.67.43,2.66.91,5.51.52,8.25.33,2.98-.21,5.96-.41,8.94-.62,1.25-.09,1.8-1.26,1.47-2.19.47-.83.29-2.07-.9-2.43Z"/>
    <path class="cls-24" d="M43.13,76.17c-.78-1.7-1.79-3.31-2.93-4.79-1.19-1.55-2.55-3.33-4.38-4.15-.77-.35-1.78-.25-2.22.58-.09.18-.16.38-.18.59-.52-.12-1.07-.02-1.47.41-.55.6-.7,1.72,0,2.3.77.64,1.53,1.29,2.26,1.97-.38.63-.28,1.44.24,1.99.76.82,1.51,1.63,2.27,2.45.75.81,1.47,1.68,2.27,2.45.56.54,1.31.93,2.11.7.34-.1.61-.28.86-.5.08-.03.16-.07.24-.12.32-.21.59-.57.73-.96.22-.28.41-.59.5-.94.2-.71,0-1.34-.3-1.98Z"/>
    <path class="cls-24" d="M39.43,93.05c-.19-.65-.64-.99-1.16-1.37-.68-.49-1.44-1.22-2.26-1.45-1.13-.32-2.08.37-2.98.93-.75.47-1.5.95-2.23,1.44-1.73,1.16-3.4,2.39-5.03,3.68-.17.13-.29.3-.36.49-.22.29-.38.64-.37,1.01.02.44.17.82.48,1.15.71.78,1.43,1.55,2.14,2.32.28.3.75.48,1.15.48s.87-.18,1.15-.48c.28-.31.5-.72.48-1.15,0,0,0,0,0,0,1.21-.72,2.43-1.44,3.64-2.17.81-.48,1.62-.96,2.43-1.44.79-.47,1.79-.89,2.44-1.55.48-.49.69-1.24.5-1.9Z"/>
    <path class="cls-23" d="M67.73,127.85v19.87c0,2.09,3.25,2.09,3.25,0v-19.87c0-2.09-3.25-2.09-3.25,0Z"/>
    <path class="cls-24" d="M106.45,76.37c-1.04-.15-2.09.24-3.08.52-.99.28-1.98.58-2.95.93-2.08.77-4.05,1.79-6.01,2.83-.11.02-.21.06-.31.11-.2.07-.38.18-.52.34-.08.11-.17.22-.25.33-.15.25-.22.53-.22.82.02.14.04.29.06.43.04.15.11.29.19.42,0,0,0,.02.01.02.12.21.28.37.46.5.24.22.48.44.72.66.1.1.21.18.32.24.39.54,1.1.85,1.76.65,2.03-.62,4.05-1.23,6.13-1.65.92-.19,1.84-.3,2.77-.41.99-.12,1.98-.36,2.68-1.13,1.53-1.69.61-5.26-1.76-5.61Z"/>
    <path class="cls-24" d="M97.04,58.6c-.07,0-.13.01-.19.02-.41-1.13-1.66-1.85-2.84-1.46-.99.32-1.6,1.11-2.15,1.95-.5.76-.99,1.52-1.49,2.28-1.16,1.78-2.29,3.57-3.33,5.42-.42.74-.2,1.81.58,2.22.28.15.6.19.9.18.01.23.08.46.22.68.44.69,1.48,1.11,2.22.58,1.41-1,2.23-2.45,3.02-3.94,1.11-1.53,2.23-3.06,3.34-4.59.03-.04.04-.08.07-.12,1.74-.34,1.62-3.22-.35-3.22Z"/>
    <path class="cls-11" d="M170.06,142.55c-.27-.07-.54-.07-.79,0h-42.86s0,0-.01-.01c-.61-.56-1.71-.69-2.3,0-1.39,1.64-2.28,3.52-3.08,5.5-.18.43-.35.86-.52,1.29-.09.23-.18.46-.28.68-.02.05-.03.08-.04.11,0,.01,0,.01-.01.03-.04.1-.09.2-.13.3-.4.92-.86,1.81-1.41,2.66-.47.71-.17,1.83.58,2.22.38.2.77.25,1.14.17.2.1.44.16.72.16h41.83c.09.09.19.17.31.23.75.4,1.8.22,2.22-.58.94-1.76,1.88-3.51,2.82-5.27.45-.85.91-1.7,1.36-2.54.32-.59.63-1.2.98-1.78,1.52-.51,1.35-3.15-.53-3.16Z"/>
    <g>
      <path class="cls-10" d="M91.14,123.6c.09-.07.2-.18,0,0h0Z"/>
      <path class="cls-1" d="M208.2,132.69c-.53-2.12-.48-4.27-1.25-6.34-.73-1.98-1.71-3.87-2.61-5.78-1.8-3.79-3.35-7.87-5.99-11.17-.11-.14-.25-.23-.4-.31-2.77-4.08-6.56-7.55-10.23-10.81-.71-.63-1.57-.5-2.15-.03-1.84-1.4-3.73-2.73-5.69-3.93-4.61-2.83-10.24-6.2-15.85-5.77-.11,0-.21.03-.3.05-1.33-.35-2.68-.64-4.02-.91-6.18-1.24-12.48-1.81-18.77-1.71-.55,0-.95.24-1.21.58-3.59.07-7.14.69-10.64,1.46-3.13.69-6.24,1.51-9.26,2.58-5.9,2.1-11.53,5.2-15.62,10.04-.13.16-.22.32-.29.49-3.28,2.19-6.37,4.68-8.65,7.84-.03.05-.05.09-.08.14-.57.38-.81,1.09-.68,1.79.23,1.18.78,2.27,1.31,3.34.43.87.86,1.74.8,2.62,0,.04-.02.17-.02.18-.03.13-.07.27-.11.4-.06.15-.18.37-.29.54-.28.46-.63.86-.98,1.26-.3.34-.61.67-.92,1-.19.13-.35.29-.49.5-.02.03-.05.07-.07.1-.46.48-.92.95-1.39,1.41-.22.22-.35.45-.42.69-.22.2-.44.4-.67.59-.05.04-.11.08-.16.13.02-.02.03-.02.04-.04-.01.01-.03.03-.04.03-.14.1-.28.2-.42.3-.27.18-.54.36-.83.52-.3.17-.6.33-.91.48-.14.07-.28.13-.41.19-.1.04-.19.07-.28.11-.41.15-.75.36-.97.75-.2.35-.29.86-.16,1.25.08.25.23.48.42.68l-.09.43-.35,1.74c-.15.74-.3,1.48-.45,2.22-1.03.64-.96,2.42.22,2.9.18.17.4.31.66.37.45.1.97,0,1.36-.25h116.89c.63,0,1.06-.3,1.31-.71.75-.24,1.36-.94,1.11-1.93Z"/>
    </g>
    <path class="cls-4" d="M216.39,68.77c-1.37-3.68-5.11-7.07-8.88-8.14-8.04-2.28-15.07,4.44-16.57,11.91-.74,3.69-.37,8.16,2.56,10.67-.04.47.13.95.45,1.35,2.72,3.42,7.79,2.99,11.65,2.52,4.47-.54,9.37-2.35,10.64-7.17.08-.3.06-.59-.01-.85.81-3.37,1.38-7.01.16-10.3Z"/>
    <path class="cls-3" d="M175.41,53.06c-1.83-5.05-6.1-8.59-11.61-8.59-5.55,0-10.61,4.31-12.67,9.3-2.42,5.87,0,12.65,5.42,15.83.18.23.43.42.76.54,4.89,1.72,10.63.96,14.87-2.03,2.23-1.57,4.24-3.62,4.54-6.45.29-2.76-.38-6-1.32-8.59Z"/>
    <path class="cls-19" d="M94.58,115.59c-.27-.9-.72-1.78-1.05-2.55-.55-1.27-1.18-2.51-1.86-3.72-.14-.59-.29-1.19-.45-1.77-.64-3.29-1.94-6.47-2.92-9.69-.77-2.53-1.27-5.12-2.27-7.58-.72-1.78-1.57-3.49-2.47-5.18.05-.16.08-.32.09-.49.07-.33.06-.66-.04-1-.2-.6-.57-1.19-1.15-1.49-.2-.08-.4-.17-.6-.25-.34-.09-.67-.09-1.01-.04-.39-.07-.8-.03-1.19.1-.05-.03-.1-.05-.15-.08-.29-.18-.6-.28-.93-.3-.33-.07-.66-.06-1,.04-.27.07-.51.19-.73.36-.18,0-.37.04-.57.09-3.38.88-6.87.68-10.3.24-3.59-.46-7.16-1.07-10.73-1.61-1.58-.24-3.16.64-3.16,2.41-.01,2.78-1.51,5.48-2.34,8.09-.86,2.71-1.56,5.47-2.23,8.23-1.26,5.13-2.45,10.35-4.59,15.2-.07.04-.14.06-.21.1-1.02.66-1.75,2.31-.9,3.42,2.15,2.8,5.26,5.11,8.95,5.01,1.76-.05,3.48-.63,5.11-1.23,1.28-.48,2.49-1.04,3.59-1.8.21.39.52.75.93,1.02,1.4.92,2.85,1.8,4.46,2.31,1.82.58,3.59.4,5.44.09,2.25-.38,4.54-1,6.33-2.35.08.04.17.07.25.11.41.11.83.11,1.24.01.24-.02.48-.03.72-.03,3.66,1.49,7.75,1.57,11.4.1.43.11.88.13,1.27,0,.87-.28,1.42-.87,1.66-1.6.18-.13.35-.28.51-.43.78-.34,1.39-1.06,1.39-2.18v-.07c0-.62-.19-1.12-.49-1.5Z"/>
    <path class="cls-23" d="M85.6,150.81c-.73-1.38-2.13-1.98-3.55-2.41-.21-.06-.42-.14-.62-.2-.02,0-.02-.02-.05-.03-.13-.08-.27-.15-.4-.22-.7-.4-1.36-.8-2.12-1.08-.76-.29-1.6-.39-2.41-.42-.94-.04-1.92-.03-2.77.42-1.12.59-1.39,1.87-1.35,3.02,0,.02,0,.02,0,.04,0,.02,0,.02,0,.04-.01.03-.03.06-.04.09-.04.04-.08.07-.11.11-1.35.13-2.7.28-4.05.48-.49-.22-1.06-.28-1.64-.13-.14.04-.27.06-.41.08-.1,0-.2.02-.31.02.41-.72.85-1.43,1.33-2.11.18-.29.28-.6.3-.93.07-.33.06-.66-.04-1-.16-.58-.61-1.21-1.15-1.49-.58-.31-1.28-.46-1.93-.25-.2.08-.4.17-.6.25-.38.22-.67.52-.9.9-.24.33-.46.66-.68,1-.03,0-.07,0-.1-.01-.45,0-.87.12-1.26.34-.74.36-1.46.74-2.17,1.14-.35.2-.7.41-1.04.63-.43.27-.88.57-1.22.95-.59.67-1.05,1.49-1.04,2.41.02,1.54,1.32,2.79,2.86,2.75.28,0,.54-.06.79-.12.11.21.24.4.41.56.85.78,1.94.89,2.88.43.42,0,.85.07,1.26.11.66.06,1.31.13,1.96.19,1.31.13,2.62.28,3.93.42.35.04.75-.09,1.11-.28.16.17.33.33.54.46.73.45,1.52.38,2.32.3,1.37-.14,2.74-.34,4.09-.62,2.52-.53,4.93-1.37,7.28-2.42.51-.23,1.03-.96,1.15-1.49.15-.67.07-1.31-.25-1.93Z"/>
    <path class="cls-22" d="M230.77,154.21c.29-5.21.58-10.42.87-15.63.06-1.05-.81-2.18-1.84-2.41-1.19-.27-2.38-.4-3.59-.28-.57.05-1.09.26-1.52.58-.3-.13-.64-.2-1.03-.2H75.12c-1.09,0-1.8.58-2.15,1.34-.48.46-.77,1.12-.86,1.85-.14,1.11-.27,2.22-.41,3.33-.17,1.36,1.28,2.47,2.5,2.5,3.37.07,7.11.39,9.8,2.66,1.03.87,1.97,2.06,2.22,3.43.25,1.39-.96,2.18-2.02,2.83-2.95,1.79-6.49,2.26-9.87,2.51-4.29.32-8.6.24-12.89-.19-.56-.06-1.08.16-1.5.5-.31-.15-.66-.23-1.03-.22-.28,0-.47-.01-.76-.2-.04-.03-.4-.27-.44-.28-.16-.13-.31-.26-.46-.4-.79-.73-1.34-1.34-1.81-2.08-1.02-1.61-1.38-3.21-.81-4.92.02-.05.02-.07.02-.07.01-.03.03-.06.07-.12.12-.22.24-.42.37-.64.04-.08.07-.13.09-.16.03-.03.06-.06.11-.12.14-.15.27-.31.42-.45.59-.6,1.02-.9,1.94-1.33-.05.03.52-.2.52-.2.23-.08.46-.15.69-.21.28-.07.56-.14.84-.19.06-.01.36-.06.41-.07,1.12-.14,2.26-.11,3.39-.03.22.02.44-.02.65-.08.07,0,.13-.02.2-.03.42-.12.79-.33,1.1-.64.45-.49.73-1.09.73-1.77v-2.6c0-.1-.02-.2-.03-.3,1.12-1.43.51-4.14-1.87-4.14H20.52c-.41,0-.77.08-1.08.23-.94.27-1.71,1.03-1.71,2.3v26.87c0,.89.39,1.52.94,1.92.06.46.11.92.24,1.36.14.45.33.9.53,1.33.33.69.8,1.32,1.31,1.88.51.56,1.14,1.05,1.79,1.44.41.24.86.42,1.3.6.28.11.57.2.87.26.06.01.11.01.17.02.35.75,1.06,1.32,2.15,1.32h195.26c1.03,0,1.73-.52,2.1-1.22.11-.04.22-.07.33-.12.85-.37,1.62-.88,2.31-1.47.34-.12.67-.26.99-.42.15-.07.28-.15.42-.25.29-.16.53-.37.7-.64.22-.24.37-.52.45-.85.1-.33.12-.66.04-1,0-.01,0-.02,0-.04.48-.84.87-1.72,1.17-2.62,1.2-3.65.78-7.57.31-11.3-.05-.41-.17-.8-.35-1.14ZM123.24,141.26h50.93s-.03.05-.04.08c-1.03,2.65-2.11,5.13-3.4,7.77-.65,1.32-1.32,2.64-2.02,3.93-.54,1-1.09,2.01-1.47,3.09h-50.34c2.21-4.71,4.28-9.49,6.22-14.32.07-.18.11-.37.12-.56Z"/>
    <path class="cls-14" d="M64.23,136.41H20.28c-2.09,0-2.09,3.25,0,3.25h43.95c2.09,0,2.09-3.25,0-3.25Z"/>
    <path class="cls-14" d="M230.51,136.41H73.39c-2.09,0-2.09,3.25,0,3.25h25.88c.04.35.19.7.44.99,4.63,5.39,11.25,9.03,18.29,10,.87.12,1.74-.21,2-1.13.21-.76-.26-1.88-1.13-2-5.96-.82-11.43-3.58-15.62-7.85h86.64s-.03.07-.04.1c-.06.25-.14.5-.22.74-.01.04-.02.07-.03.09,0,0,0,0,0,.02-.05.12-.11.23-.16.34-.12.23-.24.45-.38.66-.07.11-.14.21-.21.32-.02.03-.07.09-.1.13-.65.81-1.42,1.52-2.23,2.17-.06.05-.13.1-.19.15.05-.04-.23.18-.24.18-.21.16-.43.32-.64.47-.43.31-.86.62-1.31.91-.25.17-.51.33-.78.47-.13.07-.27.14-.4.21-.05.02-.08.04-.11.05,0,0-.03,0-.07.02-.14.05-.28.09-.42.13-.03,0-.22.04-.29.06-.08,0-.27,0-.29,0-.06,0-.09,0-.11,0,0,0-.03-.02-.14-.04-.83-.19-1.8.25-2,1.14-.19.83.25,1.8,1.13,2,.02,0,.03,0,.05,0-.06.12-.11.24-.13.37-.08-.08-.16-.16-.24-.24-.25-.28-.53-.53-.84-.73-.79-.51-1.87-.59-2.69-.09-.72.44-1.07,1.48-.58,2.22.37.57,1.04.89,1.69.78.07.08.16.15.23.23.25.27.51.51.82.72.55.38,1.31.6,1.98.54.79-.06,1.57-.36,2.1-.97.31-.37.52-.71.67-1.17.1-.31.15-.68.11-1-.04-.31-.1-.59-.24-.84,1.84-.58,3.51-1.95,4.99-3.11,2-1.57,3.81-3.56,4.42-6.09.08-.32.05-.66-.05-.97h37.59c2.09,0,2.09-3.25,0-3.25Z"/>
    <path class="cls-18" d="M93.91,112.74c-.33-.77-.68-1.54-1.02-2.31-.01-.11-.01-.21-.02-.32-.89-7.91-4.42-15.53-7.67-22.71-.21-.47-.66-.72-1.15-.77-.39-1.54-.78-3.07-1.14-4.62-.48-2.03-3.61-1.17-3.13.86.73,3.1,1.52,6.18,2.36,9.25.23,2.1.83,4.15,1.65,6.16.1.23.2.47.3.7.52,1.73,1.05,3.46,1.6,5.19.53,1.64,1.09,3.28,1.62,4.92.51,1.59,1.01,3.3.78,4.99-.45,3.25-3.46,3.97-6.26,4.23-.32.03-.59.13-.82.27-.22-.1-.47-.16-.78-.14-2.26.17-3.95,1.48-6.05,2.16-1.96.63-4.07.68-6.09.29-2.17-.42-4.24-1.22-6.17-2.28-.92-.51-1.81-1.17-2.82-1.48-1.14-.34-2.24-.13-3.4-.07-3.62.19-7.74-1.1-8.51-5.1-.43-2.26.03-4.73.46-6.95.44-2.3,1.05-4.56,1.78-6.78,1.72-5.21,4.11-10.14,6.69-14.97.99-1.84-1.82-3.49-2.81-1.64-2.5,4.67-4.82,9.46-6.58,14.46-.85,2.42-1.57,4.89-2.09,7.4-.5,2.42-.98,4.99-.83,7.47-.04,0-.08-.01-.11-.01-.94,0-1.55.75-1.62,1.62-.1,1.24-.2,2.48-.31,3.72-.1,1.19-.23,2.36.37,3.45.96,1.75,3.2,2.82,5.01,3.44,3.73,1.27,8.06.78,11.37-1.36.41-.26.63-.64.71-1.04.78.43,1.53.95,2.33,1.33,1.12.54,2.28,1.02,3.47,1.39,2.45.77,5.07,1.11,7.63.77,1.36-.18,2.64-.54,3.9-1.1.55-.24,1.1-.55,1.65-.82.26.23.6.38,1.02.37,1.19-.01,2.37-.1,3.55-.23,1.07.58,2.21.99,3.44.99,1.72,0,3.22-.95,4.59-1.9,1.34-.92,2.65-2.01,3.34-3.51.82-1.78.5-3.56-.24-5.3Z"/>
    <path class="cls-6" d="M39.38,94.4c-.49-.76-1.42-1.02-2.22-.58-3.07,1.67-6.13,3.34-9.2,5.01-.75.41-1.05,1.5-.58,2.22.49.76,1.42,1.02,2.22.58,3.07-1.67,6.13-3.34,9.2-5.01.75-.41,1.05-1.5.58-2.22Z"/>
    <path class="cls-6" d="M42.31,78.23c-2.71-2.77-5.44-5.52-8.18-8.26-.6-.6-1.7-.65-2.3,0-.6.65-.64,1.66,0,2.3,2.74,2.74,5.47,5.49,8.18,8.26.6.61,1.71.64,2.3,0,.6-.65.64-1.65,0-2.3Z"/>
    <path class="cls-6" d="M98.51,59.74c-.63-.58-1.68-.67-2.3,0-2.52,2.74-5.04,5.48-7.56,8.22-.58.63-.67,1.69,0,2.3.63.58,1.68.67,2.3,0,2.52-2.74,5.04-5.48,7.56-8.22.58-.63.67-1.69,0-2.3Z"/>
    <path class="cls-6" d="M108.38,82.29c-.24-.88-1.14-1.32-2-1.13-3.82.84-7.7,1.21-11.6,1.14-.88-.02-1.62.76-1.62,1.62s.74,1.61,1.62,1.62c4.19.08,8.38-.36,12.47-1.25.86-.19,1.36-1.18,1.13-2Z"/>
    <path class="cls-5" d="M169.59,46.31c-.37-.16-.73-.18-1.06-.1-.1-.46-.21-.93-.32-1.38-.5-2.03-3.64-1.17-3.13.86,1.2,4.86,2.02,10.43-.11,15.16-1.65,3.67-5.1,6.75-9.28,6.73-1.82,0-2.22,2.73-.43,3.19,3.92,1.01,8.27,1.88,12.01-.1,3.05-1.62,5.75-4.24,7.33-7.31,3.04-5.89,1.54-14.23-5.02-17.05Z"/>
    <path class="cls-16" d="M213.78,79.55c-4.63.14-9.33.17-13.25-2.64-3.09-2.21-5.28-5.83-5.67-9.62-.09-.88-.68-1.62-1.62-1.62-.81,0-1.72.75-1.62,1.62.14,1.35.45,2.66.89,3.92-.91-.21-2.08.29-2.2,1.5-.32,3.3,1.01,6.78,2.55,9.65,1.4,2.6,3.68,4.48,6.5,5.37,5.81,1.84,11.77-1.02,15.58-5.4.88-1.01.34-2.82-1.15-2.77Z"/>
    <path class="cls-20" d="M81.26,75.62c-1.43-.26-3.28.6-4.67.89-6.64,1.4-13.56,1.63-20.15-.14-2.02-.54-2.88,2.59-.86,3.13,4.19,1.13,8.54,1.54,12.87,1.33,1.49-.07,2.98-.23,4.46-.43.25.21.58.35,1.01.35,1.72,0,3.43-.14,5.13-.41,1.3-.21,3.02-.42,3.71-1.74.66-1.26-.11-2.74-1.49-2.99Z"/>
    <path class="cls-21" d="M71.05,126.91c-.32-.29-.71-.48-1.15-.48h-2.06c-.42,0-.85.18-1.15.48-.16.15-.27.32-.34.52-.1.19-.15.4-.14.63.02.42.16.86.48,1.15.32.29.71.48,1.15.48h2.06c.42,0,.85-.18,1.15-.48.16-.15.27-.32.34-.52.1-.19.15-.4.14-.63-.02-.42-.16-.86-.48-1.15Z"/>
    <path class="cls-21" d="M85.04,150.7c-1.39-1.57-4.02-2.41-5.93-3.1-1.21-.44-2.54-.93-3.82-1.08-1.37-.15-1.91.44-2.72,1.39-.84.99-2.1,1.14-3.33,1.06-.65-.04-3.5-.21-3.6-1.1-.08-.72-.54-1.19-1.09-1.41-.22-.13-.49-.21-.82-.2-2.24.05-4.38.75-6.17,2.13-1.61,1.24-3.22,3.21-1.89,5.24,1.22,1.86,3.86,2.46,5.89,2.91,2.51.55,5.07.94,7.63,1.16,2.64.23,5.31.3,7.96.13,2.25-.14,4.92-.37,6.84-1.67,1.78-1.21,2.6-3.72,1.05-5.47ZM81.83,153.67c-1.7.88-3.99.9-5.85.97-4.14.14-8.3-.18-12.37-.98-1.09-.22-2.21-.44-3.27-.78-.46-.15-.9-.32-1.32-.56-.12-.07-.37-.17-.46-.28-.24-.3-.06-.05-.03-.12.25-.73,1.73-1.48,2.36-1.77.66-.31,1.36-.49,2.08-.57,1.49,2.45,5.4,2.96,8.11,2.58.83-.12,1.64-.37,2.37-.78.48-.27,1.56-.95,1.78-1.55.12.03.23.06.25.06.43.11.86.23,1.29.36,1,.31,2,.66,2.96,1.08.8.35,1.62.72,2.36,1.17.75.46.5.79-.26,1.18Z"/>
    <path class="cls-13" d="M169.42,142.46h-44.07c-.8,0-1.29.48-1.48,1.07-.02.04-.04.08-.06.13-.62,1.51-1.18,3-1.8,4.46-.77.11-1.46.8-1.42,1.6.01.31.11.6.26.85-.51.98-1.09,1.95-1.77,2.88-.51.69-.14,1.84.58,2.22.85.45,1.68.15,2.22-.58.86-1.17,1.58-2.43,2.22-3.75.34,0,.68,0,1.03,0,.04.06.07.12.11.18.36.5.79.96,1.34,1.25,1.06.56,2.41.57,3.4-.15.61-.44.98-.95,1.26-1.64.04-.11.09-.23.12-.34,0-.02.03-.07.05-.12.63-.36,1.03-1.12.8-1.85-.26-.82-1.13-1.4-2-1.14-.67.2-1.2.63-1.56,1.23-.16.27-.27.57-.37.87-.03.09-.06.18-.09.28,0,0,0,0,0,0,0,0-.02.01-.02.02,0,0,0,0,0,0-.02,0-.03-.01-.05-.02-.05-.04-.09-.09-.13-.13-.03-.03-.05-.05-.07-.08-.03-.05-.07-.12-.07-.13-.1-.16-.16-.34-.26-.5-.45-.77-1.24-.97-2.06-.98.32-.8.63-1.59.95-2.38h42.96c2.09,0,2.09-3.25,0-3.25Z"/>
    <path class="cls-17" d="M208.99,132.27c-.01-.15-.04-.3-.1-.47-1.9-4.89-3.78-9.78-5.71-14.65-1.67-4.22-3.59-8.28-6.84-11.54-1.83-1.83-3.91-3.37-6.1-4.75-2.46-2.23-5.18-4.19-8.23-5.78-.71-.37-1.39-.18-1.86.24-2.43-1.23-4.9-2.41-7.43-3.43-9.05-3.66-19.29-5.07-29.01-5.2-9.36-.12-18.78,1.38-27.35,5.23-8.39,3.77-15.79,9.83-20.55,17.75-.01.02-.02.04-.03.06-.41.34-.62.88-.37,1.56.75,2.07,1.54,4.72,1.08,6.94-.42,2.01-2.93,3.3-4.59,4.16-1.85.96-3.89,1.35-4.69,3.52-.68,1.85-.64,4.13-.56,6.18-.99.84-.65,2.9,1.01,2.9h120.13c1.56,0,1.95-1.8,1.19-2.72ZM155.39,131.74h-18.68c.09-5.31,4.23-9.89,9.69-9.85,5.35.03,9.38,4.6,8.99,9.85ZM146.4,118.64c-7.2-.04-12.88,6.03-12.94,13.1h-43.53c0-.81,0-1.63.05-2.44.05-.81-.06-2.2.65-2.76.78-.62,2.03-.87,2.92-1.33,1.02-.53,1.99-1.14,2.9-1.83,1.86-1.4,3.16-3.1,3.35-5.49.18-2.25-.31-4.65-1.03-6.8,8.73-14.28,25.56-20.66,41.68-21.11,9.23-.26,18.83.87,27.63,3.69,4.51,1.45,8.73,3.58,12.92,5.77,2.41,1.26,4.85,2.51,7.16,3.94,8.03,7.33,12.76,17.84,15.56,28.36h-45.09c.56-7.01-5.26-13.07-12.24-13.1Z"/>
    <path class="cls-8" d="M231.78,35.37c0-2.09-3.25-2.09-3.25,0v96.65h-14.58s0-.05,0-.07c-3.1-19.37-16.29-36-34.36-43.56-5.08-2.13-10.41-3.46-15.88-4.07-2.08-.23-2.06,3.02,0,3.25,18.43,2.07,34.7,13.83,42.61,30.55.32.68.63,1.38.92,2.07-.62.31-1.08.96-.93,1.83.65,3.57,1.99,6.97,3.91,10.04-1.74.33-1.64,3.22.34,3.22h19.6c1.36,0,1.83-1.36,1.43-2.32.12-.22.2-.48.2-.79V35.37Z"/>
    <path class="cls-8" d="M214.97,81.39c-2.03,3.98-6.21,6.51-10.67,6.6-2.32.05-4.65-.51-6.73-1.54-1.84-.92-4.63-2.52-5.33-4.59-.67-1.97-3.81-1.13-3.13.86.93,2.75,3.66,4.79,6.11,6.16,2.64,1.48,5.65,2.34,8.68,2.37,5.68.05,11.28-3.12,13.87-8.21.95-1.86-1.86-3.51-2.81-1.64Z"/>
    <path class="cls-8" d="M173,66.5c-2.33,2.87-5.72,4.86-9.46,5.11-4.32.29-7.82-1.52-10.97-4.31-1.56-1.38-3.87.91-2.3,2.3,1.91,1.7,3.85,3.19,6.25,4.14,2.21.87,4.65,1.28,7.02,1.12,4.56-.3,8.87-2.51,11.76-6.06,1.31-1.61-.98-3.92-2.3-2.3Z"/>
    <path class="cls-8" d="M105.31,85.33c-.48-.83-1.42-.94-2.22-.58-2.38,1.06-4.85,2.16-7.46,2.51-.36.05-1.16.23-1.47.05-.26-.15-.47-.69-.61-.94-.62-1.11-1.06-2.27-1.38-3.5-.53-2.02-3.67-1.16-3.13.86.41,1.56,1.02,3.08,1.83,4.48.42.73.92,1.44,1.65,1.89.77.48,1.7.53,2.57.46,3.42-.28,6.54-1.63,9.64-3.01.8-.36.99-1.53.58-2.22Z"/>
    <path class="cls-8" d="M97.83,64.55c-.8-.47-1.73-.15-2.22.58-1.56,2.33-3.2,4.75-5.17,6.76-.15.15-.05.06-.15.13-.02.01-.14.09-.19.11h0s0,0,.03-.02c-.03,0-.05.01-.08.02-.03,0-.06,0-.09,0-.09-.02-.18-.05-.27-.07-.02,0-.02,0-.03,0-.01,0-.02-.01-.04-.02-.22-.12-.44-.24-.65-.37-.98-.62-1.92-1.35-3.09-1.58-.86-.17-1.75.24-2,1.14-.22.8.27,1.83,1.13,2,.15.03.29.07.43.11.04,0,.06.01.08.02.02.01.04.03.08.05.25.14.5.27.74.43.5.32.97.68,1.49.95,1.38.73,2.98.87,4.29-.1,1.35-.99,2.35-2.53,3.36-3.84,1.02-1.32,1.99-2.68,2.91-4.06.49-.73.14-1.8-.58-2.22Z"/>
    <path class="cls-12" d="M41.87,60.87c4.43-.65,8.88,1.32,11.64,4.77.62.78,2.14.56,2.55-.33,2.29-4.88,8.54-6.02,12.29-2.06.92.98,2.28.35,2.72-.72-.15.36.86.95,1.14,1.25.82.86,2.46.48,2.72-.72.9-4.13,2.48-10.71,7.95-10.42,2.09.11,2.08-3.14,0-3.25-2.98-.16-5.72,1.44-7.54,3.73-2.06,2.61-2.85,5.89-3.54,9.07l2.72-.72c-.98-1.03-2.15-1.99-3.65-1.95-1.41.03-2.41.89-2.92,2.14l2.72-.72c-5.09-5.38-14.22-4.04-17.39,2.72l2.55-.33c-3.55-4.41-9.26-6.42-14.8-5.6-.87.13-1.34,1.23-1.13,2,.25.93,1.13,1.26,2,1.13h0Z"/>
    <path class="cls-12" d="M110.72,56.76c.68,2.83.13,5.67-1.45,8.1-.86,1.32.56,2.58,1.84,2.39,6.31-.96,11.51,5,10.07,11.11l2.97-.39c-.05.4,0,.49.11.29.14-.17.32-.3.52-.4.34-.2.72-.31,1.1-.42.93-.28,1.89-.49,2.86-.57,2.04-.18,4.02.06,5.97.66,1.07.33,1.99-.55,2.06-1.57.13-1.97-.57-7.54,2.75-7.31,2.09.14,2.08-3.11,0-3.25s-4.03,1.26-4.99,3.11c-1.2,2.3-.84,4.95-1.01,7.44l2.06-1.57c-3.14-.97-6.5-1.1-9.7-.32-2.61.63-5.9,2.37-4.53,5.54.56,1.3,2.67.88,2.97-.39.96-4.03-.07-8.35-2.89-11.41s-7.1-4.31-11.18-3.69l1.84,2.39c2.05-3.14,2.66-6.96,1.78-10.6-.49-2.03-3.62-1.17-3.13.86h0Z"/>
    <path class="cls-12" d="M210.18,101.55c.3,1.52.02,3.27-.78,4.7-.46.82-.1,2.23.97,2.39,1.54.22,3.28.46,4.56,1.16.63.35.92.56,1.43,1.17-.17-.2.11.16.13.19.09.14.16.27.24.41.16.3,0-.11.08.2.01.06.15.66.11.35.11.87.67,1.62,1.62,1.62.79,0,1.74-.75,1.62-1.62-.26-2.08-1.41-3.74-3.16-4.87s-3.78-1.45-5.76-1.74l.97,2.39c1.24-2.21,1.6-4.72,1.11-7.2-.17-.86-1.2-1.36-2-1.13-.9.25-1.31,1.14-1.13,2h0Z"/>
    <path class="cls-12" d="M182.65,65.52c2.09,0,2.09-3.25,0-3.25s-2.09,3.25,0,3.25h0Z"/>
    <path class="cls-12" d="M25.85,114.2c1.77,3.38,4.85,5.92,8.46,7.13v-3.13c-1.89.79-3.61,1.83-5.09,3.25-.76.73-1.46,1.55-1.55,2.64-.04.52.05,1.01.23,1.51.06.16.24.6.22.6-.16-.01.39-.7.51-.71-.87.13-1.35,1.23-1.13,2,.26.93,1.13,1.26,2,1.13,1.12-.16,1.82-1.33,1.86-2.39.02-.55-.13-.99-.31-1.49-.05-.14-.09-.31-.14-.45.06.18-.26.38.02.08,1.19-1.29,2.63-2.36,4.26-3.04.67-.28,1.19-.79,1.19-1.57,0-.74-.51-1.34-1.19-1.57-2.81-.94-5.13-2.99-6.52-5.63-.41-.78-1.49-1.01-2.22-.58-.79.46-.99,1.44-.58,2.22h0Z"/>
    <path class="cls-12" d="M213.41,152.49c-7.42,0-14.84,0-22.25,0-2.09,0-2.09,3.25,0,3.25,7.42,0,14.84,0,22.25,0,2.09,0,2.09-3.25,0-3.25h0Z"/>
    <path class="cls-12" d="M200.3,161.23c-19.87,0-39.74,0-59.61,0-2.09,0-2.09,3.25,0,3.25,19.87,0,39.74,0,59.61,0,2.09,0,2.09-3.25,0-3.25h0Z"/>
    <path class="cls-12" d="M33.01,168.06h56.43c2.09,0,2.09-3.25,0-3.25h-56.43c-2.09,0-2.09,3.25,0,3.25h0Z"/>
    <path class="cls-12" d="M92.22,158.92h7.95c.85,0,1.66-.75,1.62-1.62s-.71-1.62-1.62-1.62h-7.95c-.85,0-1.66.75-1.62,1.62s.71,1.62,1.62,1.62h0Z"/>
    <path class="cls-12" d="M96.59,167.26c2.09,0,2.09-3.25,0-3.25s-2.09,3.25,0,3.25h0Z"/>
    <path class="cls-12" d="M40.56,156.93c2.09,0,2.09-3.25,0-3.25s-2.09,3.25,0,3.25h0Z"/>
    <path class="cls-12" d="M192.3,42.9c3.33,1.05,5.83,4.15,6.07,7.65.08,1.2,1.32,2.06,2.45,1.4,1.88-1.1,3.9-2.03,6.03-2.52.94-.21,2.68-.46,3.04.7.23.74.13,1.49.48,2.21s.98,1.31,1.78,1.56,1.62.02,2.35.39c.84.43,1.45,1.31,1.99,2.04.58.79,1.79,1.18,2.55.33,1.24-1.39,2.66-2.43,4.34-3.22,1.89-.88.25-3.69-1.64-2.81s-3.6,2.16-5,3.73l2.55.33c-1.29-1.77-2.79-3.57-5.11-3.83-.24-.03-.5-.01-.75-.05-.4-.06,0,.27-.19,0s-.13-.94-.18-1.24c-.17-.96-.62-1.81-1.38-2.42-3.47-2.86-9.33.12-12.53,2l2.45,1.4c-.35-4.98-3.68-9.28-8.45-10.78-2-.63-2.85,2.51-.86,3.13h0Z"/>
  </g>
  <g id="Layer_1" data-name="Layer 1">
    <path class="cls-7" d="M126.46,120.44c-5.62-9.25-33.14-3.36-22.59,8.72,6.5,5.93,28.8,4.17,22.59-8.72Z"/>
    <path class="cls-7" d="M186.76,120.44c-5.62-9.25-33.14-3.36-22.59,8.72,6.5,5.93,28.8,4.17,22.59-8.72Z"/>
    <g>
      <path class="cls-10" d="M16.2,42.19v122.15c0,.56,0,1.11,0,1.67.08,5.45,4.03,10.28,9.48,11.12,1.75.27,3.6.15,5.37.15h10.58c12.12,0,24.23,0,36.35,0,15.88,0,31.77,0,47.65,0h47.29c12.05,0,24.09,0,36.14,0h10.19c2.11,0,4.34.16,6.38-.43,4.84-1.39,8.1-5.88,8.17-10.87,0-.65,0-1.3,0-1.95v-54.6c0-15.39,0-30.78,0-46.18,0-7.53.11-15.07,0-22.6-.07-5.01-3.36-9.52-8.23-10.88-1.25-.35-2.53-.42-3.82-.41l-6.89.05c-10.52.08-21.05.17-31.57.25-15.18.12-30.35.24-45.53.36-16.22.13-32.45.26-48.67.39l-40.14.32-20.74.17c-.62,0-1.23,0-1.85.07-5.76.61-10.05,5.46-10.15,11.21-.04,2.09,3.21,2.09,3.25,0,.08-4.42,3.57-7.93,7.99-8.02.46-.01.93,0,1.39-.01l8.14-.06c10.9-.09,21.8-.17,32.7-.26,15.21-.12,30.43-.24,45.64-.36s31.85-.25,47.78-.38l39.1-.31,19.62-.16c1.31-.01,2.6.09,3.83.61,3.1,1.31,4.89,4.35,4.91,7.64.01,2.59,0,5.18,0,7.77v85.96c0,9.92,0,19.83,0,29.75,0,.55,0,1.09,0,1.64-.07,4.44-3.61,7.96-8.04,8.03-1.44.02-2.89,0-4.33,0-9.1,0-18.21,0-27.31,0-14.4,0-28.8,0-43.19,0-16.09,0-32.18,0-48.26,0H30.9c-1.72,0-3.67.19-5.34-.23-3.68-.92-6.07-4.21-6.11-7.94,0-.8,0-1.61,0-2.41,0-10.7,0-21.39,0-32.09s0-31.7,0-47.55c0-12.06,0-24.12,0-36.18v-5.44c0-2.09-3.25-2.09-3.25,0Z"/>
      <g>
        <path class="cls-10" d="M95.64,110.73c5.11-7.49,12.3-13.27,20.44-17.2s17.59-6.06,26.8-6.43,18.8.93,27.68,3.97,16.56,7.53,22.97,13.9c6.49,6.44,11.03,14.55,13.01,23.48.46,2.08.78,4.18.97,6.3s3.44,2.09,3.25,0c-1-10.84-5.12-20.98-12.27-29.23-6.27-7.23-14.47-12.57-23.29-16.17s-18.95-5.52-28.75-5.57-19.58,1.65-28.58,5.4-16.87,9.29-22.8,16.85c-.78.99-1.53,2.01-2.24,3.05-1.18,1.73,1.63,3.36,2.81,1.64h0Z"/>
        <path class="cls-10" d="M87.08,135.83c.32-3.81,1-7.57,2.06-11.24.24-.84-.3-1.77-1.13-2s-1.75.29-2,1.13c-1.14,3.95-1.83,8.01-2.18,12.1-.07.88.8,1.62,1.62,1.62.94,0,1.55-.75,1.62-1.62h0Z"/>
        <path class="cls-10" d="M137.17,128.05c.07-.46.2-.91.38-1.34l-.16.39c.2-.46.45-.89.75-1.29l-.25.33c.15-.19.31-.37.48-.54.29-.3.48-.73.48-1.15s-.18-.87-.48-1.15-.72-.5-1.15-.48-.84.16-1.15.48c-.52.52-.98,1.13-1.31,1.79s-.6,1.37-.72,2.1c-.07.22-.08.43-.03.65,0,.22.07.42.19.6.2.34.58.66.97.75.42.09.88.07,1.25-.16.33-.21.68-.56.75-.97h0Z"/>
        <path class="cls-10" d="M143.81,122.61c.13-.07.27-.13.4-.19l-.39.16c.59-.25,1.21-.42,1.85-.5l-.43.06c.61-.08,1.23-.08,1.84,0l-.43-.06s.1.01.15.02c.45.07.84.07,1.25-.16.34-.2.66-.58.75-.97.09-.42.07-.88-.16-1.25-.21-.33-.56-.69-.97-.75-.51-.08-1.02-.14-1.54-.14s-.98.06-1.46.14c-.87.13-1.71.44-2.49.83-.35.17-.65.6-.75.97-.11.39-.06.91.16,1.25.5.78,1.41.99,2.22.58h0Z"/>
        <path class="cls-10" d="M153.49,125.16c.33.26.62.56.88.9l-.25-.33c.28.36.5.76.68,1.18l-.16-.39c.17.42.3.86.36,1.31l-.06-.43s0,.07.01.11c0,.22.04.43.14.63.07.2.18.38.34.52.28.28.74.49,1.15.48s.86-.16,1.15-.48c.27-.3.52-.73.48-1.15-.06-.48-.12-.96-.27-1.42s-.33-.9-.56-1.32c-.39-.72-.94-1.4-1.58-1.91-.35-.28-.69-.48-1.15-.48-.4,0-.87.18-1.15.48s-.5.72-.48,1.15c.02.4.15.88.48,1.15h0Z"/>
        <path class="cls-10" d="M166.14,123.17c0,1.18,0,2.36,0,3.54,0,.42.18.85.48,1.15s.74.49,1.15.48.86-.16,1.15-.48.48-.71.48-1.15c0-1.18,0-2.36,0-3.54,0-.42-.18-.85-.48-1.15s-.74-.49-1.15-.48-.86.16-1.15.48-.48.71-.48,1.15h0Z"/>
        <path class="cls-10" d="M173.19,123.17c0,1.18,0,2.36,0,3.54,0,.42.18.85.48,1.15s.74.49,1.15.48.86-.16,1.15-.48.48-.71.48-1.15c0-1.18,0-2.36,0-3.54,0-.42-.18-.85-.48-1.15s-.74-.49-1.15-.48-.86.16-1.15.48-.48.71-.48,1.15h0Z"/>
        <path class="cls-10" d="M180.23,123.17v3.54c0,.42.18.85.48,1.15s.74.49,1.15.48.86-.16,1.15-.48.48-.71.48-1.15v-3.54c0-.42-.18-.85-.48-1.15s-.74-.49-1.15-.48-.86.16-1.15.48-.48.71-.48,1.15h0Z"/>
        <path class="cls-10" d="M105.74,123.17c0,1.18,0,2.36,0,3.54,0,.42.18.85.48,1.15s.74.49,1.15.48.86-.16,1.15-.48.48-.71.48-1.15c0-1.18,0-2.36,0-3.54,0-.42-.18-.85-.48-1.15s-.74-.49-1.15-.48-.86.16-1.15.48-.48.71-.48,1.15h0Z"/>
        <path class="cls-10" d="M112.89,123.17c0,1.18,0,2.36,0,3.54,0,.42.18.85.48,1.15s.74.49,1.15.48.86-.16,1.15-.48.48-.71.48-1.15c0-1.18,0-2.36,0-3.54,0-.42-.18-.85-.48-1.15s-.74-.49-1.15-.48-.86.16-1.15.48-.48.71-.48,1.15h0Z"/>
        <path class="cls-10" d="M120.03,123.17c0,1.18,0,2.36,0,3.54,0,.42.18.85.48,1.15s.74.49,1.15.48.86-.16,1.15-.48.48-.71.48-1.15c0-1.18,0-2.36,0-3.54,0-.42-.18-.85-.48-1.15s-.74-.49-1.15-.48-.86.16-1.15.48-.48.71-.48,1.15h0Z"/>
      </g>
      <path class="cls-10" d="M72.79,137.46c20.64.07,41.27.11,61.91.12,20.81.01,41.62,0,62.43-.03,11.5-.02,23.01-.05,34.51-.09,2.09,0,2.09-3.26,0-3.25-20.55.07-41.1.11-61.66.12-20.83.01-41.67,0-62.5-.03-11.56-.02-23.13-.05-34.69-.09-2.09,0-2.09,3.24,0,3.25h0Z"/>
      <path class="cls-10" d="M18.36,137.46h47.18c2.09,0,2.09-3.25,0-3.25H18.36c-2.09,0-2.09,3.25,0,3.25h0Z"/>
      <path class="cls-10" d="M76.34,72.66c-4.76-1.14-9.94-1.49-14.79-.9-2.38.29-5.01.75-7.07,2.09s-2.96,3.93-1.62,6.12c1.52,2.5,4.94,2.83,7.57,3.16,3.22.42,6.48.44,9.73.36,2.97-.08,6.06,0,8.99-.52,1.86-.32,3.92-1.07,5.05-2.67s.74-3.62-.64-4.95c-1.99-1.92-5.01-2.45-7.64-2.76-.87-.1-1.62.82-1.62,1.62,0,.96.75,1.52,1.62,1.62,1.73.2,3.8.55,5.21,1.67-.13-.1.56.6.33.32.06.07.11.16.15.24.21.37-.08-.3.03.09s-.04-.26,0-.01c.02.08,0,.42.03-.02,0,.14-.18.37,0,.08-.07.11-.11.24-.2.34.28-.32-.51.41-.28.25-.24.18-.51.33-.79.45-.67.3-1.49.49-2.25.61-2.31.36-4.76.28-7.1.35-2.66.08-5.32.11-7.98-.07-1.26-.09-2.51-.22-3.75-.44-1.01-.18-2.29-.29-3.16-.9-1.29-.9-.58-1.92.61-2.51,1.63-.81,3.55-1.16,5.35-1.35,4.4-.46,9.04-.19,13.35.84,2.03.49,2.9-2.65.86-3.13h0Z"/>
      <path class="cls-10" d="M52.26,78.22c-4.2,11.58-8.18,23.24-11.91,34.97-.38,1.2-1.3,2.89-1.04,4.15.06.28.24.6.35.85.42.96.94,1.87,1.57,2.71,2.42,3.29,5.82,4.92,9.91,4.7,3.35-.19,7.16-1.02,9.96-3l-2.22-.58c2.3,3.08,6.39,4.53,10.13,4.55s8.53-1.18,11.1-4.22l-1.97.25c2.28,1.3,4.9,2.24,7.51,2.54,3.8.45,7.62-1.38,10.2-4.14.62-.66,1.26-1.42,1.63-2.25s.16-1.43-.1-2.25c-.42-1.33-.84-2.66-1.27-3.99-1.68-5.24-3.4-10.46-5.17-15.67-2.01-5.91-4.08-11.79-6.21-17.66-.71-1.95-3.85-1.11-3.13.86,4.6,12.66,8.92,25.41,12.95,38.26l.16-1.25c-1.01,2.35-4.09,4.41-6.57,4.86-2.77.49-5.97-.75-8.35-2.11-.58-.33-1.51-.29-1.97.25-1.87,2.21-5.45,3.2-8.4,3.26-2.14.05-4.23-.42-6.05-1.56-.52-.33-.89-.61-1.33-1.04-.17-.16-.84-.99-.35-.34-.49-.66-1.44-1.13-2.22-.58-1.93,1.36-4.43,2.07-6.72,2.4-3.48.5-6.48-.06-8.7-2.93-.62-.8-1.11-1.7-1.52-2.61-.14-.3.13.34-.02-.05-.08-.21.05-.02.03.08-.12.56.25-.37.29-.51.1-.31.2-.63.3-.94.22-.7.45-1.41.67-2.11,1.72-5.4,3.5-10.78,5.32-16.14,2.04-5.99,4.13-11.95,6.29-17.89.72-1.97-2.42-2.82-3.13-.86h0Z"/>
      <path class="cls-10" d="M65.13,124.67v24.54c0,.88.74,1.62,1.63,1.62h5.19c.88,0,1.62-.74,1.62-1.62,0-8.18,0-16.36,0-24.54,0-2.09-3.25-2.09-3.25,0,0,8.18,0,16.36,0,24.54l1.62-1.62h-5.19l1.62,1.62v-24.54c0-2.09-3.25-2.09-3.25,0h0Z"/>
      <path class="cls-10" d="M66.34,144.37c-3.82-.15-8.52.91-11.61,3.24-1.57,1.18-2.7,2.94-2.23,4.97.24,1.05.87,1.97,1.6,2.75,1.11,1.2,2.8,1.61,4.33,2.05,6.79,1.93,14.11,1.81,21.06.96,3.68-.45,11.04-4.38,7.86-9.05-1.36-2-3.83-3.08-6.04-3.82-2.77-.93-5.76-1.36-8.68-1.32-2.09.02-2.1,3.27,0,3.25,3.64-.04,8.09.57,11.1,2.8.46.34.83.68,1.03,1.08-.05-.1.12.4.11.34-.01-.09-.03.17-.06.26-.71,1.56-3.38,2.59-4.93,3.07-1.25.38-2.65.4-3.96.5-1.5.12-3,.19-4.5.21-3,.04-6.03-.12-8.99-.68-1.32-.25-2.62-.56-3.9-.96-.58-.18-1.33-.34-1.87-.65.4.24-.25-.31-.27-.33-.15-.16-.24-.26-.36-.44-.18-.26-.29-.47-.35-.7-.04-.15-.04-.36-.03-.39.07-.39.34-.74.83-1.15,1.28-1.07,3.11-1.66,4.74-2.08s3.4-.72,5.13-.65c2.09.08,2.09-3.17,0-3.25h0Z"/>
      <path class="cls-10" d="M116.82,157.74c16.7,0,33.4,0,50.1,0,.53,0,1.17-.3,1.4-.8,2.16-4.71,4.32-9.42,6.48-14.13.5-1.09-.08-2.45-1.4-2.45-16.7,0-33.4,0-50.1,0-.53,0-1.17.3-1.4.8-2.16,4.71-4.32,9.42-6.48,14.13-.87,1.89,1.93,3.54,2.81,1.64,2.16-4.71,4.32-9.42,6.48-14.13l-1.4.8c16.7,0,33.4,0,50.1,0l-1.4-2.45c-2.16,4.71-4.32,9.42-6.48,14.13l1.4-.8c-16.7,0-33.4,0-50.1,0-2.09,0-2.09,3.25,0,3.25Z"/>
      <path class="cls-10" d="M95.43,130.08c5.27,12.86,18.29,21.09,32.23,19.88,2.07-.18,2.09-3.43,0-3.25-12.38,1.08-24.35-5.92-29.1-17.5-.34-.82-1.08-1.38-2-1.13-.77.2-1.47,1.19-1.13,2h0Z"/>
      <path class="cls-10" d="M128.65,148.13c-.02-.23-.02-.46.01-.69l-.06.43c.04-.26.11-.5.21-.74l-.16.39c.1-.21.21-.41.35-.6l-.25.33c.13-.16.27-.31.42-.45l-2.72-.72c.02.06.03.12.04.18l-.06-.43c.02.18.01.36,0,.54l.06-.43c-.13.75-.48,1.44-.68,2.17-.23.84-.36,1.71-.42,2.58-.05.68.54,1.42,1.19,1.57.69.16,1.48-.1,1.84-.75s.53-1.4.82-2.1l-.16.39c.1-.24.22-.46.38-.66l-.25.33c.1-.12.2-.22.32-.31l-.33.25c.08-.05.16-.1.24-.14l-.39.16c.1-.04.2-.07.31-.09l-.43.06c.11-.01.21-.02.32,0l-.43-.06c.11.02.2.04.3.08l-.39-.16c.08.04.14.08.21.13l-.33-.25s.09.09.13.14l-.25-.33.04.05.25-1.97-.06.04.33-.25c-.1.07-.19.13-.3.18l.39-.16c-.15.06-.31.11-.47.13l.43-.06c-.14.01-.28.01-.42,0l.43.06c-.17-.02-.32-.06-.47-.13l.39.16c-.11-.05-.21-.11-.3-.18l.33.25-.06-.04c-.35-.28-.68-.48-1.15-.48-.4,0-.87.18-1.15.48s-.5.72-.48,1.15c.02.4.15.89.48,1.15.4.31.7.5,1.17.68.32.12.68.16,1.02.16s.68-.04.99-.15c.48-.16.81-.38,1.2-.69l.25-.33c.12-.19.18-.39.19-.6.05-.34,0-.74-.19-1.04-.5-.74-1.2-1.13-2.08-1.2-.77-.07-1.47.27-2.05.74-.95.77-1.14,2-1.59,3.06l.16-.39c-.05.11-.1.21-.16.32l3.03.82c.02-.25.04-.49.07-.74l-.06.43c.11-.77.29-1.52.55-2.25.13-.35.27-.69.36-1.06.15-.62.17-1.22.03-1.85-.12-.55-.61-.99-1.13-1.13-.59-.16-1.13.03-1.58.42-1,.87-1.6,2.32-1.47,3.64.04.44.15.83.48,1.15.28.28.74.49,1.15.48.81-.04,1.71-.72,1.62-1.62h0Z"/>
      <path class="cls-10" d="M30.83,71.94c1.39-.82,2.72-1.73,3.99-2.72.34-.26.67-.53,1-.81.06-.05.43-.3.43-.37,0,0-.68-.18-.73-.08-.07.14,1.43,1.84,1.57,2.02,1.04,1.35,2.09,2.7,3.13,4.05.51.65,1.01,1.31,1.52,1.96.28.37.57.74.85,1.1.17.22.6.68.64.83v-.86l.16-.24c-.1.11-.21.22-.31.33-.14.15-.28.3-.42.44-.35.37-.69.74-1.04,1.11-.31.33-.62.67-.94,1-.14.15-.28.3-.42.44-.07.08-.56.47-.31.4h.86c.3.06.21.19,0-.07-.06-.08-.14-.16-.2-.23-.15-.17-.29-.34-.44-.51-.38-.44-.77-.88-1.15-1.32-.96-1.1-1.92-2.2-2.88-3.3-1.67-1.91-3.34-3.82-5-5.74-.58-.66-1.71-.59-2.3,0-.66.66-.58,1.63,0,2.3,3.02,3.48,6.06,6.94,9.08,10.41.26.3.51.63.8.91.88.85,2.11.97,3.08.19.74-.59,1.36-1.39,2.01-2.08.74-.79,1.66-1.56,2.25-2.47.66-1.03.26-1.99-.42-2.87s-1.33-1.72-1.99-2.58c-1.26-1.64-2.53-3.27-3.79-4.91-.69-.89-1.33-1.91-2.13-2.72-.91-.93-2.23-.97-3.27-.24-.84.59-1.58,1.32-2.41,1.93-.92.67-1.88,1.29-2.87,1.87-1.8,1.06-.17,3.87,1.64,2.81h0Z"/>
      <path class="cls-10" d="M92.34,56.48c1.19,1.09,2.45,2.1,3.77,3.03.31.22.63.43.94.64.16.1.32.21.48.31.32.2.37.4.2-.24s-.11-.44-.34-.11c-.12.17-.24.35-.37.52-.27.39-.55.78-.82,1.17-.98,1.39-1.95,2.77-2.93,4.16-.52.74-1.04,1.47-1.56,2.21-.24.35-.49.69-.73,1.04-.15.21-.47.83-.6.92l.82-.22c-.23,0-.76-.4-1.02-.53-.44-.21-.87-.42-1.31-.64-.39-.19-.78-.38-1.16-.57-.24-.12-.49-.23-.73-.35-.32-.16-.27-.28-.1.04l.22.82c0,.14.17-.22.23-.33.13-.2.25-.4.37-.6.31-.5.62-1,.93-1.5.76-1.23,1.53-2.47,2.29-3.7,1.32-2.13,2.63-4.26,3.96-6.39,1.11-1.78-1.7-3.41-2.81-1.64-2.45,3.94-4.88,7.88-7.32,11.82-.21.33-.44.66-.62,1.01-.57,1.14-.28,2.37.8,3.06.79.51,1.72.86,2.57,1.27.94.46,1.96,1.15,2.97,1.4,1.37.34,2.13-.59,2.83-1.59.61-.87,1.22-1.73,1.83-2.6,1.19-1.69,2.38-3.38,3.57-5.07.63-.89,1.45-1.8,1.88-2.8.53-1.22,0-2.36-1.02-3.1-1.7-1.22-3.4-2.32-4.95-3.74s-3.84.88-2.3,2.3h0Z"/>
      <path class="cls-10" d="M105.64,76.1c.14,1.68.38,3.36.74,5.01.09.39.18.78.28,1.16.03.12.06.46.14.55.04.26.13.16.27-.28.33-.33.37-.45.12-.36-.25-.08-.93.2-1.2.26-.47.1-.93.2-1.4.3-1.66.36-3.31.71-4.97,1.07s-3.47.84-5.22,1.1h.86l-.24-.04.72.42c.06.04-.03.01-.06-.15-.05-.24-.19-.48-.28-.71-.18-.47-.37-.95-.55-1.42-.34-.88-.85-1.82-1-2.75v.86h0c-.19.2-.39.39-.58.58.28-.2.83-.27,1.22-.38.55-.15,1.11-.31,1.66-.46,1.41-.39,2.81-.78,4.22-1.17,2.45-.68,4.89-1.36,7.34-2.03,2.01-.55,1.16-3.69-.86-3.13-4.47,1.23-8.94,2.48-13.41,3.72-.35.1-.72.18-1.07.3-1.17.41-1.91,1.43-1.62,2.7.2.89.65,1.77.99,2.63.38.97.71,2,1.16,2.94.51,1.07,1.51,1.4,2.64,1.19,1.04-.19,2.07-.44,3.11-.67,2.07-.44,4.14-.89,6.22-1.33,1.95-.42,5.39-.52,5.23-3.28-.06-1.07-.5-2.16-.71-3.22-.22-1.13-.38-2.27-.47-3.41-.07-.87-.69-1.62-1.62-1.62-.82,0-1.7.75-1.62,1.62h0Z"/>
      <path class="cls-10" d="M29.44,102.6c-.62-1.57-1.32-3.1-2.15-4.57-.2-.35-.4-.69-.61-1.03-.07-.11-.19-.42-.3-.48-.11-.23-.18-.12-.21.33-.25.4-.26.53-.05.37.27,0,.83-.46,1.07-.6.42-.23.83-.46,1.25-.69,1.48-.82,2.96-1.65,4.45-2.47s3.08-1.81,4.67-2.58l-.82.22-.02-.02-.72-.42c.69.59,1.21,1.47,1.77,2.18s1.3,1.43,1.69,2.24l-.22-.82.02-.02.42-.72c-.23.29-.66.49-1,.71-.49.31-.97.62-1.46.93-1.25.79-2.49,1.58-3.73,2.37-2.14,1.36-4.29,2.73-6.43,4.08-1.76,1.11-.13,3.93,1.64,2.81,3.92-2.48,7.83-4.97,11.74-7.45.42-.27.9-.52,1.27-.86.85-.77,1.04-1.89.46-2.89-.48-.82-1.23-1.58-1.81-2.32-.62-.79-1.2-1.7-1.91-2.42-.79-.8-1.8-.78-2.75-.3s-1.95,1.08-2.92,1.62c-1.81,1-3.61,2-5.42,3.01s-5,2.05-4.11,4.65c.36,1.05,1.15,2.01,1.67,3s.99,1.98,1.39,3c.32.82,1.09,1.39,2,1.13.78-.21,1.46-1.18,1.13-2h0Z"/>
      <path class="cls-10" d="M191.97,125.32c.02,8.56-5.55,17.69-13.34,21.34-1.89.89-.24,3.69,1.64,2.81,8.78-4.12,14.97-14.52,14.95-24.14,0-2.09-3.25-2.09-3.25,0h0Z"/>
      <path class="cls-10" d="M179.69,146.32c-.11-.05-.2-.1-.29-.18l.33.25c-.09-.07-.17-.16-.24-.25l.25.33c-.07-.09-.12-.19-.17-.3l.16.39c-.04-.11-.07-.22-.09-.33l.06.43c-.01-.12-.01-.23,0-.34l-1.62,1.62s.07,0,.1,0l-.43-.06s.06.02.09.03l-.39-.16s.08.05.12.08l-.33-.25s.07.07.11.11l-.25-.33c.09.12.16.24.21.38l-.16-.39c.35.84.68,1.69,1.07,2.52.17.37.36.73.55,1.09.18.34.45.63.78.83.67.41,1.58.26,2.12-.29.45-.45.59-1.12.45-1.72-.1-.42-.32-.7-.59-1.02s-.63-.6-.99-.82c-.66-.4-1.45-.66-2.2-.82-.85-.19-1.75-.11-2.39.55-.32.33-.51.75-.57,1.2-.09.63.12,1.14.53,1.62.35.42,1.07.58,1.58.42.85-.27,1.56-.69,2.24-1.26.3-.25.48-.77.48-1.15,0-.4-.18-.87-.48-1.15s-.72-.5-1.15-.48-.8.19-1.15.48c-.05.04-.11.09-.16.13l.33-.25c-.3.23-.62.41-.96.56l.39-.16c-.13.05-.26.1-.39.15l1.58.42-.03-.04.25.33-.02-.04.16.39s-.02-.06-.03-.09l.06.43s0-.06,0-.09l-.06.43c0-.05.02-.09.04-.14l-.16.39s.03-.06.05-.09l-.25.33s.07-.07.11-.11l-.33.25s.06-.04.09-.05l-.39.16c.06-.02.12-.04.19-.05l-.43.06c.09,0,.17,0,.26,0l-.43-.06c.51.08,1.04.25,1.52.44l-.39-.16c.28.12.55.27.79.45l-.33-.25c.16.13.3.27.42.43l-.25-.33s.06.09.08.14l-.16-.39s.02.06.03.1l-.06-.43s0,.06,0,.09l.06-.43v.04c.12-.24.26-.48.4-.72l-.03.03.33-.25-.04.02.39-.16h-.05c.29,0,.58,0,.86,0h-.05c.13.04.26.1.39.15l-.05-.03.33.25-.04-.04.25.33c-.25-.34-.42-.77-.6-1.15-.19-.4-.37-.81-.55-1.21l.16.39c-.22-.51-.39-1.06-.64-1.55-.38-.74-1.13-1.25-1.97-1.25-.4,0-.88.18-1.15.48l-.25.33c-.15.25-.22.53-.22.82-.06.55.12,1.17.39,1.65s.71.93,1.21,1.15c.41.18.8.29,1.25.16.38-.1.79-.4.97-.75.2-.38.3-.83.16-1.25-.12-.38-.37-.8-.75-.97h0Z"/>
      <path class="cls-10" d="M162.81,42.52c-6.4,0-12.16,4.13-14.35,10.12s-.34,12.79,4.42,16.83,12.09,4.88,17.66,1.58,8.26-9.57,7.28-15.8c-1.14-7.32-7.71-12.64-15.02-12.73-2.09-.03-2.09,3.22,0,3.25,5.16.07,9.88,3.38,11.43,8.37s-.05,10.01-3.92,13.14-9.49,3.47-13.74.88-6.54-7.81-5.53-12.72c1.14-5.56,6.06-9.67,11.76-9.67,2.09,0,2.09-3.25,0-3.25Z"/>
      <path class="cls-10" d="M203.8,58.95c-6.4,0-12.16,4.13-14.35,10.12s-.34,12.79,4.42,16.83,12.09,4.88,17.66,1.58,8.26-9.57,7.28-15.8c-1.14-7.32-7.71-12.64-15.02-12.73-2.09-.03-2.09,3.22,0,3.25,5.16.07,9.88,3.38,11.43,8.37s-.05,10.01-3.92,13.14-9.49,3.47-13.74.88-6.54-7.81-5.53-12.72c1.14-5.56,6.06-9.67,11.76-9.67,2.09,0,2.09-3.25,0-3.25Z"/>
      <path class="cls-10" d="M160.9,147.26c-6.61,0-13.23,0-19.84,0-2.09,0-2.09,3.25,0,3.25,6.61,0,13.23,0,19.84,0,2.09,0,2.09-3.25,0-3.25h0Z"/>
      <path class="cls-10" d="M135.87,147.42h-.16c-.22,0-.43.04-.63.14-.2.07-.38.18-.52.34-.16.15-.27.32-.34.52-.1.19-.15.4-.14.63l.06.43c.08.28.22.51.42.72l.33.25c.25.15.53.22.82.22h.16c.22,0,.43-.04.63-.14.2-.07.38-.18.52-.34.16-.15.27-.32.34-.52.1-.19.15-.4.14-.63l-.06-.43c-.08-.28-.22-.51-.42-.72l-.33-.25c-.25-.15-.53-.22-.82-.22h0Z"/>
      <path class="cls-10" d="M50.19,39.03c1.45,0,1.45-2.25,0-2.25s-1.45,2.25,0,2.25h0Z"/>
      <path class="cls-10" d="M61.26,39.03c20.28,0,40.56,0,60.85,0,5.82,0,11.64,0,17.46,0,1.45,0,1.45-2.25,0-2.25-20.28,0-40.56,0-60.85,0-5.82,0-11.64,0-17.46,0-1.45,0-1.45,2.25,0,2.25h0Z"/>
      <path class="cls-10" d="M145.71,39.03c1.45,0,1.45-2.25,0-2.25s-1.45,2.25,0,2.25h0Z"/>
      <path class="cls-10" d="M168.01,53.36l.17.17c.1.11.22.19.36.23.13.07.28.1.43.1.15,0,.3-.03.43-.1.14-.05.26-.12.36-.23l.18-.23c.1-.18.15-.36.15-.57l-.04-.3c-.05-.19-.15-.36-.29-.5l-.17-.17c-.1-.11-.22-.19-.36-.23-.13-.07-.28-.1-.43-.1-.15,0-.3.03-.43.1-.14.05-.26.12-.36.23l-.18.23c-.1.18-.15.36-.15.57l.04.3c.05.19.15.36.29.5h0Z"/>
      <path class="cls-10" d="M168.76,57.72c.15,1.5.18,3.13-.35,4.44-.19.47-.56,1.03-.89,1.38-.11.11-.22.21-.33.31-.04.03-.13.11-.04.04-.06.05-.12.09-.19.13-.14.09-.29.17-.44.25-.17.09.13-.05-.04.02-.09.04-.18.06-.27.09-.58.18-.95.78-.79,1.38.16.57.8.97,1.38.79,1.58-.5,2.86-1.73,3.54-3.24.79-1.77.86-3.7.67-5.6-.06-.6-.47-1.12-1.12-1.12-.56,0-1.19.52-1.12,1.12h0Z"/>
      <path class="cls-10" d="M194.71,77.12c.63,2.3,2.15,4.31,4.18,5.55.5.31,1.26.13,1.54-.4s.13-1.21-.4-1.54c-.21-.13-.42-.27-.62-.42-.17-.12.13.1.02.01-.05-.04-.1-.08-.15-.12-.1-.08-.19-.16-.28-.25-.18-.17-.36-.35-.53-.53-.08-.09-.17-.19-.25-.28-.04-.05-.08-.1-.12-.15-.09-.11.16.22.02.02-.29-.4-.55-.81-.77-1.25-.06-.11-.11-.23-.16-.34-.06-.13.09.22.01.03-.02-.06-.05-.12-.07-.18-.09-.25-.17-.5-.24-.75-.16-.57-.81-.97-1.38-.79s-.95.78-.79,1.38h0Z"/>
      <path class="cls-10" d="M203.64,83.99c1.45,0,1.45-2.25,0-2.25s-1.45,2.25,0,2.25h0Z"/>
      <path class="cls-10" d="M80.77,93.13l.17.35c.07.13.17.24.29.32.11.1.24.17.38.2.15.05.3.05.45.02.15,0,.29-.05.42-.13l.23-.18c.14-.14.24-.31.29-.5l.04-.3c0-.2-.05-.39-.15-.57l-.17-.35c-.07-.13-.17-.24-.29-.32-.11-.1-.24-.17-.38-.2-.15-.05-.3-.05-.45-.02-.15,0-.29.05-.42.13l-.23.18c-.14.14-.24.31-.29.5l-.04.3c0,.2.05.39.15.57h0Z"/>
      <path class="cls-10" d="M82.75,99.95c1.27,3.4,2.55,6.81,3.82,10.21.21.57.76.96,1.38.79.55-.15,1-.81.79-1.38-1.27-3.4-2.55-6.81-3.82-10.21-.21-.57-.76-.96-1.38-.79-.55.15-1,.81-.79,1.38h0Z"/>
      <path class="cls-10" d="M46.33,112.82v.11c0,1.45,2.25,1.45,2.25,0v-.11c0-1.45-2.25-1.45-2.25,0v.11c0,1.45,2.25,1.45,2.25,0v-.11c0-1.45-2.25-1.45-2.25,0h0Z"/>
      <path class="cls-10" d="M51.02,108.81c1.61-4.32,3.5-8.52,5.63-12.61.67-1.28-1.27-2.42-1.94-1.14-2.22,4.26-4.18,8.65-5.86,13.15-.21.57.24,1.23.79,1.38.63.17,1.17-.21,1.38-.79h0Z"/>
      <path class="cls-10" d="M57.15,92.82c1.45,0,1.45-2.25,0-2.25s-1.45,2.25,0,2.25h0Z"/>
      <path class="cls-10" d="M33.95,141.48c1.45,0,1.45-2.25,0-2.25s-1.45,2.25,0,2.25h0Z"/>
      <path class="cls-10" d="M40.53,141.48c6.12,0,12.24,0,18.35,0,1.45,0,1.45-2.25,0-2.25-6.12,0-12.24,0-18.35,0-1.45,0-1.45,2.25,0,2.25h0Z"/>
      <path class="cls-10" d="M199.23,141.22v-.11c0-1.45-2.25-1.45-2.25,0v.11c0,1.45,2.25,1.45,2.25,0v-.11c0-1.45-2.25-1.45-2.25,0v.11c0,1.45,2.25,1.45,2.25,0h0Z"/>
      <path class="cls-10" d="M203.47,142.51c5.14,0,10.27,0,15.41,0,1.45,0,1.45-2.25,0-2.25-5.14,0-10.27,0-15.41,0-1.45,0-1.45,2.25,0,2.25h0Z"/>
      <path class="cls-10" d="M223.63,142.51c1.45,0,1.45-2.25,0-2.25s-1.45,2.25,0,2.25h0Z"/>
    </g>
  </g>
</svg>