<?xml version="1.0" encoding="UTF-8"?>
<svg xmlns="http://www.w3.org/2000/svg" viewBox="0 0 200 200">
  <defs>
    <style>
      .cls-1 {
        fill: #f2cb86;
      }

      .cls-2 {
        fill: #bed37d;
      }

      .cls-3 {
        fill: #f2b806;
      }

      .cls-4 {
        fill: #f7f5d7;
      }

      .cls-5 {
        opacity: .15;
      }

      .cls-5, .cls-6 {
        fill: #bb987c;
      }

      .cls-7 {
        fill: #f9f7dc;
      }

      .cls-8 {
        fill: #f4e08e;
      }

      .cls-9 {
        fill: #edabac;
      }

      .cls-10 {
        fill: #c00000;
      }

      .cls-11 {
        fill: #fefde1;
      }

      .cls-12 {
        fill: #edd98a;
      }

      .cls-13 {
        fill: #a0a0a0;
      }

      .cls-14 {
        fill: #e5e1c6;
      }

      .cls-15 {
        fill: #a8caef;
      }

      .cls-16 {
        fill: #fff;
      }

      .cls-17 {
        opacity: .24;
      }

      .cls-18 {
        fill: #ecbe6b;
      }

      .cls-19 {
        fill: #efecd0;
      }

      .cls-20 {
        fill: #b20404;
      }

      .cls-21 {
        fill: #ede9ca;
      }
    </style>
  </defs>
  <g id="Colour">
    <g class="cls-17">
      <path class="cls-6" d="M100,169.1c38.59-12.14,96.24-53.69,89.23-99.14-7.06-34.62-50.97-50.34-78.7-30.05-3.04,2.23-6.75,3.35-10.52,3.35h0c-3.77,0-7.48-1.12-10.52-3.35-27.73-20.28-71.64-4.57-78.7,30.05-7.02,45.45,50.63,87,89.23,99.14"/>
    </g>
    <path class="cls-5" d="M64.08,94.49c-4.8,2.69-10.98,1.19-16.03.08-5.08-1.11-10.19-2.81-13.93-6.59-1.47-1.49-3.77.81-2.3,2.3,4.22,4.28,9.99,6.28,15.75,7.51,3.7.79,7.71,1.62,11.57,1.36-.47.64-.9,1.32-1.28,2.03-.37.68-.68,1.4-.97,2.12-.08.2-.15.42-.21.64-.09-.4-.23-.79-.41-1.18-.06-.14-.13-.29-.19-.43-.02-.04-.1-.24-.11-.28-.03-.09-.07-.18-.09-.27-.01-.05-.02-.1-.03-.14,0-.03,0-.06,0-.1-.02-.85-.73-1.67-1.62-1.62-.86.04-1.65.71-1.62,1.62.02.78.25,1.44.56,2.15.06.14.13.29.19.43.03.06.05.1.06.12,0,.02.01.04.02.07.03.09.06.18.09.27-.23-.04-.45-.06-.68-.06-1.45.05-2.47,1.05-3.28,2.14-.8,1.08-1.55,2.2-2.32,3.29-.4.58-.24,1.45.24,1.95-2.4,2.07-4.67,4.29-6.77,6.67-.54-.84-1.19-1.62-1.83-2.4-8.75-10.69-16.09-23.36-17.23-37.4-.63-7.83.7-15.64,4.4-22.61,3.58-6.76,8.76-12.46,14.1-17.86,1.47-1.49-.83-3.79-2.3-2.3-1.04,1.05-2.06,2.11-3.07,3.19-.44-.85-1.64-1.34-2.6-.5-.78.68-1.57,1.37-2.35,2.05-.36.32-.51.68-.52,1.04-2.02,2.22-4,4.51-5.86,6.88-.6-.24-1.37-.19-1.78.34-3.87,4.96-6.85,10.49-8.79,16.48-.2.63-.03,1.14.32,1.49-.81,2.52-1.4,5.14-1.7,7.85-.43,3.85-.11,7.72.38,11.55.44,3.5,1.07,6.95,2.1,10.32,1.85,6.05,4.73,11.76,8.28,16.99,3.66,5.39,7.98,10.32,12.72,14.79,1.02.97,2.32,2.27,3.79,1.23,1.3-.92,2.13-3.13,2.65-4.57.34-.96.53-1.99.49-3.01,3.65-4.42,7.91-8.36,12.61-11.63,1.21-.84,2.63-1.54,3.67-2.59,1.12-1.12,1.37-2.64,1.98-4.04,1.16-2.68,3.13-4.95,5.57-6.55,1.74-1.14.2-3.84-1.64-2.81Z"/>
    <path class="cls-5" d="M189.22,83.26c-.02-.71-.5-1.22-1.08-1.46.58-2.54.94-5.14.97-7.8.06-4.6-.99-9.04-3.01-13.17-1.87-3.81-4.43-7.22-7.01-10.57-.6-.83-1.24-1.63-1.91-2.41-.44-1.25-.9-2.49-1.42-3.71-.51-1.19-1.79-1-2.49-.23-2.43-2.12-5.11-3.96-7.97-5.46-10.03-5.26-22.01-6.77-33.2-5.69-3.36.33-6.57,1.05-9.68,2.39-2.75,1.18-5.38,2.62-8.27,3.4-.63-.56-1.63-.55-2.24.05-.44.44-.57,1.1-.38,1.67-.51.51-.69,1.36-.29,1.99,1.09,1.69,2.13,3.43,3.09,5.2.47.87.92,1.75,1.37,2.64.46.91,1.12,1.7,2.14,1.97.92.24,2.19-.48,2.06-1.57-.4-3.34-1.58-6.5-3.47-9.23,4.43-1.46,8.41-4.06,13.09-4.9,5.35-.96,11.09-.82,16.48-.24,10.03,1.08,19.92,4.84,27.1,12.09.44.44.86.9,1.28,1.36,5.56,16.39,2.72,34.69-6.04,49.51-1.29,2.18-2.69,4.29-4.2,6.31-.71.96-1.46,1.9-2.22,2.82-.4.49-.81.97-1.23,1.44-.18.2-.36.44-.56.63-.08.08-.16.16-.24.24-.03.02-.04.03-.07.04-.57-.17-1.1,0-1.49.35-2.85-2.82-6.04-5.31-9.51-7.36-.08-.05-.16-.08-.24-.11-.11-8.57-2.53-17.53-9.15-23.03,10.09-2.42,18.59-10.52,21.01-20.75.48-2.03-2.65-2.9-3.13-.86-2.41,10.2-11.69,18.27-22.19,19.04-1.51.11-2.34,2.21-.82,3.03,9.31,5,11.49,16.18,10.97,25.87-.06,1.14,1.15,1.83,2.14,1.52.04.02.07.04.13.07.22.2.44.39.66.59.33.3.66.6.98.9.76.7,1.51,1.42,2.25,2.14,1.53,1.5,3.01,3.06,4.44,4.66,2.82,3.16,5.41,6.49,7.79,9.99.77,1.13,2.23.81,2.83-.02.75-.1,1.48-.76,1.54-1.59.22-.14.43-.32.6-.54,3.33-4.33,6.24-8.95,8.89-13.72,1.09-.1,2.1-.94,2-2.23-.01-.15-.05-.29-.09-.42,3.57-5.41,6.33-11.35,8.13-17.57.97-2.32,1.7-4.71,1.63-7.28Z"/>
    <path class="cls-16" d="M41.57,70.74c-3.86-2.46-6.37-6.29-4.96-10.92,1.31-4.31,5.02-7.7,8.84-9.83,4.17-2.33,8.76-3.15,13.4-1.96,3.88.99,7.4,3.01,10.65,5.31,7.03,4.99,12.91,11.41,19.88,16.5,6.58,4.8,14.41,7.95,22.57,5.55,5.04-1.49,9.46-4.61,13.31-8.11,1.27-1.16,2.49-2.38,3.67-3.63,1.28-1.37,2.69-2.77,3.72-4.35,1.89-2.88,3.38-6.01,5.45-8.78,1.64-2.2,3.76-4.2,6.36-5.18,2.33-.88,4.84-1.13,7.32-.99,4.62.26,9.91,2.01,12.84,5.8,1.39,1.8,1.81,4,2.21,6.18.37,2,.57,4.05.44,6.09-.26,4.16-2.32,7.67-5.35,10.44-2.12,1.94-4.58,3.48-7.1,4.84-2.68,1.45-5.62,2.44-8.24,4.01-3.57,2.13-9.73,7.32-5.52,11.72,1.71,1.79,4.65,2.31,7.01,2.32,2.67,0,5.32-.6,7.91-1.16,2.42-.52,4.89-1.08,7.38-.95,1.05.06,2.12.28,3.05.77.48.25.92.55,1.32.91.21.2.41.41.61.62.1.1.21.22.29.34-.19-.27-.06-.13,0,.09.61,1.97,1.19,3.89.35,5.89-.63,1.5-1.97,2.71-3.35,3.6-3.73,2.4-8.2,3.48-12.42,4.67-1.87.53-3.75,1.05-5.57,1.74-1.94.74-1.1,3.88.86,3.13,4.19-1.6,8.62-2.44,12.84-3.96,3.97-1.43,8.57-3.5,10.46-7.56.98-2.1,1.06-4.4.52-6.63-.33-1.37-.82-2.67-1.78-3.72-.89-.97-1.98-1.74-3.19-2.26-5.06-2.18-10.79.05-15.89.91-2.26.38-4.81.62-6.97-.34-.84-.38-1.69-.95-1.55-1.97.13-.94.94-1.84,1.58-2.5,1.65-1.71,3.73-3.03,5.9-3.98,3.31-1.44,6.57-3,9.58-4.99,4.2-2.76,7.96-6.36,9.63-11.21,1.47-4.27.99-8.92.03-13.24-.55-2.49-1.43-4.66-3.15-6.58s-3.93-3.3-6.25-4.3c-4.93-2.11-10.86-2.75-16.02-1.08-6.54,2.11-9.87,8.12-13.17,13.68-1.89,3.2-4.48,5.89-7.17,8.45-2.16,2.05-4.47,3.95-7.02,5.5-3.73,2.27-7.91,3.68-12.31,3.35-3.82-.29-7.47-1.95-10.71-3.99-7.53-4.74-13.59-11.47-20.61-16.87s-16.13-9.96-25.36-6.74c-8.49,2.96-18.78,12.74-13.63,22.49,1.27,2.41,3.39,4.25,5.66,5.7,1.77,1.13,3.4-1.68,1.64-2.81h0Z"/>
    <path class="cls-16" d="M42.69,88.06c-6,2.37-10.81,7.03-13.27,13.01-1.36,3.3-2.14,7.17,0,10.32,1.93,2.84,5.03,4.71,8.24,5.78,4.19,1.38,8.69,1.31,13.03,1,2.07-.15,2.09-3.4,0-3.25-4.07.29-8.24.41-12.17-.88-3.26-1.08-7.45-3.63-7.21-7.55.2-3.34,2.08-6.83,4.18-9.36s4.91-4.69,8.06-5.93c1.92-.76,1.08-3.9-.86-3.13h0Z"/>
    <path class="cls-3" d="M101.53,75.37c-.13-.39-.37-.77-.75-.97-.13-.05-.26-.11-.39-.16-.29-.08-.58-.08-.86,0-.93.16-1.85.39-2.75.68-.4.13-.75.38-.97.75-.2.35-.29.86-.16,1.25.13.39.37.77.75.97s.84.3,1.25.16c.9-.3,1.82-.53,2.75-.68.38-.06.78-.43.97-.75.2-.35.29-.86.16-1.25Z"/>
    <path class="cls-3" d="M85.89,51.35c-.07-.2-.18-.38-.34-.52-.11-.08-.22-.17-.33-.25-.25-.15-.53-.22-.82-.22l-.43.06c-.28.08-.51.22-.72.42-.25.29-.51.58-.76.87-.16.15-.27.32-.34.52-.1.19-.15.4-.14.63,0,.22.04.43.14.63.07.2.18.38.34.52.11.08.22.17.33.25.25.15.53.22.82.22l.43-.06c.28-.08.51-.22.72-.42.25-.29.51-.58.76-.87.16-.15.27-.32.34-.52.1-.19.15-.4.14-.63,0-.22-.04-.43-.14-.63Z"/>
    <path class="cls-3" d="M74.54,67.48c-.05-.21-.15-.4-.29-.55-.11-.18-.27-.32-.46-.42-.35-.2-.86-.29-1.25-.16-.39.13-.77.37-.97.75-.05.13-.11.26-.16.39-.07.27-.07.54,0,.81.02.24.02.49,0,.73-.05.24-.11.48-.2.71-.07.15-.12.3-.13.47-.05.22-.04.43.03.65.1.38.4.79.75.97.38.2.83.3,1.25.16.38-.12.8-.37.97-.75.14-.31.29-.64.38-.97.1-.35.14-.7.19-1.06.07-.58,0-1.16-.1-1.73Z"/>
    <path class="cls-3" d="M76.84,80.7c-.05-.22-.08-.43-.11-.65-.05-.4-.08-.79-.08-1.19,0-.42-.18-.85-.48-1.15-.15-.16-.32-.27-.52-.34-.19-.1-.4-.15-.63-.14-.42.02-.86.16-1.15.48-.29.32-.48.71-.48,1.15.01.91.12,1.82.32,2.71.05.21.15.4.29.55.11.18.27.32.46.42.19.12.39.18.6.19.22.05.43.04.65-.03.39-.13.77-.37.97-.75.05-.13.11-.26.16-.39.08-.29.08-.58,0-.86Z"/>
    <path class="cls-3" d="M91.69,93.62c-.22-.34-.56-.66-.97-.75-1.13-.24-2.29-.37-3.45-.36-.42,0-.85.18-1.15.48-.28.28-.49.74-.48,1.15.02.42.16.86.48,1.15.32.29.71.48,1.15.48.59,0,1.18.04,1.76.1.27.04.55.08.82.14.43.09.87.06,1.25-.16.34-.2.66-.58.75-.97.09-.42.07-.88-.16-1.25Z"/>
    <path class="cls-3" d="M120.43,83.92c0-.22-.07-.42-.19-.6-.1-.19-.24-.34-.42-.46-.16-.14-.34-.24-.55-.29-.42-.09-.88-.07-1.25.16-.11.08-.22.17-.33.25-.2.2-.34.44-.42.72-.28.76-.57,1.52-.85,2.27-.07.22-.08.43-.03.65.01.22.07.42.19.6.1.19.24.34.42.46.16.14.34.24.55.29.42.09.88.07,1.25-.16.11-.08.22-.17.33-.25.2-.2.34-.44.42-.72.28-.76.57-1.52.85-2.27.07-.22.08-.43.03-.65Z"/>
    <path class="cls-3" d="M123.32,70.62c-.26-.69-.57-1.37-.97-2-.22-.35-.56-.63-.97-.75-.22-.07-.43-.08-.65-.03-.22,0-.42.07-.6.19-.11.08-.22.17-.33.25-.2.2-.34.44-.42.72l-.06.43c0,.29.07.57.22.82.25.39.46.79.64,1.21,0,0,0,0,0,0,.05.21.15.4.29.55.11.18.27.32.46.42.19.12.39.18.6.19.22.05.43.04.65-.03.13-.05.26-.11.39-.16.24-.14.44-.34.58-.58.05-.13.11-.26.16-.39.08-.29.08-.58,0-.86Z"/>
    <path class="cls-3" d="M120.55,61.8c-.08-.28-.22-.51-.42-.72-.57-.6-1.2-1.12-1.86-1.61-.19-.12-.39-.18-.6-.19-.22-.05-.43-.04-.65.03-.21.05-.4.15-.55.29-.18.11-.32.27-.42.46-.05.13-.11.26-.16.39-.08.29-.08.58,0,.86.05.13.11.26.16.39.13.22.3.39.51.53.45.36.88.74,1.28,1.16.15.16.32.27.52.34.19.1.4.15.63.14.22,0,.43-.04.63-.14.2-.07.38-.18.52-.34.08-.11.17-.22.25-.33.15-.25.22-.53.22-.82-.02-.14-.04-.29-.06-.43Z"/>
    <path class="cls-3" d="M107.53,49.66c-.08-.11-.17-.22-.25-.33-.2-.2-.44-.34-.72-.42-.5-.09-1-.18-1.5-.27-.22-.07-.43-.08-.65-.03-.22,0-.42.07-.6.19-.19.1-.34.24-.46.42-.14.16-.24.34-.29.55-.02.14-.04.29-.06.43,0,.29.07.57.22.82l.25.33c.2.2.44.34.72.42.5.09,1,.18,1.5.27.22.07.43.08.65.03.22,0,.42-.07.6-.19.19-.1.34-.24.46-.42.14-.16.24-.34.29-.55.02-.14.04-.29.06-.43,0-.29-.07-.57-.22-.82Z"/>
    <path class="cls-3" d="M97.64,49.01c-.08-.28-.22-.51-.42-.72-.11-.08-.22-.17-.33-.25-.25-.15-.53-.22-.82-.22h-1.51c-.22,0-.43.04-.63.14-.2.07-.38.18-.52.34-.16.15-.27.32-.34.52-.1.19-.15.4-.14.63.02.14.04.29.06.43.08.28.22.51.42.72.11.08.22.17.33.25.25.15.53.22.82.22h1.51c.22,0,.43-.04.63-.14.2-.07.38-.18.52-.34.16-.15.27-.32.34-.52.1-.19.15-.4.14-.63-.02-.14-.04-.29-.06-.43Z"/>
    <path class="cls-4" d="M111.27,122.82c-1.72-.36-3.46.29-5.05-.61-1.42-.8-2.83-1.27-4.22-.64-.48-.07-1,.04-1.4.38-2.69,2.29-3.02,6.39-3.39,9.67-.42,3.76-.17,7.51,1.47,10.97.14.3.33.5.55.63.42,2.05.99,4.06,1.72,6.03.53,1.42,2.36,1.35,3.01.43,6.09-4.03,10.06-10.72,10.8-17.99.32-3.15.45-8.05-3.49-8.88Z"/>
    <g>
      <path class="cls-15" d="M81.5,53.71s-.02-.03-.02-.04c0,.01,0,.02.01.03,0,0,0,0,.01.01Z"/>
      <path class="cls-15" d="M82.23,51.16c-.1.07-.16.16,0,0h0Z"/>
      <path class="cls-11" d="M114.42,51.76c-.09-.54-.28-1.09-.62-1.54.35-.39.49-.93.38-1.51-.49-2.44-2.01-4.7-4.06-6.15-2.76-4.98-7.19-8.8-12.13-11.55-2.65-1.47-5.44-2.67-8.28-3.73-2.97-1.11-6.08-1.95-9.27-1.72-.92.07-1.56.69-1.62,1.62-.13,1.91-.29,3.86-.71,5.75-.07-.03-.13-.06-.2-.07-.88-.2-1.73.27-2,1.13-.08.25-.16.5-.25.75-.08.23-.21.47-.28.71-.01.03-.03.06-.04.09-.05.12-.11.24-.17.36-.11.24-.23.48-.36.71-.25.47-.52.92-.81,1.36-.15.22-.3.44-.45.65-.07.09-.16.19-.22.29-.02.03-.05.06-.07.09-.28.35-.48.68-.48,1.15,0,.4.18.87.48,1.15.09.08.19.15.3.21-.26.37-.51.74-.76,1.11-3.08,4.74-4.09,10.43-2.86,15.94.03.12.06.22.11.32-.16.17-.29.38-.36.64-.21.77.26,1.87,1.14,2,1.81.27,3.58.73,5.29,1.38.8.31,1.58.67,2.33,1.06.89.47,1.87,1.31,2.95,1.01.91-.25,1.61-1.24,2.25-1.87.66-.66,1.35-1.29,1.98-1.98.67-.72,1.17-1.53,1.25-2.53.08-1.05-.38-2.02-.89-2.91-.28-.48-.84-.82-1.4-.8-.88.03-1.75.06-2.62.08.04-.45-.09-.91-.45-1.24,0,0-.02-.02-.03-.02.02.04.03.07.03.08,0,0,0,0,0-.01-.01-.02-.02-.04-.03-.06,0,0,0,0,0-.02,0,0,0,0,0,0,0-.01-.01-.02-.02-.04,0,0,0,0,0,0,0,0,.01.02.02.03,0,0,0,0,0-.01,0-.02,0-.05-.01-.07-.02-.3-.02-.6.01-.89.05-.27.11-.53.2-.79,0,0,0,0,0-.02.02-.05.04-.09.07-.13.07-.13.16-.37.29-.46-.05.06-.1.13-.15.19.04-.04.07-.09.11-.13.05-.05.1-.1.15-.15.05-.05.12-.09.16-.14-.04.04-.05.05-.07.08,0,0,.02-.01.03-.02.06-.04.13-.07.19-.11.07-.02.15-.04.22-.05.13,0,.26-.02.39,0,.39.04.89-.21,1.15-.48.28-.28.49-.74.48-1.15,0-.03,0-.05,0-.08.87-.04,1.9.34,2.42,1.1.25.36.32.83.28,1.23-.04.37-.23.82-.48,1-.69.5-1.09,1.42-.58,2.22.67,1.06,1.34,2.11,2.01,3.17.47.74,1.44,1.04,2.22.58.84-.49,1.76-.87,2.73-1,.89-.12,1.6-.65,1.62-1.62.01-.49.07-1.03.08-1.57.17-.01.33-.03.5-.04-.06.1-.11.2-.17.3-.76,1.14.29,2.3,1.4,2.45,3.39.44,6.7.99,9.87,2.32,1.77.74,3.28.26,4.34-1.32.96-1.44,1.82-2.97,2.71-4.45.26-.14.49-.33.63-.6.22-.41.24-.8.16-1.25ZM98.01,48.04c-.07.36-.16.72-.29,1.06-.16.33-.34.64-.55.93-.02.03-.05.06-.07.09-.22.25-.38.53-.44.84-.77.07-1.55.14-2.32.21-.36.03-.7.16-.97.36-.35-.14-.72-.25-1.06-.37-.27-.1-.55-.2-.82-.3-.03-.07-.06-.14-.09-.21-.1-.23-.19-.49-.27-.76.14-.12.27-.27.37-.47.35-.73.7-1.47,1.04-2.2.31-.23.64-.42,1.02-.52,1.5-.39,3.13.25,4.51.81,0,.18-.02.35-.04.53ZM107.98,52.63c-.1.07-.21.13-.31.19-.03,0-.06.02-.09.03-.41,0-.8.18-1.1.46-.66-.4-1.38-.72-2.12-.93-.73-.21-1.48-.34-2.24-.41.11-.3.16-.64.1-1.01.06.39-.01-.21-.01-.28,0-.15,0-.3.02-.46.01-.02.06-.34.07-.4.03-.1.06-.2.1-.29.02-.02.09-.15.15-.25-.01.03.11-.12.19-.22.01.01.25-.17.36-.24.04-.01.28-.11.31-.12.47-.15.94-.28,1.42-.39.1-.02.2-.04.3-.06.39.3.84.52,1.3.66.17.05.35.1.52.16-.01,0,.31.17.36.2.02.01.06.04.09.06.06.05.12.1.17.16.05.05.1.11.15.16.01.02.08.1.11.16.26.42.43.84.76,1.22.16.19.37.34.58.47-.38.4-.78.79-1.2,1.14Z"/>
    </g>
    <path class="cls-8" d="M106.9,71.32c-.25-2.07-1.46-3.72-3.17-4.86-1.83-1.22-4.14-1.68-6.28-2-1.59-.24-3.19-.26-4.61.35-.57-.33-1.31-.37-1.93.19-2.63,2.37-3.71,6.33-2.65,9.71,1.08,3.47,4.27,6.04,7.84,6.53,3.66.5,7.23-1.29,9.31-4.28,1.12-1.61,1.73-3.68,1.5-5.64ZM96.96,78.08c-.27-.01-.53-.05-.79-.1.17-.34.23-.74.12-1.14,0,0-.02-.08-.04-.15,0-.06-.03-.2-.03-.23,0-.11,0-.22.01-.33,0-.02,0-.03.02-.05.03-.11.07-.22.1-.33,0,0,0,0,0-.01,0-.01.01-.02.02-.04.05-.08.09-.16.14-.24.01-.02.02-.03.03-.05.01-.01.02-.02.03-.03.06-.06.12-.13.18-.18,0,0,.06-.06.11-.1.05-.04.14-.11.16-.12.09-.06.18-.11.28-.17.1-.05.19-.1.29-.15.01,0,.02-.01.03-.02,0,0,0,0,0,0,.21-.07.41-.15.63-.21.2-.06.4-.11.6-.15.13-.03.25-.05.38-.07.04,0,.09,0,.13-.01.27-.01.53,0,.79-.01.05,0,.1,0,.15.01.12.02.24.04.35.08.1.03.2.07.3.09,0,0,0,0,0,0,0,0,0,0,.01,0,.07.04.15.08.22.12.04.02.13.09.18.12.1.09.19.18.29.28,0,.01,0,.02.01.03.05.11.12.22.17.33.09.19.23.35.39.47-1.3,1.53-3.27,2.45-5.29,2.34Z"/>
    <g>
      <path class="cls-15" d="M117.7,88.75s.07-.01.11-.02c-.04,0-.1,0-.14.02,0,0,.02,0,.02,0Z"/>
      <path class="cls-11" d="M144.42,97.21c-.03-.51-.25-.89-.56-1.15-.04-1.41-.34-2.77-1.02-4.1-.94-1.85-2.4-3.48-3.78-5.01-1.5-1.66-3.09-3.23-4.72-4.77-1.42-1.35-2.73-3.71-4.77-4.03-2.2-.34-4.51.17-6.7-.25-2.3-.44-4.56-1.03-6.78-1.75-.73-.23-1.43.17-1.83.75-1.55,2.22-3.16,4.39-4.85,6.5-1.15,1.44-3.1,4.75-5.32,4.32-1.73-.34-2.62,1.85-1.6,2.78,0,.02,0,.04,0,.05.63,4.35,3.22,8.1,5.52,11.74,2.13,3.38,4.17,7.95,8.13,9.48,2.12.82,4.52,1.1,6.74,1.53,2.35.45,4.71.85,7.08,1.15,2.3.28,4.61.45,6.93.43,2.16-.02,4.2-.1,5.1-2.39.91-2.29,1.37-4.93,1.81-7.35.49-2.62.76-5.27.6-7.93ZM115.88,84.55c.15-.24.31-.47.48-.7.04-.05.06-.09.08-.11.02-.02.05-.05.08-.1.09-.11.18-.21.28-.32.13-.14.26-.26.38-.39.29.11.62.14,1,.04.72-.19,1.5.01,2.06.74.21.28.36.64.45,1.09.02.12.04.47.03.74,0,.29-.06.56-.12.84-.06.25-.12.51-.18.77-.16.04-.32.09-.46.17-.31.17-.46.39-.66.63,0,0-.02.02-.07.07-.05.05-.09.1-.14.15-.04.04-.09.08-.13.12-.12.07-.22.14-.34.21-.01,0-.06.03-.11.06-.02,0-.05.02-.09.03-.17.06-.34.1-.52.14-.01,0-.05,0-.1.01.06,0,.07,0-.11.02,0,0,0,0,0,0-.03,0-.05.01-.05.02,0,0,.01-.01.03-.02-.18.01-.36.02-.54,0-.11,0-.22-.02-.33-.02-.01,0-.02,0-.03,0-.34-.07-.67-.16-1-.26-.01-.07-.02-.13-.03-.19,0-.03,0-.06,0-.08-.01-.11-.02-.22-.02-.33-.01-.24-.01-.48,0-.73,0-.11.01-.22.02-.33,0-.09.06-.49,0-.09.06-.45.08-.84-.16-1.25-.04-.07-.1-.14-.15-.21.16-.23.31-.47.46-.71Z"/>
    </g>
    <path class="cls-11" d="M98.56,119.65c1.44-1.52-.85-3.82-2.3-2.3-2.73,2.88-3.52,7.13-4.15,10.91-.33,2.01-.72,4.12-.39,6.16.15.95.52,1.83,1.04,2.63.46.71,1,1.33,1.14,2.18.15.87,1.21,1.35,2,1.13.92-.25,1.28-1.13,1.14-2-.26-1.56-1.51-2.54-2-3.97-.55-1.6-.06-3.66.21-5.27.52-3.13,1.03-7.08,3.31-9.48Z"/>
    <path class="cls-2" d="M103.21,151.85c-.95,0-1.54.75-1.62,1.62-.46,4.85-2.71,9.34-2.72,14.26,0,2.09,3.25,2.09,3.25,0,0-4.88,2.26-9.43,2.72-14.26.08-.87-.81-1.62-1.62-1.62Z"/>
    <path class="cls-11" d="M122.68,119.61c-2.61-2.54-6.54-2.09-9.77-1.31-.42.1-.71.32-.9.59-.67.56-.94,1.55-.08,2.27,3.12,2.64,3.72,7.05,3.94,10.9.23,4.11-.19,8.63-2.8,12-.5.65-.66,1.44-.13,2.13.47.61,1.42.87,2.1.42,5.89-3.92,8.83-10.62,9.65-17.47.38-3.2.49-7.12-2.01-9.55Z"/>
    <path class="cls-10" d="M112.8,74.38c-.91-6-3.74-12.81-10.32-14.2-1.56-.52-3.26-.67-4.95-.65-.06-.3-.19-.58-.45-.78-2.25-1.76-4.89-1.36-7.23.04-1.86,1.11-4,2.63-4.02,4.87-.48.64-.92,1.34-1.29,2.13-2.05,4.28-3.78,9.79-.73,14.04.09.13.21.23.32.33.01.22.06.44.18.64,1.33,2.49,3.47,3.79,5.89,4.38.09.43.32.82.74,1,2.25,1,4.58,1.74,7.02,2.12.45.07.85.07,1.25-.16.34-.2.66-.58.75-.97.05-.21.05-.45,0-.68,3.02-.38,5.9-1.71,8.23-3.68,1.9-1.61,4.35-4.6,4.47-7.41.13-.3.19-.63.13-1ZM105.6,80.07c-.69.94-1.79.98-2.87,1.12-1.31.17-2.61.42-3.91.66-1.56.29-3.4.59-5.19.56-1.46-.62-2.81-1.5-3.92-2.6-1.07-1.05-2-2.32-2.55-3.72-.12-.3-.2-.61-.26-.91.01-1.43.03-2.86.05-4.29,0-.58-.22-1-.55-1.25.34-.9.75-1.78,1.15-2.58.22-.44.47-.84.73-1.21,1.09-.24,1.94-.93,2.81-1.62,1.03-.81,2.15-1.15,3.45-1.28,2.02-.19,4.32-.37,6.35.13.14.07.29.14.48.17.15.03.29.07.44.11,1.1.41,1.86,1.16,2.51,2.11.75,1.09,1.53,2.07,2.43,3.05,1.29,1.41,1.61,3.22,2.16,4.96-.91,2.2-1.89,4.69-3.3,6.59Z"/>
    <path class="cls-1" d="M163.81,127.76c-1.5-1.66-2.95-3.36-4.36-5.09-.03-.16-.09-.32-.18-.47-1.99-3.38-4.46-6.49-7.31-9.19-.37-.35-.91-.51-1.41-.45-1.24-1.59-2.89-2.74-4.86-3.35-.81-.26-1.8.3-2,1.14-.31,1.34-.63,2.68-.94,4.02-.11.48-.15,1.25-.49,1.63-.38.43-1.03.43-1.58.49-2.72.3-5.49.1-8.18-.33-5.47-.88-10.8-2.49-16.33-3.03-.11-.01-.22,0-.31,0-.24-.26-.54-.48-.87-.64-.39-.19-.79-.2-1.19-.34-.34-.13-.47-.35-.71-.66-1.26-1.63-2.51-3.28-3.7-4.96-1.15-1.64-2.24-3.32-3.2-5.07-.92-1.68-2-3.57-2.05-5.52-.02-.8-.6-1.5-1.41-1.6-.71-.08-1.67.35-1.78,1.16-.42,3.05-1.6,5.9-2.69,8.76-.54,1.4-1.04,2.82-1.66,4.18-.63,1.39-1.49,2.66-1.96,4.13-.13.42-.09.79.05,1.1-.38.27-.74.55-1.09.84-1.62,1.34-3.41,3-4.42,4.93-.11,0-.22,0-.33.03-10.23,1.95-20.63,2.84-31.04,2.69.11-4.02.4-8.04.9-12.03.21-1.69-2.26-2.08-3.03-.82-1.18,1.93-2.92,3.39-4.63,4.84-1.87,1.58-3.67,3.23-5.3,5.06-1.62,1.81-3.11,3.75-4.43,5.79-1.31,2.02-2.5,4.18-2.88,6.59-.14.87.22,1.74,1.14,2,.22.06.46.06.69.02,2.47,1.62,4.94,3.24,7.41,4.85,0,.37.15.75.54,1.07,2.67,2.22,5.61,4.07,8.58,5.87.08.36.28.7.64.97,3,2.26,5.97,4.59,9.03,6.78,1.64,1.18,4.34,3.17,6.72,3.19,3.63,1.91,7.28,3.77,11.1,5.28.33.13.68.09,1-.04,3.52,1.88,7.05,3.76,10.57,5.65.83.44,2.22.12,2.39-.97.7-4.66,1.42-9.32,2.16-13.97.14-.87-.22-1.75-1.14-2-.16-.05-.34-.05-.52-.04-.74-1.11-1.47-2.22-2.21-3.32-.49-.73-1.25-.87-1.89-.66-.18-.47-.35-.94-.51-1.41-1.18-3.32-2.31-6.66-3.44-9.99-.09-.27-.25-.49-.45-.67-.35-3.92.05-7.91.52-11.84.48-.13.91-.46,1.12-1.05.3-.86,1.06-1.59,1.66-2.25.74-.8,1.52-1.56,2.36-2.25.67-.55,1.38-1.12,2.28-1.1.54.01.92.09,1.46-.09.42-.14.78-.39,1.17-.57,1.77-.81,3.84-.84,5.72-.45,1.05.22,2.08.55,3.08.95.88.35,1.96.7,2.61,1.42.89.98,2.12.43,2.57-.51.31,0,.62-.06.89-.21.15.06.32.12.51.13,2.02.2,4.01.55,6,.96-.27.66-.13,1.44.7,1.85,2.64,1.3,2.8,4.69,3.03,7.26.23,2.52.34,5.04.34,7.57-.7,1.17-1.36,2.35-2.02,3.54-1.54,2.74-3.17,5.4-5.63,7.41-.18.15-.3.3-.39.47-1.29.85-2.58,1.69-3.9,2.49-1.64.99-3.31,1.92-5.02,2.77-1.52.74-2.87,1.48-3.53,3.14-.63,1.59-.69,3.46-.95,5.15-.32,2.07-.63,4.15-.95,6.22-.13.87.22,1.74,1.13,2,.66.19,1.57-.15,1.89-.81,3.47-1.47,6.83-3.18,10.03-5.16.36.3.84.43,1.39.25,1.07-.35,2.07-.81,3.02-1.34,4.2-1.67,9.1-2.98,11.29-6.86,1.17-.81,2.25-1.74,3.3-2.72,2.88-.02,5.4-1.64,7.66-3.31,2.34-1.73,4.53-3.66,6.66-5.64,4.25-3.97,8.32-8.18,13.27-11.29.92-.58,1.04-1.76.33-2.55Z"/>
    <path class="cls-11" d="M155.61,53.3c-.3-.1-.64-.12-.98-.07-2.07.29-4.38-.46-6.36-.98-2.15-.56-4.28-1.23-6.41-1.87-3.97-1.2-8.23-3.08-12.46-2.66-3.8.38-7.61,1.83-10.93,3.68-3.15,1.76-5.92,4.18-7.72,7.33-.15.27-.21.53-.22.78-.37.05-.72.2-.97.45-.68.68-.55,1.61,0,2.3,1.67,2.1,2.27,4.88,2.75,7.46.26,1.37.31,2.95.93,4.21.82,1.69,2.65,1.77,4.27,1.56.63.44,1.39.72,2.08.95,1.21.39,2.48.6,3.75.65.5.02.99-.25,1.29-.66.07-.01.14-.03.21-.06.25.21.57.35.98.37,3.88.16,7.77.29,11.62-.31,1.8-.28,3.55-.76,5.28-1.35,1.65-.56,3.38-1.06,4.75-2.18,2.53-2.07,4.59-5.07,6.16-7.91,1.67-3.02,2.87-6.29,3.54-9.68.23-1.16-.67-1.94-1.58-2.03ZM118.53,64.92c-.57-.97-1.44-1.73-2.29-2.45-.16-.13-.31-.27-.47-.4.15-.33.21-.7.13-1.1.08.4.02.02,0-.07,0-.02,0-.03,0-.04,0-.02.02-.05.03-.09.01-.05.1-.24.1-.27.04-.06.08-.14.09-.15.03-.04.04-.07.05-.09.01,0,.03-.02.05-.04.07-.06.14-.13.21-.2.03-.02.11-.09.17-.12.08-.05.17-.09.25-.13.04-.01.13-.04.2-.06.02,0,.26-.05.29-.06.24-.02.48-.02.72,0,.03,0,.25.04.3.05.15.03.31.07.46.12.15.05.3.1.45.15.09.04.14.06.15.06.04.02.08.04.13.06.27.13.54.27.8.42.09.05.17.11.26.16-.23.58-.09,1.22.35,1.75-.26-.31.06.11.1.19.01.02.01.02.02.03,0,.01,0,.02,0,.04,0,.02.03.12.06.21,0,.03.03.3.03.35,0,.07,0,.15-.01.22-.03.12-.07.24-.1.34,0,.01,0,.02,0,.03,0,.01-.02.02-.03.04-.04.07-.08.14-.13.21-.18.22-.31.46-.38.72-.54,0-1.08,0-1.62.07-.13.01-.26.04-.38.07ZM123.72,71.99c-.26.43-.46.89-.65,1.36-.06.15-.09.3-.14.45-.14-.01-.29-.02-.43-.04-.94-.14-1.86-.38-2.74-.74-.04-.02-.08-.04-.12-.06-.03-.02-.2-.14-.29-.19h0s-.05-.09-.07-.14c-.08-.16-.2-.3-.34-.42.09-.91.17-1.83.26-2.74.04-.47.08-.95.08-1.41.86-.07,1.73-.06,2.59.03.3.05.6.11.9.17.09.12.17.25.25.38.16.27.32.54.45.82.05.1.1.21.15.32.02.05.04.1.06.15.11.29.2.59.28.89.06.24.11.48.15.72-.15.12-.28.26-.38.43Z"/>
    <path class="cls-11" d="M84.32,83.63c-1.91-2.07-2.48-5.32-2.76-8.03-.32-3.14-.18-6.31-.04-9.45.08-1.78-2.27-2.04-3.02-.78-.28-.51-.63-.96-1.16-1.28-.14-.09-.29-.14-.44-.18-.5-.44-1.07-.79-1.75-1.03-.45-.16-.91-.23-1.36-.25-.01-.61-.35-1.21-1.13-1.49-2.32-.84-4.83-.69-7.25-.15-.34,0-.67,0-1.01,0-2.32.04-4.55.73-6.76,1.39-4.17,1.25-8.25,2.71-11.66,5.52-.69.57-.66,1.31-.28,1.87-1.84,1.27-3.52,2.72-5.05,4.47-2.18,2.49-5.09,6.25-8.89,5.26-1.1-.29-1.85.51-1.99,1.38-.41.61-.44,1.61.18,2.08,3.55,2.74,7.42,5.03,11.53,6.76-.21.52-.15,1.13.39,1.63,3.78,3.5,9.1,3.93,14.02,3.99,5.45.06,10.95-.67,15.81-3.25.16-.08.28-.19.4-.29,2.46-.45,4.89-1.03,7.13-2.21.61-.32,1.2-.7,1.75-1.12.62-.47,1.34-.99,1.74-1.67.07-.12.13-.25.18-.38,1.29.21,2.58-1.54,1.43-2.79ZM73.9,65.9c.09.02.17.05.26.07.03,0,.05.01.07.02.01,0,.02.01.04.02.08.04.16.08.24.13.02,0,.09.05.14.09.04.03.1.08.12.09.09.08.17.16.25.24,0,0,.12.15.15.19.01.02.03.05.04.07.18.64.35,1.28.56,1.92.05.14.11.28.19.4-.36.17-.7.41-.96.7-.34.36-.57.79-.81,1.23-.08.16-.19.31-.27.46,0,0,0,0,0,0-.07.07-.13.14-.2.2-.02.02-.06.05-.09.07-.01,0-.03.02-.04.02-.02.01-.11.06-.19.11,0,0-.18.08-.21.09-.07.02-.15.04-.22.06-.06.02-.13.03-.19.04h0c-.15-.01-.31,0-.46,0-.02,0-.03,0-.04,0-.07-.02-.15-.04-.15-.04-.07-.02-.15-.05-.22-.06-.02,0-.03,0-.04,0-.1-.05-.22-.14-.25-.16-.05-.04-.09-.08-.14-.13-.02-.01-.03-.03-.04-.05-.02-.04-.05-.08-.07-.12,0-.02,0-.04-.02-.08,0-.03-.02-.08-.02-.12,0-.06,0-.11-.01-.16,0-.24,0-.49.01-.73.02-.43.04-.86.07-1.3,0-.04.04-.38.04-.44.04-.24.08-.48.14-.72.05-.21.12-.41.18-.62,0-.03.01-.04.02-.06.03-.06.05-.11.08-.17.08-.16.17-.31.26-.46.02-.04.05-.07.07-.1,0,0,.12-.15.16-.19.05-.05.24-.21.26-.24.11-.07.22-.15.34-.21,0,0,0,0,0,0,.09-.03.19-.06.29-.08.02,0,.08-.01.13-.02.06,0,.14,0,.16,0,.09,0,.18.01.26.01-.35,0-.02,0,.09.03ZM77.67,80.99c-.01.3-.04.6-.07.91-.01.06-.02.12-.03.17-.04.19-.08.37-.14.56-.02.06-.04.11-.06.17-.07.13-.14.25-.21.38.13-.22,0-.04-.08.06-.03.02-.07.04-.1.06-.05,0-.24.06-.24.08-.13.01-.26.01-.39.01,0,0-.05,0-.09,0-.06-.01-.17-.03-.19-.03-.17-.04-.34-.09-.5-.15-.04-.01-.07-.02-.08-.03-.01,0-.03-.02-.08-.05-.15-.08-.31-.17-.46-.26-.05-.04-.11-.07-.16-.11-.15-.13-.29-.26-.43-.41-.05-.05-.1-.11-.15-.17,0,0-.03-.04-.05-.07-.02-.03-.05-.08-.05-.08-.05-.09-.11-.17-.16-.26-.02-.04-.1-.2-.12-.23-.07-.17-.13-.35-.17-.53-.05-.18-.09-.37-.12-.56,0-.04-.03-.28-.03-.32-.03-.4-.02-.81,0-1.21,0-.12.02-.23.03-.35,0,.06.04-.25.05-.33.07-.34.16-.67.28-.99.03-.05.05-.11.08-.16.02-.03.04-.06.05-.09.18.07.36.11.56.11h.86c.18,0,.35-.03.52-.1.6.59,1.2,1.18,1.8,1.77.3.3.72.46,1.14.47.01.06.03.11.04.17-.72.18-1.21.79-1.25,1.57Z"/>
    <path class="cls-21" d="M109.76,116.35c-.6-.42-1.37-.51-2.08-.51-.64,0-1.29,0-1.93,0-1.32,0-2.64,0-3.96,0-.85,0-1.66.75-1.62,1.62.04.88.71,1.63,1.62,1.62,1.1,0,2.19,0,3.29,0,.13.27.31.51.59.66.56.31,1.05.68,1.66.91.59.22,1.32.22,1.91,0,.79-.29,1.4-.87,1.63-1.69.28-1.03-.27-2.04-1.1-2.62Z"/>
    <path class="cls-11" d="M98.77,88.77c-3.95-.96-7.89-1.92-11.84-2.88-.78-.19-1.85.25-2,1.13-.23,1.41-2.77,2.39-3.91,3-1.65.87-3.38,1.57-5.17,2.13-3.31,1.03-6.86,1.84-9.17,4.65-1.5,1.82-2.37,4.01-3.11,6.24-.54.01-1.03.3-1.38.79-2.32,3.25-3.57,7.21-3.64,11.2,0,.32.1.63.27.89-.37.87-.74,1.73-1.12,2.59-.6,1.34.63,2.56,1.7,2.48.27.2.61.33.97.34,2.92.14,5.83.21,8.75.25.26.34.66.58,1.22.59,4.34.05,8.82.09,13-1.29,3.85-1.27,6.9-3.62,9.18-6.97,4.61-6.77,5.77-15.29,7.37-23.14.17-.84-.23-1.78-1.14-2ZM85.16,93.26s.1-.35.14-.48c.01-.04.02-.05.03-.08.04-.08.08-.16.12-.24.03-.06.07-.11.11-.17.03-.03.06-.06.09-.09,0,0,.03-.02.06-.04.02-.01.04-.02.06-.04.01,0,.02,0,.05-.02.08-.02.16-.04.25-.06.04,0,.06-.02.09-.02.01,0,.03,0,.07,0,.54-.05,1.07-.04,1.6-.03.22,0,.42-.03.61-.08.11.35.33.67.69.83.84.39,1.54.83,2.12,1.37.06.06.12.12.17.18-.27.52-.27,1.18.01,1.69-.23.26-.47.52-.72.75-.26.24-.36.34-.8.56-.02,0-.02.01-.03.02-.01,0-.03,0-.05.01-.08.03-.17.05-.25.07-.05.01-.08.02-.11.03-.14.01-.28,0-.42,0-.03,0-.05,0-.06,0,0,0,0,0,0,0-.08-.01-.16-.03-.23-.05-.05-.01-.42-.16-.41-.14-.15-.07-.29-.15-.43-.24-.09-.06-.18-.11-.27-.18-.04-.03-.12-.09-.16-.12-.31-.24-.6-.51-.89-.78-.03-.03-.17-.15-.27-.24-.04-.13-.14-.36-.13-.34-.12-.28-.3-.5-.52-.7-.07-.07-.15-.13-.23-.2-.02-.02-.05-.05-.07-.08-.03-.04-.05-.09-.08-.13-.01-.02-.02-.03-.03-.04-.02-.07-.04-.14-.06-.2-.02-.06-.03-.09-.04-.11,0-.03,0-.06,0-.12,0-.09,0-.18,0-.27,0-.03.04-.39.02-.23Z"/>
    <path class="cls-7" d="M142.82,90.32c-.52-1.01-1.57-.98-2.28-.46-2.07-4.21-5.54-7.56-9.06-10.66-.16-.43-.49-.77-1-.87,0,0-.02-.01-.02-.02-.75-.66-1.67-.47-2.25.05-4.2.05-8.3-.7-12.25-2.23-.87-.34-1.72.38-2,1.13-1.86,4.93-5.89,8.96-10.82,10.81-1.33.5-1.35,2.14-.6,2.88-.08.33-.06.7.1,1.08,1.59,3.61,3.44,7.1,5.57,10.42,1.96,3.04,4.08,6.44,7.07,8.58,3.18,2.28,7.47,2.26,11.21,2.7l12.69,1.49c.95.11,1.52-.84,1.62-1.62.04-.29.03-.55,0-.8,4.87-6.43,5.73-15.26,2.02-22.48ZM131.87,109.12c-3.52-.97-6.85-2.48-9.93-4.44-5.95-3.79-10.68-9.26-13.59-15.68,3.49-2.27,6.28-5.45,8.06-9.27,4.13,1.41,8.5,2.03,12.86,1.84,3.71,3.24,7.54,6.8,9.13,11.55,1.81,5.42,1.21,11.72-.31,17.22-.31-.09-.62-.16-.93-.2-1.79-.23-3.55-.55-5.3-1.03Z"/>
    <path class="cls-7" d="M158.42,54.64c-.2-1.14-1.82-1.52-2.63-.82-.21-.1-.44-.17-.71-.15-4.56.29-8.64-2.46-12.82-3.88-4.45-1.5-9.27-2.35-13.97-2.04-4.98.33-9.88,2.11-13.57,5.27.08-.74.05-1.51-.09-2.28-.61-3.32-2.32-6.64-4.23-9.4-4.12-5.94-10.1-10.2-16.84-12.7-3.76-1.39-7.71-2.18-11.7-2.55-.66-1.58-3.39-.7-3.03,1.22.77,4.14-3.21,7.85-4.63,11.44-.53,1.33-.91,2.77-1.18,4.25-.51.11-.97.45-1.19,1.09-.93,2.7-1.71,5.59-1.71,8.45-.12.85-.22,1.7-.31,2.56-.15,1.48-.65,3.53.42,4.77,1.02,1.18,3.23,1.58,4.66,2.1.45.3.91.58,1.39.82.99.5,2.37,1.19,3.73,1.58-.32.16-.58.43-.75.75-3.49-1.46-7.12-2.26-10.77-2.44-.21-.26-.5-.46-.83-.6-3.7-1.5-7.88-.79-11.52.55-3.63,1.34-6.94,3.28-9.91,5.77-.45.38-.59.83-.52,1.25-1.34.87-2.62,1.8-3.79,2.81-1.77,1.53-2.87,3.65-4.6,5.2-1.57,1.4-3.59,2.08-5.68,2.07-.86,0-1.37.55-1.52,1.2-.82.64-1.08,2.03.09,2.69,1.26.7,2.56,1.34,3.87,1.93-.42.7-.37,1.64.58,2.1.36.17.72.32,1.08.49,2.94,2.27,6.19,4.16,9.7,5.39,2.88,1.01,5.74.93,8.59.41.99.17,1.99.28,2.99.32,3.88.14,7.83-.88,11.59-1.74.56-.13,1.13-.27,1.69-.41-.1.05-.2.08-.3.13-.62.31-1.16.7-1.7,1.13-.3.24-.48.78-.48,1.15,0,.4.18.87.48,1.15.09.09.2.16.31.23-.5.4-1,.82-1.47,1.27-2.57,2.47-4.58,5.53-6.06,8.76-1.93,4.2-3.08,8.66-4.03,13.16-.33,1.55,1.41,2.43,2.45,1.85.02,0,.05,0,.07,0,0,0,0,0,0,0,.05,0,.11,0,.16.01.8.1,1.6.18,2.41.23,3.69.41,7.35,1,11.1.66,2.41-.22,4.79-.7,7.09-1.43.35.32.84.49,1.43.35,4.7-1.09,8.36-4.48,10.94-8.42,1.4-2.14,2.51-4.45,3.56-6.78,1.11-2.44,2.24-4.83,2.48-7.53.03-.36-.05-.66-.2-.9.04-.11.07-.22.11-.33.7-2.2,1.29-4.43,1.29-6.75,0-.86-.74-1.66-1.62-1.62-1.89.07-3.75-.11-5.58-.59-.84-.22-1.67-.49-2.46-.83-.91-.38-1.75-1.03-2.68-1.32-1.79-.56-3.8,1.17-5.25,2l-5.51,3.11c-.99.56-1.99,1.1-2.98,1.67-.14-.33-.36-.63-.68-.8-.2-.1-.4-.17-.61-.2,2.3-.71,4.53-1.62,6.61-2.86.84-.5,1.67-1.09,2.58-1.44.9-.34,1.91-.25,2.68-.9,1.6-1.36.68-3.47-.62-4.61-.15-.13-.3-.23-.46-.3-2.51-4.64-2.86-10.16-1.09-15.11.21-.57-.04-1.2-.48-1.61.34,0,.68-.03.98-.12,1.73-.51,2.3-2.27,1.85-3.8,1.81-3.24,6.66-4.13,9.99-4.36,1.16-.08,2.32-.08,3.48-.01.13.26.36.5.72.66,1.87.83,3.74,1.67,5.61,2.49,1.67.74,3.18,1.3,5.03.98.03,0,.05-.02.08-.02-.04.1-.08.2-.12.3-.19.54-.08,1,.18,1.34-.03.29.02.61.2.94,1.12,2.05,2.4,3.99,3.81,5.84-.04.05-.08.09-.11.15-.43.74-.18,1.65.48,2.14.06.17.1.34.14.51.11.45.23.89.43,1.31.47.98,1.41,1.54,2.28,2.14.59.41,1.31,1.01,2.05,1.23.19.17.43.3.76.35,6.68,1.1,13.56.38,19.8-2.14.06,0,.12-.01.17-.02.25-.03.46-.16.64-.32.32-.14.65-.26.97-.41.43.26.98.3,1.54-.06,2.22-1.43,4.27-3.07,6.18-4.87,1.45-1.21,2.81-2.53,4.04-3.95,1.3-1.5,2.5-3.1,3.55-4.78,1.04-1.68,2.27-3.47,1.91-5.52ZM73.07,96.71c4.24-2.62,8.68-4.94,13.01-7.39.22-.13.44-.25.67-.38.06.04.15.08.3.13.32.23.8.42,1.16.58.5.23,1,.44,1.52.64-.08.09-.16.18-.24.27-.42.47-.89.94-1.03,1.57-.18.83.1,1.67.72,2.24.22.21.47.37.75.51.13.06.26.13.39.2-.01.05-.02.1-.04.14-.15.37-.03.93.16,1.25.2.34.58.66.97.75.42.09.88.07,1.25-.16.38-.24.58-.56.75-.97.33-.84.17-1.87-.27-2.65-.23-.41-.58-.75-.96-1.02.2-.22.39-.44.58-.66.14-.15.25-.32.33-.5,1.14.23,2.31.38,3.47.42-.23,1.75-.79,3.44-1.34,5.12-.67,2.07-1.35,4.16-2.28,6.14-1.81,3.82-4.63,6.89-8.15,9.23-6.39,4.25-14.23,6.29-21.89,5.86-.75-.09-1.5-.17-2.25-.24,1.89-8.2,4.92-16.47,12.42-21.1ZM78.35,78.16c-.54.11-.99.62-1.14,1.14-.27.98-.59,1.93-1,2.86-.27.59-.26,1.26.08,1.76-13.2,5.02-28.33,4.51-41.16-1.44.89-.26,1.76-.61,2.56-1.09,1.88-1.11,3.12-2.74,4.45-4.43,2.71-3.42,6.91-5.61,10.74-7.55,8-4.06,17.16-4.83,25.45-1.15-.66,3.27-.56,6.66.28,9.88-.09.01-.18,0-.28.03ZM111.25,53.59c-.52,1.08-1.39,1.93-2.14,2.87-.47-.43-.99-.79-1.55-1.1,0-.12,0-.23,0-.35.21-.11.41-.22.62-.33.4-.22.79-.44,1.19-.66.74-.41,1.05-1.5.58-2.22-.49-.75-1.43-1.02-2.22-.58l-1.58.88c-.75.42-1.47.86-1.72,1.75-.03.09-.04.19-.05.29-.2-.06-.4-.11-.6-.16-1.5-.39-3.04-.65-4.6-.79.01-.19.02-.37.04-.56.12-.72.29-1.43.55-2.11.14-.37.03-.92-.16-1.25-.2-.34-.58-.66-.97-.75-.42-.09-.88-.07-1.25.16-.37.24-.59.56-.75.97-.41,1.09-.65,2.26-.71,3.43-.59.01-1.19.02-1.78.08-1.74.15-3.55.46-5.27.99-.05-.15-.09-.31-.12-.47-.02-.24-.04-.48-.01-.73.04-.39-.21-.88-.48-1.15-.28-.28-.74-.49-1.15-.48-.42.02-.86.16-1.15.48-.08.11-.17.22-.25.33-.15.25-.22.53-.22.82-.02.27-.02.53,0,.8.04.4.1.8.22,1.19.05.15.11.31.17.46-1.34.74-2.54,1.69-3.47,2.92-.39-.2-.8-.37-1.21-.56-.94-.42-1.76-.96-2.48-1.7-3.47-3.57-3.21-9.31-2.2-13.82,1.04-4.63,4.88-8.26,5.49-12.87,7.98.79,15.89,3.65,21.77,9.23,2.72,2.58,4.97,5.67,6.46,9.12.71,1.65,1.85,4.12,1.01,5.88ZM141.24,66.82c-2.38,1.58-4.96,2.57-7.8,2.93-3.15.4-6.35.4-9.41,1.33-1.2.36-1.54,2.1-.64,2.83-.88-.06-1.75-.16-2.62-.3-.21-.48-.49-.94-.7-1.35-.93-1.75-2.22-3.2-3.43-4.74.74-.03,1.48-.06,2.22-.1.43-.02.84-.17,1.15-.48.28-.28.49-.74.48-1.15-.04-.85-.72-1.66-1.62-1.62-1.49.06-2.99.13-4.48.19-.62-.96-1.21-1.94-1.76-2.94,2.63-7.33,10.64-10.59,17.94-10.49,4.3.06,8.58,1.06,12.58,2.61,2.81,1.09,5.54,2.49,8.47,3.09-3.24,3.62-6.31,7.48-10.37,10.18Z"/>
    <path class="cls-7" d="M77.59,70.08c-.05-.21-.15-.4-.29-.55-.11-.18-.27-.32-.46-.42-.38-.2-.83-.3-1.25-.16-.4.13-.77.37-.97.75-.36.66-.73,1.32-1.09,1.99-.21.38-.28.83-.16,1.25.05.21.15.4.29.55.11.18.27.32.46.42.38.2.83.3,1.25.16.4-.13.77-.37.97-.75.36-.66.73-1.32,1.09-1.99.21-.38.28-.83.16-1.25Z"/>
    <path class="cls-12" d="M103.36,78.89c.04-.07.07-.14.12-.2.04-.04.08-.09.12-.13.3-.27.48-.75.48-1.15s-.18-.87-.48-1.15c-.31-.28-.72-.5-1.15-.48-.44.02-.82.18-1.15.48-.29.26-.53.58-.72.91-.13.22-.23.47-.32.71-.05.12-.09.25-.12.38-.08.37-.14.77-.11,1.16.03.4.08.81.24,1.18.05.21.15.4.29.55.11.18.27.32.46.42.35.2.86.29,1.25.16.39-.13.77-.37.97-.75.05-.13.11-.26.16-.39.08-.29.08-.58,0-.86-.05-.13-.08-.26-.11-.39,0-.07,0-.13,0-.2.02-.08.04-.16.06-.24Z"/>
    <path class="cls-12" d="M98.86,78.27c-1.13-.44-1.87-.73-2.97-1.29-.52-.26-1.02-.54-1.51-.86-.24-.16-.48-.32-.71-.49-.05-.04-.08-.06-.11-.08-.02-.02-.06-.05-.11-.09-.11-.09-.21-.18-.31-.27-.4-.35-.77-.74-1.1-1.15-.02-.02-.02-.03-.03-.03-.02-.02-.03-.04-.06-.08-.08-.11-.15-.22-.22-.33-.14-.22-.28-.45-.4-.69-.06-.12-.12-.24-.17-.35-.02-.05-.03-.06-.04-.07,0,0,0,0-.01-.05-.09-.25-.17-.49-.23-.75-.03-.13-.05-.25-.08-.38,0-.03-.01-.06-.02-.08,0,0,0-.02,0-.03-.01-.29-.03-.57-.02-.86.03-.85-.77-1.66-1.62-1.62-.9.04-1.59.71-1.62,1.62-.05,1.64.44,3.23,1.27,4.64-.14.42-.12.89.1,1.34.95,2,2.67,3.69,4.66,4.65,1.1.53,2.23.86,3.44,1,.54.06,1.07.07,1.59-.11.85-.3,1.57-1.07,1.5-2.02-.06-.79-.48-1.29-1.19-1.57Z"/>
    <path class="cls-19" d="M114.51,129.24c-.02-.74-.44-1.22-.97-1.43.11-1.27.18-2.53.19-3.8.02-2.09-3.23-2.09-3.25,0-.05,4.33-.7,8.61-1.96,12.76-.61,2-1.35,3.96-2.24,5.86-.79,1.67-1.64,3.53-3.21,4.59-1.76,1.19-.25,3.65,1.64,2.81,1.8-.8,3.61-1.65,5.04-3.04,1.39-1.35,2.25-3.1,2.88-4.9,1.43-4.08,1.98-8.53,1.88-12.83Z"/>
    <path class="cls-4" d="M97.03,139.51c-1.69-3.64-2.7-7.61-2.97-11.61-.06-.88-.7-1.62-1.62-1.62-.83,0-1.68.74-1.62,1.62.31,4.61,1.47,9.06,3.42,13.25.37.8,1.52,1,2.22.58.82-.48.96-1.42.58-2.22Z"/>
    <path class="cls-14" d="M111.1,116.07c-.74-.39-1.81-.22-2.22.58-.2.38-.42.75-.66,1.1-.03.04-.04.05-.05.07-.06.08-.13.15-.19.23-.02.02-.04.05-.07.07-.22-.04-.43-.08-.65-.13-.47-.09-.95-.18-1.42-.28-.95-.18-1.9-.37-2.85-.55-.06-.01-.11-.02-.17-.03-.02-.16-.04-.32-.09-.46-.26-.81-1.14-1.41-2-1.13-.79.25-1.36,1.08-1.15,1.92,0,0,0,.02,0,.03-.06.41-.09.78.02,1.19.24.91,1.05,1.35,1.9,1.52,1.22.24,2.43.47,3.65.71.59.11,1.19.23,1.78.34.71.14,1.39.25,2.08.01.74-.25,1.23-.84,1.69-1.43.37-.48.71-.98.98-1.52.39-.76.22-1.8-.58-2.22Z"/>
    <path class="cls-4" d="M124.08,126.74c.08-2.29-.07-4.61-.49-6.9-.38-2.05-3.51-1.18-3.13.86,1.59,8.7-1.15,17.95-7.15,24.43-1.42,1.53.87,3.84,2.3,2.3,2.78-3,4.9-6.49,6.34-10.23.32.43.85.72,1.34.7.97-.04,1.51-.72,1.62-1.62.33-2.63.5-5.28.51-7.93,0-.76-.6-1.48-1.35-1.6Z"/>
    <path class="cls-20" d="M103.09,83.48c-7.04.86-14.45-1.79-17.56-8.53-.37-.8-1.52-1-2.22-.58-.82.48-.95,1.42-.58,2.22,1.09,2.36,2.68,4.32,4.59,5.88-.91.61-1.25,2.08,0,2.73,4.91,2.57,10.46,2.14,15.78,1.53.87-.11,1.62-.67,1.62-1.62,0-.8-.75-1.73-1.62-1.62Z"/>
    <path class="cls-20" d="M106.52,59.14c-1.51-1.45-3.81.84-2.3,2.3,5.65,5.46,6.38,14.07,1.87,20.47-1.21,1.71,1.61,3.34,2.81,1.64,5.32-7.55,4.24-18.01-2.38-24.41Z"/>
    <path class="cls-18" d="M56.27,108.84c-2.61,1.83-4.85,4.15-6.58,6.8-.57-.56-1.46-.72-2.12.08-1.88,2.27-3.66,4.63-5.28,7.09-.8,1.2-1.56,2.43-2.29,3.68-.7,1.2-1.61,2.49-2,3.83-.37,1.27.14,2.43,1.09,3.28,1.14,1.01,2.39,1.93,3.58,2.87,2.54,2.01,5.11,3.99,7.69,5.95,1.31.99,3.07-.92,2.22-2.22-3.05-4.66-4.28-10.44-3.07-15.91,1.12-5.08,4.15-9.65,8.41-12.63,1.7-1.19.08-4.01-1.64-2.81ZM42.66,132.34c-.32-.25-1.29-.78-1.43-1.16-.19.04-.19-.04.01-.26.14-.27.29-.54.43-.8,1.51-2.78,3.21-5.44,5.05-8.01-.12.43-.26.86-.36,1.31-.9,4.07-.68,8.31.53,12.26-.39-.3-.78-.6-1.17-.9-1.03-.81-2.05-1.62-3.07-2.44Z"/>
    <path class="cls-18" d="M97.73,164.51c-12.21-5.46-24.46-10.95-35.79-18.11-1.77-1.12-3.41,1.69-1.64,2.81,11.33,7.16,23.58,12.66,35.79,18.11,1.89.85,3.55-1.95,1.64-2.81Z"/>
    <path class="cls-18" d="M93.14,148.59c1.23,2.24,2.44,4.58,4.95,5.56.82.32,1.78-.35,2-1.13.25-.92-.31-1.68-1.14-2,.16.06-.32-.19-.39-.23-.05-.03-.06-.04-.09-.06-.09-.08-.17-.15-.26-.23-.37-.37-.48-.52-.75-.92-.6-.9-1.11-1.87-1.63-2.82-1.01-1.85-2.33-3.83-2.07-5.98.06-.5-.23-.96-.63-1.26.23-.69-.14-1.55-.75-1.9-.82-.48-1.71-.13-2.22.58-2.82,3.87-4.63,8.77-3.26,13.55,1.41,4.93,6.11,7.75,10.89,8.75,2.04.42,2.91-2.71.86-3.13-3.78-.79-7.69-2.77-8.71-6.78-.61-2.41-.15-4.8.82-7.01.49,1.78,1.5,3.46,2.35,5.02Z"/>
    <path class="cls-18" d="M163.78,127.12c-.07-.12-.14-.24-.24-.35-2.56-2.88-5.18-5.69-7.88-8.43-1.32-1.34-2.66-2.67-4.02-3.98-1.25-1.2-2.7-2.34-3.65-3.8-.52-.8-1.4-.88-2.08-.58-.84-.78-2.45-.51-2.7.73-.94,4.53-5.89,6.09-9.98,5.89-2.7-.13-5.34-.85-7.95-1.5l-7.35-1.82s-.07-.07-.12-.1c-6.11-3.58-10.97-9.14-13.59-15.74-.19-.48-.53-.78-.91-.95-.61-1.13-2.82-1.21-3.04.32-.02.15-.02.29-.03.44,0,0-.02,0-.02,0-.36,4.19-1.91,8.16-3.96,11.81-1.93,3.45-4.18,7.36-7.74,9.32-7.52,4.14-16.96,3.75-25.26,3.61-2.09-.04-2.09,3.21,0,3.25,4.83.08,9.67.15,14.47-.45,4.48-.56,9.27-1.59,13.14-4.02,3.78-2.37,6.31-6.62,8.41-10.45,1.12-2.04,2.07-4.16,2.79-6.35,1.03,2.11,2.16,4.16,3.6,6.02,2.57,3.32,6.21,5.88,10.44,6.2,3.16.78,6.33,1.57,9.49,2.35,3.09.76,6.29,1.5,9.5,1.32,4.07-.23,8.34-2.19,10.32-5.79,2.99,2.99,5.83,6.13,8.46,9.44.76.96,1.5,1.93,2.23,2.91.67.91,1.29,1.94,2.15,2.69.47.41,1.05.72,1.66.9-2.49,2.25-5.03,4.44-7.75,6.39-3.51,2.51-7.26,4.65-11.04,6.73-3.79,2.08-7.61,4.08-11.31,6.32-3.77,2.29-7.28,5-11.24,6.98-3.42,1.71-7,3.08-10.36,4.89.57-2.18.89-4.41.9-6.68,5.03-1.31,9.61-4.26,12.83-8.36.54-.69.67-1.62,0-2.3-.56-.56-1.75-.69-2.3,0-3.17,4.04-7.57,6.79-12.6,7.82-.67.14-1.22.89-1.19,1.57.16,3.93-.6,7.83-2.32,11.38-.91,1.87,1.89,3.52,2.81,1.64.08-.17.15-.34.23-.51.23-.02.47-.1.71-.26,3.62-2.35,7.66-3.89,11.55-5.73,1.15-.54,2.27-1.15,3.36-1.78.27.18.59.29.93.33,1.52.18,2.94-.57,4.12-1.45,1.27-.94,2.52-1.91,3.81-2.83,2.62-1.86,5.34-3.59,8.12-5.2.63-.37.84-.95.77-1.5,4.4-2.39,8.81-4.77,12.94-7.62,4.3-2.96,8.17-6.46,12.01-9.99,1.17-1.07.13-2.65-1.11-2.73Z"/>
  </g>
  <g id="Layer_1" data-name="Layer 1">
    <path class="cls-9" d="M76.79,136.4c-5.62-9.25-33.14-3.36-22.59,8.72,6.5,5.93,28.8,4.17,22.59-8.72Z"/>
    <path class="cls-9" d="M145.38,136.4c-3.4-5.6-14.82-5.65-20.97-2.14-.54,2.7-1.87,5.45-3.61,7.67.37,1.01,1.02,2.07,2,3.19,6.5,5.93,28.8,4.17,22.59-8.72Z"/>
    <g>
      <path class="cls-13" d="M100.43,167.53c-13.62-4.3-26.53-10.96-38.44-18.81-12.9-8.49-24.95-18.72-34.46-30.95-8.6-11.07-15.25-24.37-15.69-38.6-.11-3.42.04-6.94.83-10.27.86-3.61,2.15-7.09,3.88-10.37,3.3-6.26,8.08-11.71,13.79-15.88,11.36-8.29,26.19-11.95,40.06-9.25,1.76.34,3.5.79,5.22,1.32,2,.62,2.86-2.52.86-3.13-14.26-4.42-30.15-2.25-43.03,5.17-12.96,7.46-23.18,20.83-24.66,35.99-1.43,14.73,3.91,29.15,12.01,41.25,8.93,13.34,20.97,24.43,33.97,33.72,12.36,8.84,25.93,16.27,40.25,21.42,1.5.54,3.02,1.05,4.54,1.53,2,.63,2.85-2.5.86-3.13h0Z"/>
      <path class="cls-13" d="M100.43,170.66c15.74-4.97,30.64-12.94,44.08-22.45,14.25-10.09,27.54-22.38,36.7-37.38,8.22-13.47,13.28-30.57,8.33-46.12-4.72-14.81-16.58-26.19-30.94-31.73-14.17-5.46-30.66-4.99-44.05,2.42-1.68.93-3.3,1.97-4.85,3.1-1.68,1.22-.06,4.04,1.64,2.81,11.93-8.66,27.32-10.77,41.41-6.85,14,3.9,26.32,13.63,32.16,27.09,3.06,7.05,3.82,14.58,2.91,22.17s-3.58,14.88-7.17,21.56c-7.94,14.76-20.27,27.01-33.55,37.04-12.93,9.76-27.33,17.98-42.57,23.53-1.64.6-3.29,1.16-4.95,1.68-1.99.63-1.14,3.77.86,3.13h0Z"/>
      <g>
        <path class="cls-13" d="M144.13,108.98c7.96,5.05,14.78,11.75,19.53,19.92,1.05,1.81,3.86.17,2.81-1.64-5.03-8.65-12.27-15.74-20.69-21.09-1.77-1.12-3.4,1.69-1.64,2.81h0Z"/>
        <path class="cls-13" d="M39.35,131.66c4.74-10.06,12.32-18.28,21.77-24.09,1.78-1.09.15-3.91-1.64-2.81-9.89,6.08-17.97,14.72-22.94,25.26-.89,1.88,1.91,3.53,2.81,1.64h0Z"/>
        <path class="cls-13" d="M90.67,143.58c.08-.52.23-1.03.43-1.51l-.16.39c.22-.52.5-1.01.85-1.46l-.25.33c.17-.22.35-.42.54-.61.29-.3.48-.73.48-1.15s-.18-.87-.48-1.15-.72-.5-1.15-.48-.84.16-1.15.48c-1.14,1.16-1.98,2.69-2.23,4.31-.07.22-.08.43-.03.65,0,.22.07.42.19.6.2.34.58.66.97.75.42.09.88.07,1.25-.16.33-.21.68-.56.75-.97h0Z"/>
        <path class="cls-13" d="M123.84,138.11c0,1.33,0,2.67,0,4,0,.42.18.85.48,1.15s.74.49,1.15.48c.88-.04,1.63-.71,1.62-1.62,0-1.33,0-2.67,0-4,0-.42-.18-.85-.48-1.15s-.74-.49-1.15-.48c-.88.04-1.63.71-1.62,1.62h0Z"/>
        <path class="cls-13" d="M131.81,138.11c0,1.33,0,2.67,0,4,0,.42.18.85.48,1.15s.74.49,1.15.48c.88-.04,1.63-.71,1.62-1.62,0-1.33,0-2.67,0-4,0-.42-.18-.85-.48-1.15s-.74-.49-1.15-.48c-.88.04-1.63.71-1.62,1.62h0Z"/>
        <path class="cls-13" d="M139.78,138.11v4c0,.42.18.85.48,1.15s.74.49,1.15.48c.88-.04,1.63-.71,1.62-1.62v-4c0-.42-.18-.85-.48-1.15s-.74-.49-1.15-.48c-.88.04-1.63.71-1.62,1.62h0Z"/>
        <path class="cls-13" d="M55.55,138.11v4c0,.42.18.85.48,1.15s.74.49,1.15.48c.88-.04,1.63-.71,1.62-1.62v-4c0-.42-.18-.85-.48-1.15s-.74-.49-1.15-.48c-.88.04-1.63.71-1.62,1.62h0Z"/>
        <path class="cls-13" d="M63.63,138.11c0,1.33,0,2.67,0,4,0,.42.18.85.48,1.15s.74.49,1.15.48c.88-.04,1.63-.71,1.62-1.62,0-1.33,0-2.67,0-4,0-.42-.18-.85-.48-1.15s-.74-.49-1.15-.48c-.88.04-1.63.71-1.62,1.62h0Z"/>
        <path class="cls-13" d="M71.71,138.11c0,1.33,0,2.67,0,4,0,.42.18.85.48,1.15s.74.49,1.15.48c.88-.04,1.63-.71,1.62-1.62,0-1.33,0-2.67,0-4,0-.42-.18-.85-.48-1.15s-.74-.49-1.15-.48c-.88.04-1.63.71-1.62,1.62h0Z"/>
      </g>
      <path class="cls-13" d="M94.97,56.06c-7.37.04-13.11,5.28-14.58,12.4s.95,14.54,7.03,18.48,15.59,3.5,21.43-1.18c5-4,7.18-10.92,5.55-17.09-2.31-8.73-11.03-12.57-19.43-12.61-2.09-.01-2.09,3.24,0,3.25,6.33.03,13.11,2.32,15.73,8.53,1.93,4.56,1,10.25-2.41,14-4.16,4.58-11.49,5.75-17.16,3.39s-8.22-8.14-7.87-13.85c.39-6.47,4.89-12.03,11.71-12.07,2.09-.01,2.1-3.26,0-3.25h0Z"/>
      <path class="cls-13" d="M95.9,62.21c-4.89.03-8.75,3.5-9.72,8.24-.93,4.57.62,9.53,4.6,12.17s10.31,2.35,14.18-.72c3.33-2.64,4.78-7.23,3.7-11.33-1.51-5.75-7.23-8.33-12.76-8.36-2.09-.01-2.09,3.24,0,3.25,2.24.01,4.42.41,6.24,1.51,1.4.84,2.36,1.89,3.07,3.49-.12-.28.07.19.1.29.07.2.14.41.19.62.05.19.09.37.13.56.02.12.04.24.07.35.05.32-.01-.13,0,.07.04.4.06.81.05,1.22,0,.19-.02.38-.03.57,0,.09-.02.19-.03.29.03-.29,0,.02-.02.14-.07.38-.15.75-.27,1.12-.06.18-.12.36-.18.55-.15.42.03,0-.17.41-.17.35-.35.69-.56,1.01-.33.52-.31.48-.63.84-1.18,1.32-2.5,2.06-4.25,2.47s-4,.34-5.89-.42c-1.55-.62-2.79-1.8-3.62-3.36-.73-1.39-1.04-3-.94-4.72.22-3.76,2.78-6.96,6.73-6.99,2.09-.01,2.1-3.26,0-3.25h0Z"/>
      <path class="cls-13" d="M82.88,64.29c-7.48-4.67-16.73-6.2-25.3-4.05-3.97,1-7.8,2.77-11.11,5.18-1.69,1.23-3.28,2.59-4.72,4.11s-2.78,3.29-4.38,4.73-3.7,2.32-5.72,3.2c-1.64.72-4.43,1.61-4.61,3.73-.16,1.96,2,3.92,3.33,5.1,1.6,1.41,3.4,2.58,5.2,3.71,3.85,2.41,7.93,4.63,12.36,5.77s9.23,1.1,13.83.4c5.33-.82,10.47-2.54,15.54-4.32,1.92-.68,3.9-1.35,5.64-2.43s3.26-2.65,4.45-4.42-1.65-3.37-2.81-1.64c-1.83,2.74-4.47,4.06-7.49,5.13-4.05,1.44-8.13,2.83-12.32,3.8s-8.21,1.44-12.35,1.01-7.98-1.97-11.58-3.95c-3.29-1.81-6.92-3.8-9.47-6.62-.23-.25-.61-.97-.87-1.09-.4-.19.06-.05-.28.17.18-.11.37-.22.55-.32.87-.49,1.79-.9,2.71-1.29,1.84-.8,3.64-1.59,5.23-2.83,2.98-2.33,5.07-5.59,7.97-8.02s6.02-4.12,9.44-5.28c8.38-2.83,17.63-1.63,25.12,3.04,1.78,1.11,3.41-1.7,1.64-2.81h0Z"/>
      <path class="cls-13" d="M110.48,62.32c2.8-5.9,7.99-10.19,14.25-12.01,3.17-.92,6.48-1.2,9.76-.86,3.92.4,7.66,1.88,11.39,3.09,4.28,1.39,8.61,2.39,13.13,1.69l-2-2c-1.21,6.48-3.95,12.91-8.85,17.45-5.81,5.39-13.48,5.72-21,5.74-4.2.01-8.6-.01-12.34-2.16-1.82-1.04-3.46,1.76-1.64,2.81,3.62,2.08,7.77,2.54,11.88,2.6,4.37.07,8.82.07,13.14-.68,7.79-1.35,13.95-6.3,17.76-13.12,2.04-3.65,3.41-7.67,4.18-11.77.24-1.3-.73-2.2-2-2-4.1.64-8.17-.62-12.02-1.89s-7.72-2.63-11.81-3.03c-6.81-.66-13.88,1.29-19.31,5.46-3.12,2.4-5.64,5.47-7.33,9.03-.89,1.88,1.91,3.53,2.81,1.64h0Z"/>
      <path class="cls-13" d="M68.43,91.68c-4.59,3.91-7.55,9.32-9.67,14.89-1.09,2.86-1.95,5.81-2.68,8.78-.35,1.43-.7,2.86-.95,4.31-.3,1.74.52,2.82,2.28,3.08,7.53,1.1,15.35,1.83,22.91.63,3.45-.55,6.99-1.52,9.84-3.63,2.67-1.98,4.58-4.79,6.2-7.66,3.88-6.9,5.9-14.75,5.94-22.65,0-2.09-3.24-2.09-3.25,0-.03,6.3-1.38,12.59-4.08,18.29-1.25,2.64-2.72,5.35-4.69,7.54-2.07,2.3-4.7,3.58-7.66,4.34-6.65,1.7-13.67,1.22-20.42.47-.8-.09-1.6-.18-2.39-.28-.32-.04-.64-.08-.96-.12l-.48-.06c-.72-.23-.76.07-.1.92.26-.31.29-1.4.37-1.78.16-.72.32-1.45.49-2.17.62-2.6,1.35-5.18,2.23-7.7,1.96-5.58,4.8-11.02,9.36-14.9,1.6-1.36-.71-3.65-2.3-2.3h0Z"/>
      <path class="cls-13" d="M98.94,89.29c1.63,4.24,3.61,8.33,6.01,12.18s4.94,7.69,8.39,10.45c3.63,2.91,8.27,3.93,12.78,4.62,5,.76,10.05.92,15.08.44.79-.08,1.28-.47,1.57-1.19,2.69-6.85,5.52-14.67,3.16-22.03-1.13-3.53-3.38-6.5-5.77-9.29-2.59-3.02-5.43-5.8-8.49-8.35-1.6-1.33-3.91.96-2.3,2.3,2.76,2.3,5.35,4.79,7.73,7.48s4.62,5.38,5.68,8.72c2.17,6.77-.7,14.02-3.16,20.3l1.57-1.19c-4.65.45-9.36.4-13.98-.28-4.08-.6-8.64-1.38-11.91-4.09s-5.46-6.15-7.56-9.54c-2.25-3.61-4.16-7.43-5.68-11.41-.74-1.93-3.89-1.09-3.13.86h0Z"/>
      <path class="cls-13" d="M71.49,59.55c-2.45-5.77.24-12.32,2.76-17.56s5.53-11.03,5.46-17.26l-1.62,1.62c14.86,1.83,32.2,10.13,35.63,26.13.44,2.04,3.57,1.18,3.13-.86-2.8-13.04-14.71-21.95-26.81-25.94-3.89-1.28-7.9-2.07-11.96-2.58-.87-.11-1.63.83-1.62,1.62.07,6.55-3.57,12.21-6.13,18-2.58,5.85-4.26,12.32-1.65,18.46.35.81,1.53.98,2.22.58.84-.48.92-1.42.58-2.22h0Z"/>
      <path class="cls-13" d="M103.84,149.85c-2.02-.54-2.96-3.01-3.68-4.76-.97-2.37-1.65-4.88-2.03-7.41s-.42-4.99-.21-7.47.52-5.31,2.01-7.27c1.72-2.28,3.93-1.44,6.23-.65,1.25.43,2.49.86,3.74,1.28.62.21,1.26.4,1.87.64s.65.44.79,1.09c1.06,4.89,1.63,9.97-.32,14.71-1.8,4.37-5.25,7.88-9.54,9.82-1.9.86-.25,3.66,1.64,2.81,4.79-2.17,8.65-6.22,10.73-11.04,1.09-2.53,1.69-5.22,1.74-7.98.06-3.17-.34-6.79-1.27-9.83-.4-1.31-1.29-2.09-2.55-2.58-1.65-.64-3.36-1.16-5.04-1.73-2.94-1.01-5.98-2.21-8.81-.22-2.47,1.74-3.48,4.62-4,7.47-.57,3.1-.74,6.28-.45,9.42.33,3.52,1.14,6.96,2.5,10.22,1.15,2.77,2.65,5.78,5.78,6.62,2.02.54,2.88-2.59.86-3.13h0Z"/>
      <path class="cls-13" d="M103.41,153.04c4.18-.14,8.07-1.32,11.47-3.8s6.71-5.6,9.02-9.29c2.4-3.85,3.62-8.4,3.33-12.93-.15-2.29-.61-4.59-1.51-6.7-.95-2.23-2.62-3.37-4.86-4.15-4.57-1.6-10.56-.68-12.18,4.54-.62,2,2.52,2.86,3.13.86,1.13-3.64,5.81-3.22,8.61-2.12,1.84.73,2.41,2.09,2.92,3.9s.73,3.73.67,5.64c-.24,7.21-4.9,13.05-10.45,17.21-3.04,2.28-6.34,3.47-10.15,3.6-2.09.07-2.1,3.32,0,3.25h0Z"/>
      <path class="cls-13" d="M99.05,151.09c-.7,5.75-1.72,11.46-2.37,17.22-.1.87.82,1.62,1.62,1.62.96,0,1.53-.75,1.62-1.62s.2-1.75.31-2.63c.1-.82.12-.93.22-1.67.14-.99.3-1.98.46-2.97.54-3.31.97-6.62,1.38-9.95.11-.87-.82-1.62-1.62-1.62-.97,0-1.52.75-1.62,1.62h0Z"/>
      <path class="cls-13" d="M104.03,151.6c-.87,5.45-1.97,10.83-2.72,16.3-.12.87.21,1.74,1.13,2,.76.21,1.88-.26,2-1.13.74-5.47,1.85-10.85,2.72-16.3.14-.87-.22-1.75-1.13-2-.77-.21-1.86.26-2,1.13h0Z"/>
      <path class="cls-13" d="M101.06,120.6c-.26-1.08-.17-2.27.34-3.29.1-.2.31-.58.39-.68.19-.25.19-.25.44-.31.65-.18,1.51-.15,2.21-.18,1.38-.06,2.91-.02,4.13.5.4.17.99.54,1.27.8.39.35.71.78.85,1.15.31.82,1.09,1.38,2,1.13.78-.22,1.45-1.17,1.13-2-.67-1.74-1.95-3.1-3.64-3.89-1.95-.91-4.1-1.04-6.23-.91-1.05.06-2.21.06-3.18.48s-1.65,1.27-2.14,2.19c-.96,1.82-1.2,3.89-.72,5.89.21.85,1.17,1.36,2,1.13.87-.24,1.34-1.14,1.13-2h0Z"/>
      <path class="cls-13" d="M47.37,138.71c-.52-6.05-.81-12.19-.38-18.25.39-5.51,1.62-11,4.79-15.62,1.19-1.73-1.63-3.35-2.81-1.64-3.33,4.84-4.67,10.63-5.17,16.42-.54,6.33-.22,12.77.32,19.09.18,2.07,3.43,2.09,3.25,0h0Z"/>
      <path class="cls-13" d="M49.23,102.08h-.07c.14,0,.29-.03.43-.05-.14.02-.27.02-.41,0l.43.06c-.16-.03-.31-.07-.46-.13l.39.16c-.13-.06-.24-.13-.36-.21l.33.25c-.13-.1-.24-.21-.35-.34l.25.33c-.08-.11-.15-.23-.21-.35l.16.39c-.05-.13-.09-.26-.11-.4l-1.13,2h.08c-.14,0-.29.03-.43.05.13-.01.26-.01.4,0l-.43-.06c.19.03.36.08.54.15l-.39-.16c.26.11.49.26.71.42l-.33-.25c.55.43.97.98,1.47,1.46.71.69,1.59,1.28,2.59,1.36.73.05,1.48-.3,1.86-.93.52-.89.19-1.99-.66-2.53-.72-.46-1.67-.45-2.46-.73l.39.16c-.06-.03-.11-.05-.17-.09l.33.25-.04-.04.25.33s-.05-.07-.06-.11l.16.39v-.07c0,.14.02.29.04.43v-.07c-.02.14-.04.29-.06.43.02-.08.04-.15.07-.22l-.16.39c.21-.49.47-.94.8-1.36l-.25.33c.31-.4.66-.75,1.05-1.07l-2.77-1.15c0,.11-.02.22-.03.34l.06-.43c-.05.34-.14.66-.26.97l.16-.39c-.13.31-.3.6-.5.87l.25-.33s-.07.09-.1.13c-.28.35-.48.69-.48,1.15,0,.4.18.87.48,1.15.59.54,1.73.71,2.3,0,.45-.56.78-1.09,1.04-1.76.21-.54.3-1.12.34-1.7.04-.64-.44-1.25-1-1.49-.28-.12-.54-.15-.84-.11-.38.05-.63.21-.93.45-1.02.82-1.83,1.95-2.28,3.18-.2.56-.12,1.18.18,1.69s.83.8,1.37.94c.58.15,1.22.22,1.77.44l-.39-.16s.07.04.1.06l-.33-.25s.06.05.08.08l-.25-.33.02.05-.16-.39v.06c0-.14-.03-.29-.05-.43v.05c.01-.14.03-.29.05-.43l-.02.05.16-.39-.03.04.25-.33-.04.03.33-.25-.05.03.39-.16c-.06.02-.11.04-.17.05l.43-.06c-.06,0-.12,0-.19,0l.43.06c-.12-.02-.24-.06-.35-.11l.39.16c-.24-.1-.45-.23-.66-.39l.33.25c-.63-.5-1.1-1.16-1.71-1.68-.51-.43-1-.76-1.62-1s-1.23-.23-1.88-.14c-.36.05-.81.44-.97.75-.22.41-.24.8-.16,1.25.14.87.75,1.59,1.45,2.08.75.53,1.65.62,2.53.48.38-.06.79-.43.97-.75.2-.35.29-.86.16-1.25s-.37-.77-.75-.97c-.41-.22-.8-.24-1.25-.16h0Z"/>
      <path class="cls-13" d="M100.6,160.21c8.1,1.44,16.44,1.28,24.53-.11,2.06-.35,1.19-3.49-.86-3.13-7.48,1.29-15.32,1.44-22.8.11-2.05-.36-2.92,2.77-.86,3.13h0Z"/>
      <path class="cls-13" d="M103.53,156.98s-.04-.08-.06-.12l.16.39c-.04-.1-.07-.2-.09-.31l.06.43c-.02-.13-.02-.26,0-.39l-.06.43c.02-.11.05-.21.09-.31l-.16.39c.05-.1.1-.19.16-.28l-.25.33s.05-.06.08-.08l-.33.25.05-.02-.82.22h.06c-.14-.02-.29-.04-.43-.06l.06.02-.39-.16.05.03-.33-.25.05.05-.25-.33c.04.06.07.11.1.17l-.16-.39c.06.15.1.3.13.46l-.06-.43c.02.16.02.32,0,.48l.06-.43c-.03.18-.07.36-.14.53l.16-.39c-.05.11-.1.2-.17.3l.25-.33c-.05.06-.09.1-.15.15l.33-.25-.06.03.39-.16s-.08.02-.12.03l.43-.06h-.06c.14.02.29.04.43.06-.04,0-.08-.01-.11-.03l.39.16c-.15-.06-.27-.16-.39-.25-.2-.14-.41-.24-.65-.32-.45-.15-.98-.15-1.43-.02s-.89.38-1.21.73c-.15.16-.29.35-.4.55-.2.39-.24.63-.29,1.08-.04.37.21.9.48,1.15.3.28.73.51,1.15.48.69-.06,1.38-.16,2.05-.32l-2-2c-.16.51-.35,1.03-.47,1.55-.26,1.06.18,2.27,1.32,2.57.52.14,1.22.02,1.58-.42.57-.69,1.02-1.45,1.22-2.33.1-.42.06-.87-.16-1.25-.2-.34-.58-.66-.97-.75-.83-.19-1.79.25-2,1.13-.05.21-.12.42-.2.63l.16-.39c-.14.32-.31.61-.52.88l.25-.33s-.06.08-.09.11l1.58-.42h-.05c.13.04.26.1.39.15l-.04-.02.33.25s-.05-.04-.06-.06l.25.33-.02-.04.16.39s-.03-.09-.04-.14l.06.43c0-.07,0-.14,0-.22l-.06.43c.05-.26.15-.52.22-.77.09-.29.18-.57.26-.86.17-.55-.02-1.18-.42-1.58-.42-.42-1.01-.55-1.58-.42-.37.09-.73.15-1.1.2l.43-.06c-.17.02-.34.04-.52.06l1.62,1.62v-.05c-.01.14-.03.29-.05.43.01-.07.03-.14.06-.2l-.16.39c.03-.06.07-.12.11-.18l-.25.33c.06-.07.12-.13.19-.18l-.33.25c.07-.05.15-.09.23-.13l-.39.16c.08-.03.17-.05.26-.07l-.43.06c.07,0,.14,0,.21,0l-.43-.06c.07.01.14.03.2.05l-.39-.16c.14.06.25.15.37.24.2.14.44.27.67.33.75.21,1.56,0,2.08-.59.72-.83.92-1.93.71-2.99-.12-.61-.46-1.22-1-1.55-.49-.3-1.08-.36-1.61-.13-.42.18-.69.44-.95.82-.6.88-.56,2.07-.07,2.98.4.75,1.5,1.05,2.22.58.76-.49,1.01-1.42.58-2.22h0Z"/>
      <path class="cls-13" d="M98.96,115.65c-4.08-.53-7.23,2.66-8.58,6.2-1.51,3.95-1.28,8.39-.36,12.45s2.42,8.4,4.53,12.01c1.73,2.97,4.05,5.73,7.48,6.66,2.02.55,2.88-2.59.86-3.13-2.59-.7-4.24-2.94-5.54-5.17-1.76-3.02-2.97-6.53-3.87-9.9s-1.34-6.94-.5-10.36c.71-2.89,2.59-5.96,5.98-5.52.88.11,1.62-.83,1.62-1.62.01-.97-.76-1.51-1.62-1.62h0Z"/>
      <path class="cls-13" d="M84.43,54.85c.81,1.01,1.36,2.31,1.9,3.51.62,1.36,1.24,2.73,1.87,4.09.25.55,1.05.69,1.54.4.57-.33.66-.98.4-1.54-.64-1.41-1.29-2.82-1.93-4.23s-1.26-2.65-2.19-3.82c-.38-.48-1.2-.4-1.59,0-.47.47-.38,1.11,0,1.59h0Z"/>
      <path class="cls-13" d="M84.17,52.7c-.19.14-.39.27-.59.4-.11.06-.21.12-.32.18s-.04.08.05-.02c-.04.04-.17.06-.23.07-.03,0-.14.02-.15.04.02-.02.27,0,.07-.01-.04,0-.08,0-.11,0-.17,0,.11,0,.13.02-.04-.02-.18-.06-.23-.06.2.01.2.1.08.03-.03-.02-.09-.07-.13-.08.15.03.17.15.08.06-.03-.03-.07-.08-.11-.11-.11-.08.12.2.06.08-.02-.04-.05-.07-.07-.11-.1-.18.05,0,.02.06,0,0-.04-.13-.04-.13-.05-.17.04.09,0,.08-.01,0,0-.23,0-.23.01,0-.07.29,0,.07.01-.05.02-.1.04-.15.01-.04.05-.11.05-.14,0,.14-.08.17-.02.06.05-.09.1-.17.16-.26.13-.21-.12.13-.02.02.04-.05.08-.09.12-.14.08-.08.16-.16.24-.23.04-.04.09-.07.13-.11.12-.1-.16.11-.03.03.22-.14.43-.27.66-.39.06-.03.15-.11-.05.02.04-.02.11-.04.15-.06.1-.04.2-.07.3-.1.11-.03.23-.06.34-.08.06-.01.2,0,.04,0-.18-.01.03,0,.08,0,.11,0,.23,0,.34,0,.05,0,.1,0,.15,0,.23.02,0-.03-.02,0,0,0,.16.04.15.04-.06.03-.26-.15-.25-.15,0,.01.09.08.09.08-.1-.14-.13-.18-.08-.1.02.03.03.05.05.08.08.12-.06.03-.03-.09,0,.01.04.12.04.13,0,0,.02.12.03.13-.07-.06-.02-.25-.02-.09,0,.06-.01.4,0,.2.01-.15,0-.07,0-.03-.03.11.15-.28.06-.14-.04.07-.08.14-.12.2-.09.14.07-.09.08-.1-.04.04-.07.09-.11.13-.13.15-.28.3-.43.44s-.29.26-.44.38c-.13.11.25-.18.02-.01-.05.04-.11.08-.17.12-.5.32-.74,1.01-.4,1.54.32.5,1.01.74,1.54.4.39-.25.76-.56,1.1-.88s.71-.7.91-1.13c.34-.71.28-1.53-.05-2.23-.37-.79-1.13-1.13-1.97-1.18-1.38-.08-2.77.52-3.76,1.45-.5.48-.93,1.13-1.05,1.82-.15.83.04,1.64.6,2.27.48.54,1.26.88,1.98.82.85-.06,1.56-.48,2.24-.96.48-.34.75-1,.4-1.54-.31-.48-1.02-.77-1.54-.4h0Z"/>
      <path class="cls-13" d="M98.23,78.63c.39,1.32.44,2.68.5,4.05.07,1.46.14,2.92.21,4.38.03.61.5,1.12,1.12,1.12.59,0,1.15-.52,1.12-1.12-.07-1.52-.14-3.03-.21-4.55s-.15-3.03-.58-4.48-2.58-.8-2.17.6h0Z"/>
      <path class="cls-13" d="M98.7,76.71c-.21.05-.5.17-.72.15.03,0,.25-.02.03,0-.06,0-.12.01-.18.01s-.12,0-.17,0c-.04,0-.28-.04-.11,0,.16.03-.02-.01-.06-.02-.06-.02-.19-.1-.05,0,.23.15-.24-.19-.04-.02.14.12-.05-.06-.09-.09-.13-.13.05.04.05.06,0-.01-.09-.17-.1-.18.03.03.07.25.04.07,0-.03-.02-.12-.03-.14.02.03,0,.27.02.08,0-.03.01-.14,0-.15,0,.02-.05.22-.01.11.02-.05.03-.1.04-.15.03-.14-.1.19-.03.07.03-.05.06-.1.09-.16.08-.16-.02.03-.05.05.03-.02.06-.08.09-.11.02-.02.21-.19.21-.19.02.03-.2.14-.06.05.04-.02.08-.05.12-.08.09-.06.18-.1.28-.15.13-.07-.22.08-.08.03.05-.01.09-.03.14-.05.12-.04.23-.08.35-.11.1-.03.2-.05.31-.07.24-.05-.03,0-.03,0,.03-.03.22-.02.26-.02.06,0,.69.02.69.02,0,.01-.22-.04-.09,0,.06.01.11.02.17.03.12.03.25.06.37.1.03,0,.13.03.16.06-.13-.11-.12-.06-.03-.01.05.02.27.1.28.15,0-.04-.15-.14-.04-.02-.02-.02-.14-.21-.06-.06,0-.02-.1-.26-.04-.08.06.19,0-.19,0-.06,0,.05,0,.1,0,.14,0,.15.05-.22.01-.08-.01.05-.02.1-.03.15s-.03.2,0,.04c.02-.14,0-.02-.02.04-.02.03-.05.06-.06.1.11-.31.18-.19.1-.14-.02.01-.09.07-.1.09,0-.01.25-.17.1-.09-.04.02-.08.05-.12.07-.08.05-.16.09-.24.13-.05.02-.34.15-.15.08.17-.07.03-.01-.02,0-.05.02-.1.04-.15.06-.31.11-.62.22-.94.28-.58.11-.96.84-.79,1.38.2.62.76.9,1.38.79.36-.07.72-.19,1.06-.33.52-.2,1.06-.43,1.48-.82.49-.45.75-1.22.73-1.87-.03-.85-.48-1.55-1.26-1.91-1.29-.6-2.8-.68-4.12-.13-.69.28-1.27.69-1.7,1.3s-.56,1.42-.37,2.13c.22.81.85,1.47,1.65,1.73s1.71.09,2.52-.1c.57-.14.97-.82.79-1.38-.19-.6-.77-.93-1.38-.79h0Z"/>
      <path class="cls-13" d="M89.78,93.01c.4-1.25,1.12-2.4,1.82-3.54.78-1.28,1.57-2.56,2.35-3.84.32-.52.11-1.24-.4-1.54s-1.22-.12-1.54.4c-.81,1.32-1.62,2.64-2.43,3.97s-1.52,2.53-1.97,3.95c-.18.58.22,1.23.79,1.38.61.17,1.2-.2,1.38-.79h0Z"/>
      <path class="cls-13" d="M88.35,94.42c.11.04.22.08.33.13.04.02.19.09.04.02-.16-.09.06.03.08.04.09.04.18.09.27.14.04.02.09.05.13.08.03.02.06.04.09.06.07.05.04.03-.08-.07.01-.01.19.18.21.2.14.15-.05-.05-.05-.07,0,0,.05.09.06.11.12.18-.05-.2-.03-.07,0,.04.02.08.03.12.01.04.04.19,0,0-.04-.2-.01.03,0,.08,0,.04,0,.2,0,.01,0-.18,0-.04-.01.01-.05.18-.06,0,.03-.05-.01,0-.06.12-.06.12-.04.09-.1.07.06-.05-.03.03-.07.08-.1.11,0,0-.1.1-.11.1.12-.09.15-.12.08-.07-.03.02-.06.04-.09.06-.16.1.04-.02.07-.02-.04,0-.1.03-.14.05-.06.02-.11.03-.17.04s-.18.07-.03,0c.15-.06.04,0-.03,0-.06,0-.12,0-.18,0-.05,0-.09,0-.14,0s-.25,0-.06,0,0,0-.05-.02-.09-.02-.13-.03c-.1-.03-.2-.05-.3-.09-.08-.03-.22-.05-.29-.11.17.14.13.06.03,0-.06-.03-.11-.06-.17-.08-.1-.05-.19-.11-.29-.17-.04-.03-.08-.05-.12-.08-.19-.13,0,.03.02.02-.05.03-.43-.4-.47-.45-.03-.04-.06-.07-.09-.11-.13-.15.04.04.04.06-.03-.08-.11-.16-.16-.24-.03-.05-.06-.1-.09-.16s-.05-.19-.03-.05l.03.06c-.02-.1-.03-.1-.01,0,0,.09.01.09,0,0-.03.18-.04.23-.02.14.02-.04.07-.18,0-.03-.09.18.03-.03.04-.05.08-.16-.03.08-.04.05,0,0,.11-.12.1-.11.08-.08.1-.02-.05.03.04-.01.09-.06.13-.08,0,0,.13-.06.13-.07-.05.1-.25.08-.09.05s-.18.03-.17.02c.02-.01.12,0,.15,0,.09,0,.18,0,.28.02.08,0,.18.05-.12-.02.06.01.12.02.18.03.1.02.21.04.31.06.19.04.37.09.55.15.08.03.16.05.24.08.1.04.39.16-.03-.02.29.12.55.2.87.11.26-.07.54-.27.67-.52.26-.48.17-1.29-.4-1.54-.44-.19-.89-.34-1.36-.45-.56-.13-1.15-.22-1.72-.1-.69.14-1.36.73-1.66,1.36-.38.81-.21,1.63.3,2.35.75,1.07,1.91,1.88,3.2,2.13.77.15,1.54.11,2.26-.22.66-.31,1.2-.94,1.37-1.65.21-.85-.02-1.7-.6-2.36-.53-.6-1.33-.9-2.06-1.17-.55-.21-1.26.23-1.38.79-.15.64.2,1.16.79,1.38h0Z"/>
      <path class="cls-13" d="M116.04,62.62c-.5.49-.93.82-1.51,1.2s-1.12.7-1.69,1.03c-1.32.77-2.63,1.54-3.95,2.31-.52.31-.71,1.01-.4,1.54s1.01.71,1.54.4c1.36-.8,2.72-1.59,4.08-2.39,1.25-.73,2.49-1.49,3.53-2.5.43-.42.43-1.17,0-1.59s-1.15-.43-1.59,0h0Z"/>
      <path class="cls-13" d="M117.96,62.09c-.08-.09-.16-.18-.24-.28-.04-.05-.1-.1-.13-.16.01.02.15.2.03.04-.06-.09-.12-.17-.18-.26-.03-.06-.06-.11-.09-.17-.02-.03-.03-.07-.05-.1.06.14.07.17.04.09-.01-.05-.03-.1-.04-.14-.04-.13.02-.18,0,.06,0-.06,0-.16,0-.22.04.2-.05.24-.02.13.01-.05.03-.09.04-.14.03-.14.1-.08-.04.08.03-.03.05-.09.07-.13.07-.12.11-.05-.05.06.03-.02.06-.07.08-.09.02-.02.08-.06.09-.08-.08.14-.19.12-.08.07.05-.02.09-.05.14-.08.12-.07-.27.06-.05.03.02,0,.14-.03.14-.03l-.14.02c.05,0,.1,0,.15,0,.04,0,.11.02.15,0-.18.03-.18-.03-.07,0,.05.01.1.02.15.04.03,0,.24.11.08.02-.17-.09.05.03.07.04.04.02.09.05.13.08s.08.06.13.08c.21.14-.18-.16,0,0,.17.15.33.31.48.48.03.04.06.09.1.12-.02-.02-.15-.21-.04-.05.07.1.14.2.2.31.06.09.11.19.16.29.1.21-.03-.02,0-.04,0,0,.06.15.05.13.08.22.13.43.17.66.03.15-.02-.24-.01-.09,0,.06.01.12.02.18,0,.04.03.29,0,.3-.01,0,.06-.24,0-.06-.07.26.08-.17.02-.04s.2-.22.05-.07c-.13.13.18-.11.06-.04-.04.03-.09.05-.14.08-.09.05-.12,0,.09-.04-.05,0-.23.04-.26.07.08-.07.26-.02.07-.01-.06,0-.11,0-.17,0-.15,0-.02-.09.16.02-.01,0-.12-.03-.12-.04,0-.01.28.14.14.06-.04-.02-.09-.05-.13-.07-.08-.05-.16-.1-.23-.15-.03-.02-.06-.05-.09-.07.26.15.12.09.04.03s-.16-.13-.23-.2c-.25-.23-.5-.47-.72-.73-.17-.21-.54-.33-.8-.33-.28,0-.61.12-.8.33s-.34.5-.33.8c.01.32.13.55.33.8.24.3.52.57.81.81.42.36.9.75,1.44.91.65.19,1.46.05,2.02-.32.74-.48,1.06-1.25.99-2.12-.11-1.34-.73-2.65-1.77-3.52-.61-.51-1.29-.86-2.08-.93-.74-.06-1.54.23-2.04.78-.57.63-.81,1.46-.63,2.29s.73,1.47,1.26,2.08c.39.45,1.2.43,1.59,0,.44-.47.41-1.12,0-1.59h0Z"/>
      <path class="cls-13" d="M119.01,70.46c-1.3.46-2.65.58-4.02.71-1.46.14-2.91.28-4.37.42-.6.06-1.12.48-1.12,1.12,0,.56.52,1.18,1.12,1.12,1.51-.14,3.02-.29,4.54-.43s3.02-.27,4.45-.77c.57-.2.95-.77.79-1.38-.15-.56-.81-.99-1.38-.79h0Z"/>
      <path class="cls-13" d="M120.91,70.9c-.07-.25-.14-.49-.19-.74-.01-.05-.04-.14-.03-.19,0,.03.01.25,0,.02,0-.06,0-.12,0-.18,0-.03.02-.29,0-.12-.02.18.13-.32.02-.1-.09.19.06-.08.08-.12.05-.1-.06.1-.07.1,0,0,.08-.08.09-.09.12-.13-.04.04-.07.05.05-.01.13-.08.17-.1.14-.08-.05.07-.08.03,0,0,.14-.04.13-.04.16-.05-.06.06-.09,0,0,0,.16,0,.15,0,.03,0,.17.01,0,0s-.01,0,.03.02h.04c.09.04.09.04,0,0-.09-.04-.09-.04,0,0l.06.03s.08.05.12.08c.16.1-.05-.02-.06-.05.03.07.15.14.2.2,0,0,.09.11.09.11-.02,0-.16-.23-.05-.06.05.09.11.18.16.27.02.04.04.08.06.12s.05.17.02.03c-.04-.16,0,.03.02.07.02.06.04.11.06.17.03.1.06.2.08.3.01.06.03.12.04.17,0,.04.02.09.02.13.01.09,0,.06-.01-.08.04.09.02.25.02.35,0,.12,0,.23,0,.35,0,.04,0,.09-.01.13,0,.16.04-.2,0-.04-.03.12-.05.25-.08.37-.02.09-.05.25-.11.32.11-.12.06-.13.02-.04-.02.05-.05.09-.07.14-.09.17,0,0,.03-.04.02-.02.21-.13.06-.05-.14.08.06-.06.09-.03,0,0-.28.06-.05.02.18-.03.02,0-.03,0h-.04c-.1,0-.1,0,0,0h.08s-.07,0-.11-.01c-.05-.01-.1-.03-.15-.04-.14-.03.18.1.06.03-.03-.02-.07-.04-.1-.05-.15-.06.17.11.13.11-.02,0-.08-.08-.1-.1-.06-.05-.09-.18.08.11-.02-.04-.05-.08-.08-.11-.05-.07-.09-.15-.14-.23-.09-.17-.16-.36-.25-.52.13.22.07.17.04.09-.02-.06-.05-.11-.07-.17-.03-.08-.06-.16-.09-.24-.04-.13-.09-.26-.12-.4-.14-.57-.82-.97-1.38-.79-.6.19-.93.77-.79,1.38.1.43.28.85.46,1.26.19.44.43.89.77,1.24.47.48,1.23.72,1.89.68.85-.05,1.54-.51,1.88-1.3.61-1.4.53-2.95-.11-4.33-.58-1.25-1.98-2.21-3.38-1.77-.79.25-1.43.85-1.69,1.64-.28.84-.06,1.75.17,2.58.16.57.8.97,1.38.79s.96-.78.79-1.38h0Z"/>
      <path class="cls-13" d="M116.5,83.98c-1.19-.43-2.36-1.23-3.46-1.96-1.25-.83-2.5-1.67-3.75-2.5-.51-.34-1.25-.1-1.54.4-.32.55-.1,1.2.4,1.54,1.29.86,2.58,1.72,3.87,2.58s2.47,1.6,3.87,2.11c.55.2,1.26-.22,1.38-.79.14-.63-.19-1.17-.79-1.38h0Z"/>
      <path class="cls-13" d="M117.79,85.7c.09-.21.18-.43.29-.64.05-.09.09-.18.15-.27.03-.04.05-.09.08-.13.02-.03.04-.06.06-.09.05-.07.03-.04-.06.08-.01-.02.18-.18.2-.21.14-.14-.03.05-.06.04.01,0,.11-.06.13-.08.1-.08-.23.06-.1.04.05,0,.1-.03.15-.04.11-.03.1.04-.12,0,.05,0,.11,0,.16,0,.14,0,.13.07-.08-.02.03.01.09.02.13.03.02,0,.11.04.12.04-.1.02-.21-.11-.09-.03.04.02.08.05.11.07.2.11-.13-.14-.04-.03.03.04.07.07.1.1.08.08-.1-.19-.02-.01l.04.07c.04.09.05.09,0,0-.09-.09-.02-.04,0,.04.02.06.03.12.05.18.05.17-.06-.05,0-.08-.02,0,.01.26.01.3,0,.05,0,.1,0,.15,0,.25.05-.25,0-.01-.04.2-.1.4-.17.6v.04c-.06.11-.05.1.01-.06,0,.03-.05.12-.06.14-.05.11-.11.22-.18.33-.05.08-.1.17-.16.25,0,0-.08.12-.09.12.01,0,.15-.18.04-.06-.15.17-.31.34-.48.49l-.03.02c-.07.06-.07.06,0,0l.06-.04s-.08.06-.12.08c-.08.05-.16.1-.24.15-.04.02-.08.04-.13.07-.19.11.04-.03.05-.02-.02-.01-.13.06-.15.04.16-.02.18-.03.07-.02l.17.02c-.18-.04.07.02.08.05,0-.02-.13-.07-.15-.09-.13-.06.15.15.06.04-.03-.04-.07-.07-.11-.1-.15-.16-.03.02.01.02,0,0-.08-.14-.08-.13-.08-.13.05,0,.02.06,0-.01-.04-.1-.03-.11.03-.02,0,.34.03.17,0-.05,0-.1,0-.15,0-.12.09-.38,0-.03.06-.2.08-.41.13-.61.05-.18.11-.37.17-.55.03-.08.06-.16.09-.24.08-.21-.14.29-.01.04.25-.53.16-1.24-.4-1.54-.5-.27-1.27-.16-1.54.4-.43.9-.83,2.06-.64,3.07.13.67.68,1.37,1.29,1.68.44.22.88.3,1.36.21.36-.07.72-.25,1.03-.45,1.1-.71,1.94-1.87,2.23-3.15.15-.67.17-1.4-.08-2.04-.3-.77-.88-1.37-1.69-1.62s-1.68-.03-2.34.5c-.57.46-.9,1.14-1.18,1.8-.12.29-.2.55-.11.87.07.26.27.54.52.67.48.25,1.29.17,1.54-.4h0Z"/>
      <path class="cls-13" d="M75,70.47c1.4.22,2.7.77,4,1.32,1.4.59,2.8,1.18,4.2,1.77.56.24,1.24-.25,1.38-.79.18-.65-.22-1.15-.79-1.38-1.4-.59-2.8-1.18-4.2-1.77-1.3-.55-2.6-1.1-4-1.32-.6-.09-1.21.15-1.38.79-.15.53.18,1.29.79,1.38h0Z"/>
      <path class="cls-13" d="M73.6,69.14c-.05.24-.1.47-.17.7-.03.1-.06.2-.1.3-.05.13-.06.02.02-.05-.03.03-.08.16-.11.2-.01.02-.08.11-.08.13,0-.03.18-.2.04-.05-.03.03-.07.07-.1.1-.12.13.05-.06.08-.06-.01,0-.12.07-.14.08-.1.09.22-.06.09-.04-.04,0-.08.03-.13.04-.25.06.14,0,.03,0-.04,0-.09,0-.14,0-.15,0,.24.05.09.02-.06-.02-.11-.03-.17-.04-.17-.04.09,0,.07.03,0,0-.14-.07-.13-.07.07,0,.16.14.05.04-.03-.03-.07-.07-.1-.1-.16-.15.12.2,0,0-.03-.06-.08-.21-.13-.24.11.08.08.21.03.04-.01-.04-.03-.09-.04-.13s-.02-.09-.03-.14c-.04-.15.02.3,0,.06,0-.1-.01-.2-.01-.3s0-.2.02-.29c0-.1.06-.12,0,.06.02-.04.02-.11.03-.15.04-.23.1-.45.18-.67.01-.03.12-.23.03-.08-.09.14,0,0,.02-.04.05-.1.1-.2.16-.3.05-.09.11-.17.16-.25.04-.06.13-.13-.04.05.05-.05.09-.11.14-.17.06-.06.33-.41.42-.4l-.11.08s.06-.05.1-.07c.05-.03.19-.07.04-.03-.22.05.21-.04-.07.02-.11.01-.12.02-.03.01-.18-.03-.23-.04-.14-.02.04.01.09.03.13.03.13.02-.23-.14-.05-.02.04.03.08.05.12.07.15.09-.07-.03-.06-.05,0,0,.21.2.2.21-.02.02-.14-.2-.05-.05s-.08-.29-.05-.12c.01.08.03.16.05.23-.09-.38-.02-.09-.01.04,0,.21,0,.42-.02.62,0,.1-.02.21-.03.31,0,.08-.04.21.02-.12,0,.05-.01.09-.02.14-.02.15-.05.3-.09.45-.15.57.19,1.25.79,1.38s1.22-.18,1.38-.79c.12-.46.17-.95.21-1.43s.03-1.01-.12-1.46c-.25-.74-.92-1.32-1.65-1.56-.87-.29-1.65.08-2.28.66-.99.9-1.54,2.22-1.62,3.54-.09,1.39.7,2.98,2.19,3.21.84.13,1.74-.09,2.32-.76.54-.63.78-1.4.95-2.19.12-.57-.17-1.24-.79-1.38-.57-.13-1.25.17-1.38.79h0Z"/>
      <path class="cls-13" d="M77.56,80.76c1.32-.38,2.69-.41,4.05-.45,1.46-.05,2.92-.1,4.39-.16.61-.02,1.12-.5,1.12-1.12s-.51-1.15-1.12-1.12c-1.52.05-3.04.11-4.55.16s-3.03.11-4.48.53-.8,2.57.6,2.17h0Z"/>
      <path class="cls-13" d="M75.64,80.28c.05.23.13.48.14.72,0-.04-.02-.24,0-.03,0,.06,0,.12.01.18s0,.12,0,.17c0,.05-.05.27,0,.11.07-.23-.13.37-.03.11.09-.23-.17.22-.02.04.14-.17-.1.09-.1.08-.01-.05.2-.13.06-.05-.05.03-.14.07-.18.1.03-.03.24-.07.07-.04-.03,0-.12.02-.14.03.04-.02.27,0,.08-.02-.03,0-.13-.01-.15,0,.02,0,.22.05.11,0-.04-.02-.1-.03-.15-.04-.14-.03.19.11.07.03-.05-.03-.1-.06-.16-.09-.16-.09.04.02.06.05-.02-.03-.08-.07-.11-.1-.02-.02-.19-.21-.19-.21.05-.02.13.2.05.05-.02-.04-.05-.08-.08-.12-.05-.09-.1-.19-.15-.28-.07-.13.07.22.03.08-.01-.05-.03-.09-.05-.14-.04-.12-.07-.23-.1-.35-.03-.1-.04-.21-.06-.31-.05-.24,0,.03,0,.03-.02-.01-.02-.24-.02-.26,0-.12,0-.23,0-.35,0-.06,0-.12.01-.17.01-.18.02.04,0,.04,0,0,.14-.61.16-.66.01-.04.03-.12.06-.16-.12.19-.04.09-.01.04.03-.06.1-.26.16-.28-.07.03-.13.14-.02.05-.02.02-.21.14-.05.06-.01,0-.26.12-.08.04s-.18,0-.06,0c.05,0,.1,0,.14,0,.15,0-.22-.05-.08-.01.05.01.1.02.15.04.04.01.2.08.04,0-.16-.07.1.07.13.08-.16-.06-.22-.18-.14-.1.08.07.1.17-.06-.09.09.15.18.29.26.44.02.04.03.08.05.11.08.18-.07-.19-.03-.06.03.09.07.18.1.27.11.31.21.62.27.94.1.58.84.96,1.38.79.62-.2.9-.76.79-1.38-.07-.36-.18-.72-.31-1.07-.2-.53-.42-1.06-.8-1.48-.45-.49-1.21-.76-1.87-.74-.85.02-1.55.48-1.92,1.24-.62,1.27-.7,2.8-.17,4.12.28.69.68,1.28,1.29,1.71s1.41.57,2.13.38c.81-.22,1.47-.85,1.74-1.64s.1-1.71-.08-2.52c-.13-.57-.82-.97-1.38-.79-.6.2-.92.77-.79,1.38h0Z"/>
      <path class="cls-13" d="M94.19,51.33c.39,1.32.44,2.68.5,4.05.07,1.46.14,2.92.21,4.38.03.61.5,1.12,1.12,1.12.59,0,1.15-.52,1.12-1.12-.07-1.52-.14-3.03-.21-4.55s-.15-3.03-.58-4.48-2.58-.8-2.17.6h0Z"/>
      <path class="cls-13" d="M94.66,49.41c-.21.05-.5.17-.72.15.03,0,.25-.02.03,0-.06,0-.12.01-.18.01s-.12,0-.17,0c-.04,0-.28-.04-.11,0,.16.03-.02-.01-.06-.02-.06-.02-.19-.1-.05,0,.23.15-.24-.19-.04-.02.14.12-.05-.06-.09-.09-.13-.13.05.04.05.06,0-.01-.09-.17-.1-.18.03.03.07.25.04.07,0-.03-.02-.12-.03-.14.02.03,0,.27.02.08,0-.03.01-.14,0-.15,0,.02-.05.22-.01.11.02-.05.03-.1.04-.15.03-.14-.1.19-.03.07.03-.05.06-.1.09-.16.08-.16-.02.03-.05.05.03-.02.06-.08.09-.11.02-.02.21-.19.21-.19.02.03-.2.14-.06.05.04-.02.08-.05.12-.08.09-.06.18-.1.28-.15.13-.07-.22.08-.08.03.05-.01.09-.03.14-.05.12-.04.23-.08.35-.11.1-.03.2-.05.31-.07.24-.05-.03,0-.03,0,.03-.03.22-.02.26-.02.06,0,.69.02.69.02,0,.01-.22-.04-.09,0,.06.01.11.02.17.03.12.03.25.06.37.1.03,0,.13.03.16.06-.13-.11-.12-.06-.03-.01.05.02.27.1.28.15,0-.04-.15-.14-.04-.02-.02-.02-.14-.21-.06-.06,0-.02-.1-.26-.04-.08.06.19,0-.19,0-.06,0,.05,0,.1,0,.14,0,.15.05-.22.01-.08-.01.05-.02.1-.03.15s-.03.2,0,.04c.02-.14,0-.02-.02.04-.02.03-.05.06-.06.1.11-.31.18-.19.1-.14-.02.01-.09.07-.1.09,0-.01.25-.17.1-.09-.04.02-.08.05-.12.07-.08.05-.16.09-.24.13-.05.02-.34.15-.15.08.17-.07.03-.01-.02,0-.05.02-.1.04-.15.06-.31.11-.62.22-.94.28-.58.11-.96.84-.79,1.38.2.62.76.9,1.38.79.36-.07.72-.19,1.06-.33.52-.2,1.06-.43,1.48-.82.49-.45.75-1.22.73-1.87-.03-.85-.48-1.55-1.26-1.91-1.29-.6-2.8-.68-4.12-.13-.69.28-1.27.69-1.7,1.3s-.56,1.42-.37,2.13c.22.81.85,1.47,1.65,1.73s1.71.09,2.52-.1c.57-.14.97-.82.79-1.38-.19-.6-.77-.93-1.38-.79h0Z"/>
      <path class="cls-13" d="M103.95,53.09c-.08,1.36-.53,2.68-.94,3.97-.44,1.4-.87,2.79-1.31,4.19-.18.58.21,1.23.79,1.38.6.17,1.2-.2,1.38-.79.45-1.45.9-2.9,1.36-4.35s.87-2.89.97-4.41c.04-.61-.54-1.12-1.12-1.12-.64,0-1.09.52-1.12,1.12h0Z"/>
      <path class="cls-13" d="M104.97,51.36c-.06,0-.11-.01-.17-.02-.22-.02.03,0,.05,0-.08-.04-.24-.04-.33-.05-.11-.02-.21-.05-.32-.08-.05-.01-.1-.03-.15-.05-.25-.07.2.11-.02,0-.04-.02-.09-.05-.14-.08-.21-.1.06.03.04.04,0,0-.09-.08-.1-.09-.13-.11.03.03.04.07,0-.02-.06-.09-.07-.12-.1-.14.02.03.02.08,0-.04-.03-.1-.04-.14,0-.03-.02-.07-.02-.11-.02-.09-.01-.05.02.12,0,0,0-.16,0-.15,0-.18.02.08-.01.08,0,0,.04-.16.04-.15.04-.17-.03.04-.02.05-.01-.03.09-.12.08-.14,0,.02-.19.2-.04.05.03-.03.07-.07.1-.1.14-.14-.14.09-.03.02.08-.05.21-.1.28-.16-.02.02-.25.09-.07.03.05-.01.09-.03.14-.04.09-.03.18-.04.28-.06.14-.03.02.05-.09.01.04.02.13-.01.17-.01.21,0,.41,0,.62.02.16.01-.21-.04-.06,0,.05.01.11.02.16.03.12.02.23.05.35.09s.22.08.34.11c.15.05-.19-.09-.05-.02.05.02.09.04.14.07.15.08.46.2.56.34-.1-.14-.13-.1-.05-.03.04.03.08.07.11.1.08.07.15.15.22.22.14.14,0-.01-.03-.04.11.14,0,0-.01-.05.06.18-.03-.09,0-.11,0,.03,0,.07,0,.1,0,.09,0,.04.02-.13,0,0-.04.14-.04.14-.05.19,0-.06.03-.07,0,0-.06.11-.07.13-.09.17,0-.03.04-.04-.03,0-.21.19-.21.21.02-.09.21-.14.11-.09-.14.08.29-.09.11-.04-.07.02-.15.04-.22.06-.04,0-.07.01-.11.02-.19.04.04-.01.1-.01-.19,0-.4.03-.59.04s-.38,0-.57-.01c-.08,0-.17-.01-.25-.02-.03,0-.06,0-.09,0-.17-.01.32.05.16.02-.58-.09-1.24.15-1.38.79-.12.54.16,1.28.79,1.38.46.07.92.11,1.38.1.49,0,1.02-.04,1.48-.22.73-.28,1.27-.93,1.5-1.68.25-.84-.07-1.64-.68-2.23-.97-.94-2.35-1.45-3.7-1.42-1.52.04-3.02.95-3.13,2.6-.06.89.39,1.72,1.11,2.22s1.54.57,2.35.67c.59.07,1.15-.57,1.12-1.12-.03-.67-.5-1.05-1.12-1.12h0Z"/>
      <path class="cls-13" d="M126.18,54.81c2.2-.66,4.41-.62,6.6.14.56.19,1.25-.22,1.38-.79.14-.63-.19-1.18-.79-1.38-2.5-.86-5.27-.91-7.79-.14-.56.17-.98.8-.79,1.38s.78.97,1.38.79h0Z"/>
      <path class="cls-13" d="M137.22,55.6c1.45,0,1.45-2.25,0-2.25s-1.45,2.25,0,2.25h0Z"/>
      <path class="cls-13" d="M129.05,74.27c3.87.15,7.77-.51,11.36-1.96.56-.23.96-.75.79-1.38-.15-.53-.82-1.01-1.38-.79-3.43,1.38-7.07,2.03-10.77,1.88-1.45-.06-1.45,2.19,0,2.25h0Z"/>
      <path class="cls-13" d="M144.29,69.98c1.45,0,1.45-2.25,0-2.25s-1.45,2.25,0,2.25h0Z"/>
      <path class="cls-13" d="M75.28,56.35c-.45-.93-.47-2.12-.27-3.12.25-1.24.75-2.41,1.26-3.57.25-.56.16-1.21-.4-1.54-.48-.28-1.29-.15-1.54.4-.62,1.41-1.28,2.84-1.53,4.37s-.15,3.13.55,4.59c.26.55,1.05.69,1.54.4.56-.33.67-.99.4-1.54h0Z"/>
      <path class="cls-13" d="M76.75,46.94c1.45,0,1.45-2.25,0-2.25s-1.45,2.25,0,2.25h0Z"/>
      <path class="cls-13" d="M99.06,38.29h.12c.15,0,.3-.03.43-.1.14-.05.26-.12.36-.23.11-.1.19-.22.23-.36.07-.13.1-.28.1-.43l-.04-.3c-.05-.19-.15-.36-.29-.5l-.23-.18c-.18-.1-.36-.15-.57-.15h-.12c-.15,0-.3.03-.43.1-.14.05-.26.12-.36.23-.11.1-.19.22-.23.36-.07.13-.1.28-.1.43l.04.3c.05.19.15.36.29.5l.23.18c.18.1.36.15.57.15h0Z"/>
      <path class="cls-13" d="M101.42,41.43c.16.1.31.21.46.33l-.23-.18c.5.38.94.83,1.32,1.32l-.18-.23c.25.32.47.67.66,1.03.28.52,1.04.72,1.54.4.53-.34.7-.98.4-1.54-.67-1.25-1.66-2.31-2.85-3.08-.24-.16-.6-.19-.87-.11s-.54.27-.67.52c-.3.56-.12,1.19.4,1.54h0Z"/>
      <path class="cls-13" d="M57.37,91.68c1.45,0,1.45-2.25,0-2.25s-1.45,2.25,0,2.25h0Z"/>
      <path class="cls-13" d="M63.78,90.73c4.17-.93,8.29-2.1,12.33-3.51,1.36-.47.77-2.65-.6-2.17-4.04,1.4-8.16,2.57-12.33,3.51-1.41.32-.81,2.48.6,2.17h0Z"/>
      <path class="cls-13" d="M57.46,68.88c.53-.27.81-.4,1.26-.56.49-.18.98-.34,1.49-.47s1.01-.23,1.53-.32c.36-.06-.22.02.14-.02.15-.02.3-.03.44-.05.26-.02.52-.04.78-.05.59-.02,1.15-.5,1.12-1.12-.03-.59-.5-1.15-1.12-1.12-2.37.1-4.66.71-6.77,1.78-.53.27-.72,1.05-.4,1.54.35.54.98.69,1.54.4h0Z"/>
      <path class="cls-13" d="M50.88,68.74v.12c0,.15.03.3.1.43.05.14.12.26.23.36.1.11.22.19.36.23.13.07.28.1.43.1l.3-.04c.19-.05.36-.15.5-.29l.18-.23c.1-.18.15-.36.15-.57v-.12c0-.15-.03-.3-.1-.43-.05-.14-.12-.26-.23-.36-.1-.11-.22-.19-.36-.23-.13-.07-.28-.1-.43-.1l-.3.04c-.19.05-.36.15-.5.29l-.18.23c-.1.18-.15.36-.15.57h0Z"/>
      <path class="cls-13" d="M94.24,93.91l-.08.08c-1.03,1.03.57,2.62,1.59,1.59l.08-.08c1.03-1.03-.57-2.62-1.59-1.59l-.08.08c-1.03,1.03.57,2.62,1.59,1.59l.08-.08c1.03-1.03-.57-2.62-1.59-1.59h0Z"/>
      <path class="cls-13" d="M91.84,100.37c-1.16,3.43-2.42,7.02-5.38,9.32-.48.37-.39,1.2,0,1.59.47.47,1.11.37,1.59,0,3.26-2.53,4.68-6.55,5.96-10.31.2-.58-.22-1.23-.79-1.38-.62-.17-1.19.21-1.38.79h0Z"/>
      <path class="cls-13" d="M85.29,113.99c1.45,0,1.45-2.25,0-2.25s-1.45,2.25,0,2.25h0Z"/>
      <path class="cls-13" d="M72.61,98.68c.3-.67.67-1.31,1.12-1.89l-.18.23c.39-.51.84-.98,1.33-1.39.21-.18.33-.53.33-.8s-.12-.61-.33-.8-.5-.34-.8-.33-.56.13-.8.33c-1.11.95-2.03,2.17-2.62,3.51-.13.29-.2.55-.11.87.07.26.27.54.52.67.26.14.58.21.87.11.26-.08.56-.26.67-.52h0Z"/>
      <path class="cls-13" d="M69.2,102.53c1.45,0,1.45-2.25,0-2.25s-1.45,2.25,0,2.25h0Z"/>
      <path class="cls-13" d="M107.2,93v.12c0,.15.03.3.1.43.05.14.12.26.23.36.1.11.22.19.36.23.13.07.28.1.43.1l.3-.04c.19-.05.36-.15.5-.29l.18-.23c.1-.18.15-.36.15-.57v-.12c0-.15-.03-.3-.1-.43-.05-.14-.12-.26-.23-.36-.1-.11-.22-.19-.36-.23-.13-.07-.28-.1-.43-.1l-.3.04c-.19.05-.36.15-.5.29l-.18.23c-.1.18-.15.36-.15.57h0Z"/>
      <path class="cls-13" d="M110.39,97.35c1.84,2.85,4.07,5.45,6.64,7.67.46.4,1.14.45,1.59,0,.41-.41.46-1.19,0-1.59-2.46-2.13-4.55-4.53-6.29-7.22-.33-.51-1-.72-1.54-.4-.51.3-.73,1.03-.4,1.54h0Z"/>
      <path class="cls-13" d="M120.03,108.02c1.45,0,1.45-2.25,0-2.25s-1.45,2.25,0,2.25h0Z"/>
      <path class="cls-13" d="M128.83,84.85c.51.33,1,.67,1.49,1.03.12.09.24.18.36.27.1.08-.11-.09.05.04.05.04.11.08.16.12.25.2.5.4.74.61.93.79,1.82,1.65,2.65,2.55.4.43,1.19.43,1.59,0,.43-.47.43-1.13,0-1.59-1.74-1.9-3.74-3.57-5.9-4.98-.49-.32-1.26-.12-1.54.4-.3.56-.12,1.2.4,1.54h0Z"/>
      <path class="cls-13" d="M137.1,90.53h-.24c-.15,0-.3.03-.43.1-.14.05-.26.12-.36.23-.11.1-.19.22-.23.36-.07.13-.1.28-.1.43l.04.3c.05.19.15.36.29.5l.23.18c.18.1.36.15.57.15h.24c.15,0,.3-.03.43-.1.14-.05.26-.12.36-.23.11-.1.19-.22.23-.36.07-.13.1-.28.1-.43l-.04-.3c-.05-.19-.15-.36-.29-.5l-.23-.18c-.18-.1-.36-.15-.57-.15h0Z"/>
      <path class="cls-13" d="M119.03,125.54v.12c0,.15.03.3.1.43.05.14.12.26.23.36.1.11.22.19.36.23.13.07.28.1.43.1l.3-.04c.19-.05.36-.15.5-.29l.18-.23c.1-.18.15-.36.15-.57v-.12c0-.15-.03-.3-.1-.43-.05-.14-.12-.26-.23-.36-.1-.11-.22-.19-.36-.23-.13-.07-.28-.1-.43-.1l-.3.04c-.19.05-.36.15-.5.29l-.18.23c-.1.18-.15.36-.15.57h0Z"/>
      <path class="cls-13" d="M118.92,130.25c-1.57,5.73-3.37,12.21-8.68,15.63-1.22.78-.09,2.73,1.14,1.94,5.87-3.76,7.97-10.61,9.72-16.97.38-1.4-1.79-2-2.17-.6h0Z"/>
      <path class="cls-13" d="M100.48,132.98c-.39,5.85-.65,11.85,1.77,17.34.58,1.32,2.52.18,1.94-1.14-2.23-5.07-1.82-10.82-1.46-16.2.1-1.45-2.15-1.44-2.25,0h0Z"/>
      <path class="cls-13" d="M100.62,129.08v.12c0,.15.03.3.1.43.05.14.12.26.23.36.1.11.22.19.36.23.13.07.28.1.43.1l.3-.04c.19-.05.36-.15.5-.29l.18-.23c.1-.18.15-.36.15-.57v-.12c0-.15-.03-.3-.1-.43-.05-.14-.12-.26-.23-.36-.1-.11-.22-.19-.36-.23-.13-.07-.28-.1-.43-.1l-.3.04c-.19.05-.36.15-.5.29l-.18.23c-.1.18-.15.36-.15.57h0Z"/>
      <path class="cls-13" d="M108.08,132.64c1.45,0,1.45-2.25,0-2.25s-1.45,2.25,0,2.25h0Z"/>
      <path class="cls-13" d="M107.17,135.78c-.14,2.4-.48,4.77-1.03,7.1-.27,1.14-.57,2.26-.93,3.37-.3.91-.65,1.8-1.34,2.5-1.02,1.03.57,2.62,1.59,1.59,1.69-1.71,2.25-4.35,2.79-6.61.63-2.61,1.01-5.28,1.17-7.96.09-1.45-2.16-1.44-2.25,0h0Z"/>
      <path class="cls-13" d="M176.69,61.68h.03c-.19-.7-.38-1.4-.57-2.1l-.04.02,1.54,1.54v-.02c.73-1.26-1.21-2.39-1.93-1.14v.02c-.57.98.54,2.09,1.53,1.54l.04-.02c.99-.56.53-2.07-.57-2.1h-.03c-1.45-.03-1.45,2.22,0,2.25h0Z"/>
      <path class="cls-13" d="M179.1,67.22c2.71,5.37,3.37,11.61,1.9,17.43-.35,1.4,1.81,2,2.17.6,1.62-6.43.85-13.25-2.13-19.17-.65-1.29-2.59-.16-1.94,1.14h0Z"/>
      <path class="cls-13" d="M179.83,92.94c1.45,0,1.45-2.25,0-2.25s-1.45,2.25,0,2.25h0Z"/>
      <path class="cls-13" d="M18.64,61.42v.18c0,.15.03.3.1.43.05.14.12.26.23.36.1.11.22.19.36.23.13.07.28.1.43.1l.3-.04c.19-.05.36-.15.5-.29l.18-.23c.1-.18.15-.36.15-.57v-.18c0-.15-.03-.3-.1-.43-.05-.14-.12-.26-.23-.36-.1-.11-.22-.19-.36-.23-.13-.07-.28-.1-.43-.1l-.3.04c-.19.05-.36.15-.5.29l-.18.23c-.1.18-.15.36-.15.57h0Z"/>
      <path class="cls-13" d="M23.43,58.39c3.34-5.12,7.6-9.63,12.54-13.23.49-.36.73-.98.4-1.54-.28-.48-1.05-.76-1.54-.4-5.26,3.84-9.78,8.58-13.34,14.04-.79,1.22,1.15,2.34,1.94,1.14h0Z"/>
      <path class="cls-13" d="M40.39,42.44v-.18c0-.15-.03-.3-.1-.43-.05-.14-.12-.26-.23-.36-.1-.11-.22-.19-.36-.23-.13-.07-.28-.1-.43-.1l-.3.04c-.19.05-.36.15-.5.29l-.18.23c-.1.18-.15.36-.15.57v.18c0,.15.03.3.1.43.05.14.12.26.23.36.1.11.22.19.36.23.13.07.28.1.43.1l.3-.04c.19-.05.36-.15.5-.29l.18-.23c.1-.18.15-.36.15-.57h0Z"/>
    </g>
  </g>
</svg>