<?xml version="1.0" encoding="UTF-8"?>
<svg xmlns="http://www.w3.org/2000/svg" viewBox="0 0 200 200">
  <defs>
    <style>
      .cls-1 {
        fill: #f2cb86;
      }

      .cls-2 {
        fill: #b6d5f2;
      }

      .cls-3 {
        fill: #eefaff;
      }

      .cls-4 {
        fill: #edabac;
      }

      .cls-5 {
        fill: #e8f5f9;
      }

      .cls-6 {
        fill: #a1e0ff;
      }

      .cls-7 {
        fill: #a0a0a0;
      }

      .cls-8 {
        fill: #bbd8f9;
      }

      .cls-9 {
        fill: #54843c;
      }

      .cls-10 {
        fill: #9cdef2;
      }

      .cls-11 {
        fill: #fff;
      }

      .cls-12 {
        fill: #e8efd0;
      }

      .cls-13 {
        fill: #def4ff;
      }

      .cls-14 {
        fill: #68c5ea;
      }

      .cls-15 {
        fill: #ecbe6b;
      }

      .cls-16 {
        fill: #c1def4;
      }

      .cls-17 {
        fill: #a2cc87;
      }

      .cls-18 {
        fill: #bbce8a;
        opacity: .24;
      }

      .cls-19 {
        fill: #cee7fd;
      }

      .cls-20 {
        fill: #e4eacc;
      }

      .cls-21 {
        fill: #6dc9f7;
      }

      .cls-22 {
        fill: #98c0f7;
      }

      .cls-23 {
        fill: #92bcef;
      }

      .cls-24 {
        fill: #c9e3f7;
      }

      .cls-25 {
        fill: #517c38;
      }

      .cls-26 {
        fill: #a6d38c;
      }

      .cls-27 {
        fill: #bddcef;
      }
    </style>
  </defs>
  <g id="Colour">
    <path class="cls-12" d="M100,169.1c38.59-12.14,96.24-53.69,89.23-99.14-7.06-34.62-50.97-50.34-78.7-30.05-3.04,2.23-6.75,3.35-10.52,3.35h0c-3.77,0-7.48-1.12-10.52-3.35-27.73-20.28-71.64-4.57-78.7,30.05-7.02,45.45,50.63,87,89.23,99.14"/>
    <path class="cls-8" d="M117.88,41.57c-.75-1.35-2.35-2.45-3.61-3.29-1.37-.91-2.9-1.58-4.47-2.07-.69-.21-1.25.03-1.59.45-1.25-.18-2.51-.3-3.76-.41-3.48-.3-6.72.25-9.04,3.09-4.2,5.16-4.71,12.6-1.91,18.52.38.79,1.51,1,2.22.58.59-.34.82-.94.77-1.54,1.51-.69,3.04-1.32,4.6-1.89,1.71-.62,3.52-1.31,5.36-1.34,1.7-.04,3.45,1.15,4.92-.23,1.04-.97,1.39-2.68,2.08-3.89.79-1.39,1.76-2.63,2.9-3.75,1.18-1.14,2.5-2.49,1.53-4.24Z"/>
    <path class="cls-22" d="M82.87,79.62c-1.86-2.87-3.93-5.92-4.43-9.39-.38-2.69.3-5.53,2.45-7.29.68-.56.58-1.72,0-2.3-.67-.67-1.62-.56-2.3,0-.36.29-.69.62-.99.96-.18-.18-.41-.32-.67-.37-.56-.12-1.11-.2-1.66-.26-.25-.2-.58-.33-.99-.33-.31,0-.57.08-.79.2-2.02-.05-4.03.18-6.05.46-1.45.2-2.9.37-4.07,1.35-1.24,1.03-1.62,2.59-1.39,4.13.01.08.04.15.07.22-.12.3-.16.65-.03,1.07.59,2.01,1.3,3.97,2.12,5.89.76,1.78,1.59,3.6,3,4.98,2.28,2.24,5.64,3.17,8.75,2.52,2.12.54,4.34,1.96,6.41.38.67-.51,1.11-1.41.58-2.22Z"/>
    <path class="cls-9" d="M116.7,146.76s-.01-.06-.02-.09c.36-.29.59-.72.59-1.23,0-3.21-.46-6.43-1.36-9.51-.2-.68-.86-1.19-1.57-1.19-.35-2.43-.7-4.85-1.09-7.27.06-.17.11-.36.11-.58.02-4.18-.69-8.21-1.73-12.18-1.03-5.35-2.64-10.61-4.71-15.62-.42-1.22-.84-2.44-1.25-3.66-.31-1.17-.6-2.34-.84-3.52-.1-.51-.37-.83-.72-1.01-.06-.16-.11-.32-.17-.48-.28-.83-1.12-1.38-2-1.13-.81.22-1.42,1.17-1.14,2,.58,1.69,1.16,3.38,1.74,5.08.05.19.1.39.15.58-.02.27,0,.56.14.86.11.24.21.5.32.74.22.75.45,1.5.69,2.24-.44.38-.7.93-.48,1.57,1.39,3.95,2.64,7.94,3.75,11.97.54,1.98,1.05,3.97,1.52,5.96.19.78.36,1.57.54,2.36.16.96.31,1.91.47,2.87,0,.07,0,.13.01.2,0,.07.02.13.03.19-.06.17-.11.35-.13.53,0,.05-.01.1-.02.14-.05.43.17.82.47,1.11.19,1.19.36,2.38.54,3.57-.45.35-.73.92-.55,1.63.15.6.29,1.21.44,1.81-.02.12-.03.24-.02.36.59,4.75,1.29,9.49,2.14,14.2.42,2.32.86,4.64,1.34,6.96.42,2.05.68,4.3,1.8,6.11.84,1.36,3.02.81,3.03-.82.03-4.99-.91-9.91-2.03-14.75Z"/>
    <path class="cls-6" d="M156.72,96.66c-1.71-1.82-4.57-4.48-6.97-4.77-2.41-.3-5.27,1.77-6.98-.25-1.79-2.12-2.46-5.08-5.52-5.83-2.61-.64-4.67,1.28-5.59,3.54-1.17,2.86-1.03,6.32-.61,9.32.38,2.77,1.22,5.44,2.46,7.94-.56.72-.59,1.78.46,2.25,5.59,2.53,11.94,3.89,17.71,1.13,4.53-2.17,9.38-8.7,5.04-13.32Z"/>
    <path class="cls-19" d="M60.08,99.32c-.87-4.73-3.33-11.36-9.07-11.6-2.63-.11-4.82,1.44-6.78,3.02-.88.71-1.72,1.45-2.66,2.07-1.1.73-2.28,1.33-3.39,2.04-2.12,1.37-3.94,3.18-4.24,5.8-.32,2.81,1.12,5.47,2.89,7.54,4.44,5.17,11.6,6.53,18.1,6.24.16,0,.31-.04.45-.08.38.06.78,0,1.16-.16,5.19-2.23,4.34-10.47,3.53-14.86Z"/>
    <path class="cls-9" d="M95.14,165.39c-.37-2.16-1.7-3.89-2.84-5.7-1.04-1.65-1.83-3.43-2.57-5.23-1.27-3.03-2.54-6.15-4.66-8.66.07-.26.07-.52-.01-.79-.72-2.29-1.96-4.31-3.41-6.21-1.46-1.93-2.95-3.61-4.25-5.55-.28-.42-.71-.69-1.17-.77-1.67-2.12-3.42-4.18-5.24-6.17-1.37-1.68-2.73-3.36-4.1-5.04-.55-.68-1.72-.58-2.3,0-.06.06-.1.12-.15.18-.25.08-.49.21-.69.37-.61-.29-1.32-.26-1.86.27-.57.57-.69,1.75,0,2.3,4.04,3.25,7.78,6.86,11.16,10.78.06.07.13.12.19.17-.02.39.13.79.52,1.14,1.03.91,1.96,1.88,2.84,2.9-.39.51-.51,1.26-.13,1.82,2.69,3.98,5.38,7.97,8.07,11.95.19.28.45.5.74.64.67,1.34,1.29,2.71,1.78,4.13.6,1.71,1.1,3.47,1.99,5.05.85,1.53,2.01,2.88,3.36,3.99,1.29,1.05,2.99.06,2.72-1.58Z"/>
    <path class="cls-9" d="M135.13,115.65c-2.94.84-4.04,4.14-5.27,6.61-1.52,3.05-3.01,6.13-4.35,9.27-2.69,6.3-4.76,12.81-5.38,19.66-.09,1.05.68,1.57,1.5,1.56-.41,1.56-.82,3.12-1.2,4.69-.44,1.79,1.93,2.67,2.85,1.48.13.08.27.15.42.18.8.18,1.82-.24,2-1.13.51-2.59.76-5.23.71-7.88,0-.38-.16-.75-.4-1.04,2.99-10.55,6.63-20.92,10.95-31.01.52-1.22-.34-2.81-1.84-2.39Z"/>
    <path class="cls-22" d="M118.57,42.67c-3.15,2.24-4.19,5.86-5.63,9.25-.34.81-.24,1.73.58,2.22.18.11.39.17.62.19,1.44,1.61,2.63,3.43,3.5,5.41.43.98.76,2,1.03,3.03.17.68.75,2.31.38,2.82-1.16,1.59,1.24,3.07,2.55,1.97,2.42-2.03,4.53-4.43,6.25-7.09.85-1.32,1.6-2.71,2.24-4.15.67-1.53,1.41-3.16,1.5-4.85.36-6.44-7.05-13.06-13.02-8.81Z"/>
    <path class="cls-8" d="M91.46,53.62c-.36-1.27-.35-2.56-.32-3.88.02-1.03.23-2.3-.23-3.26-.53-1.11-1.64-1.25-2.74-1.44-2.44-.43-4.81-.64-7.26-.24-2.41.39-4.77,1.18-7.1,1.87-2.2.65-5.09,1.09-6.7,2.89-1.54,1.72-1.66,4.12-1.58,6.31,0,.25.06.47.16.67-1.31.71-1.08,3.13.73,3.05,4.96-.2,9.94-.02,14.87.59,1.24.15,2.48.34,3.71.55,1.11.19,2.28.51,3.41.27,2-.43,4.06-2.2,3.84-4.36-.11-1.06-.5-2.01-.78-3.03Z"/>
    <path class="cls-26" d="M89.12,84.6c-1.88-.35-3.71-.86-5.51-1.52-.65-.24-1.37.11-1.76.65-2.12-.23-4.27.18-6.14,1.24-1.13.65-2.35,1.59-2.72,2.89-.44,1.52.44,2.95,1.89,3.45,1.18.41,2.54.17,3.73-.08,1.2-.25,2.37-.67,3.51-1.12,2.3-.92,4.54-2,7.01-2.39,1.57-.25,1.53-2.85,0-3.13Z"/>
    <path class="cls-26" d="M109.32,82.49c-.48-.67-1.45-1.13-2.22-.58-2.89,2.04-6.19,3.12-9.63,3.15-.71,0-1.33.49-1.54,1.15-.42.18-.76.53-.9,1.02-.22.8.27,1.82,1.13,2,1.43.3,2.87.53,4.31.15,1.27-.33,2.52-.93,3.71-1.49,1.12-.52,2.22-1.1,3.29-1.74.6-.36,1.24-.7,1.68-1.26.52-.67.71-1.66.18-2.4Z"/>
    <path class="cls-26" d="M128.78,73.23c-1.65-.62-3.39-.98-5.15-1.1-1.71-.11-3.66-.05-5.3.48-1.81.58-2.17,2.38-3.04,3.85-.39.66-.82,1.29-1.31,1.88-.14.17-.31.39-.49.58-.38.07-.73.23-.99.48-1.95.1-1.91,3.19.14,3.24.81.02,1.5-.24,2.12-.63,5.22-.66,10.21-2.61,14.41-5.81,1.14-.87.99-2.45-.39-2.97Z"/>
    <path class="cls-21" d="M153.15,77.92c-1.11-1.25-2.42-2.53-3.78-3.51-1.64-1.17-3.73-.93-5.63-.85-2.01.09-4.01.27-6,.53-.87.11-1.62.67-1.62,1.62,0,.47.27.99.67,1.32-.26.48-.24,1.08,0,1.62.66,1.5,1.17,3.06,1.54,4.65.38,1.61.24,3.68,1.71,4.73.6.43,1.28.78,1.91,1.16.74.44,1.5.98,2.34,1.23,1.72.5,3.03-.53,3.86-1.94.27-.47.45-.84.87-1.19.5-.41,1.11-.71,1.64-1.09,1.26-.91,2.13-2.14,2.76-3.54.34-.76.75-1.56.75-2.41,0-.92-.44-1.66-1.03-2.33Z"/>
    <path class="cls-6" d="M170.48,95.28c-.35-2.25-1.92-5.69-4.7-5.25-1.49.24-2.83.72-4.37.73-1.57.01-3.07-.27-4.54-.78-1.38-.48-2.2.89-1.92,2-.42.46-.58,1.12-.15,1.81,1.46,2.34,2.44,4.99,2.74,7.74.12,1.18.35,2.68-.3,3.74-.62,1.02-1.57,1.78-2.06,2.9-.37.85-.17,2.2.97,2.39,2.85.46,5.37-.93,7.65-2.51,2.11-1.47,4.06-3.26,5.34-5.53,1.24-2.2,1.74-4.74,1.35-7.24Z"/>
    <path class="cls-26" d="M154.22,112.86c-.72-.22-1.44-.43-2.16-.65-.94-.28-1.62.25-1.88.96-3.04.18-6.11.02-9.1-.5-1.85-.32-3.7-.71-5.32-1.69-.51-.3-.99-.64-1.47-.99-.01-.54-.32-1.01-.79-1.37-.74-.55-1.24-1.26-1.67-2.07-.31-.6-1.18-.97-1.84-.75-.38.13-.71.32-.98.57-.62-.39-1.23-.8-1.81-1.25-.7-.54-1.61-.67-2.3,0-.57.55-.69,1.76,0,2.3,1.34,1.04,2.75,1.93,4.21,2.71.27.27.57.51.87.74,2.24,1.66,4.44,3.41,7.14,4.24,5.43,1.67,11.5,1.64,17.07.88,1.69-.23,1.39-2.71,0-3.13Z"/>
    <path class="cls-16" d="M67.87,97.5c-.06-2.67-.2-5.96-1.83-8.21-1.49-2.05-4.55-3.58-7.03-3.79-1.12-.1-1.63.8-1.54,1.67-.97.24-1.74,1.26-1.03,2.32,2.07,3.08,4.26,6.3,4.69,10.08.22,1.98.31,4.02.41,6,.09,1.83-.02,3.73-1.43,5.05-1.5,1.47.77,3.73,2.3,2.3,4.12-4.02,5.6-9.8,5.47-15.42Z"/>
    <path class="cls-16" d="M52.22,115.39c-2.08-.32-4.16-.64-6.23-.95-1.94-.3-4.02-.47-5.87-1.2-2.79-1.11-4.86-3.58-5.63-6.45-.47-1.77-2.93-1.33-3.18.16-.94.19-1.75.77-2.25,1.72-.64,1.24-.48,2.81-.01,4.08,1.11,3.01,3.86,4.74,6.69,5.91,5.36,2.22,13.34,4.86,17.45-.88.57-.79.02-2.24-.97-2.39Z"/>
    <path class="cls-22" d="M117.03,62.85c-.15-.28-.37-.45-.61-.58-.07-.58-.16-1.17-.26-1.75.1-.35.07-.75-.14-1.17-1.97-3.85-6.48-5.81-10.65-4.83-.4.09-.68.29-.87.54-1.35.31-2.66.8-3.85,1.44-1.39.75-2.6,1.74-3.89,2.63-1.35.93-2.62,1.34-4.26,1.43-3.45.19-6.77.73-10.01,1.93-.67.25-1.01.79-1.08,1.36-.54.1-1.02.46-1.19,1.12-1.17,4.73-.36,9.82,2.3,13.91.42.65,1.08.83,1.67.71,1.07,1.63,2.35,3.1,4.31,3.67,2.43.7,4.86-.16,7.29.22.74.11,1.5-.13,1.85-.79,5.51.55,12.02.81,16.33-3.13,1.13-1.03,1.75-2.39,2.3-3.79.54-1.39,1.05-2.8,1.41-4.25.73-2.93.82-5.97-.67-8.68Z"/>
    <path class="cls-3" d="M123.36,79.91c-3.86,2.02-8.17,2.92-12.41,3.81-.41.09-.7.29-.89.54-.38.11-.72.35-.9.71-.6,1.22-1.43,2.25-2.57,3-.54.35-1.03,1.16-.75,1.84.65,1.54,1.34,3.06,2.1,4.56.34.67,1.16.89,1.84.75,1.57-.33,3.22.14,4.76.45,1.74.35,3.47.7,5.2,1.07.99.21,2.09-.46,2.06-1.57-.08-2.36-.3-4.65.52-6.91.78-2.14,1.97-4.16,3.25-6.03.98-1.42-.89-2.92-2.22-2.22Z"/>
    <g>
      <path class="cls-13" d="M59.19,83.86s0,0,0,0c.09-.02.14-.05.12-.05-.03.01-.06.02-.09.03-.01,0-.01,0-.03.01Z"/>
      <path class="cls-13" d="M57.65,84.82s.05-.03.07-.05c-.02.01-.04.03-.06.04,0,0,0,0,0,0Z"/>
      <path class="cls-3" d="M97.19,90.64c-.65-.1-1.31-.06-1.95-.18-.4-.08-.82-.2-1.2-.36-.12-.06-.25-.12-.37-.18,0,0,0,0-.01,0,.08-1.06-.83-2.2-2-1.77-3.13,1.15-6.36,2.01-9.66,2.47-1.14.16-8.82,1.23-8.73-.42.07-1.23-1.02-1.72-1.96-1.51.25-1.15,1.11-2.16,1.83-3.04.83-1.01.37-2.84-1.15-2.77-.4.02-1.06.14-1.42-.1-.16-.1-.26-.3-.39-.44-.27-.3-.56-.56-.91-.78-.95-.6-2.08-.87-2.97-1.59-.93-.75-1.49-1.88-2.02-2.93-.61-1.21-1.09-2.47-1.49-3.77-.29-.94-1.14-1.24-1.9-1.09-.06-.43-.12-.85-.15-1.28-.07-.88-.7-1.62-1.62-1.62-.62,0-1.26.42-1.51,1-2.34-.3-4.68-.07-6.91.78-.61.23-.94.7-1.05,1.21-1.47.37-2.9.85-4.3,1.43-3.76,1.57-7.16,3.84-10.04,6.72-4.76-3.56-11.11-4.5-17-4.84-.42-.02-.76.09-1.01.29-1.7-.3-3.4-.56-5.12-.74-1.8-.19-2.03,2.24-.71,3.02-.23,4.69-.36,9.49,1.03,14.02.7,2.28,1.81,4.39,3,6.45.4.69.81,1.38,1.22,2.06-.33.35-.48.85-.28,1.46,2.78,8.4,7.55,16.04,13.9,22.2.48.46,1.03.54,1.52.4.54.59,1.14,1,1.92,1.35.77.35,1.78.75,1.6,1.8-.24,1.39,1.6,3.01,2.72,1.58,1.47-1.89,2.75-3.87,3.81-6.03.5-1.02.05-1.98-.97-2.39-2.02-.81-4-1.71-5.94-2.69-1.78-.9-3.74-1.8-5.04-3.36-2.32-2.79-1.67-6.84,1.43-8.69,1.55-.92,2.47-2.07,2.7-3.9.24-1.9-.03-3.84.55-5.7.5-1.62,1.5-2.58,3.14-2.92,1.79-.38,3.02-1.57,4.21-2.88,1.26-1.38,2.5-3.02,4.3-3.69,2.09-.78,4.47-.33,6.6.05.21.04.4.03.59,0,.62.35,1.52.39,1.99-.22.4-.5.83-.98,1.29-1.43.24-.23.48-.45.74-.66.05-.04.1-.08.15-.13,0,0-.02.01-.03.02.01,0,.02-.02.04-.02,0,0,.01,0,.02-.01.1-.08.08-.06.04-.03.11-.07.21-.16.31-.23.25-.17.5-.33.76-.47.13-.07.26-.14.4-.2-.01,0-.02,0-.03,0,.02,0,.04-.01.06-.02.05-.02.08-.03.09-.03.02,0,.04-.02.06-.03.03,0,.06-.01.08-.02.88,1.23,2.31,2.04,3.67,2.73,1.62.83,3.11,1.83,4.47,3.02-.15.3-.21.67-.11,1.09.59,2.46,1.05,4.94,1.34,7.45.15,1.3,1.25,1.92,2.45,1.4,2.15-.92,4.55-1.13,6.85-1.4,2.4-.28,4.81-.53,7.22-.72,2.33-.19,4.69-.2,7.01-.43.99-.1,1.94-.28,2.87-.66.94-.39,1.87-1.1,2.9-1.16.9-.05,1.59-.71,1.62-1.62.05-1.54-1.09-2.61-2.55-2.83Z"/>
    </g>
    <path class="cls-26" d="M67.07,112.91c-.49-1.38-2.14-1.54-2.97-.39-1.09,1.49-2.9,2.51-4.72,3.06-.49.15-.98.27-1.48.38-.56.11-1.14.14-1.66.37-.69.29-1.17.89-1.52,1.57-.41-.03-.81-.11-1.2-.19-.86-.17-1.75.24-2,1.14-.22.8.27,1.83,1.14,2,.55.11,1.11.22,1.67.27.7.79,2.24.85,2.76-.34.23-.06.46-.13.69-.18,1.49-.37,3.05-.42,4.53-.81,1.55-.42,3.01-1.19,3.98-2.49.92-1.23,1.31-2.9.79-4.37Z"/>
    <path class="cls-3" d="M187.99,71.92c-.01-.64-.02-1.27-.02-1.91.51-.34.85-.94.67-1.71-.3-1.3-.65-2.59-1.07-3.86-.35-1.03-.67-2.25-1.5-3.01-.93-.84-2.19-.91-3.37-1.08-1.36-.19-2.72-.37-4.08-.44-5.28-.29-10.27,1.54-15.16,3.32-2.41.88-4.8,1.86-7.02,3.15-1.02.59-1.97,1.28-3.21,1.09-1.17-.17-2.23-.86-3.22-1.47-4.4-2.68-9.07-4.46-14.25-4.76-2.53-.15-5.14.15-7.21,1.72-1.41,1.07-2.88,3.53-4.77,3.71-.79.08-1.28.6-1.46,1.2-1.9-.26-2.66,2.69-.69,3.16,1.85.44,3.73.83,5.57,1.33.44.12,1.27.29,1.53.74.38.65-.42,1.67-.75,2.19-.62.98.18,2.55,1.4,2.45,1.44-.13,2.88-.25,4.32-.39,1.34-.13,2.43-.43,3.19-1.63.61-.96,1-1.76,2.09-2.26,1.1-.5,2.13-.36,3.24.02,1.29.45,2.49.88,3.85,1.09,1.4.21,2.83.27,4.23.48,1.12.17,2.74.59,3.87,1.41,0,.01,0,.02,0,.04.32,1.38.81,2.68,1.41,3.97.54,1.14,2.42.97,2.87-.14.1,0,.2-.01.3-.03,1.32-.26,2.73.1,4.07.57,1.38.48,2.6.92,3.82,1.73.44.29.8.67,1.02,1.06,0,0,.12.28.14.29.04.12.07.23.1.35,0,0,0,0,0,.01,0,.07,0,.15,0,.22,0,.05,0,.08,0,.08l-.02.07c-.15.56-.43,1.06-.71,1.75-.32.8-.39,1.61-.22,2.45.13.64.73,1.08,1.36,1.17.07.21.17.41.34.6,2.47,2.87,3.16,6.97,2.11,10.56-1.05,3.6-3.91,6.44-7.27,7.97-1.71.78-3.78.77-5.38,1.74-1.77,1.07-2.14,3.27-1.35,5.07.83,1.88,2.71,2.9,4.11,4.31,1.48,1.5,2.65,3.31,3.4,5.28.45,1.17,1.74,1.57,2.72.72,6.28-5.52,8.78-13.8,13.71-20.35.1-.14.17-.27.22-.4.3-.11.58-.3.78-.58,6.7-9.31,6.93-21.2,6.55-32.21-.01-.33-.11-.61-.26-.83Z"/>
    <path class="cls-1" d="M132.28,115.07c.43-.7.4-1.68-.53-2.19-.78-.43-1.5-.49-2.36-.36-.57.09-1.03.26-1.59.02-1.1-.48-1.97-1.69-2.73-2.58-.82-.96-1.63-2.04-1.92-3.29-.17-.74-.12-2.75,1.14-2.49,1.46.3,2.44-1.09,1.84-2.39-.55-1.19-1-2.84-1.99-3.74-1-.92-2.49-.87-3.76-.98-3.03-.26-6.07-.44-9.1-.56-.25,0-.46.03-.65.1-1.13-.58-2.86.27-2.34,1.8,3.48,10.32,5.9,20.98,7.12,31.8.07.62.41,1.05.85,1.3.86,4.78,1.54,9.59,2.01,14.43.17,1.73,2.69,2.32,3.19.43,1.4-5.3,2.81-10.62,4.73-15.76.93-2.49,2-4.93,3.25-7.28,1.17-2.21,3.25-4.48,3.33-7.08.01-.52-.17-.91-.47-1.17Z"/>
    <path class="cls-1" d="M164.96,127.58c-.43-2.06-2.4-3.8-3.72-5.34-.76-.89-1.53-1.78-2.33-2.64-.72-.79-1.46-1.7-2.49-2.1-1.28-.49-2.66.02-3.95.23-1.36.22-2.72.37-4.1.44-2.88.16-5.77.02-8.62-.43-.68-.76-1.98-.95-2.56.21-1.35,2.69-2.42,5.52-3.07,8.46-.3,1.33-.48,2.67-.62,4.01-.44.14-.81.48-.95,1.09-1.57,7.21-3.14,14.41-4.72,21.62-.35,1.59,1.5,2.71,2.72,1.58.74-.69,1.5-1.38,2.15-2.15,2.09-.47,4.16-.98,6.14-1.79,2.1-.87,4-2.06,5.82-3.43,3.98-3.01,7.77-6.28,11.57-9.52,1.92-1.64,3.84-3.3,5.74-4.97,1.57-1.39,3.47-2.9,2.99-5.26Z"/>
    <path class="cls-1" d="M112.67,159.9c.08-.28.09-.59.04-.9-.43-2.7-.87-5.4-1.3-8.11-.43-2.7-.88-5.4-1-8.14,0,0,0-.01,0-.02.05-.22.07-.46.02-.72-2.52-14.74-4.5-29.77-9.1-44.05-.02-.07-.06-.14-.09-.2.05-.71-.3-1.44-1.15-1.63-2-.45-3.95-.45-5.87-.18-4.65-.07-9.29.02-13.91.63-.88.12-1.61.66-1.62,1.62,0,.5.3,1.06.75,1.38-.63.1-1.26.2-1.9.31-2.38.39-4.58,1.25-6.79,2.18-.67-.29-1.46-.16-1.87.69-1.15,2.42-1.71,5.04-1.43,7.73.22,2.06,1.3,5.02-.33,6.76-.64.69-.57,1.6,0,2.3,5.19,6.31,10.54,12.49,16.01,18.55-.05.32.02.68.28,1.04,4.37,6.04,7.92,12.66,10.41,19.69,1.08,3.04,2.02,7.39,5.1,9.08,1.69.93,3.72.07,5.44-.36,1.77-.44,3.64-.76,5.35-1.4,2.64-.99,3.85-3.83,2.96-6.26Z"/>
    <path class="cls-1" d="M87.67,161.44c-1.67-4.51-3.85-8.81-6.62-12.74-2.9-4.11-6.07-8.09-9.23-12-3.15-3.89-6.56-7.59-9.92-11.31-.5-.56-1.06-1.1-1.74-1.42.19-.92-.32-2-1.53-2-1.1,0-1.61.9-1.56,1.75-.32,0-.64-.03-.97-.12-2.25-.59-4.21-1.97-6.53-2.37-2.53-.44-4.8.32-6.5,2.25-1.78,2.03-3.27,4.39-4.68,6.68-.69,1.12.16,2.18,1.16,2.38.08.2.2.38.37.53,2.78,2.26,5.57,4.51,8.35,6.77,2.07,1.68,4.09,3.51,6.42,4.81.07.07.13.14.21.2,2.55,1.9,5.09,3.81,7.64,5.71,2.31,1.72,4.66,3.44,7.28,4.66,2.69,1.26,5.4,2.27,7.95,3.81,2.46,1.49,4.84,3.1,7.49,4.24,1.14.49,2.94-.35,2.39-1.84Z"/>
    <path class="cls-21" d="M166.23,83.69c-1.36-1.68-3.55-2.59-5.7-2.35-2.73.3-5.45,1.51-7.83,2.85-.58.33-.8.83-.79,1.33-.26.13-.49.33-.66.61-.41.71-.21,1.84.58,2.22.23.11.31.13.42.3-.05-.08,0,.06.03.11.02.19-.04.38-.15.45-.72.51-1.05,1.42-.58,2.22.41.71,1.5,1.09,2.22.58,1.58-1.12,3.31-2.41,5.36-2.13,2.25.31,4.49,1.24,6.65-.04,1.06-.63,1.84-1.72,1.8-2.99-.04-1.17-.65-2.29-1.37-3.18Z"/>
    <path class="cls-6" d="M135.9,79.61c-1.42-1.93-3.99-2.72-6.26-1.94-1.07.36-1.3,1.45-.98,2.26-.4-.03-.83.09-1.2.44-1.43,1.34-2.21,3.12-2.79,4.96-.7,2.2-1.25,4.45-1.49,6.75-.21,2.05-.09,4.18.52,6.15.28.92.67,1.83,1.15,2.65.28.48.61.92.96,1.35.11.14.3.32.45.52.09.29.16.58.27.87.6,1.61,3.27,1.53,3.19-.43,0-.15-.04-.29-.06-.43,0,0,0,0,0,0,0,0,0,0,0-.01-.06-.35-.16-.67-.3-.98-.37-1.27-.52-2.56-.48-3.88.57-.25.94-.83.98-1.49.15-2.29.56-4.63,1.66-6.67.46-.86,1.01-1.64,1.69-2.33.73-.73,1.53-1.17,2.41-1.68,2.12-1.22,1.5-4.46.28-6.1Z"/>
    <path class="cls-25" d="M106.6,90.92c-.02-.33-.11-.64-.3-.93-.16-.29-.37-.53-.64-.7-.24-.22-.52-.37-.85-.45-.22-.03-.44-.06-.66-.09-.45,0-.87.12-1.26.34-.17.13-.34.26-.51.39-.2.2-.35.44-.47.69-.25.59-.57,1.15-.96,1.66-.18.29-.28.6-.3.93-.07.33-.06.66.04,1,.08.33.23.61.45.85.18.27.41.49.7.64.2.08.4.17.6.25.44.12.89.12,1.33,0,.2-.08.4-.17.6-.25.38-.22.67-.52.9-.9.22-.29.41-.59.59-.91.28-.49.49-1.02.7-1.54.1-.33.12-.66.04-1Z"/>
    <path class="cls-25" d="M118.82,152c-.23-1.07-.58-2.1-.92-3.14-.17-.51-.34-1.02-.47-1.55-.06-.22-.1-.45-.15-.67,0-.01,0-.01,0-.02-.01-.15-.02-.3-.03-.45-.05-1.31-1.11-2.56-2.5-2.5-1.31.06-2.56,1.1-2.5,2.5.09,2.36,1.1,4.44,1.64,6.7.13.54.23,1.08.32,1.62,0,.05.01.08.02.11,0,.04,0,.08.01.16.03.31.06.63.08.94.06,1.1.03,2.2-.09,3.3-.14,1.3,1.25,2.56,2.5,2.5,1.47-.07,2.35-1.1,2.5-2.5.25-2.34.08-4.7-.41-7Z"/>
    <path class="cls-25" d="M125.53,155.29c.37-.42.58-1.08.58-1.59,0-.33-.08-.69-.23-1.02.09-.97.12-1.94.06-2.9-.05-.67-.25-1.28-.73-1.77-.43-.43-1.15-.76-1.77-.73-1.28.06-2.6,1.1-2.5,2.5.07,1.02.03,2.05-.08,3.07-.19,1.22-.5,2.41-.95,3.55-.15.37-.1.95,0,1.33.15.53.47.97.9,1.3.8.62,1.89.69,2.78.2.87-.48,1.5-1.37,1.73-2.33.13-.52.16-1.06.21-1.59,0,0,0,0,0,0Z"/>
    <path class="cls-25" d="M133.98,114.99c-3.22,0-3.22,5,0,5s3.22-5,0-5Z"/>
    <path class="cls-25" d="M64.06,119.89c-3.22,0-3.22,5,0,5s3.22-5,0-5Z"/>
    <path class="cls-25" d="M94.85,162.24c-.05-.06-.42-.54-.39-.49-.14-.2-.29-.41-.43-.62-.33-.5-.63-1.02-.91-1.55-.57-1.06-1.09-2.14-1.64-3.21-1.19-2.31-2.55-4.51-4.06-6.62-.76-1.06-2.21-1.68-3.42-.9-1.05.68-1.71,2.28-.9,3.42,1.56,2.17,2.95,4.44,4.16,6.82,1.2,2.34,2.31,4.66,4.05,6.67.86.99,2.67.94,3.54,0,.97-1.06.91-2.48,0-3.54Z"/>
    <path class="cls-27" d="M53.53,116.28c-.38-1.39-1.75-2.01-3.08-1.75-6.28,1.22-13.16-.83-17.86-5.37-2.31-2.24-5.85,1.29-3.54,3.54,6,5.8,14.57,8.25,22.73,6.66,1.33-.26,2.08-1.84,1.75-3.08Z"/>
    <path class="cls-27" d="M67.78,89.96c-.08-1.35-1.09-2.5-2.5-2.5-1.29,0-2.58,1.15-2.5,2.5.24,3.95.52,7.99-.03,11.93-.39,2.83-1.15,6.13-3.69,7.44-2.86,1.47-.33,5.79,2.52,4.32,3.58-1.84,5.19-5.87,5.86-9.63.82-4.66.62-9.36.33-14.06Z"/>
    <path class="cls-23" d="M117.74,62.79c-.51-2.04-1.4-4.1-2.64-5.81-1.68-2.3-5.14-1.99-6.12.82-.64,1.83-.22,4.11-.31,6.04-.09,1.96-.35,3.94-1.08,5.77-1.17,2.97-3.76,5.02-6.8,5.86-7.78,2.16-14.43-4.12-15.95-11.4-.27-1.32-1.83-2.09-3.08-1.75-1.08.3-1.71,1.22-1.79,2.24,0,0,0,0-.01,0-1.03.6-1.32,1.71-1.15,2.82.34,2.18,1.1,4.27,2.18,6.18.14,1.59.3,3.19.85,4.69.14.38.31.76.49,1.12-.44-.37-1-.6-1.61-.63-.78,0-1.61-.2-2.37-.59-.86-.44-1.67-.99-2.43-1.58-.06-.05-.4-.33-.39-.32-.18-.15-.35-.29-.53-.44-.38-.33-.76-.67-1.12-1.02-.7-.67-1.36-1.37-1.99-2.1-2.28-2.65-4.22-6.16-5.3-9.51-.41-1.29-1.73-2.11-3.08-1.75-1.26.35-2.16,1.78-1.75,3.08.38,1.18.83,2.34,1.33,3.47-.99.33-1.72,1.27-1.73,2.36-.05,4.25,2.15,8.18,5.59,10.61,1.93,1.37,4.2,1.9,6.5,2.19,2.05.27,4.11.42,6.18.53.36.04.71.07,1.08.06,1.35,0,2.5-1.14,2.5-2.5,0-.17-.02-.33-.05-.49.59.79,1.33,1.47,2.23,1.96,2.09,1.12,4.54,1.06,6.85,1.04,8.4-.05,17.72-1.71,23.21-8.73,1.36-1.74,2.38-3.62,2.69-5.83.29-2.13.11-4.33-.41-6.42Z"/>
    <path class="cls-23" d="M131.58,49.04c-.3-.83-.94-1.47-1.72-1.72,0-.68-.03-1.36-.06-2.05-.06-1.35-1.1-2.5-2.5-2.5-1.3,0-2.56,1.14-2.5,2.5.07,1.57.18,3.18,0,4.74-.19,1.63-.86,3.19-1.44,4.71-1.16,3.04-2.36,6.04-3.99,8.86-1.29,2.23,1.24,4.55,3.42,3.42,2.99-1.56,4.91-4.41,6.56-7.25,1.86-3.22,3.61-6.97,2.23-10.72Z"/>
    <path class="cls-10" d="M130.61,100.53c-.3-.56-.58-1.13-.84-1.72-.12-.28-.15-.33-.07-.16-.07-.17-.13-.34-.2-.51-.1-.25-.19-.51-.28-.77-.43-1.25-.77-2.52-1.01-3.82-.05-.29-.1-.58-.15-.87,0-.03-.07-.55-.08-.63-.06-.63-.11-1.27-.12-1.91-.04-1.32.03-2.64.18-3.95.16-1.3-1.26-2.56-2.5-2.5-1.49.07-2.33,1.1-2.5,2.5-.69,5.79.52,11.7,3.23,16.84.61,1.16,2.32,1.61,3.42.9,1.18-.76,1.55-2.18.9-3.42Z"/>
    <path class="cls-10" d="M168.36,102.97c2.68-2.92,3.71-7.05,2.96-10.92-.25-1.29-1.86-2.14-3.08-1.75-1.37.44-2.01,1.7-1.75,3.08.01.06.09.78.05.27.01.16.03.31.04.47.02.43.01.86-.02,1.29,0,.08-.02.19-.03.25-.03.16-.06.32-.09.48-.1.42-.22.83-.37,1.24-.02.05-.03.09-.05.12-.09.19-.18.38-.28.57-.18.35-.4.67-.61,1-.03.04-.05.08-.06.1,0,0-.02.02-.05.05-.13.15-.25.3-.39.44-.24.26-.7.68-.83.79-1.18.94-3.03,1.78-4.46,2.68-.84.53-1.63,1.13-2.36,1.8-.34.31-.66.63-1.01.92-.04.03-.06.05-.07.06-.03.02-.06.04-.11.07-.21.13-.42.24-.65.35-.26.12-.47.28-.64.47.93-1.54,1.61-3.29,2.38-4.89.48-1.01.44-2.2-.39-3.03-.73-.73-2.14-1.03-3.03-.39-3.45,2.49-7.58,7.42-12.25,6.13-5.78-1.6-4.9-9.05-4.36-13.58.16-1.34-1.26-2.5-2.5-2.5-1.48,0-2.34,1.15-2.5,2.5-.04.35-.08.7-.12,1.05-.65.38-1.1,1.06-1.07,2.06.06,2.03.25,4.05.54,6.07.23,1.64.47,3.31,1.08,4.86,1.31,3.34,4.28,5.43,7.78,6.01,1.79.3,3.58.29,5.38.18,1.69-.11,3.45-.18,5.05-.8,1.61-.63,2.74-1.74,3.64-3.06-.64,1.5.42,3.74,2.29,3.59,4.11-.32,8.09-1.68,11.4-4.17,1.04-.78,1.69-2.2.9-3.42-.1-.15-.22-.29-.36-.43Z"/>
    <path class="cls-14" d="M164.82,84.75c-2.2-.07-4.38.08-6.56.43-1.05.17-2.09.38-3.11.66-.88.24-2.19.46-2.96.95-.07.01-.11.03-.16.04-.04-.02-.08-.05-.12-.07-.29-.26-.7-.47-1.08-.68.65-1.09,1.31-2.17,1.95-3.26.97-1.65,1.62-3.42,1.17-5.34-.3-1.28-1.83-2.15-3.08-1.75-1.28.41-1.99,1.6-1.77,2.91,0,.07.01.13.01.2-.04.16-.08.32-.13.48-.36.77-.82,1.49-1.25,2.22-.45.76-.9,1.51-1.35,2.27-.91-.33-1.84-.58-2.79-.68-.8-2.12-1.71-4.2-2.74-6.22-1.46-2.87-5.78-.34-4.32,2.52,1.13,2.22,2.09,4.5,2.89,6.87.32.95,1.3,1.96,2.41,1.84,1.87-.22,3.41.48,5,1.4,1.86,1.07,3.67,2.67,5.96,2.26,2-.36,3.89-1.26,5.91-1.63,2.02-.38,4.07-.47,6.12-.4,3.22.11,3.21-4.89,0-5Z"/>
    <path class="cls-17" d="M153.44,112.1h-8.65c-1.31,0-2.56,1.15-2.5,2.5.06,1.35,1.1,2.5,2.5,2.5h8.65c1.31,0,2.56-1.15,2.5-2.5-.06-1.35-1.1-2.5-2.5-2.5Z"/>
    <path class="cls-17" d="M131.34,108.61c-.12-.42-.33-.79-.64-1.1-.68-.62-1.35-1.24-2.03-1.86-.23-.24-.49-.42-.8-.52-.3-.16-.62-.23-.96-.22-.34-.01-.67.06-.96.22-.31.1-.58.27-.8.52l-.39.51c-.23.39-.34.81-.34,1.26.03.22.06.44.09.66.12.42.33.79.64,1.1.68.62,1.35,1.24,2.03,1.86.23.24.49.42.8.52.3.16.62.23.96.22.34.01.67-.06.96-.22.31-.1.58-.27.8-.52l.39-.51c.23-.39.34-.81.34-1.26-.03-.22-.06-.44-.09-.66Z"/>
    <path class="cls-17" d="M118.84,71.95c-2.92,3.03-5.87,6.12-9.62,8.14-2.97,1.6-6.46,2.39-9.86,2.25-.8,1.06-2.06,1.78-3.79,1.78-.37,0-.72-.04-1.04-.1-.27,1.17.44,2.81,1.76,2.99,5.08.71,10.11.02,14.74-2.24,4.43-2.17,7.97-5.78,11.35-9.29,2.24-2.32-1.3-5.86-3.54-3.54Z"/>
    <path class="cls-17" d="M90.15,85.13c-3.39-1.51-7.1-2.22-10.81-1.76-.69.09-1.26.22-1.77.73-.43.43-.76,1.15-.73,1.77.03.65.24,1.32.73,1.77.45.42,1.13.81,1.77.73.8-.1,1.59-.15,2.4-.14.4,0,.8.02,1.2.05.17.01.34.03.51.05.05,0,.1.01.16.02.74.13,1.48.27,2.21.48.39.11.77.23,1.14.37.16.06.32.12.48.18.04.01.07.03.11.04.02.01.04.02.08.04.63.28,1.23.44,1.93.25.58-.16,1.21-.61,1.49-1.15.58-1.09.38-2.85-.9-3.42Z"/>
    <path class="cls-2" d="M114.72,38.97c-2.67,2.85-4.79,6.05-6.42,9.56-3.19-.17-6.25.74-9.21,2.1-.83.38-1.64.8-2.45,1.23-.16.08-.31.17-.47.26-.02-.27-.05-.54-.06-.82-.05-1.01-.04-2.01,0-3.01.1-2.56-3.04-3.07-4.39-1.56-1.45-1.15-4.18-.54-4.13,1.85l.17,7.99c-.41.07-.83.07-1.24.03-1.14-.12-2.25-.51-3.35-.84-5.2-1.57-10.67-2.16-16.08-1.65-1.34.13-2.5,1.06-2.5,2.5,0,1.25,1.15,2.63,2.5,2.5,3.02-.29,6.08-.28,9.08.16,2.98.44,5.77,1.58,8.72,2.11,2.63.48,7.05.32,7.78-2.98.09-.39.13-.8.15-1.22,1.28.88,3.14.69,4.68-.09,3.58-1.81,7.42-4.37,11.64-3.46,1.43.31,2.55-.43,3.08-1.75,1.38-3.47,3.46-6.65,6.01-9.38,2.2-2.35-1.33-5.89-3.54-3.54Z"/>
    <path class="cls-24" d="M61.04,104.72c-.2-2.84-1.06-5.5-2.15-8.11-.81-1.93-1.58-3.98-2.79-5.71-.05-.27-.14-.53-.3-.76-.74-1.09-1.98-1.8-3.32-1.31-.03.01-.05.03-.08.04-.32-.33-.67-.65-1.05-.95-1.07-.82-2.8-.16-3.42.9-.75,1.29-.18,2.59.9,3.42.91.7,1.32,2.11,1.59,3.18.45,1.77.65,3.61.79,5.43.28,3.37.57,7.16-1.26,10.17-.78,1.28-.1,3.38,1.49,3.67,2.82.51,5.86.56,7.71-2.01,1.59-2.21,2.08-5.3,1.89-7.97Z"/>
    <path class="cls-15" d="M86.06,158.74c-1.71-.71-3.26-1.82-4.76-2.92.28-.17.56-.34.83-.53.29-.16.53-.37.7-.64.22-.24.37-.52.45-.85.1-.33.12-.66.04-1-.02-.33-.11-.64-.3-.93-.34-.53-.86-1-1.49-1.15-.62-.14-1.39-.13-1.93.25-.52.37-1.09.69-1.67.96-.37.15-.75.29-1.14.39-.14.04-.28.09-.41.16-.39-.24-.77-.5-1.17-.73-3.86-2.23-7.77-4.35-11.52-6.76-6.82-4.39-13.23-9.35-19.22-14.8.99-1.49,1.74-3.12,2.18-4.87.79-.07,1.56-.23,2.31-.47.53.47,1.1.9,1.71,1.24,2.36,1.32,5.27,1.68,7.87.86,1.24-.39,2.17-1.76,1.75-3.08-.4-1.25-1.74-2.17-3.08-1.75-.25.08-.5.15-.75.2-.02,0-.06.02-.12.03-.02,0-.04,0-.09,0-.06,0-.13.01-.19.01-.26.02-.52.02-.78,0-.11,0-.22-.02-.32-.02-.28-.07-.56-.11-.83-.2-.12-.04-.25-.08-.37-.12-.14-.04-.16-.04-.14-.02-.18-.08-.37-.22-.5-.29-.11-.06-.22-.13-.33-.2-.03-.02-.16-.11-.24-.17-.04-.04-.09-.08-.1-.09-.1-.09-.19-.17-.28-.26-.29-.28-.59-.53-.92-.76-.84-.57-1.92-.71-2.9-.45-.58.16-1.13.38-1.72.52-.05.01-.08.02-.11.03-.01,0-.01,0-.03,0-.15,0-.31.03-.46.03-.35.01-.69,0-1.04-.02-.97-.07-1.9.63-2.3,1.52-.32.3-.56.67-.64,1.11-.38,2.16-1.24,4.1-2.72,5.73-.89.97-1.02,2.58,0,3.54,6.74,6.33,14.06,12.05,21.84,17.05,3.89,2.5,7.94,4.66,11.92,7,3.97,2.33,7.35,5.5,11.64,7.27,1.25.52,2.75-.56,3.08-1.75.39-1.44-.49-2.56-1.75-3.08Z"/>
    <path class="cls-15" d="M109.38,133.84c-2.43-1-5.13-1.17-7.73-1.13-2.7.04-5.31.14-7.73,1.48-4.15,2.3-7.65,6.22-8.25,11.02-.17,1.34,1.27,2.5,2.5,2.5,1.49,0,2.33-1.15,2.5-2.5.34-2.76,3.49-5.59,6.08-6.86,1.59-.79,3.55-.63,5.27-.64,2.09-.01,4.07.15,6.03.96,1.25.51,2.75-.56,3.08-1.75.39-1.43-.49-2.56-1.75-3.08Z"/>
    <path class="cls-15" d="M113.87,159.85c-.71-1.09-2.25-1.66-3.42-.9-1.03.67-2.09,1.26-3.2,1.78-.06.03-.62.27-.62.28-.19.08-.39.16-.58.23-.57.22-1.15.41-1.73.59-1.14.34-2.28.58-3.45.79-.15.02-.23.03-.24.04-.1.01-.2.03-.3.04-.24.03-.49.05-.73.07-.65.05-1.3.08-1.95.08-1.31.01-2.56,1.14-2.5,2.5.06,1.34,1.1,2.51,2.5,2.5,5.41-.05,10.79-1.63,15.33-4.58,1.1-.71,1.65-2.25.9-3.42Z"/>
    <path class="cls-15" d="M165.22,125.77c-1.81-1.74-3.62-3.47-5.43-5.21-1.69-1.62-3.46-4.1-6.04-3.93-1.17.07-2.32.38-3.49.47-1.18.09-2.37.1-3.55.05-2.31-.11-4.55-.56-6.75-1.24-3.08-.96-4.4,3.87-1.33,4.82,4.32,1.34,8.91,1.76,13.4,1.18.08-.01,1.12-.21,1.66-.28.06.06.12.11.19.19.89.88,1.81,1.74,2.72,2.6.93.89,1.87,1.79,2.8,2.68-8.59,10.6-19.56,18.97-32.05,24.46-1.24.54-1.52,2.35-.9,3.42.75,1.27,2.18,1.44,3.42.9,12.87-5.66,24.35-14.45,33.19-25.4.12-.15.23-.32.32-.49,1.94-.02,3.64-2.51,1.84-4.23Z"/>
    <path class="cls-15" d="M124.67,99.62c-.06-1.42-1.1-2.42-2.5-2.5-.92-.05-1.84-.14-2.76-.26-1.34-.19-2.68-.44-3.99-.77-.72-.17-1.5-.01-2.11.39-.97-2.99-5.72-1.68-4.8,1.39,4.74,15.76,9.54,31.81,9.18,48.43-.07,3.22,4.93,3.22,5,0,.33-15.48-3.64-30.53-8.02-45.27,2.46.56,4.98.93,7.5,1.07,1.31.08,2.56-1.21,2.5-2.5Z"/>
    <path class="cls-15" d="M100.27,96.51c-9.44-.64-18.99.8-27.82,4.17-.31-.14-.65-.22-.99-.21-1.42.06-2.42,1.1-2.5,2.5,0,.15-.06.42-.05.39-.03.15-.06.31-.11.46-.04.15-.09.29-.15.44,0,0-.15.34-.18.38-.1.19-.23.37-.34.56-.03.05-.05.08-.06.11-.02.02-.05.04-.08.08-.11.11-.21.22-.32.33-.92.43-1.49,1.38-1.55,2.46-.04.73.33,1.4.88,1.88.08.35.16.69.22,1.04.04.29.06.36.04.2-.01-.11,0-.09,0,.07.03.22.05.45.06.67.03.41.04.81.04,1.22,0,.31-.03.63-.04.94-.03.17-.07.33-.11.5-.03.11-.07.22-.1.32-.01.02-.03.06-.06.12-.02.03-.02.05-.03.07-.14.13-.35.31,0,.06-1.05.77-1.68,2.21-.9,3.42.67,1.04,2.29,1.72,3.42.9,2.5-1.82,3.01-4.75,2.77-7.67-.09-1.12-.24-2.29-.53-3.4.71-.87,1.25-1.84,1.62-2.89,8.57-3.33,17.67-4.75,26.85-4.12,1.35.09,2.5-1.21,2.5-2.5,0-1.43-1.15-2.41-2.5-2.5Z"/>
    <path class="cls-5" d="M41.11,122.09c-.64-2.31-2.98-2.19-4.84-2.77-3.44-1.08-6.13-3.83-8.13-6.72-4.57-6.6-7.79-14.26-9.86-21.99-1.18-4.4-1.98-8.88-2.36-13.41-.11-1.35-1.07-2.5-2.5-2.5-1.26,0-2.61,1.15-2.5,2.5.64,7.66,2.28,15.21,5.02,22.4,1.38,3.61,2.98,7.14,4.85,10.53,1.78,3.24,3.77,6.47,6.39,9.12.5.51,1.03.98,1.58,1.44.03.6.28,1.2.7,1.7,1.79,2.11,3.63,4.17,5.54,6.17,1.06,1.11,3.21.92,3.93-.51.43-.86.87-1.72,1.3-2.58.52-1.04,1.22-2.18.88-3.39Z"/>
    <path class="cls-5" d="M97.77,89.59c-.84.08-1.68.15-2.53.22-.1-.45-.3-.87-.65-1.18-.5-.46-1.08-.71-1.77-.73-1.41-.05-2.85.11-4.23.43-.6.14-1.19.63-1.49,1.15-.18.29-.28.6-.3.93-.01.05,0,.11-.01.16-1.21.12-2.41.26-3.62.41-2.28.29-4.55.68-6.73,1.33-.05-1.21-.84-2.38-2.41-2.38-.67,0-1.19.22-1.58.56-.67-1.46-1.52-2.85-2.59-4.12-.87-1.04-2.64-.9-3.54,0-1.03,1.03-.87,2.5,0,3.54,1.72,2.06,2.67,4.67,2.78,7.35.07,1.77,2.11,3.27,3.76,2.16,3.31-2.24,7.22-3.08,11.14-3.53,4.57-.52,9.17-.86,13.75-1.28,1.34-.12,2.5-1.06,2.5-2.5,0-1.26-1.15-2.62-2.5-2.5Z"/>
    <path class="cls-5" d="M124.68,81.29c-1-.91-2.55-.99-3.54,0-1.63,1.64-2.93,3.56-3.83,5.69-.43,1.02-.79,2.04-1.03,3.12-.06.28-.11.56-.16.85-.5-.12-1-.24-1.51-.32-.81-.14-1.63-.25-2.46-.33-.27-.03-.55-.04-.82-.06-.02-.04-.03-.07-.04-.11-.23-.57-.45-1.13-.68-1.7-.48-1.21-1.69-2.19-3.08-1.75-1.17.38-2.27,1.78-1.75,3.08.24.61.49,1.22.73,1.83.27.67.49,1.45.85,2.08.95,1.63,2.62,1.48,4.23,1.59,1.18.08,1.99.21,3.31.53,1.22.3,2.52.93,3.77.63.35.22.78.36,1.31.36,2.84,0,3.17-3.89,1-4.8.01-.09.02-.17.03-.19.05-.23.1-.47.15-.7.13-.54.29-1.07.48-1.59.06-.18.13-.36.2-.53.04-.08.16-.35.19-.4.24-.5.51-.99.8-1.46.15-.24.3-.47.46-.69.04-.05.27-.35.33-.43.33-.4.68-.78,1.04-1.15.92-.93,1-2.62,0-3.54Z"/>
    <path class="cls-5" d="M134.35,72.21c-.55-.15-1.1-.22-1.65-.27-.61-1.74-1.97-3.17-3.74-4.01,1.3-1.33,2.49-2.77,3.54-4.32.73-1.09.24-2.82-.9-3.42-1.26-.67-2.64-.26-3.42.9-.27.4-.55.79-.83,1.17-.02.03-.03.04-.04.06-.02.02-.04.04-.07.08-.13.16-.26.32-.39.48-.57.68-1.18,1.34-1.81,1.96-.64.62-1.31,1.2-2,1.77-.03.03-.05.04-.07.06-.02.02-.04.03-.07.05-.17.12-.33.24-.5.36-.1.07-.21.14-.32.22-.11.03-.23.06-.34.11-.58.24-1.08.63-1.41,1.17-.41.67-.39,1.39-.28,2.14.24,1.58,2.43,2.29,3.67,1.49.07-.04.13-.09.19-.13.04,0,.07,0,.11,0,.42-.01.85,0,1.27.02.03,0,.13,0,.22,0,.18.01.39.07.56.11.2.05.4.11.6.17.06.02.09.02.12.03.02.01.03.02.06.03.16.08.31.18.47.27.02.01.03.02.05.02.01.01.01.02.03.03.13.13.26.26.39.39.01.01.02.01.03.02,0,.02.01.03.02.05.04.08.13.18.19.29,0,.03,0,.08.03.17,0,.03.01.06.02.09-.02.22-.07.64.03.11,0,0,0,.01,0,.02-.31,1.93,1.14,3.35,3.08,3.01.06,0,.08-.02.12-.02.03,0,.06,0,.12,0,.23,0,.45-.01.68,0,.08,0,.36.05.43.05.16.03.32.07.47.11,1.26.33,2.77-.42,3.08-1.75.3-1.31-.39-2.72-1.75-3.08Z"/>
    <path class="cls-5" d="M189.49,67.42c-.13-1.34-1.06-2.5-2.5-2.5-.04,0-.08.01-.12.01-.06-1.45-.14-2.89-.27-4.34-.12-1.34-1.06-2.5-2.5-2.5-1.26,0-2.62,1.15-2.5,2.5,1.5,16.44-2.16,33.29-10.71,47.45-1.82,3.01-3.95,5.86-6.9,7.75-1.44-1.61-2.9-3.21-4.38-4.79-.9-.96-2.64-.97-3.54,0-.94,1.03-.96,2.51,0,3.54,1.73,1.85,3.44,3.72,5.12,5.61.27.3.53.6.79.9-.3.69-.27,1.51.1,2.28.42.88.79,1.84,1.32,2.66,1.07,1.65,3.35,1.81,4.75.48.86-.82,1.2-1.92,1.15-3.05,2.46-1.72,4.35-4.2,6.08-6.62,2.28-3.19,4.15-6.69,5.59-10.35,3.97-4.59,5.53-10.58,6.62-16.45,1.38-7.43,2.62-15.02,1.89-22.6Z"/>
    <path class="cls-20" d="M91.08,40.22c-1.4-.49-2.83-.77-4.27-.93-.28-.51-.74-.92-1.45-1.13-1.64-.48-3.29-.93-4.94-1.36-.19-.89-.86-1.62-1.77-1.93-3.56-1.19-7.13-2.35-10.86-2.87-3.82-.53-7.65-.4-11.49-.22-.79.04-1.5.41-1.96.99-2.78-.08-5.56.02-8.34.41-12.1,1.71-21.45,10.22-27.42,20.49-1.78,3.06-3.27,6.27-4.63,9.53-.68,1.64-1.33,3.29-1.95,4.95-.65,1.75-1.29,3.44-.75,5.33.31,1.06,1.3,1.83,2.41,1.84,4.2,0,8.37.43,12.47,1.35,2,.45,3.97,1.01,5.91,1.66,2.09.7,3.91.93,5.95-.11,1.73-.89,3.25-2.31,4.81-3.46,1.58-1.17,3.2-2.3,4.91-3.28,3.35-1.92,6.99-3.1,10.88-2.6,1.27.16,2.6-1.28,2.5-2.5-.12-1.46.16-2.89,1.07-4.08,1.19-1.56,3.08-2.13,3.51-4.26.2-.98-.09-1.87-.22-2.82-.12-.83-.12-1.76,0-2.59.21-1.4.78-2.75,1.78-3.75,1.19-1.2,2.91-1.72,4.49-2.21,2.01-.61,4.03-1.2,6.08-1.68,3.99-.93,8.05-1.34,11.98.04,1.27.45,2.73-.51,3.08-1.75.38-1.38-.47-2.63-1.75-3.08ZM69.98,41.98c-2.18.69-4.33,1.57-6.04,3.12-3.18,2.87-4.03,7.45-3.32,11.52.02.11.04.22.06.33-.29.22-.94.71-1.03.78-.82.69-1.52,1.54-2.08,2.44-.67,1.09-1.13,2.32-1.36,3.59-7.42.09-13.59,5.03-19.39,9.26-.5.36-1.15.97-1.81.99-.79.02-1.82-.56-2.55-.8-1.95-.62-3.93-1.15-5.94-1.56-3.34-.7-6.74-1.11-10.15-1.26.26-.65.59-1.3.75-1.73.52-1.38,1.06-2.76,1.64-4.12,1.07-2.52,2.25-4.99,3.58-7.38,2.59-4.65,5.78-8.91,9.84-12.38,3.96-3.39,8.66-5.65,13.79-6.56,5.72-1.02,11.72-.43,17.44.33,3.82.51,7.61,1.21,11.38,2.05-1.61.42-3.22.87-4.81,1.37Z"/>
    <g>
      <path class="cls-18" d="M131.54,56s-.03.02-.04.02c.01,0,.02-.01.03-.02,0,0,0,0,0,0Z"/>
      <path class="cls-20" d="M181.38,54.1c-5.66.08-11.34.89-16.79,2.47-3.68,1.07-7.8,2.41-10.49,5.26-5.08-3.51-11.01-5.63-17.15-6.03.4-1.42.58-2.94.73-4.33.37-3.51-.63-6.92-3.08-9.49-2.18-2.29-5.21-3.65-8.34-3.96-.68-.07-1.35-.07-2.04,0-.36.03-.92.18-1.28.11-.09-.02-.12-.02-.15-.02-.46-.24-.9-.89-1.29-1.21-.71-.59-1.48-1.08-2.4-1.23-1.33-.22-2.69.35-3.08,1.75-.33,1.19.41,2.86,1.75,3.08.37.06.32.06.65.35.38.34.73.71,1.14,1.04,1.27,1.02,2.63,1.34,4.24,1.2,2.18-.19,4.11.1,5.96,1.33,1.59,1.06,2.75,2.74,2.96,4.65.16,1.43-.09,2.88-.39,4.28-.14.65-.27,1.33-.48,1.96-.06.17-.16.34-.21.51-.03.09-.08.16-.12.2.04-.02.1-.05.2-.09-.07.03-.14.07-.21.1-.06.06-.11.06-.03.02-1.02.49-1.73,1.41-1.55,2.63.17,1.15,1.2,2.26,2.46,2.17,7.32-.55,14.76,1.6,20.47,6.27,1.19.97,3.1,1.03,3.93-.51,1.83-3.43,6.57-4.5,10.02-5.45,4.76-1.3,9.63-1.97,14.56-2.04,3.21-.04,3.22-5.04,0-5Z"/>
    </g>
    <path class="cls-11" d="M29.8,65c2.93-.73,6.67-1.7,9.11.71.89.88,2.35.44,2.72-.72,1.56-4.93,6.66-8.05,11.74-7.52,2.08.22,2.06-3.03,0-3.25-6.53-.68-12.91,3.7-14.87,9.91l2.72-.72c-3.37-3.32-8.11-2.58-12.27-1.54-2.03.5-1.17,3.64.86,3.13h0Z"/>
    <path class="cls-11" d="M60.54,47.31c2.09,0,2.09-3.25,0-3.25s-2.09,3.25,0,3.25h0Z"/>
    <path class="cls-11" d="M142.61,51.05c3.73-.13,6.48,2.67,8.79,5.24.73.81,2.01.5,2.55-.33,1.53-2.34,4.92-2.05,7.33-1.92,2.09.11,2.08-3.14,0-3.25-3.76-.19-7.87.07-10.13,3.53l2.55-.33c-2.9-3.22-6.47-6.35-11.09-6.19-2.09.07-2.1,3.32,0,3.25h0Z"/>
    <path class="cls-11" d="M140.29,44.83c2.09,0,2.09-3.25,0-3.25s-2.09,3.25,0,3.25h0Z"/>
  </g>
  <g id="Layer_1" data-name="Layer 1">
    <path class="cls-4" d="M70.09,132.44c-.03-.05-.06-.11-.09-.16-9.64-2.03-23.89,3.58-15.8,12.84,4.82,4.4,18.31,4.56,22.44-.9-2.05-4-4.12-7.98-6.55-11.78Z"/>
    <path class="cls-4" d="M145.38,136.4c-2.42-3.98-8.9-5.15-14.65-4.24.11.68.11,1.4-.03,2.1-.69,3.43-1.93,6.69-3.03,10,.18,1.07.04,2.21-.39,3.19,8.79,2.67,23.27-.36,18.11-11.05Z"/>
    <path class="cls-4" d="M124.7,134.09c-4.14,2.23-6.09,6.01-2.11,10.77.67-3.6,1.42-7.18,2.11-10.77Z"/>
    <g>
      <path class="cls-7" d="M93.77,40.46c-2.28-.99-4.16-2.53-6.25-3.83-1.61-1.01-3.28-1.91-5-2.71-3.51-1.63-7.2-2.85-11-3.61-7.55-1.51-15.38-1.3-22.87.44-14.93,3.48-28.53,13.27-35.41,27.12-1.78,3.58-3.19,7.42-3.97,11.35s-.86,8.1-.57,12.08c.59,8.11,3.02,15.95,6.61,23.22,7.79,15.78,20.63,28.79,34.44,39.44,13.53,10.44,28.67,19.11,44.74,24.97,1.68.61,3.38,1.19,5.09,1.73,2,.63,2.85-2.5.86-3.13-15.31-4.84-29.78-12.61-42.88-21.83-13.92-9.78-26.92-21.78-35.87-36.38-7.96-12.98-12.89-29.37-7.9-44.34,4.68-14.02,16.44-24.74,30.26-29.53s29.7-3.79,42.22,4.21c1.95,1.24,3.73,2.66,5.87,3.59,1.9.82,3.56-1.98,1.64-2.81h0Z"/>
      <path class="cls-7" d="M100.43,170.66c15.14-4.78,29.49-12.35,42.52-21.36,13.89-9.6,26.8-21.22,36.24-35.32,8.62-12.87,14.15-28.52,11.65-44.15-1.21-7.56-5.01-14.86-9.77-20.78-4.67-5.8-10.71-10.52-17.37-13.84-13.48-6.72-29.82-8.06-43.88-2.31-1.74.71-3.44,1.51-5.09,2.4-1.84,1-.2,3.81,1.64,2.81,12.74-6.93,28.15-7.15,41.54-1.94s24.56,16.22,28.74,30.16-.47,29.92-7.9,42.3c-8.36,13.92-20.45,25.49-33.46,35.04-12.5,9.17-26.3,16.94-40.89,22.22-1.59.58-3.2,1.12-4.82,1.63-1.99.63-1.14,3.77.86,3.13h0Z"/>
      <g>
        <path class="cls-7" d="M154.55,117.2c3.54,3.49,6.61,7.4,9.1,11.7,1.05,1.81,3.86.17,2.81-1.64-2.63-4.53-5.88-8.68-9.61-12.36-1.49-1.47-3.79.83-2.3,2.3h0Z"/>
        <path class="cls-7" d="M108.14,97.34c4.77.4,9.49,1.19,14.13,2.37,2.03.51,2.89-2.62.86-3.13-4.92-1.25-9.94-2.06-14.99-2.49-.88-.07-1.62.8-1.62,1.62,0,.94.75,1.55,1.62,1.62h0Z"/>
        <path class="cls-7" d="M69.83,103.09c9.83-4.09,20.39-6.01,31.02-6.05,2.09,0,2.09-3.26,0-3.25-10.9.03-21.81,1.97-31.88,6.16-.82.34-1.38,1.07-1.13,2,.2.77,1.19,1.47,2,1.13h0Z"/>
        <path class="cls-7" d="M39.35,131.66c1.62-3.47,3.59-6.76,5.88-9.82.51-.68.13-1.84-.58-2.22-.85-.45-1.68-.15-2.22.58-2.29,3.07-4.25,6.36-5.88,9.82-.36.77-.24,1.79.58,2.22.72.38,1.84.24,2.22-.58h0Z"/>
        <path class="cls-7" d="M90.67,143.58c.08-.52.23-1.03.43-1.51l-.16.39c.22-.52.5-1.01.85-1.46l-.25.33c.17-.22.35-.42.54-.61.29-.3.48-.73.48-1.15s-.18-.87-.48-1.15-.72-.5-1.15-.48-.84.16-1.15.48c-1.14,1.16-1.98,2.69-2.23,4.31-.07.22-.08.43-.03.65,0,.22.07.42.19.6.2.34.58.66.97.75.42.09.88.07,1.25-.16.33-.21.68-.56.75-.97h0Z"/>
        <path class="cls-7" d="M98.27,137.3c.15-.07.3-.14.46-.21l-.39.16c.67-.28,1.37-.47,2.09-.57l-.43.06c.69-.09,1.39-.09,2.08,0l-.43-.06c.06,0,.11.02.17.02.45.07.84.07,1.25-.16.34-.2.66-.58.75-.97.09-.42.07-.88-.16-1.25-.21-.33-.56-.69-.97-.75-.56-.08-1.12-.15-1.68-.15s-1.07.07-1.6.15c-.97.15-1.89.48-2.77.92-.76.38-1.04,1.52-.58,2.22.5.78,1.41.99,2.22.58h0Z"/>
        <path class="cls-7" d="M131.81,138.11c0,1.33,0,2.67,0,4,0,.42.18.85.48,1.15s.74.49,1.15.48c.88-.04,1.63-.71,1.62-1.62,0-1.33,0-2.67,0-4,0-.42-.18-.85-.48-1.15s-.74-.49-1.15-.48c-.88.04-1.63.71-1.62,1.62h0Z"/>
        <path class="cls-7" d="M139.78,138.11v4c0,.42.18.85.48,1.15s.74.49,1.15.48c.88-.04,1.63-.71,1.62-1.62v-4c0-.42-.18-.85-.48-1.15s-.74-.49-1.15-.48c-.88.04-1.63.71-1.62,1.62h0Z"/>
        <path class="cls-7" d="M55.55,138.11v4c0,.42.18.85.48,1.15s.74.49,1.15.48c.88-.04,1.63-.71,1.62-1.62v-4c0-.42-.18-.85-.48-1.15s-.74-.49-1.15-.48c-.88.04-1.63.71-1.62,1.62h0Z"/>
        <path class="cls-7" d="M63.63,138.11c0,1.33,0,2.67,0,4,0,.42.18.85.48,1.15s.74.49,1.15.48c.88-.04,1.63-.71,1.62-1.62,0-1.33,0-2.67,0-4,0-.42-.18-.85-.48-1.15s-.74-.49-1.15-.48c-.88.04-1.63.71-1.62,1.62h0Z"/>
        <path class="cls-7" d="M71.71,138.11c0,1.33,0,2.67,0,4,0,.42.18.85.48,1.15s.74.49,1.15.48c.88-.04,1.63-.71,1.62-1.62,0-1.33,0-2.67,0-4,0-.42-.18-.85-.48-1.15s-.74-.49-1.15-.48c-.88.04-1.63.71-1.62,1.62h0Z"/>
      </g>
      <path class="cls-7" d="M92.16,83.22c-3.26.65-6.03-1.73-8.05-3.99-2.47-2.75-3.69-6-3.64-9.71.02-1.62.26-3.45,1.28-4.78s2.92-1.71,4.55-1.97c4.07-.63,7.89-1.59,11.53-3.61,3.09-1.71,6.24-4.61,9.97-4.55s6.5,3.16,7.96,6.23c3.11,6.5.7,15.04-5.77,18.53-2.59,1.39-5.81,1.87-8.67,2.4-3.04.57-6.1,1-9.16,1.45-.87.13-1.34,1.23-1.13,2,.25.93,1.13,1.26,2,1.13,3.17-.47,6.35-.91,9.5-1.51s6.42-1.18,9.2-2.72c7.72-4.27,10.59-14.27,7.18-22.19-1.64-3.79-4.84-7.34-8.99-8.3-4.48-1.05-8.32,1.42-11.96,3.68-2.05,1.27-4.18,2.35-6.49,3.08s-4.5.95-6.78,1.37c-1.98.37-3.94,1.14-5.26,2.72s-1.91,3.65-2.12,5.71c-.49,4.87,1.11,9.45,4.3,13.1,2.92,3.33,6.81,5.98,11.42,5.06,2.05-.41,1.18-3.54-.86-3.13h0Z"/>
      <path class="cls-7" d="M114.27,53.89c.73-3.9,2.58-8.14,6.46-9.81,3.49-1.5,7.52-.42,9.03,3.25,1.64,4.02-.12,8.31-2.19,11.79s-4.7,7.2-8.72,8.51c-1.98.65-1.13,3.79.86,3.13,3.95-1.29,6.81-4.26,9.12-7.6s4.56-7.45,4.8-11.75c.21-3.81-1.36-7.9-4.72-9.94s-7.59-1.6-10.8.3c-3.97,2.36-6.16,6.84-6.98,11.24-.38,2.04,2.75,2.92,3.13.86h0Z"/>
      <path class="cls-7" d="M94.76,56.98c-1.11-1.68-1.14-3.69-1.19-5.64s-.05-3.81.29-5.68c.65-3.53,2.51-6.46,5.88-7.9,3-1.28,6.52-1.34,9.68-.67,2.96.63,7.43,2.14,7.72,5.72.17,2.07,3.42,2.09,3.25,0-.59-7.3-9.89-9.7-16.02-9.34-3.32.2-6.57,1.18-9.17,3.29-2.89,2.34-4.23,5.86-4.68,9.46-.26,2.09-.26,4.21-.15,6.32s.39,4.26,1.59,6.07,3.96.11,2.81-1.64h0Z"/>
      <path class="cls-7" d="M85.49,59.77c-4.39-1.07-8.92-1.83-13.44-1.89-4.09-.05-9.36.25-11.48,4.35s-.59,8.93,1.06,12.88c1.69,4.05,4.45,7.34,8.74,8.7,2.3.73,4.77.88,7.17.92,2.58.04,5.04-.04,7.51-.85,1.98-.65,1.13-3.79-.86-3.13-3.31,1.09-7.28,1.01-10.71.46-3.72-.6-6.42-2.5-8.17-5.84-.81-1.55-1.38-3.21-1.86-4.89-.52-1.83-.95-3.79-.43-5.66,1.06-3.8,5.79-3.72,9.03-3.68,4.25.05,8.46.77,12.58,1.77,2.03.5,2.9-2.64.86-3.13h0Z"/>
      <path class="cls-7" d="M66.94,58.48c-.84-2.57-.96-5.54.77-7.8s4.35-2.02,6.91-2.62,4.93-2.28,7.61-2.81,5.36.18,7.57,1.69c1.73,1.18,3.36-1.63,1.64-2.81-2.71-1.84-6.04-2.61-9.28-2.15-3.41.49-6.23,2.71-9.65,3.15-1.64.21-3.23.4-4.7,1.22-1.3.73-2.38,1.83-3.18,3.09-1.88,2.94-1.87,6.66-.82,9.88.65,1.98,3.79,1.13,3.13-.86h0Z"/>
      <path class="cls-7" d="M77.4,82.05c-2.58,1.15-5.52,3.49-6.4,6.29-1.23,3.89,4.03,4.61,6.7,4.62,3.51,0,6.97-1.06,10.28-2.1,2.99-.94,5.94-2.12,8.16-4.41l-2.77-1.15c-.18,2.03-1.04,5.07,1.33,6.11,1.89.83,4.32,0,6.18-.52,3.46-.97,11.47-3.15,8.61-8.37-1.01-1.83-3.81-.2-2.81,1.64.94,1.71-5.61,3.3-6.66,3.6-1.2.34-2.36.56-3.58.72-.41.06-.33-.19-.28.1.08.55.21-.58.22-.68.07-.87.16-1.74.23-2.61.13-1.43-1.85-2.1-2.77-1.15-1.59,1.64-3.65,2.56-5.79,3.27-2.37.79-4.81,1.54-7.27,1.99-1.23.23-2.48.34-3.73.28-.65-.03-1.29-.12-1.92-.28-.27-.07-.56-.2-.84-.25-.45-.07-.13-.15-.15.04.11-.85,1.47-2.04,2.06-2.57.84-.75,1.82-1.32,2.85-1.78,1.91-.85.26-3.65-1.64-2.81h0Z"/>
      <path class="cls-7" d="M108.22,85.42c6.6.22,13.13-1.95,18.32-6.02,1.19-.94,2.55-1.99,3.3-3.34.82-1.49.69-3.45-.69-4.56-1.27-1.02-3.24-1.08-4.8-1.25-1.91-.21-3.83-.23-5.74-.11-2.08.13-2.09,3.38,0,3.25,1.53-.09,3.06-.1,4.6.01.68.05,1.37.12,2.04.22.29.04,1.53.08,1.76.35.74.87-3.65,3.79-4.34,4.23-4.31,2.77-9.34,4.15-14.46,3.98-2.09-.07-2.09,3.18,0,3.25h0Z"/>
      <path class="cls-7" d="M97.8,90.34c3.6,8.7,5.37,18,7.23,27.19,1.96,9.74,3.74,19.51,5.33,29.32.89,5.51,1.73,11.03,2.5,16.56.12.88,1.23,1.34,2,1.13.94-.25,1.26-1.13,1.13-2-2.74-19.48-5.98-39-10.45-58.16-1.18-5.08-2.63-10.09-4.62-14.91-.34-.82-1.08-1.38-2-1.13-.77.2-1.47,1.19-1.13,2h0Z"/>
      <path class="cls-7" d="M103.63,89.93c3.65,8.82,5.5,18.24,7.39,27.55s3.59,18.47,5.11,27.76c.87,5.33,1.68,10.67,2.43,16.02.12.88,1.23,1.34,2,1.13.94-.25,1.26-1.13,1.13-2-2.64-18.79-5.8-37.65-10.19-56.12-1.23-5.18-2.71-10.29-4.75-15.22-.34-.82-1.08-1.38-2-1.13-.77.2-1.47,1.19-1.13,2h0Z"/>
      <path class="cls-7" d="M137.18,108.67c-2.33-1-3.6-3.09-4.39-5.42-.89-2.65-1.46-5.6-1.45-8.4.02-2.63.94-5.62,3.54-6.79,2.8-1.27,4.62,1.07,6.13,3.04,1.87,2.44,4.39,2.28,7.18,2.39,2.46.1,4.7,1.47,6.11,3.45,3.06,4.28,1.3,9.97-3.05,12.61s-9.92.38-14.47-1.04c-2-.62-2.86,2.51-.86,3.13,5.16,1.61,11.02,3.75,16.2,1.14,5.74-2.89,8.66-9.91,5.93-15.84-1.28-2.79-3.7-5-6.56-6.08-1.5-.57-3.05-.63-4.63-.63-.75,0-1.6.05-2.31-.26-.75-.32-1.14-1.08-1.59-1.71-1.9-2.67-5.04-4.49-8.38-3.55-3.13.89-5.4,3.79-6.13,6.87-.9,3.81-.13,8.15.98,11.85.99,3.29,2.79,6.62,6.1,8.04.81.35,1.73.24,2.22-.58.41-.68.22-1.88-.58-2.22h0Z"/>
      <path class="cls-7" d="M131.6,103.96c-3.46-.93-6.27-4.52-7.39-7.8-1.28-3.74-.36-7.73,1.47-11.12,1.46-2.71,4.59-7.54,8.35-6.17,1.43.52,1.74,1.68,1.9,3.05.18,1.53.29,3.11.7,4.6.55,2.01,3.69,1.16,3.13-.86-.78-2.83-.11-6.27-2.42-8.47-2.87-2.73-7.14-1.91-9.97.41s-5.03,6.16-6.17,9.72c-1.2,3.73-1.12,7.69.51,11.28s4.97,7.42,9.03,8.51c2.02.54,2.88-2.59.86-3.13h0Z"/>
      <path class="cls-7" d="M155.58,93.62c.18-.45.56-1.14,1-1.38.5-.27,1.14.03,1.67.16,1.6.4,3.06.42,4.66,0,1.21-.32,2.67-1.05,3.95-.7,1.1.3,1.76,1.43,2.09,2.44,1.77,5.43-1.95,11.19-6.65,13.67-2.97,1.58-6.37,2.08-9.7,1.88-2.09-.13-2.08,3.12,0,3.25,7.43.46,15.4-2.82,18.59-9.92,1.43-3.17,2-7.01.68-10.32-.65-1.64-1.74-3.14-3.4-3.86-1.79-.79-3.65-.39-5.45.14-.91.27-1.86.61-2.83.52-1.14-.11-2.22-.65-3.38-.63-2.2.04-3.63,2.05-4.35,3.9-.32.82.36,1.78,1.13,2,.92.26,1.68-.32,2-1.13h0Z"/>
      <path class="cls-7" d="M149.39,90.53c.86-2.19,2.27-4.18,4.06-5.7.95-.81,1.93-.83,3.06-1.22s2.18-.97,3.39-1.16c1.86-.29,4.11.14,5.29,1.73.91,1.22,1.23,3.24.19,4.48-.56.67-.66,1.64,0,2.3.58.58,1.73.68,2.3,0,1.89-2.26,2.03-5.37.62-7.93s-4.49-3.96-7.42-3.91c-1.63.02-3.09.47-4.58,1.09s-3.02.68-4.34,1.66c-2.63,1.96-4.52,4.76-5.71,7.78-.32.82.35,1.78,1.13,2,.92.25,1.68-.31,2-1.13h0Z"/>
      <path class="cls-7" d="M137.81,77.85c.73-1.08,1.87-2.83,3.42-2.51.48.1.91.38,1.38.5s1.02.19,1.52.2c.97,0,1.92-.22,2.88-.25,3.39-.09,5.8,2.8,5.54,6.08-.07.88.8,1.62,1.62,1.62.94,0,1.55-.75,1.62-1.62.39-4.85-3.4-9.05-8.22-9.32-1.16-.07-2.29.26-3.45.24-1.24-.03-2.26-.83-3.55-.72-2.57.21-4.22,2.15-5.57,4.14-1.18,1.74,1.64,3.36,2.81,1.64h0Z"/>
      <path class="cls-7" d="M125.6,101.81c-1.3.5-2.54,1.6-2.97,2.97-.54,1.7.36,3.51,1.36,4.85s2.33,2.51,3.85,3.26c1.61.8,3.47.9,4.88,2.05,2.78,2.27,5.76,3.38,9.31,3.78s7.56.46,11.07-.28c1.79-.38,3.29-1.02,3.91-2.84.48-1.4.47-3.13-.29-4.42-1.05-1.81-3.86-.17-2.81,1.64.29.5.25,1.66-.17,2.06-.48.46-1.99.54-2.63.61-.9.1-1.81.11-2.72.14-3.13.08-6.34.14-9.37-.77-1.51-.46-2.79-1.21-4.01-2.21-1.43-1.17-2.75-1.62-4.49-2.16-1.41-.43-2.66-1.26-3.62-2.38-.63-.73-1.99-2.57-.45-3.16,1.93-.74,1.09-3.89-.86-3.13h0Z"/>
      <path class="cls-7" d="M132.68,113.48c-8.13,14.37-13.13,30.33-14.72,46.75-.2,2.08,3.05,2.07,3.25,0,1.53-15.84,6.44-31.27,14.27-45.11,1.03-1.82-1.77-3.46-2.81-1.64h0Z"/>
      <path class="cls-7" d="M136.24,115.96c-5.8,13.2-9.65,27.12-11.45,41.43-.11.88.83,1.62,1.62,1.62.97.01,1.52-.76,1.62-1.62,1.73-13.69,5.46-27.16,11.01-39.79.83-1.9-1.97-3.55-2.81-1.64h0Z"/>
      <path class="cls-7" d="M55.71,112.98c-3.21,1.15-6.47.48-9.6-.61-1.43-.5-2.84-1.07-4.22-1.68s-2.79-1.28-3.73-2.48c-1.55-1.98-2.1-5.12-2.12-7.58,0-1.25.23-2.5,1.22-3.34,1.07-.91,2.44-1.44,3.55-2.31,3.52-2.75,6.72-8.63,11.89-5.6,3.88,2.27,5.77,6.92,6.44,11.16s.06,9.79-3.83,12.61c-1.68,1.22-.06,4.04,1.64,2.81,4.52-3.28,6.06-8.79,5.59-14.17s-2.6-11.08-7.1-14.46c-2.6-1.96-5.9-2.71-8.95-1.38-2.78,1.21-4.61,3.71-6.77,5.71-2.44,2.27-5.87,3.05-6.7,6.7-.69,3.07.06,6.8,1.3,9.64,1.73,3.99,5.6,5.47,9.4,6.95,4.07,1.59,8.58,2.69,12.84,1.17,1.95-.7,1.11-3.84-.86-3.13h0Z"/>
      <path class="cls-7" d="M33.76,102.39c-3.02,2.12-8.1,5.55-6.45,9.89,1.35,3.55,5.43,6.31,8.76,7.81,6.94,3.13,16.62,3.01,21.44-3.71,1.22-1.7-1.6-3.33-2.81-1.64-3.55,4.96-11.17,4.8-16.28,2.83-2.75-1.06-5.48-2.87-7.32-5.2-.43-.54-.96-1.29-.9-2.02.06-.69.67-1.25,1.12-1.71,1.24-1.28,2.61-2.43,4.07-3.45,1.7-1.19.08-4.01-1.64-2.81h0Z"/>
      <path class="cls-7" d="M56.91,89.04c.4-.38.81-.76,1.22-1.12.34-.3,1.05-.69,1.27-1.07l.33-.25c-.6-.21-.7-.17-.32.12.17.27.58.53.83.7,1.27.88,2.99.93,4.18,1.89s1.7,2.75,2.08,4.15c.45,1.64.67,3.32.66,5.02,0,3.26-.81,6.52-2.4,9.38s-4.07,5.83-7.57,5.54c-2.08-.17-2.07,3.08,0,3.25,6.99.58,11.51-7.61,12.72-13.43.69-3.31.67-6.76-.13-10.05s-2.22-6.34-5.58-7.57c-.77-.28-1.62-.45-2.28-.97s-1.09-1.08-1.93-1.23c-2.04-.36-4.06,2.09-5.39,3.35-1.52,1.44.78,3.74,2.3,2.3h0Z"/>
      <path class="cls-7" d="M50.21,121.69c2.02,1.04,4.13,2.91,6.54,2.72.79-.06,1.48-.36,2.09-.86.38-.31.65-.7,1.13-.86s1.04-.15,1.55-.2c.76-.08,1.45-.23,2.16-.52,1.24-.52,2.45-1.32,3.47-2.19,1.08-.92,1.64-2.11,1.84-3.5.37-2.57-.3-5.22-.98-7.7-.55-2.02-3.68-1.16-3.13.86.52,1.91,1.09,3.94.96,5.94-.06.93-.31,1.58-1.05,2.15-.82.63-1.82,1.34-2.82,1.61s-2.01.15-2.97.46c-.6.19-1.1.47-1.58.87-.26.22-.53.63-.88.71-.69.15-1.71-.58-2.28-.9-.8-.46-1.58-.97-2.41-1.39-1.86-.95-3.5,1.85-1.64,2.81h0Z"/>
      <path class="cls-7" d="M59.34,123.86c12.83,11.5,20.97,26.93,28.86,41.98.97,1.85,3.78.21,2.81-1.64-8.02-15.29-16.34-30.96-29.37-42.64-1.55-1.39-3.86.9-2.3,2.3h0Z"/>
      <path class="cls-7" d="M64.98,120.83c10.36,10.3,18.93,22.3,25.32,35.45,1.82,3.74,3.44,7.57,4.89,11.47.72,1.94,3.86,1.1,3.13-.86-5.22-14.1-12.77-27.24-22.35-38.83-2.74-3.31-5.64-6.49-8.69-9.52-1.48-1.48-3.78.82-2.3,2.3h0Z"/>
      <path class="cls-7" d="M90.01,58.39c-.46-.42-.88-.87-1.26-1.36l.25.33c-.22-.28-.46-.58-.61-.91l.16.39c-.05-.12-.08-.23-.1-.36l.06.43c0-.06,0-.13,0-.19l-.06.43s.02-.09.03-.13l-.16.39s.03-.06.05-.08l-.25.33s.04-.05.07-.07l-.33.25s.04-.02.06-.03l-.39.16s.05-.02.07-.02l-.43.06s.07,0,.11,0l-.43-.06c.06,0,.1.02.16.04l-.39-.16c.07.03.13.07.19.12l-.33-.25c.33.26.6.57.86.9l-.25-.33c.4.51.76,1.05,1.17,1.56s.88.93,1.43,1.26c.36.22.85.27,1.25.16.38-.1.79-.4.97-.75.42-.79.19-1.75-.58-2.22-.11-.07-.22-.14-.32-.22l.33.25c-.34-.27-.62-.59-.88-.92l.25.33c-.8-1.04-1.54-2.42-2.85-2.87-.35-.12-.78-.12-1.14-.02-.33.09-.62.28-.87.52-.22.21-.42.57-.49.86-.05.22-.09.46-.07.69.04.48.14.88.38,1.31.14.25.31.48.48.71.48.64.99,1.25,1.58,1.79.32.29.71.48,1.15.48.4,0,.87-.18,1.15-.48s.5-.72.48-1.15-.16-.86-.48-1.15h0Z"/>
      <path class="cls-7" d="M98.92,55.52c-.11-.3-.19-.62-.23-.94l.06.43c-.04-.37-.04-.74,0-1.11l-.06.43c.05-.37.15-.73.3-1.07l-.16.39c.07-.17.15-.34.26-.49l-.25.33s.08-.09.12-.13l-.33.25s.06-.04.1-.06l-.39.16s.07-.02.11-.02l-.43.06s.06,0,.09,0l-.43-.06h.04c-.13-.04-.26-.1-.39-.15.04.02.07.04.11.06l-.33-.25s.04.04.06.07l-.25-.33c.04.05.07.11.1.17l-.16-.39c.04.1.06.2.08.31l-.06-.43c.05.41-.02.85-.05,1.26-.04.48-.09.95-.15,1.43l.06-.43c-.05.37-.11.75-.17,1.12-.08.44-.07.85.16,1.25.2.34.58.66.97.75.42.09.88.07,1.25-.16.34-.22.68-.56.75-.97.15-.87.27-1.75.35-2.63.07-.74.21-1.58-.04-2.31-.19-.55-.51-1.05-1.03-1.32-.78-.41-1.76-.26-2.37.38-.38.4-.58.88-.78,1.38-.12.31-.21.64-.25.97-.14.98-.12,1.97.22,2.91.15.4.36.75.75.97.35.2.86.29,1.25.16s.77-.37.97-.75.31-.85.16-1.25h0Z"/>
      <path class="cls-7" d="M145.01,89.17c-.03-.13-.04-.26-.07-.39-.02-.12-.02-.11,0,.03l-.02-.16c-.02-.27-.05-.53-.05-.8-.01-.54.02-1.07.08-1.6l-2.06,1.57c.17.05.15.03-.07-.06.15.09.13.07-.06-.06.24.19-.11-.25.03.03.04.07.08.14.11.21-.08-.18-.1-.22-.06-.11.02.14.07.27.1.41-.06-.34,0,.09,0,.17.01.2.02.4.04.6.04.44.1.89.25,1.31.19.55.56.98,1.13,1.13.61.17,1.11-.05,1.58-.42-.13.1-.09.07.02,0,.1-.07.2-.13.3-.2.19-.11.38-.21.58-.3-.15.07-.12.05.01,0,.09-.03.18-.06.28-.09.12-.04.24-.05.35-.09.21-.07-.35-.01-.03.03l-.82-.22c-.35-.26-.54-.6-.57-1,0,.06,0,.12-.01.18,0,.11-.02.21-.02.32,0,.52.21,1.12.62,1.45.54.43,1.33.68,1.97.25s1.25-.81,1.91-1.17c.33-.18.65-.36.99-.52.17-.08.17-.08,0,0-.45.08-.82-.08-1.1-.5-.07-.13-.1-.26-.09-.4,0,.14,0,.15,0,.02,0-.08.02-.16.07-.23-.04.08-.09.16-.14.23-.2.34.13-.15-.06.08-.14.17-.27.34-.41.51-.16.19-.34.37-.51.56-.26.28.22-.1-.01.02-.15.09-.09.07.17-.05-.17.05-.09.04.23-.02-.85.02-1.66.73-1.62,1.62s.71,1.65,1.62,1.62c1.04-.02,1.83-.73,2.46-1.49.7-.84,1.52-1.76,1.45-2.93-.05-.79-.44-1.59-1.16-1.98-.82-.45-1.67-.28-2.47.1-1.03.49-2.01,1.09-2.96,1.73l1.97.25c.18.2.28.42.31.67.02.16.02.18.02.04.02-.07.02-.16.02-.23.02-.27,0-.56-.09-.81-.32-.94-1.21-1.47-2.2-1.33-1.26.17-2.39.81-3.37,1.6l2.72.72c-.03-.09-.07-.19-.09-.28,0,0-.08-.42-.05-.22.02.18,0-.13,0-.16,0-.13-.02-.25-.02-.38-.03-.5-.07-1.02-.23-1.5-.35-1.04-1.1-1.99-2.21-2.24s-1.93.49-2.06,1.57c-.15,1.27-.06,2.53.18,3.79.16.84,1.21,1.39,2,1.13.89-.29,1.31-1.1,1.13-2h0Z"/>
      <path class="cls-7" d="M85.77,74.89c.19,2.33,1.36,4.4,3.25,5.78.48.35,1.28.1,1.54-.4.31-.59.1-1.17-.4-1.54-.17-.12.13.11.02.02-.04-.03-.08-.06-.12-.09-.09-.07-.17-.15-.25-.22-.16-.15-.32-.31-.47-.48-.07-.08-.14-.17-.22-.26-.1-.12.12.17.04.05-.04-.05-.07-.1-.11-.15-.13-.18-.25-.37-.36-.57-.1-.19-.19-.38-.28-.57-.06-.13.09.22.01.03-.02-.05-.04-.09-.05-.14-.04-.11-.08-.21-.11-.32-.07-.21-.12-.43-.17-.65-.02-.11-.03-.23-.06-.33.02.05.03.23.01.08,0-.07-.01-.15-.02-.22-.05-.59-.48-1.15-1.12-1.12-.57.03-1.18.5-1.12,1.12h0Z"/>
      <path class="cls-7" d="M84.74,71.98c1.45,0,1.45-2.25,0-2.25s-1.45,2.25,0,2.25h0Z"/>
      <path class="cls-7" d="M109.6,59.97v.2c0,.15.03.3.1.43.05.14.12.26.23.36.1.11.22.19.36.23.13.07.28.1.43.1l.3-.04c.19-.05.36-.15.5-.29l.18-.23c.1-.18.15-.36.15-.57v-.2c0-.15-.03-.3-.1-.43-.05-.14-.12-.26-.23-.36-.1-.11-.22-.19-.36-.23-.13-.07-.28-.1-.43-.1l-.3.04c-.19.05-.36.15-.5.29l-.18.23c-.1.18-.15.36-.15.57h0Z"/>
      <path class="cls-7" d="M111.84,66.09c.76,2.61,1.41,5.59-.19,7.91-.35.5-.09,1.25.4,1.54.56.33,1.19.1,1.54-.4,1.97-2.83,1.32-6.55.42-9.64-.41-1.39-2.58-.8-2.17.6h0Z"/>
      <path class="cls-7" d="M125.52,52.49v.12c0,.15.03.3.1.43.05.14.12.26.23.36.1.11.22.19.36.23.13.07.28.1.43.1l.3-.04c.19-.05.36-.15.5-.29l.18-.23c.1-.18.15-.36.15-.57v-.12c0-.15-.03-.3-.1-.43-.05-.14-.12-.26-.23-.36-.1-.11-.22-.19-.36-.23-.13-.07-.28-.1-.43-.1l-.3.04c-.19.05-.36.15-.5.29l-.18.23c-.1.18-.15.36-.15.57h0Z"/>
      <path class="cls-7" d="M124.08,55.93c-.06.41-.15.82-.26,1.22-.06.2-.12.4-.19.6-.04.1-.07.2-.11.29-.02.05-.04.1-.06.15.06-.14.07-.17.04-.09-.17.37-.35.73-.55,1.08-.11.18-.22.35-.34.53-.06.09-.12.17-.18.25-.03.04-.06.08-.09.13.1-.12.11-.14.03-.04-.19.24-.33.47-.33.8,0,.28.12.61.33.8.41.37,1.2.49,1.59,0,1.18-1.48,2.01-3.22,2.3-5.1.05-.31.05-.59-.11-.87-.14-.23-.4-.46-.67-.52-.54-.12-1.29.16-1.38.79h0Z"/>
      <path class="cls-7" d="M69.01,75.85c1.26,1.05,2.53,2.14,4.01,2.88,1.57.78,3.22,1.14,4.96.9.6-.08.93-.85.79-1.38-.18-.65-.78-.87-1.38-.79-.52.07-1.2,0-1.74-.13-.64-.15-1.18-.37-1.74-.67-1.21-.65-2.26-1.52-3.3-2.39-.47-.39-1.13-.46-1.59,0-.4.4-.47,1.2,0,1.59h0Z"/>
      <path class="cls-7" d="M67.58,72.81c1.45,0,1.45-2.25,0-2.25s-1.45,2.25,0,2.25h0Z"/>
      <path class="cls-7" d="M71.72,55.56l.25.38c.07.13.17.24.29.32.11.1.24.17.38.2.15.05.3.05.45.02.15,0,.29-.05.42-.13l.23-.18c.14-.14.24-.31.29-.5l.04-.3c0-.2-.05-.39-.15-.57l-.25-.38c-.07-.13-.17-.24-.29-.32-.11-.1-.24-.17-.38-.2-.15-.05-.3-.05-.45-.02-.15,0-.29.05-.42.13l-.23.18c-.14.14-.24.31-.29.5l-.04.3c0,.2.05.39.15.57h0Z"/>
      <path class="cls-7" d="M110.07,46.01c.03.25.03.51,0,.76l.04-.3c-.04.26-.11.52-.21.76l.11-.27c-.05.12-.11.23-.17.34-.15.25-.19.59-.11.87.07.26.27.54.52.67.26.14.58.21.87.11s.52-.26.67-.52c.21-.36.38-.76.46-1.17s.13-.84.07-1.26c0-.15-.03-.3-.1-.43-.05-.14-.12-.26-.23-.36-.2-.2-.52-.34-.8-.33s-.59.11-.8.33l-.18.23c-.1.18-.15.36-.15.57h0Z"/>
      <path class="cls-7" d="M103.06,52.86l-.02-.02.23.18c-.08-.06-.14-.13-.2-.2l.18.23c-.07-.09-.12-.19-.17-.29l.11.27c-.05-.11-.08-.23-.09-.35l.04.3c-.01-.12-.02-.24,0-.36l-.04.3c.02-.12.05-.24.1-.35l-.11.27c.04-.09.09-.17.14-.24l-.18.23s.06-.07.09-.1l-1.77-.23c.05.08.09.17.13.26l-.11-.27c.06.16.11.33.13.5l-.04-.3c.02.18.02.37,0,.55l.04-.3c-.03.18-.07.36-.14.53l.11-.27c-.03.08-.07.16-.12.23-.15.25-.19.59-.11.87.07.26.27.54.52.67.26.14.58.21.87.11s.52-.26.67-.52c.57-.97.57-2.23,0-3.2-.36-.61-1.26-.76-1.77-.23-.26.28-.44.59-.56.95-.09.27-.13.57-.1.85.04.39.11.71.3,1.07s.45.59.75.81c.22.16.61.18.87.11s.54-.27.67-.52c.14-.26.21-.58.11-.87l-.11-.27c-.1-.17-.23-.3-.4-.4h0Z"/>
      <path class="cls-7" d="M52.75,93.46s0,0-.01,0l.3.04s0,0,0,0l.27.11s0,0,0,0l.23.18s0,0,0,0l.18.23s0,0,0-.01l.11.27s0-.01,0-.02l.04.3s0-.01,0-.02l-.04.3s0,0,0-.01l-.11.27s0,0,0,0l-.18.23s0,0,0,0l-.23.18s0,0,0,0l-.27.11s0,0,.01,0l-.3.04s0,0,.01,0l-.3-.04s0,0,0,0l-.27-.11s0,0,0,0l-.23-.18s0,0,0,0l-.18-.23s0,0,0,.01l-.11-.27s0,.01,0,.02l-.04-.3s0,.01,0,.02l.04-.3s0,0,0,.01l.11-.27s0,0,0,0l.18-.23s0,0,0,0l.23-.18s0,0,0,0l.27-.11s0,0-.01,0c-.15.03-.27.1-.38.2-.12.08-.22.18-.29.32-.08.13-.13.27-.13.42-.03.15-.03.3.02.45l.11.27c.1.17.23.3.4.4l.27.11c.2.05.4.05.6,0,0,0,0,0,0,0,.09-.03.19-.07.27-.12s.17-.11.24-.19c.18-.2.21-.25.3-.51,0,0,0,0,0,0,.02-.1.03-.21.04-.31,0,0,0-.01,0-.02,0-.1-.02-.21-.04-.31,0,0,0,0,0,0-.07-.2-.14-.37-.31-.52s-.29-.23-.51-.3c-.1-.03-.21-.04-.31-.04h0c-.05,0-.1.01-.15.02l-.15.02s0,0,0,0c-.05.01-.14.06-.14.06-.17.07-.22.08-.37.24-.13.13-.26.34-.3.52-.05.24-.06.38,0,.63,0,0,0,0,0,0,0,.02.11.25.11.27,0,0,0,0,0,0,.05.09.11.17.19.24.15.15.3.23.51.3,0,0,0,0,0,0h0c.1.02.2.03.3.04,0,0,0,0,.01,0,.15,0,.3-.03.43-.1.14-.05.26-.12.36-.23.11-.1.19-.22.23-.36.07-.13.1-.28.1-.43l-.04-.3c-.05-.19-.15-.36-.29-.5l-.23-.18c-.18-.1-.36-.15-.57-.15h0Z"/>
      <path class="cls-7" d="M53.84,99.39c1.17,2.31,1.71,4.86,1.65,7.44-.01.61.53,1.12,1.12,1.12s1.11-.52,1.12-1.12c.07-2.98-.62-5.92-1.96-8.57-.27-.54-1.04-.7-1.54-.4-.55.32-.68.99-.4,1.54h0Z"/>
      <path class="cls-7" d="M55.25,111.31c1.45,0,1.45-2.25,0-2.25s-1.45,2.25,0,2.25h0Z"/>
      <path class="cls-7" d="M43.84,109.53c1.25.74,2.53,1.42,3.84,2.04.28.13.56.2.87.11.26-.07.54-.27.67-.52.26-.5.17-1.27-.4-1.54-1.31-.61-2.6-1.29-3.84-2.04-.51-.3-1.26-.13-1.54.4s-.14,1.22.4,1.54h0Z"/>
      <path class="cls-7" d="M133.72,98.63l.06.06c.1.11.22.19.36.23.13.07.28.1.43.1.15,0,.3-.03.43-.1.14-.05.26-.12.36-.23l.18-.23c.1-.18.15-.36.15-.57l-.04-.3c-.05-.19-.15-.36-.29-.5l-.06-.06c-.1-.11-.22-.19-.36-.23-.13-.07-.28-.1-.43-.1-.15,0-.3.03-.43.1-.14.05-.26.12-.36.23l-.18.23c-.1.18-.15.36-.15.57l.04.3c.05.19.15.36.29.5h0Z"/>
      <path class="cls-7" d="M135.28,103.4c.62,1.44,1.66,2.64,2.93,3.55.22.16.61.18.87.11s.54-.27.67-.52c.14-.26.21-.58.11-.87s-.27-.49-.52-.67c-.08-.06-.16-.12-.25-.18l.23.18c-.5-.39-.94-.84-1.33-1.33l.18.23c-.38-.5-.7-1.05-.95-1.62-.1-.24-.43-.45-.67-.52-.27-.07-.63-.04-.87.11s-.45.39-.52.67l-.04.3c0,.2.05.39.15.57h0Z"/>
      <path class="cls-7" d="M142.04,108.53c1.45,0,1.45-2.25,0-2.25s-1.45,2.25,0,2.25h0Z"/>
      <path class="cls-7" d="M150.84,101.5c.09.24.15.48.18.73l-.04-.3c.04.3.04.59,0,.89l.04-.3c-.04.3-.12.58-.23.86l.11-.27c-.06.14-.13.28-.21.42-.3.51-.13,1.26.4,1.54s1.22.14,1.54-.4c.66-1.11.83-2.55.37-3.76-.11-.28-.25-.52-.52-.67-.24-.14-.6-.2-.87-.11s-.53.26-.67.52-.22.59-.11.87h0Z"/>
      <path class="cls-7" d="M162.27,105.53v-.06c.06-.15.06-.3.03-.45,0-.15-.05-.29-.13-.42-.07-.13-.17-.24-.29-.32-.11-.1-.24-.17-.38-.2l-.3-.04c-.2,0-.39.05-.57.15l-.23.18c-.14.14-.24.31-.29.5v.06c-.06.15-.06.3-.03.45,0,.15.05.29.13.42.07.13.17.24.29.32.11.1.24.17.38.2l.3.04c.2,0,.39-.05.57-.15l.23-.18c.14-.14.24-.31.29-.5h0Z"/>
      <path class="cls-7" d="M164.99,102.44c.94-1.21,1.63-2.6,2.09-4.07.18-.56-.21-1.25-.79-1.38-.61-.14-1.2.18-1.38.79-.12.38-.26.75-.41,1.12l.11-.27c-.41.96-.93,1.86-1.57,2.68-.17.21-.18.62-.11.87.07.26.27.54.52.67.26.14.58.21.87.11s.48-.27.67-.52h0Z"/>
      <path class="cls-7" d="M65.81,153.69c3.65.22,7.31-.01,10.91-.67,3.28-.6,6.85-1.42,9.6-3.42.71-.52,1.06-1.41.58-2.22-.41-.7-1.51-1.1-2.22-.58-2.53,1.84-5.79,2.54-8.82,3.09-3.31.6-6.69.75-10.05.55-2.09-.12-2.08,3.13,0,3.25h0Z"/>
      <path class="cls-7" d="M86,146.06s-.07-.05-.11-.08l.33.25c-.12-.1-.23-.21-.33-.33l.25.33c-.08-.11-.15-.22-.21-.34l.16.39c-.03-.09-.06-.17-.07-.26l.06.43s0-.09,0-.13l-.06.43s.02-.07.03-.1l-.16.39s.03-.06.06-.09l-.25.33s.05-.05.08-.08l-.33.25s.06-.04.09-.05l-.39.16h.05c-.14,0-.29.03-.43.05.04,0,.07,0,.11,0l-.43-.06.05.02-.39-.16s.06.03.09.06l-.33-.25s.06.05.08.08l-.25-.33c.11.14.17.3.24.46l-.16-.39c.25.61.38,1.24.51,1.89.17.87.56,1.68,1.28,2.23.46.35.96.55,1.53.58.96.06,1.77-.66,1.9-1.59.09-.69-.2-1.29-.66-1.79-.24-.26-.55-.45-.83-.67l.33.25c-.12-.09-.23-.19-.33-.31l.25.33c-.05-.07-.09-.13-.12-.21l.16.39c-.02-.06-.03-.11-.05-.17l.06.43c0-.08,0-.14,0-.22l-.06.43c.02-.13.05-.24.09-.36l-.16.39c.08-.19.18-.37.31-.54l-.25.33c.14-.18.29-.34.47-.48l-.33.25c.18-.14.37-.25.58-.34l-.39.16c.06-.02.11-.04.17-.06l-2-2c-.05.2-.1.4-.18.59l.16-.39c-.05.1-.1.2-.17.29l.25-.33c-.05.06-.11.12-.17.17l.33-.25c-.07.05-.13.09-.21.12l.39-.16c-.06.02-.11.03-.17.04l.43-.06c-.06,0-.11,0-.17,0l.43.06s-.08-.02-.11-.03c-.81-.26-1.81.3-2,1.13-.2.89.27,1.72,1.13,2,.82.26,1.74-.04,2.34-.63.46-.45.7-1.07.85-1.68.14-.57,0-1.16-.42-1.58-.39-.39-1.04-.6-1.58-.42-.61.2-1.11.49-1.59.91-.36.32-.69.74-.89,1.18s-.35.84-.35,1.32c0,.43.11.84.32,1.22.29.51.75.82,1.2,1.17l-.33-.25c.14.11.26.22.37.35l-.25-.33c.04.06.07.11.1.17l-.16-.39s.02.07.03.1l-.06-.43v.05c.02-.14.04-.29.06-.43,0,.03,0,.06-.03.09l.42-.72-.03.04.33-.25-.05.03.39-.16-.05.02.43-.06c-.06,0-.11,0-.17,0l.43.06c-.1-.02-.18-.04-.27-.08l.39.16c-.09-.04-.17-.09-.25-.15l.33.25c-.09-.08-.17-.16-.25-.25l.25.33c-.1-.13-.18-.27-.24-.42l.16.39c-.22-.56-.26-1.16-.42-1.74-.08-.29-.18-.58-.3-.86-.19-.46-.36-.91-.74-1.26-.63-.58-1.56-.73-2.32-.3-.62.36-1.02,1.05-1.02,1.77,0,1.05.71,1.92,1.53,2.48.34.23.87.27,1.25.16s.79-.4.97-.75c.43-.82.17-1.71-.58-2.22h0Z"/>
      <path class="cls-7" d="M148.53,140.2c-8.14,9.92-23.02,10.38-33.75,4.6-1.84-.99-3.48,1.81-1.64,2.81,11.91,6.41,28.62,5.94,37.69-5.11,1.32-1.6-.97-3.92-2.3-2.3h0Z"/>
      <path class="cls-7" d="M113.15,144.64c-.59.38-1.08.87-1.46,1.47s-.55,1.28-.63,2l.06.43c.05.21.15.4.29.55.23.29.49.46.84.58.89.31,1.76-.23,2.23-.96.25-.39.43-.85.6-1.27.3-.72.14-1.53-.42-2.09-.32-.31-.74-.47-1.09-.74l.33.25c-.16-.13-.32-.27-.44-.43l.25.33s-.04-.07-.06-.1l.16.39s-.03-.07-.03-.11l.06.43v-.05c-.02.14-.04.29-.06.43v-.05c-.04.13-.1.26-.15.39l.02-.04-.25.33.04-.03-.72.42.06-.02-.43.06h.06c-.14-.02-.29-.04-.43-.06.07.02.13.04.2.07l-.39-.16c.27.12.51.26.75.43l-.33-.25c.08.06.16.13.24.2.52.47,1.34.66,1.97.25.59-.38.97-1.13.75-1.84-.04-.13-.07-.26-.09-.39l.06.43c-.02-.2-.02-.4,0-.6l-.06.43c.03-.2.08-.4.16-.59l-.16.39c.08-.19.18-.36.3-.53l-.25.33c.13-.16.27-.3.43-.43l-.33.25.05-.04-2.45-1.4c0,.17-.01.34-.03.5l.06-.43c-.05.34-.14.66-.27.97l.16-.39c-.03.08-.07.15-.11.23-.2.39-.28.82-.16,1.25.1.38.4.79.75.97.74.39,1.81.23,2.22-.58s.63-1.63.63-2.52c0-.57-.31-1.12-.8-1.4-.46-.27-1.18-.33-1.64,0-.75.54-1.27,1.21-1.57,2.09-.25.72-.25,1.6-.02,2.32l2.72-1.58c-.38-.34-.79-.64-1.25-.86-.51-.24-1.01-.41-1.58-.26s-1.08.63-1.26,1.23c-.24.83.16,1.61.76,2.16.22.2.46.38.71.55.17.11.35.19.52.3l-.33-.25s.07.05.09.08l-.25-.33.03.05-.16-.39.02.05-.06-.43v.06c.03-.14.05-.29.06-.43-.02.11-.06.2-.1.3l.16-.39c-.14.33-.28.69-.5.97l.25-.33s-.06.07-.1.1l.33-.25-.06.03.39-.16-.06.02.43-.06h-.06c.14.02.29.04.43.06l-.06-.02,1.19,1.57v-.07c-.01.14-.03.29-.05.43.03-.24.1-.47.19-.69l-.16.39c.1-.24.24-.47.4-.68l-.25.33c.14-.17.29-.32.45-.46l-.33.25c.08-.06.15-.11.23-.17.71-.46,1.07-1.46.58-2.22-.46-.71-1.46-1.08-2.22-.58h0Z"/>
      <path class="cls-7" d="M11.45,76.85c8.08-1.43,16.49.36,23.37,4.81.58.37,1.5.26,1.97-.25,6.28-6.85,15.23-10.83,24.53-10.86,2.09,0,2.09-3.25,0-3.25-10.11.02-19.99,4.35-26.83,11.81l1.97-.25c-7.64-4.94-16.94-6.72-25.88-5.14-2.06.36-1.18,3.5.86,3.13h0Z"/>
      <path class="cls-7" d="M129.14,63.59c7.38-1.28,15.1.41,21.33,4.54,1.54,1.02,3.03,1.46,4.75.54s3.19-2.13,4.86-3.06c3.37-1.88,6.97-3.33,10.7-4.31,4.37-1.15,9.05-1.86,13.42-.34,1.98.69,2.83-2.45.86-3.13-3.93-1.37-8.13-1.13-12.16-.35s-7.73,2.04-11.35,3.73c-1.78.83-3.5,1.77-5.17,2.81-.79.49-1.54,1.03-2.31,1.54-1,.65-1.38.13-2.31-.47-3.21-2.08-6.84-3.57-10.57-4.38-4.27-.93-8.62-.99-12.91-.25-2.06.36-1.18,3.49.86,3.13h0Z"/>
      <path class="cls-7" d="M154.93,42.94h.23c.15,0,.3-.03.43-.1.14-.05.26-.12.36-.23.11-.1.19-.22.23-.36.07-.13.1-.28.1-.43l-.04-.3c-.05-.19-.15-.36-.29-.5l-.23-.18c-.18-.1-.36-.15-.57-.15h-.23c-.15,0-.3.03-.43.1-.14.05-.26.12-.36.23-.11.1-.19.22-.23.36-.07.13-.1.28-.1.43l.04.3c.05.19.15.36.29.5l.23.18c.18.1.36.15.57.15h0Z"/>
      <path class="cls-7" d="M161.05,45.62c2.48,1.11,4.88,2.41,7.17,3.89.5.32,1.26.12,1.54-.4.3-.56.12-1.2-.4-1.54-2.29-1.48-4.68-2.78-7.17-3.89-.54-.24-1.23-.17-1.54.4-.26.49-.17,1.28.4,1.54h0Z"/>
      <path class="cls-7" d="M172.57,52.55c1.45,0,1.45-2.25,0-2.25s-1.45,2.25,0,2.25h0Z"/>
      <path class="cls-7" d="M20.82,58.49v-.21c0-.15-.03-.3-.1-.43-.05-.14-.12-.26-.23-.36-.1-.11-.22-.19-.36-.23-.13-.07-.28-.1-.43-.1l-.3.04c-.19.05-.36.15-.5.29l-.18.23c-.1.18-.15.36-.15.57v.21c0,.15.03.3.1.43.05.14.12.26.23.36.1.11.22.19.36.23.13.07.28.1.43.1l.3-.04c.19-.05.36-.15.5-.29l.18-.23c.1-.18.15-.36.15-.57h0Z"/>
      <path class="cls-7" d="M25.82,54.34c2.26-2.91,4.98-5.42,8.08-7.4.51-.33.72-1,.4-1.54-.3-.51-1.03-.73-1.54-.4-3.26,2.08-6.16,4.7-8.54,7.75-.37.48-.47,1.12,0,1.59.39.39,1.22.48,1.59,0h0Z"/>
      <path class="cls-7" d="M37.04,44.84c1.45,0,1.45-2.25,0-2.25s-1.45,2.25,0,2.25h0Z"/>
    </g>
  </g>
</svg>